<svg width="168" height="144" viewBox="0 0 168 144" fill="none" xmlns="http://www.w3.org/2000/svg">
<path d="M0.200012 98.5999C0.200012 98.5999 75.2 39.1 167.4 0.899963L130.2 28.2C130.2 28.2 115.6 38.5 112.8 46.4C112.8 46.4 108.7 57 112.3 96.5C112.3 96.5 113.7 105.4 109.9 106.2C109.9 106.2 103.6 106.8 105.2 95.7C105.2 95.7 108.4 51 104.4 50.4C104.4 50.4 99.7 46 90.6 56.9C90.6 56.9 85.5 66.5999 90.2 123.6C90.2 123.6 92.4 143.4 86.6 143.6C86.6 143.6 79.9 144.6 81.5 124.8C81.5 124.8 84.7 74.6 81.5 65.3C81.5 65.3 80.5 59.8 72.6 64.5C72.6 64.5 65.7 69.2 65.3 75C65.3 75 63.1 92.5999 66.3 111.6C66.3 111.6 66.7 114 66.5 116.5C66.4 118.4 65.9 120.3 64.8 121.1C64.4 121.4 61.9 122.9 59.9 121.5C57.8 120.1 56.3 115.6 58.5 103.3C58.5 103.3 63.6 69.3 56.9 72.2C56.9 72.3 46.6 76.0999 0.200012 98.5999Z" fill="#BA1016"/>
</svg>
