<svg width="189" height="121" viewBox="0 0 189 121" fill="none" xmlns="http://www.w3.org/2000/svg">
<path d="M127.2 120.5H156.2C156.2 120.5 158.1 108.9 157.6 96C157.3 86.9 155.7 77.1 151.6 70.2C148.5 65 143.6 57 126 57.2C126 57.2 112.1 55.3 93.5 75.3C93.5 75.3 64.5 109.2 32.5 97.5C32.5 97.5 11.3 90.3 0 79C0 79 19.8 113.6 53.5 114.2C62.3 114.4 75.2 114.8 91.9 101C100.5 93.9 116 80.1 123.8 78.9C123.8 78.9 140.8 76.4 134 94.2C134.1 94.1 126.8 109.4 127.2 120.5ZM176.2 119.6C176.2 119.6 184.7 98.8 187.8 75.9C189.2 65.9 189.5 55.6 187.7 46.4C187.7 46.4 186.4 39.9 182.3 31.8C179.9 27.2 176.6 22.1 172.1 17.3C162.6 7.29996 147.6 -1.00003 124.4 0.999971C118.9 1.49997 104.6 -0.100029 79.7 25.5C70.2 35.3 63.3 50.8 44 52.7C36.4 53.5 17.4 54.1 18.3 34.6C18.7 24.3 39 5.39998 50.4 29.1C50.4 29.1 53.5 1.39997 23.8 10.5C23.8 10.5 0.9 17.4 1 44.9C1 47.4 3.5 82 56.7 78.4C56.7 78.4 68.2 77.5 79.1 70.4C86.6 65.5 97.2 55.6 107.7 45.1C108.7 44.1 138.7 15.4 162.9 48.2C162.8 48.3 182.3 72.5 176.2 119.6Z" fill="#47DFF9"/>
</svg>
