<svg width="186" height="186" viewBox="0 0 186 186" fill="none" xmlns="http://www.w3.org/2000/svg">
<path d="M152.6 142.8C162.4 130.9 168.7 116 170.1 99.7C172.8 97.9 179.7 93.7 185.1 93.3C185.1 93.3 175.5 90.7 170 85.8C168.4 69.6 161.9 54.9 152 43.1C152.6 40 154.5 32.1 158.1 27.9C158.1 27.9 149.4 32.8 142.1 33.3C130.2 23.5 115.4 17.2 99.2 15.9C97.4 13.2 93.2 6.29996 92.8 0.899963C92.8 0.899963 90.2 10.4 85.3 16C69 17.5 54.2 24.1 42.5 34C39.3 33.3 31.6 31.4 27.5 28C27.5 28 32.3 36.5 32.9 43.8C23 55.7 16.6 70.6999 15.2 87.0999C12.4 88.9999 5.70002 92.9 0.400024 93.4C0.400024 93.4 9.70001 95.9 15.2 100.7C16.7 117.1 23.3 132.1 33.4 144C32.7 147.3 30.8 154.8 27.4 158.8C27.4 158.8 36.3 152.1 44 154.2L43.9 154.1C43.9 153.9 43.9 153.7 43.9 153.4C43.8 151.7 26.2 127.3 54.4 130.9C62.6 132 77 135.2 77.6 154.6C77.7 158 76.9 166.2 72.1 167.3C72.1 167.3 71.1 167.6 69.5 167.8C74.9 169.5 80.6 170.6 86.5 171.1C88.4 173.9 92.3 180.6 92.8 185.8C92.8 185.8 95.3 176.5 100.1 170.9C105.6 170.4 110.8 169.3 115.9 167.7C114.4 167.4 113.4 167.2 113.4 167.2C108.6 166.1 107.8 158 107.9 154.5C108.6 135.2 122.9 131.9 131.1 130.8C159.3 127.2 141.6 151.5 141.6 153.3C141.6 153.5 141.6 153.6 141.6 153.8L141.5 153.9C141.5 153.9 141.5 153.9 141.6 153.9C142.7 153.9 153.1 154.4 158.1 158.7C157.9 158.6 153.1 150.1 152.6 142.8ZM55.1 124.8C36.8 124.8 22.1 110 22.1 91.8C22.1 73.6 36.9 58.8 55.1 58.8C73.3 58.8 88.1 73.6 88.1 91.8C88.1 110 73.3 124.8 55.1 124.8ZM130 124.9C111.7 124.9 97 110.1 97 91.9C97 73.6 111.8 58.9 130 58.9C148.2 58.9 163 73.7 163 91.9C163.1 110.1 148.3 124.9 130 124.9Z" fill="black"/>
</svg>
