<svg width="161" height="154" viewBox="0 0 161 154" fill="none" xmlns="http://www.w3.org/2000/svg">
<path d="M77.3 153.3C75.5 149 73.9 144.6 72 140.3C68.9 133.6 64.6 127.8 59.9 122.2C53.9 115.1 47 109.1 39.6 103.6C34 99.5 28.4 95.3 23.1 90.8C13.8 82.8 6.9 72.9 2.9 61.2C1.9 58.3 1.4 55.3 1 52.2C0.600002 49 0.299996 45.8 0.399996 42.6C0.499996 35.9 1.6 29.3 4.5 23.1C8 15.7 13.5 10.3 20.5 6.39997C25.2 3.79997 30.3 2.19997 35.7 1.49997C38.4 1.09997 41.1 0.799962 43.8 0.799962C52.4 0.699962 60.2 3.29997 67.4 7.89997C71 10.2 74.1 13.1 76.7 16.5C77 16.8 77.2 17.3 77.2 17.8C77.2 62.9 77.2 108.1 77.2 153.2C77.2 153.3 77.2 153.3 77.2 153.4C77.2 153.4 77.3 153.4 77.3 153.3ZM84 46.8C84.2 46.6 84.3 46.4 84.5 46.2C88.8 40.4 94.1 35.9 100.8 33C107.6 30.1 114.4 29.7 121.4 32.4C125.4 34 128.7 36.4 130.7 40.4C132.8 44.6 133.1 49 132.6 53.5C132.1 59.4 129.9 64.6 126.2 69.1C123.2 72.9 119.8 76.5 116.6 80.2C111.9 85.6 107 91 102.5 96.5C95 105.8 89.7 116.2 86.9 127.9C85.9 132.1 85 136.4 84.6 140.7C84.4 142.8 84.2 144.9 84.1 146.9C84 149.1 84.1 151.4 84.1 153.6C84.5 152.6 84.8 151.5 85.1 150.5C88.4 141 92.6 131.8 98.5 123.6C103.6 116.5 109.5 110.2 116.8 105.4C120.1 103.2 123.6 101.2 127 99C134.4 94.2 141.1 88.8 146.7 81.9C153.9 73 159.2 63.3 160.3 51.7C160.8 47 161.1 42.3 160.6 37.6C160.1 32.7 158.9 27.9 156.8 23.4C154.8 19 152.2 15 148.7 11.7C145.9 8.99999 142.6 6.89999 139 5.19999C134.2 2.89999 129.2 1.49997 123.9 0.999974C120.7 0.699974 117.5 0.69998 114.4 1.09998C109.9 1.59998 105.6 2.59996 101.4 4.29996C94.9 6.99996 89.4 10.9 84.6 16.1C83.9 16.9 83.6 17.7 83.6 18.7C83.6 27.7 83.6 36.8 83.6 45.8C83.6 46.1 83.6 46.4 83.6 46.7C83.8 46.8 83.9 46.8 84 46.8Z" fill="#BD1864"/>
</svg>
