<svg width="188" height="98" viewBox="0 0 188 98" fill="none" xmlns="http://www.w3.org/2000/svg">
<path d="M0 20C1.1 21.6 1.3 22.3 2.5 23.8C7.8 30.5 14.1 32.5 22.3 30.6C25.3 29.9 28.2 28.8 31.1 27.8C35.2 26.5 39.3 25.5 43.6 26.1C48.3 26.8 51.7 29.3 53.1 33.8C54.2 37.2 55.1 40.8 55.6 44.4C57.2 56.1 63.9 63.4 74.3 68.1C75.1 68.5 76.2 68.9 77.1 69.2C78.4 69.7 79.3 69.9 80.7 70.2C78.4 70.5 75.7 70.8 73.6 70.7C67.9 70.5 63.4 70 57.6 66.5C51.8 63.4 48.3 58.5 46.6 52.1C45.7 48.8 44.9 45.5 43.9 42.3C43.5 41 42.7 39.7 41.9 38.5C40.2 36 37.8 34.8 34.7 34.8C31.6 34.8 28.6 35.7 25.6 36.3C22.9 36.8 20.1 37.4 17.3 37.4C8.59999 37.5 3.09998 34.7 1.09998 26.2C0.599976 24.8 0.3 22.5 0 20ZM55.6 97.1C63.1 93.2 92.8 77 92.8 77V58.6C92.8 58.6 90.2 56.2 89.5 55.5C82 48.8 77.9 40.9 76.5 30.7C75.8 25.2 74.4 19.8 72.1 14.7C69.5 8.80003 65.5 4.3 59.4 2.1C54.5 0.299997 49.5 0.600046 44.5 1.90005C38.4 3.60005 33 6.7 27.8 10.1C24.9 12 22.1 13.8 18.8 14.9C16.8 15.6 14.8 15.8 12.7 15.3C8.80001 14.4 7.19998 9.60002 9.59998 6.50002C11.4 4.10002 15.5 3.9 18 6.1C18.1 6.2 18.3 6.40002 18.4 6.50002C18.5 6.60002 18.7 6.70002 19 7.00002C18.3 4.50002 17.2 2.70003 15 1.70003C11.2 3.37958e-05 4.4 0.999997 2 6.6C-1.4 14.6 3.30002 23.4 11.9 24.8C16.6 25.6 21.2 24.9 25.7 23.7C30.2 22.5 34.7 21 39.4 20.4C47.7 19.3 53.9 22.7 56.6 30.2C57.8 33.6 58.6 37.2 59.3 40.8C60.1 44.9 61 49 62.9 52.7C65.9 58.5 70.8 62.4 76.4 65.4C79.9 67.2 83.6 68.2 87.2 69.9C76.2 79.6 67 87.5 55.6 97.1ZM27.3 56.4C28.7 57.7 29 59.2 28.2 60.4C27.5 61.5 25.6 61.9 24 61.3C22 60.5 20.8 58.7 20.9 56.3C20.9 54 22.2 52.1 24.3 51.4C27.2 50.4 30 51.2 31.9 53.6C32.8 54.7 33.5 56.1 34.1 57.4C34.9 59 35.5 60.8 36.2 62.4C38.5 67.7 41.4 72.6 46.2 76.1C52.8 81 59.4 83 67.5 82.8C67.7 82.8 68.9 82.8 68.9 82.8C68.9 82.8 69.8 82 70 81.8C73 79.2 79.4 73.3 79.7 73.2C77.9 73.5 75.7 73.7 74 73.8C68.3 74.2 62.9 74.1 57.4 72.4C50 70.1 44.7 65.6 42 58.2C41.5 56.8 40.9 55.5 40.3 54.2C38.4 50.5 36.4 46.9 32.3 45.2C28.3 43.5 24.3 43.3 20.4 45.2C15.6 47.6 13.6 52.3 14.6 57.6C15.7 63.1 20.5 66.7 25.7 65.8C28 65.4 29.9 64.3 30.8 62C31.9 59 30.1 56.2 27 56.1C27.1 56.2 27.2 56.3 27.3 56.4ZM188 20C186.9 21.6 186.7 22.3 185.5 23.8C180.2 30.5 173.9 32.5 165.7 30.6C162.7 29.9 159.8 28.8 156.9 27.8C152.8 26.5 148.7 25.5 144.4 26.1C139.7 26.8 136.3 29.3 134.9 33.8C133.8 37.2 132.9 40.8 132.4 44.4C130.8 56.1 124.1 63.4 113.7 68.1C112.9 68.5 111.8 68.9 110.9 69.2C109.6 69.7 108.7 69.9 107.3 70.2C109.6 70.5 112.3 70.8 114.4 70.7C120.1 70.5 124.6 70 130.4 66.5C136.2 63.4 139.7 58.5 141.4 52.1C142.3 48.8 143.1 45.5 144.1 42.3C144.5 41 145.3 39.7 146.1 38.5C147.8 36 150.2 34.8 153.3 34.8C156.4 34.8 159.4 35.7 162.4 36.3C165.1 36.8 167.9 37.4 170.7 37.4C179.4 37.5 184.9 34.7 186.9 26.2C187.3 24.8 187.7 22.5 188 20ZM100.5 70C104.1 68.3 107.8 67.3 111.3 65.5C116.9 62.5 121.7 58.6 124.8 52.8C126.8 49.1 127.6 45 128.4 40.9C129.1 37.3 129.9 33.7 131.1 30.3C133.8 22.8 140.1 19.4 148.3 20.5C153 21.1 157.5 22.6 162 23.8C166.5 25 171.1 25.7 175.8 24.9C184.4 23.5 189.1 14.7 185.7 6.70003C183.3 1.10003 176.5 0.100009 172.7 1.80001C170.5 2.80001 169.4 4.6 168.7 7.1C169 6.9 169.2 6.7 169.3 6.6C169.4 6.5 169.6 6.30003 169.7 6.20003C172.2 4.00003 176.3 4.1 178.1 6.6C180.5 9.8 178.9 14.5 175 15.4C172.9 15.9 170.9 15.6 168.9 15C165.6 13.9 162.8 12 159.9 10.2C154.7 6.80003 149.3 3.70002 143.2 2.00002C138.2 0.600022 133.2 0.400034 128.3 2.20003C122.2 4.40003 118.2 8.90001 115.6 14.8C113.3 19.9 112 25.3 111.2 30.8C109.9 41 105.7 48.9 98.2 55.6C97.5 56.2 94.9 58.7 94.9 58.7V77C94.9 77 124.6 93.1 132.1 97.1C121 87.4 111.8 79.6 100.5 70ZM161 56C157.9 56 156 58.9 157.2 61.9C158.1 64.2 159.9 65.3 162.3 65.7C167.6 66.6 172.4 63 173.4 57.5C174.4 52.2 172.4 47.5 167.6 45.1C163.8 43.2 159.7 43.5 155.7 45.1C151.6 46.8 149.5 50.4 147.7 54.1C147 55.4 146.5 56.8 146 58.1C143.3 65.5 138.1 70 130.6 72.3C125.1 74 119.7 74.1 114 73.7C112.3 73.6 110.1 73.3 108.3 73.1C108.6 73.2 115 79.1 118 81.7C118.2 81.8 119.1 82.7 119.1 82.7C119.1 82.7 120.3 82.7 120.5 82.7C128.6 82.9 135.2 80.9 141.8 76C146.5 72.5 149.5 67.6 151.8 62.3C152.5 60.6 153.1 58.9 153.9 57.3C154.5 56 155.2 54.7 156.1 53.5C158 51.1 160.9 50.4 163.7 51.3C165.8 52 167.1 53.9 167.1 56.2C167.1 58.6 166 60.4 164 61.2C162.4 61.8 160.5 61.5 159.8 60.3C159 59.1 159.4 57.6 160.7 56.3C160.8 56.3 160.9 56.2 161 56Z" fill="#FDFDFD"/>
</svg>
