<svg width="126" height="165" viewBox="0 0 126 165" fill="none" xmlns="http://www.w3.org/2000/svg">
<path d="M46.6 144.9V164.7H100C100 164.7 106.5 158.6 112.9 148.5C119.3 138.4 125.6 124.4 125 108.6C124.6 97.8 120.4 86.2 111.2 74.3C104.7 65.9 95.8 57.3 84 48.6C59 30.3 67.7 12.6 80.2 12.3C84.2 12.2 91.4 14.6 91.6 21C91.6 22.1 91.8 29.8 79.1 34.4C79.1 34.4 101 33.6 100.6 18.4C100.5 12.8 97.2 0.199982 77.8 0.199982C62.2 0.199982 48 11.6 47.9 28.6C47.8 40.4 60.6 57.2 76 72C78.2 74.1 100.3 95.2 81.6 127.7C81.6 127.8 73.2 142.5 46.6 144.9ZM46.6 137.6V119.1C46.6 119.1 51 118.4 54 116.1C56.1 114.4 57.4 111.9 55.7 108C55.3 107 53.9 105.2 51.4 104.3C50 103.8 48.3 103.6 46.2 104C36.7 106 11.6 116.6 2.29998 97.9C1.29998 95.9 -10.3 70.1 30.7 54.3C30.7 54.3 12.9 63.4 12.8 76.4C12.7 92.1 25.2 91.5 39.6 87.3C45.8 85.5 68.7 80.9 75.1 103.1C75.1 103.2 83.7 133.5 46.6 137.6Z" fill="#72EB34"/>
</svg>
