<svg width="188" height="173" viewBox="0 0 188 173" fill="none" xmlns="http://www.w3.org/2000/svg">
<path d="M54.7 71C62.6 52 86.4 43.9 107.7 52.8C129 61.7 139.8 84.3 131.9 103.3C124 122.3 100.2 130.4 78.9 121.5C57.6 112.6 46.8 90 54.7 71ZM83 45.7C83 45.7 78.5 29.9 88.1 25.4C88.1 25.4 95.4 22.7 91 17.7C91 17.7 81.8 16.9 85.4 9.39998C85.4 9.39998 88.3 3.99999 91.9 3.29999C91.9 3.29999 94 2.49999 94.2 0.799988C94.2 0.799988 96.1 2.09998 92.5 4.99998C92.5 4.99998 87.9 9.79997 96.5 13.3C96.5 13.3 103.2 17.3 100 26.7C100 26.7 99.4 30.2 94.6 32.8C94.6 32.8 91.7 34.9 95.4 36.6C95.4 36.6 98.9 38.9 98.5 47.7C98.5 47.5 95 44.7 83 45.7ZM105.5 48L114.5 41.1V52.4C114.5 52.4 110.9 49.2 105.5 48ZM118 54.6C118 54.6 121.3 50.6 129.1 46.7C129.1 46.7 134.1 43.6 137 39.6C137 39.6 136.6 44.2 134.1 47.3C134.1 47.3 130.8 52.7 127.4 62.5C127.4 62.6 122.6 56.9 118 54.6ZM134.9 73C134.9 73 134.7 69.2 131.6 66.9C131.6 66.9 134.8 67.8 136.6 65.8C137.1 65.2 137.8 64.8 138.6 64.5C139.7 64.1 141.2 63.8 142.5 64.3C142.5 64.3 138.5 68.1 137.7 70.6C137.8 70.6 135.2 74.8 134.9 73ZM135.6 80.7C135.6 80.7 138.3 85.9 136.2 95.5C136.2 95.5 147.4 99.2 153.6 90.8C153.6 90.8 158 83.1 162.8 87.7C162.8 87.7 169.3 92 174 87.6C174.5 87.2 174.9 86.6 175.1 86C176.1 83.8 179.6 77.3 187.3 80.6C187.3 80.6 183.7 74.7 176.7 77.6C176.1 77.9 175.5 78.3 175.1 78.8C173.5 80.6 168.9 85.1 165.9 79.8C165.9 79.8 160.2 71.1 152.2 78.7C151.8 79.1 151.5 79.5 151.2 79.9C150.2 81.7 146.2 86.6 135.6 80.7ZM136.1 100.7C136.1 100.7 140.6 108.1 145 110.6C145 110.6 137.4 109.7 131.5 110.5C131.5 110.5 135.8 106.4 136.1 100.7ZM121.8 120.6C121.8 120.6 127.6 116.6 129.7 112.3C129.7 112.3 138.3 126.1 142.6 133.4C142.6 133.4 138.5 128.9 132.9 126.8C133 126.7 122.5 122.6 121.8 120.6ZM119.7 135.6V121.8L110.1 126.8L119.7 135.6ZM89.9 127.5C89.9 127.5 93.9 129.6 104.7 127.5C104.7 127.5 106.7 136.2 107.9 136.8C107.9 136.8 112.1 144.3 106.6 146.4C106.6 146.4 98.5 151.6 106 158.9C106 158.9 108.5 164.3 98.7 172.3C98.7 172.3 105 162.7 99.5 159.4C99.5 159.4 85.9 156.1 89.3 146.5C89.3 146.5 90.1 143.2 95.8 143.8C95.8 143.8 98.5 141.9 95 138C95 137.8 90.6 136.3 89.9 127.5ZM74.9 124.1C74.9 124.1 74.9 126 83.9 127.4C83.9 127.4 77.7 132.7 74.8 136.5C74.7 136.5 74.1 124.6 74.9 124.1ZM60.7 113.9C60.7 113.9 68.2 121.2 71.8 121.8C71.8 121.8 57.3 129.2 51 135.5C51 135.5 51.2 132.2 54.5 128.6C54.5 128.6 61.8 116.7 60.7 113.9ZM52.7 103.1C52.7 103.1 56.5 110.2 57.9 110.6C57.9 110.6 48 110.5 45.3 113.8C45.3 113.8 46.4 110.3 48.5 109.2C48.9 109 49.2 108.7 49.6 108.4C50.7 107.3 52.7 105.1 52.7 103.1ZM52.7 98.7C52.7 98.7 48.5 93.3 50.2 86C50.2 86 46.4 84.3 43.3 86.6C43.3 86.6 38.8 89.3 35.2 85.8C34.8 85.4 34.3 85.1 33.8 84.8C31.5 83.7 25.8 81.9 22.7 88.5C22.7 88.5 19.9 99.2 15.7 91.9C15.7 91.9 11.5 84.8 0.5 97.1C0.5 97.1 11.8 89.6 13 96.3C13 96.3 13.6 98.5 15.2 100.1C17.2 102.2 20.6 102.1 22.5 99.9C25.2 96.9 31.7 90.5 34.7 96.4C35 97.1 35.5 97.7 36.1 98.2C38 99.9 42.7 102.1 52.7 98.7ZM48.6 77C48.6 77 50.7 70.5 53.6 68.9C53.6 68.9 46.1 68.3 43.8 69.5C43.8 69.5 41.6 70 39.9 69.4C39.9 69.4 40.1 71.5 41.8 71.5C41.8 71.4 45.5 73.1 48.6 77ZM54.4 62.6C54.4 62.6 57.3 55.7 63.6 54.5C63.6 54.5 63.6 52.4 55.3 47.4C55.3 47.4 47.8 44.9 42.6 39.1C42.6 39.1 49.2 50.7 50.4 55.1C50.3 55 52.8 62.5 54.4 62.6ZM68.7 51.8C68.7 51.8 73.2 46.9 79.9 46.7L67.7 37C67.7 37 70.1 43.8 68.7 51.8Z" fill="#F6FA4E"/>
</svg>
