<svg width="166" height="160" viewBox="0 0 166 160" fill="none" xmlns="http://www.w3.org/2000/svg">
<path d="M162.2 93.1C162.3 103.8 164.1 118.7 151 129.7C148.6 131.7 144.9 131 144.4 130.1C142.3 126.6 146.3 115.5 141.9 108.2C140.2 105.4 138.3 105.4 135.7 104.1C137.1 99.2 137.8 94 137.8 88.7C137.8 60.9 118 37.7 91.8 32.4C91.5 32.3 91.2 31.4 91.2 30.3C91.2 22.8 104.5 26.7 104.5 15.3C104.5 7.29999 91.1 0.799988 74.6 0.799988C56 0.799988 45.6 10.6 40.9 17C46.2 12.5 55.4 5.20001 70 5.20001C78.4 5.20001 85.3 10.1 85.3 12.5C85.3 18.4 68.1 18.2 68.1 28.1C68.1 30.5 68.5 32.5 69 32.5C42.8 37.8 23 61 23 88.8C23 96 24.3 103 26.8 109.4C26.8 110.8 25.5 111.9 23.9 111.9C19 111.9 16.4 103.7 7.09998 103.7C3.19998 103.7 0.0999756 107.8 0.0999756 112.9C0.0999756 140.2 22 159.3 37.9 159.3C24.2 154.1 11.7 145.9 11.7 129.2C11.7 126.1 12.5 123.5 13.5 123.5C17.5 123.5 24.2 134 32.7 134C36 134 38.7 132.4 41.1 130.7C51.4 140.3 65.2 146.2 80.3 146.2C98.4 146.2 114.6 137.8 125.1 124.7V124.8C126.3 124.1 127.5 125.4 128.3 126.7C130.8 130.9 123.6 139.3 128.4 147.3C130.4 150.6 138.1 150.3 142.5 147.7C165.9 133.6 169.3 105 162.2 93.1Z" fill="#06FFC9"/>
</svg>
