<svg width="169" height="141" viewBox="0 0 169 141" fill="none" xmlns="http://www.w3.org/2000/svg">
<path d="M12.2 0.299957L21.9 34.2C21.9 34.2 32.9 33.8 44.5 37.3C55.2 40.6 66.5 47.1 70.3 60.4C70.3 60.4 76.9 77.9999 63.1 78.0999C59.4 78.0999 53.3 75 53.3 70.2C53.3 68.1 54.8 66.9 57.5 66.7C59.8 66.6 62.1 68.2 65.8 71.9C65.8 71.9 64.3 63.4 56.1 63.4C53.6 63.4 49.1 64.1 49.1 68.7C49.1 72.8 50.4 82.9 64.5 82.9C71 82.9 79.2 80.6 79.2 58.5C79 52.9 79.7 7.89996 12.2 0.299957ZM147.5 46C140.8 46 136.1 49.8 136.1 53.4C136.1 58.6 141.6 60.6 141.8 60.7C139.6 58.7 139.4 55.3999 139.4 54.5999C139.4 52.1999 142.5 50.1 144.7 50.2C149.2 50.4 155.1 54.8 155 61C154.7 72.7 150.7 79.9999 144.8 86.5999C139.1 92.8999 127.9 97.5999 120.9 97.5999C108.2 97.5999 99.7 84 84.3 83.9C68.9 84 60.3 97.5999 47.7 97.5999C40.7 97.5999 29.5 92.8999 23.8 86.5999C17.8 79.9999 13.8 72.8 13.6 61C13.5 54.7 19.4 50.3 23.9 50.2C26.1 50.1 29.2 52.1999 29.2 54.5999C29.2 55.2999 29.1 58.7 26.8 60.7C27 60.6 32.5 58.6 32.5 53.4C32.5 49.8 27.7 46 21.1 46C12.4 46 0.200012 52.3999 0.200012 74.0999C0.200012 86.2999 8.00001 108.9 34.2 119.2C44.4 123.2 56.8 126.1 56.4 140.2L84.4 140.1L112.4 140.2C112 126.1 124.4 123.3 134.6 119.2C160.8 108.8 168.6 86.2999 168.6 74.0999C168.4 52.3999 156.2 46 147.5 46ZM84.2 110.1C83.9 110.1 69.2 109.5 54 116.1C54 116.1 64 96.3 84.2 96.3C104.3 96.3 114.4 116.1 114.4 116.1C99.2 109.6 84.5 110.1 84.2 110.1ZM89.4 58.5999C89.4 80.6999 97.6 83 104.1 83C118.2 83 119.5 73 119.5 68.8C119.5 64.2 115 63.5 112.5 63.5C104.3 63.5 102.8 72 102.8 72C106.4 68.3 108.8 66.7 111.1 66.8C113.9 66.9 115.3 68.2 115.3 70.3C115.3 75.1 109.2 78.2 105.5 78.2C91.7 78.1 98.3 60.5 98.3 60.5C102.2 46.8 114.1 40.2 125.1 37.1C136.3 33.9 146.7 34.3 146.7 34.3L156.4 0.399963C88.7 7.89996 89.4 52.8999 89.4 58.5999Z" fill="#9C4DAD"/>
</svg>
