<svg width="170" height="172" viewBox="0 0 170 172" fill="none" xmlns="http://www.w3.org/2000/svg">
<path d="M85.5 83.4C85.4 83.4 85.2 83.3 85.1 83.3C84.1 81.2 72.2 55.2 105.4 41.9C105.4 41.9 141.1 22.3 169.6 66.4C169.6 66.4 158.4 17.7 111.1 26.6C111.1 26.6 56.7 42.5 83 84.1C82.9 84.2 82.8 84.3 82.7 84.4C80.3 84.2 51.9 81.6 57 46.2C57 46.2 57.9 5.5 110.3 2.9C110.3 2.9 62.5 -11.7 46.6 33.6C46.6 33.6 33.2 88.7 82.3 86.7C82.3 86.8 82.4 87 82.4 87.1C81.1 89.1 64.5 112.3 36.4 90.2C36.4 90.2 1.6 69.1 25.5 22.4C25.5 22.4 -11 56.5 20.3 92.9C20.3 92.9 61.3 132 84.1 88.5C84.2 88.5 84.4 88.6 84.5 88.6C85.5 90.7 97.4 116.7 64.2 130C64.2 130 28.5 149.6 0 105.5C0 105.5 11.2 154.2 58.5 145.3C58.5 145.3 112.9 129.4 86.6 87.8C86.7 87.7 86.8 87.6 86.9 87.5C89.3 87.7 117.7 90.3 112.6 125.7C112.6 125.7 111.7 166.4 59.3 169C59.3 169 107.1 183.6 123 138.3C123 138.3 136.4 83.2 87.3 85.2C87.3 85.1 87.2 84.9 87.2 84.8C88.5 82.8 105.1 59.6 133.2 81.7C133.2 81.7 168 102.8 144.1 149.5C144.1 149.5 180.6 115.4 149.3 79C149.4 79 108.4 39.9 85.5 83.4Z" fill="white"/>
</svg>
