<svg width="164" height="167" viewBox="0 0 164 167" fill="none" xmlns="http://www.w3.org/2000/svg">
<path d="M160.5 112.3L164 101.6L145.8 90.7C146.1 88.3 146.2 85.9 146.2 83.5C146.2 79.7 145.9 75.9 145.2 72.3L162.5 60.9L159 50.2L137.8 52C134.7 46.6 130.9 41.7 126.5 37.5L133.8 18.1L124.7 11.5L108.7 25.4C103.2 22.9 97.2 21.1 91 20.3L85.5 0.299988H74.3L69.5 21C63.4 22.2 57.5 24.4 52.2 27.2L36 14.2L26.9 20.8L35.2 40.4C31.1 44.9 27.6 50 24.9 55.6L4.20001 54.7L0.700012 65.4L18.9 76.3C18.6 78.7 18.5 81.1 18.5 83.5C18.5 87.3 18.8 91.1 19.5 94.7L2.20001 106.1L5.70001 116.8L26.9 115C30 120.4 33.8 125.3 38.2 129.5L30.9 148.9L40 155.5L56 141.6C61.5 144.1 67.5 145.9 73.7 146.7L79.2 166.7H90.4L95.2 146C101.3 144.8 107.2 142.6 112.5 139.8L128.7 152.7L137.8 146.1L129.5 126.5C133.6 122 137.1 116.9 139.8 111.3L160.5 112.3Z" fill="#FF2106"/>
</svg>
