<svg width="180" height="172" viewBox="0 0 180 172" fill="none" xmlns="http://www.w3.org/2000/svg">
<path d="M59.6 118.1C24 139.3 -1.2 118.9 0.999997 87C12.4 112.2 30.3 119.4 59.6 118.1ZM46.6 162.6C72.9 180.9 103.3 169.7 103.4 128.3C89.5 154.1 74.1 165.8 46.6 162.6ZM141.1 162.3C168.9 146.4 171.8 114.1 134.4 96.3C151.8 119.9 155.7 138.8 141.1 162.3ZM179.7 84C180.7 52 154.8 32.6 120 55.1C149.2 52.7 167.4 59.2 179.7 84ZM45.6 8.7C16.6 22.3 11.1 54.2 46.9 75C31.5 50 29.1 30.9 45.6 8.7ZM134.2 8.79997C107.7 -9.20003 77.4 2.50001 77.9 43.9C91.4 17.9 106.6 5.99997 134.2 8.79997Z" fill="#001957"/>
</svg>
