<?xml version="1.0" encoding="UTF-8" standalone="no"?>
<!-- Created with Inkscape (http://www.inkscape.org/) -->

<svg
   xmlns:dc="http://purl.org/dc/elements/1.1/"
   xmlns:cc="http://creativecommons.org/ns#"
   xmlns:rdf="http://www.w3.org/1999/02/22-rdf-syntax-ns#"
   xmlns:svg="http://www.w3.org/2000/svg"
   xmlns="http://www.w3.org/2000/svg"
   xmlns:sodipodi="http://sodipodi.sourceforge.net/DTD/sodipodi-0.dtd"
   xmlns:inkscape="http://www.inkscape.org/namespaces/inkscape"
   width="300"
   height="300"
   viewBox="0 0 79.375 79.375"
   version="1.1"
   id="svg8"
   inkscape:version="0.92.2 (5c3e80d, 2017-08-06)"
   sodipodi:docname="Arcen.svg"
   inkscape:export-filename="C:\Users\irock\Desktop\Stuff\Images\Homestuck\ezodiac\01 Rust\Derse\Arcen.png"
   inkscape:export-xdpi="320"
   inkscape:export-ydpi="320">
  <title
     id="title4591">Arcen</title>
  <defs
     id="defs2" />
  <sodipodi:namedview
     id="base"
     pagecolor="#ffffff"
     bordercolor="#000000"
     borderopacity="1"
     inkscape:pageopacity="0"
     inkscape:pageshadow="2"
     inkscape:zoom="2.5966667"
     inkscape:cx="142.56843"
     inkscape:cy="152.67237"
     inkscape:document-units="px"
     inkscape:current-layer="layer1"
     showgrid="false"
     inkscape:window-width="1259"
     inkscape:window-height="1008"
     inkscape:window-x="652"
     inkscape:window-y="0"
     inkscape:window-maximized="0"
     units="px"
     inkscape:pagecheckerboard="true"
     inkscape:showpageshadow="false" />
  <metadata
     id="metadata5">
    <rdf:RDF>
      <cc:Work
         rdf:about="">
        <dc:format>image/svg+xml</dc:format>
        <dc:type
           rdf:resource="http://purl.org/dc/dcmitype/StillImage" />
        <dc:title>Arcen</dc:title>
      </cc:Work>
    </rdf:RDF>
  </metadata>
  <g
     inkscape:label="Layer 1"
     inkscape:groupmode="layer"
     id="layer1"
     transform="translate(-64.860406,-94.616554)">
    <path
       style="color:#000000;font-style:normal;font-variant:normal;font-weight:normal;font-stretch:normal;font-size:medium;line-height:normal;font-family:sans-serif;font-variant-ligatures:normal;font-variant-position:normal;font-variant-caps:normal;font-variant-numeric:normal;font-variant-alternates:normal;font-feature-settings:normal;text-indent:0;text-align:start;text-decoration:none;text-decoration-line:none;text-decoration-style:solid;text-decoration-color:#000000;letter-spacing:normal;word-spacing:normal;text-transform:none;writing-mode:lr-tb;direction:ltr;text-orientation:mixed;dominant-baseline:auto;baseline-shift:baseline;text-anchor:start;white-space:normal;shape-padding:0;clip-rule:nonzero;display:inline;overflow:visible;visibility:visible;opacity:1;isolation:auto;mix-blend-mode:normal;color-interpolation:sRGB;color-interpolation-filters:linearRGB;solid-color:#000000;solid-opacity:1;vector-effect:none;fill:#a20000;fill-opacity:1;fill-rule:nonzero;stroke:none;stroke-width:4.68170595;stroke-linecap:butt;stroke-linejoin:miter;stroke-miterlimit:4;stroke-dasharray:none;stroke-dashoffset:0;stroke-opacity:1;color-rendering:auto;image-rendering:auto;shape-rendering:auto;text-rendering:auto;enable-background:accumulate"
       d="m 79.733143,109.27581 c -6.552039,-0.11601 -10.899768,4.91705 -9.559623,14.74793 l 4.903577,0.19896 c 0,0 -0.400697,-1.39742 -0.467155,-3.77187 -0.129775,-4.63664 2.901464,-6.54635 4.81521,-6.4456 2.356127,0.12404 4.878155,0.78186 4.94285,6.15777 0.05582,4.6388 -2.239525,11.35162 -2.294433,16.65583 -0.115628,11.16955 9.232855,22.83559 22.474081,22.5087 13.24149,0.32721 22.59073,-11.339 22.47511,-22.5087 -0.0549,-5.30421 -2.35075,-12.01703 -2.29495,-16.65583 0.0647,-5.37591 2.58672,-6.03373 4.94285,-6.15777 1.91374,-0.10075 4.94551,1.80896 4.81573,6.4456 -0.0665,2.37445 -0.46767,3.77187 -0.46767,3.77187 l 4.90357,-0.19896 c 1.34014,-9.83088 -3.00758,-14.86394 -9.55962,-14.74793 -8.66203,0.15336 -9.01244,7.32231 -9.2723,10.74508 -0.35821,4.71835 2.35722,13.40428 2.10271,17.108 -0.76745,11.16806 -9.48976,17.58079 -17.24701,17.40462 l -0.001,-0.0403 c -0.13158,0.0108 -0.2646,0.0143 -0.39687,0.0212 -0.13237,-0.007 -0.26521,-0.0104 -0.39688,-0.0212 l -0.001,0.0403 c -7.757369,0.17646 -16.480056,-6.23632 -17.247529,-17.40462 -0.254514,-3.70372 2.461447,-12.38965 2.103231,-17.108 -0.259856,-3.42277 -0.610788,-10.59172 -9.272819,-10.74508 z m 24.775747,14.82596 c -7.066347,0 -12.845725,5.77732 -12.845725,12.84366 0,7.06635 5.779378,12.84573 12.845725,12.84573 7.06634,0 12.84573,-5.77938 12.84573,-12.84573 0,-7.06634 -5.77939,-12.84366 -12.84573,-12.84366 z m 0,4.68189 c 4.53616,0 8.16436,3.6256 8.16436,8.16177 0,4.53616 -3.6282,8.16436 -8.16436,8.16436 -4.536168,0 -8.163841,-3.6282 -8.163841,-8.16436 0,-4.53617 3.627673,-8.16177 8.163841,-8.16177 z"
       id="path2945"
       inkscape:connector-curvature="0" />
  </g>
</svg>
