<?xml version="1.0" encoding="UTF-8" standalone="no"?>
<!-- Created with Inkscape (http://www.inkscape.org/) -->

<svg
   xmlns:dc="http://purl.org/dc/elements/1.1/"
   xmlns:cc="http://creativecommons.org/ns#"
   xmlns:rdf="http://www.w3.org/1999/02/22-rdf-syntax-ns#"
   xmlns:svg="http://www.w3.org/2000/svg"
   xmlns="http://www.w3.org/2000/svg"
   xmlns:sodipodi="http://sodipodi.sourceforge.net/DTD/sodipodi-0.dtd"
   xmlns:inkscape="http://www.inkscape.org/namespaces/inkscape"
   width="300"
   height="300"
   viewBox="0 0 79.375 79.375"
   version="1.1"
   id="svg8"
   inkscape:version="0.92.2 (5c3e80d, 2017-08-06)"
   sodipodi:docname="Ariborn.svg"
   inkscape:export-filename="C:\Users\irock\Desktop\Stuff\Images\Homestuck\ezodiac\01 Rust\Derse\Ariborn.png"
   inkscape:export-xdpi="320"
   inkscape:export-ydpi="320">
  <title
     id="title847">Ariborn</title>
  <defs
     id="defs2" />
  <sodipodi:namedview
     id="base"
     pagecolor="#ffffff"
     bordercolor="#000000"
     borderopacity="1"
     inkscape:pageopacity="0.0"
     inkscape:pageshadow="2"
     inkscape:zoom="1.979899"
     inkscape:cx="132.97805"
     inkscape:cy="115.14157"
     inkscape:document-units="px"
     inkscape:current-layer="layer2"
     showgrid="false"
     inkscape:showpageshadow="false"
     inkscape:pagecheckerboard="true"
     units="px"
     inkscape:window-width="1259"
     inkscape:window-height="1008"
     inkscape:window-x="652"
     inkscape:window-y="0"
     inkscape:window-maximized="0" />
  <metadata
     id="metadata5">
    <rdf:RDF>
      <cc:Work
         rdf:about="">
        <dc:format>image/svg+xml</dc:format>
        <dc:type
           rdf:resource="http://purl.org/dc/dcmitype/StillImage" />
        <dc:title>Ariborn</dc:title>
      </cc:Work>
    </rdf:RDF>
  </metadata>
  <g
     inkscape:groupmode="layer"
     id="layer2"
     inkscape:label="Layer 1">
    <path
       style="color:#000000;font-style:normal;font-variant:normal;font-weight:normal;font-stretch:normal;font-size:medium;line-height:normal;font-family:sans-serif;font-variant-ligatures:normal;font-variant-position:normal;font-variant-caps:normal;font-variant-numeric:normal;font-variant-alternates:normal;font-feature-settings:normal;text-indent:0;text-align:start;text-decoration:none;text-decoration-line:none;text-decoration-style:solid;text-decoration-color:#000000;letter-spacing:normal;word-spacing:normal;text-transform:none;writing-mode:lr-tb;direction:ltr;text-orientation:mixed;dominant-baseline:auto;baseline-shift:baseline;text-anchor:start;white-space:normal;shape-padding:0;clip-rule:nonzero;display:inline;overflow:visible;visibility:visible;opacity:1;isolation:auto;mix-blend-mode:normal;color-interpolation:sRGB;color-interpolation-filters:linearRGB;solid-color:#000000;solid-opacity:1;vector-effect:none;fill:#a20000;fill-opacity:1;fill-rule:nonzero;stroke:none;stroke-width:4.4979167;stroke-linecap:butt;stroke-linejoin:miter;stroke-miterlimit:4;stroke-dasharray:none;stroke-dashoffset:0;stroke-opacity:1;color-rendering:auto;image-rendering:auto;shape-rendering:auto;text-rendering:auto;enable-background:accumulate"
       d="m 22.338947,13.914032 c 1.901716,2.263424 3.927034,4.702956 4.0566,6.1712 0.350102,3.967384 -6.590625,5.081767 -13.90251,5.200716 l 20.837488,12.639539 c -2.312011,1.040156 -6.330707,2.951027 -9.222177,4.398182 -4.695741,2.350169 -7.961403,6.323684 -7.686352,11.612726 0.331377,6.37218 5.618911,11.431056 12.248349,11.514026 3.033979,0.123272 9.578757,-0.707646 9.974582,-9.319328 0.359667,-7.82497 -10.269014,-10.303546 -12.830742,-1.498615 h 4.636411 c 1.370787,-3.000817 3.935682,-0.213847 3.843695,2.220016 -0.0833,2.20396 -1.729777,4.698455 -5.127854,4.690155 -4.288476,-0.01044 -8.188404,-4.069625 -8.079094,-7.509619 0.160454,-5.049549 4.548419,-7.274335 6.472989,-8.474418 3.664034,-2.284744 10.826096,-5.715085 12.126909,-6.492111 1.300286,0.776796 8.463206,4.207254 12.127426,6.492111 1.924571,1.200083 6.312535,3.424869 6.472989,8.474418 0.10931,3.439994 -3.790619,7.499181 -8.079094,7.509619 -3.398076,0.0083 -5.044548,-2.486197 -5.127853,-4.690155 -0.09199,-2.433863 2.472907,-5.220833 3.843695,-2.220016 h 4.636407 c -2.561725,-8.804931 -13.190405,-6.326355 -12.830741,1.498615 0.395825,8.611682 6.940603,9.4426 9.974585,9.319328 6.629437,-0.08297 11.916971,-5.141846 12.248349,-11.514026 0.27505,-5.289042 -2.990612,-9.262557 -7.686353,-11.612726 -2.891469,-1.447155 -6.910165,-3.358026 -9.222176,-4.398182 L 66.881963,25.285948 c -7.311885,-0.11895 -14.252611,-1.233333 -13.902509,-5.200716 0.129566,-1.468245 2.154883,-3.907776 4.056599,-6.1712 l -6.138126,1.29e-4 c -4.168032,4.955587 -4.39891,11.393601 2.132686,14.637737 L 39.687758,36.656831 26.344387,28.551897 c 6.531597,-3.244137 6.300719,-9.682149 2.132687,-14.637736 z"
       id="path22"
       inkscape:connector-curvature="0"
       sodipodi:nodetypes="cscccscsccscsscssccccscscccsccccccc" />
  </g>
</svg>
