<?xml version="1.0" encoding="UTF-8" standalone="no"?>
<!-- Created with Inkscape (http://www.inkscape.org/) -->

<svg
   xmlns:dc="http://purl.org/dc/elements/1.1/"
   xmlns:cc="http://creativecommons.org/ns#"
   xmlns:rdf="http://www.w3.org/1999/02/22-rdf-syntax-ns#"
   xmlns:svg="http://www.w3.org/2000/svg"
   xmlns="http://www.w3.org/2000/svg"
   xmlns:sodipodi="http://sodipodi.sourceforge.net/DTD/sodipodi-0.dtd"
   xmlns:inkscape="http://www.inkscape.org/namespaces/inkscape"
   width="79.375mm"
   height="79.375mm"
   viewBox="0 0 79.375 79.375"
   version="1.1"
   id="svg8"
   inkscape:version="0.92.2 (5c3e80d, 2017-08-06)"
   sodipodi:docname="Armini.svg"
   inkscape:export-filename="C:\Users\irock\Desktop\Stuff\Images\Homestuck\ezodiac\01 Rust\Derse\Armini.png"
   inkscape:export-xdpi="320"
   inkscape:export-ydpi="320">
  <title
     id="title1387">Armini</title>
  <defs
     id="defs2" />
  <sodipodi:namedview
     id="base"
     pagecolor="#ffffff"
     bordercolor="#666666"
     borderopacity="1.0"
     inkscape:pageopacity="0.0"
     inkscape:pageshadow="2"
     inkscape:zoom="1.979899"
     inkscape:cx="134.23894"
     inkscape:cy="132.66573"
     inkscape:document-units="mm"
     inkscape:current-layer="svg8"
     showgrid="false" />
  <metadata
     id="metadata5">
    <rdf:RDF>
      <cc:Work
         rdf:about="">
        <dc:format>image/svg+xml</dc:format>
        <dc:type
           rdf:resource="http://purl.org/dc/dcmitype/StillImage" />
        <dc:title>Armini</dc:title>
      </cc:Work>
    </rdf:RDF>
  </metadata>
  <g
     inkscape:groupmode="layer"
     id="layer2"
     inkscape:label="Layer 1" />
  <path
     style="fill:#a20000;fill-opacity:1;stroke:none;stroke-width:4.43438482;stroke-linecap:butt;stroke-miterlimit:4;stroke-dasharray:none;stroke-opacity:0.36683415"
     d="m 23.762632,14.532707 c -9.279447,0.0081 -12.889687,5.368047 -15.9752513,12.077299 h 4.9263143 c 2.66768,-6.011894 7.972512,-7.699925 11.426692,-7.561295 7.873363,0.315988 12.122892,8.696664 13.173356,20.052007 v 6.510194 H 16.817837 v 4.569233 h 20.495906 v 14.275612 l -0.02429,0.38654 h 0.02429 4.747514 0.02429 l -0.02429,-0.38654 V 50.180145 H 62.458462 V 45.610912 H 42.061257 v -6.510194 c 1.050465,-11.355343 5.299993,-19.736019 13.173355,-20.052007 3.454181,-0.13863 8.759013,1.549401 11.426693,7.561295 h 4.926314 C 68.502056,19.900754 64.891817,14.540807 55.612369,14.532707 49.803984,14.527647 42.073338,18.608539 39.687759,28.034208 37.302213,18.608452 29.571043,14.527647 23.762632,14.532707 Z"
     id="rect1378"
     inkscape:connector-curvature="0" />
</svg>
