<?xml version="1.0" encoding="UTF-8" standalone="no"?>
<!-- Created with Inkscape (http://www.inkscape.org/) -->

<svg
   xmlns:dc="http://purl.org/dc/elements/1.1/"
   xmlns:cc="http://creativecommons.org/ns#"
   xmlns:rdf="http://www.w3.org/1999/02/22-rdf-syntax-ns#"
   xmlns:svg="http://www.w3.org/2000/svg"
   xmlns="http://www.w3.org/2000/svg"
   xmlns:sodipodi="http://sodipodi.sourceforge.net/DTD/sodipodi-0.dtd"
   xmlns:inkscape="http://www.inkscape.org/namespaces/inkscape"
   width="79.375mm"
   height="79.375mm"
   viewBox="0 0 79.375 79.375"
   version="1.1"
   id="svg4859"
   inkscape:version="0.92.2 (5c3e80d, 2017-08-06)"
   sodipodi:docname="Armino.svg"
   inkscape:export-filename="C:\Users\irock\Desktop\Stuff\Images\Homestuck\ezodiac\01 Rust\Prospit\Armino.png"
   inkscape:export-xdpi="320"
   inkscape:export-ydpi="320">
  <title
     id="title5425">Armino</title>
  <defs
     id="defs4853" />
  <sodipodi:namedview
     id="base"
     pagecolor="#ffffff"
     bordercolor="#666666"
     borderopacity="1.0"
     inkscape:pageopacity="0.0"
     inkscape:pageshadow="2"
     inkscape:zoom="2.8"
     inkscape:cx="150.61716"
     inkscape:cy="139.91967"
     inkscape:document-units="mm"
     inkscape:current-layer="layer8"
     showgrid="false" />
  <metadata
     id="metadata4856">
    <rdf:RDF>
      <cc:Work
         rdf:about="">
        <dc:format>image/svg+xml</dc:format>
        <dc:type
           rdf:resource="http://purl.org/dc/dcmitype/StillImage" />
        <dc:title>Armino</dc:title>
      </cc:Work>
    </rdf:RDF>
  </metadata>
  <g
     inkscape:groupmode="layer"
     id="layer8"
     inkscape:label="Layer 1">
    <path
       style="fill:#a20000;fill-opacity:1;stroke:none;stroke-width:0.26458332px;stroke-linecap:butt;stroke-linejoin:miter;stroke-opacity:1"
       d="m 21.090702,14.299626 c -3.259333,0 -6.966513,1.730619 -8.222753,4.568197 l 3.874182,2.50424 c 0,0 1.172165,-2.502173 4.169254,-2.502173 H 33.56281 c 2.556526,0 3.490232,1.367924 3.51038,2.518192 0.01821,1.03998 -0.67293,3.249414 -2.995683,3.249414 H 19.274276 c -1.167866,0 -8.661452,0.807361 -8.768457,8.735383 -0.06444,4.774168 4.596752,7.695655 7.9375,7.695655 h 16.23105 c 1.799601,0 2.667538,1.476595 2.667538,2.984831 v 9.905854 c 0,3.217289 -2.947596,6.39155 -6.378422,6.485911 -3.903424,0.107358 -7.422077,-3.374646 -7.512203,-6.189286 -0.133828,-4.179438 2.000327,-5.597872 3.875214,-5.621364 2.052693,-0.02572 2.61634,1.362413 2.739369,3.2551 v 0.0041 l 4.535641,-0.0041 c 0,0 0.425114,-7.67819 -7.086907,-7.88634 -6.518273,-0.180618 -8.693526,4.866589 -8.693526,10.441738 0,4.630209 4.476386,10.647312 12.473141,10.630361 4.086746,-0.0087 7.199921,-2.746714 8.392769,-4.55838 1.192733,1.811663 4.306363,4.549717 8.393287,4.55838 7.996753,0.01695 12.473656,-6.000152 12.473656,-10.630361 0,-5.575149 -2.175253,-10.622356 -8.693525,-10.441738 -7.512021,0.20815 -7.087423,7.88634 -7.087423,7.88634 l 4.536157,0.0041 -5.16e-4,-0.0041 c 0.123029,-1.892687 0.687192,-3.28082 2.739882,-3.2551 1.87489,0.02349 4.008527,1.441926 3.874701,5.621364 -0.09013,2.81464 -3.608781,6.296644 -7.512203,6.189286 -3.430828,-0.09436 -6.377906,-3.268622 -6.377906,-6.485911 v -9.905854 c 0,-1.508236 0.867937,-2.984831 2.667537,-2.984831 h 16.23105 c 3.340748,0 8.001942,-2.921487 7.9375,-7.695655 -0.107006,-7.928022 -7.60059,-8.735383 -8.768456,-8.735383 H 45.297493 c -2.322753,0 -3.013892,-2.209434 -2.995684,-3.249414 0.02015,-1.150268 0.953855,-2.518192 3.510381,-2.518192 h 12.651425 c 2.997089,0 4.168738,2.502173 4.168738,2.502173 l 3.874698,-2.50424 C 65.25081,16.030245 61.543114,14.299626 58.28378,14.299626 H 46.322754 c -4.875924,0 -6.55774,2.158525 -6.55774,2.158525 -0.02667,0.0318 -0.05144,0.06533 -0.07751,0.09767 -0.0261,-0.03237 -0.05082,-0.06584 -0.07751,-0.09767 0,0 -1.682332,-2.158525 -6.558256,-2.158525 z M 39.687499,26.8601 c 0.02608,0.02871 0.05084,0.05876 0.07751,0.08682 0.244194,0.841419 2.841251,2.234492 5.443595,2.23449 h 14.76344 c 1.926583,-3e-6 4.376981,1.38702 4.36149,3.813204 -0.01636,2.561921 -2.771111,3.354832 -3.96875,3.354832 H 45.009656 c -2.529602,0 -4.736714,1.137991 -5.272548,2.112018 -0.01726,0.05689 -0.03268,0.117049 -0.04961,0.174664 -0.01694,-0.05765 -0.03285,-0.117739 -0.05013,-0.174664 -0.535831,-0.974027 -2.742427,-2.112018 -5.272029,-2.112018 h -15.35513 c -1.197638,0 -3.952388,-0.792911 -3.96875,-3.354832 -0.01549,-2.426184 2.434908,-3.813207 4.361491,-3.813204 h 14.763441 c 2.602343,2e-6 5.199401,-1.393071 5.443595,-2.23449 0.02667,-0.02806 0.05143,-0.0581 0.07751,-0.08682 z"
       id="path5417"
       inkscape:connector-curvature="0" />
  </g>
</svg>
