<?xml version="1.0" encoding="UTF-8" standalone="no"?>
<!-- Created with Inkscape (http://www.inkscape.org/) -->

<svg
   xmlns:dc="http://purl.org/dc/elements/1.1/"
   xmlns:cc="http://creativecommons.org/ns#"
   xmlns:rdf="http://www.w3.org/1999/02/22-rdf-syntax-ns#"
   xmlns:svg="http://www.w3.org/2000/svg"
   xmlns="http://www.w3.org/2000/svg"
   xmlns:sodipodi="http://sodipodi.sourceforge.net/DTD/sodipodi-0.dtd"
   xmlns:inkscape="http://www.inkscape.org/namespaces/inkscape"
   width="300"
   height="300"
   viewBox="0 0 79.375 79.375"
   version="1.1"
   id="svg8"
   inkscape:version="0.92.2 (5c3e80d, 2017-08-06)"
   sodipodi:docname="Aro.svg"
   inkscape:export-filename="C:\Users\irock\Desktop\Stuff\Images\Homestuck\ezodiac\01 Rust\Derse\Aro.png"
   inkscape:export-xdpi="320"
   inkscape:export-ydpi="320">
  <title
     id="title4591">Aro</title>
  <defs
     id="defs2" />
  <sodipodi:namedview
     id="base"
     pagecolor="#ffffff"
     bordercolor="#000000"
     borderopacity="1"
     inkscape:pageopacity="0"
     inkscape:pageshadow="2"
     inkscape:zoom="1.8361206"
     inkscape:cx="82.863871"
     inkscape:cy="188.42775"
     inkscape:document-units="px"
     inkscape:current-layer="layer1"
     showgrid="false"
     inkscape:window-width="1259"
     inkscape:window-height="1008"
     inkscape:window-x="652"
     inkscape:window-y="0"
     inkscape:window-maximized="0"
     units="px"
     inkscape:pagecheckerboard="true"
     inkscape:showpageshadow="false" />
  <metadata
     id="metadata5">
    <rdf:RDF>
      <cc:Work
         rdf:about="">
        <dc:format>image/svg+xml</dc:format>
        <dc:type
           rdf:resource="http://purl.org/dc/dcmitype/StillImage" />
        <dc:title>Aro</dc:title>
      </cc:Work>
    </rdf:RDF>
  </metadata>
  <g
     inkscape:label="Layer 1"
     inkscape:groupmode="layer"
     id="layer1"
     transform="translate(-33.651147,-98.591083)">
    <path
       style="color:#000000;font-style:normal;font-variant:normal;font-weight:normal;font-stretch:normal;font-size:medium;line-height:normal;font-family:sans-serif;font-variant-ligatures:normal;font-variant-position:normal;font-variant-caps:normal;font-variant-numeric:normal;font-variant-alternates:normal;font-feature-settings:normal;text-indent:0;text-align:start;text-decoration:none;text-decoration-line:none;text-decoration-style:solid;text-decoration-color:#000000;letter-spacing:normal;word-spacing:normal;text-transform:none;writing-mode:lr-tb;direction:ltr;text-orientation:mixed;dominant-baseline:auto;baseline-shift:baseline;text-anchor:start;white-space:normal;shape-padding:0;clip-rule:nonzero;display:inline;overflow:visible;visibility:visible;opacity:1;isolation:auto;mix-blend-mode:normal;color-interpolation:sRGB;color-interpolation-filters:linearRGB;solid-color:#000000;solid-opacity:1;vector-effect:none;fill:#a20000;fill-opacity:1;fill-rule:nonzero;stroke:none;stroke-width:4.23333311;stroke-linecap:butt;stroke-linejoin:miter;stroke-miterlimit:4;stroke-dasharray:none;stroke-dashoffset:0;stroke-opacity:1;color-rendering:auto;image-rendering:auto;shape-rendering:auto;text-rendering:auto;enable-background:accumulate"
       d="m 73.219791,111.31491 c -1.34102,-0.006 -3.83416,0.40099 -6.28282,1.52652 -1.64143,-0.77148 -5.296569,-1.31509 -6.491076,-1.31 -4.08976,0.0174 -7.232708,1.61285 -9.248015,2.92024 -3.538725,2.29567 -4.384985,5.36764 -4.3217,7.84965 0.08251,3.23611 1.292818,6.21818 5.685441,11.6489 3.594898,4.44447 4.828051,5.87488 4.917529,8.75761 0.09366,3.0173 -3.211923,5.21763 -4.909778,5.19606 -2.403448,-0.0305 -3.150128,-1.72328 -3.191536,-2.72076 -0.04989,-1.20166 0.411153,-2.07533 1.350305,-2.18798 v -4.52221 c -3.081683,0.55162 -5.77079,2.22891 -5.751587,6.72827 0.01905,4.46355 4.070055,6.98504 7.998995,7.00526 4.671408,0.024 8.679151,-4.29161 8.734351,-8.98705 0.05533,-4.70633 -2.798394,-8.57927 -5.859591,-11.88454 -3.40381,-3.67519 -4.352717,-6.74774 -4.397664,-8.74624 -0.102206,-4.54448 5.928818,-7.47999 10.802442,-6.29367 0.01935,0.009 0.03763,0.0166 0.05684,0.0258 -1.213731,1.52021 -2.038035,3.45612 -2.108914,5.90506 -0.141566,4.89113 4.140827,9.31758 5.462198,11.02258 2.265791,2.92363 4.372856,4.64976 5.14749,7.82537 1.717757,7.04193 1.614305,15.44567 1.754931,24.16855 h 0.01137 1.519285 0.01137 c 0.140626,-8.72288 0.03718,-17.12662 1.754934,-24.16855 0.774634,-3.17561 2.881696,-4.90174 5.147487,-7.82537 1.321374,-1.70501 5.603764,-6.13145 5.462201,-11.02258 -0.07088,-2.44894 -0.895186,-4.38485 -2.108917,-5.90506 0.01921,-0.009 0.03749,-0.0168 0.05685,-0.0258 4.873622,-1.18632 10.904646,1.74919 10.80244,6.29367 -0.04495,1.9985 -0.993854,5.07105 -4.397663,8.74624 -3.061198,3.30527 -5.914922,7.17821 -5.859592,11.88454 0.0552,4.69544 4.062944,9.01105 8.73435,8.98705 3.928941,-0.0202 7.979993,-2.54171 7.998993,-7.00526 0.0192,-4.49936 -2.669901,-6.17666 -5.751585,-6.72827 v 4.52221 c 0.939152,0.11265 1.400196,0.98632 1.350307,2.18798 -0.04141,0.99748 -0.788088,2.69026 -3.191537,2.72076 -1.697855,0.0216 -5.003437,-2.17876 -4.909777,-5.19606 0.08948,-2.88273 1.32263,-4.31313 4.917529,-8.75761 4.392621,-5.43072 5.602934,-8.41279 5.685434,-11.6489 0.0633,-2.48201 -0.782969,-5.55398 -4.321694,-7.84965 -2.015308,-1.30739 -5.158256,-2.90284 -9.248013,-2.92024 -1.194507,-0.005 -4.849649,0.53851 -6.491079,1.31 -2.448657,-1.12553 -4.9418,-1.53252 -6.282819,-1.52652 -0.04251,4.2e-4 -0.07875,0.003 -0.118856,0.004 -0.04011,-0.001 -0.07635,-0.003 -0.118856,-0.004 z m 0.118856,4.42764 c 3.959524,-0.0231 8.397351,1.96596 8.502324,7.11067 0.04277,2.09605 -1.988206,5.25114 -3.030307,6.52054 -1.626629,1.98143 -3.925512,4.77321 -5.472017,6.76754 -1.546506,-1.99433 -3.84538,-4.78611 -5.472018,-6.76754 -1.042101,-1.2694 -3.073074,-4.42449 -3.030304,-6.52054 0.104973,-5.14477 4.542766,-7.13378 8.502322,-7.11067 z"
       id="path2902"
       inkscape:connector-curvature="0" />
  </g>
</svg>
