<?xml version="1.0" encoding="UTF-8" standalone="no"?>
<!-- Created with Inkscape (http://www.inkscape.org/) -->

<svg
   xmlns:dc="http://purl.org/dc/elements/1.1/"
   xmlns:cc="http://creativecommons.org/ns#"
   xmlns:rdf="http://www.w3.org/1999/02/22-rdf-syntax-ns#"
   xmlns:svg="http://www.w3.org/2000/svg"
   xmlns="http://www.w3.org/2000/svg"
   xmlns:sodipodi="http://sodipodi.sourceforge.net/DTD/sodipodi-0.dtd"
   xmlns:inkscape="http://www.inkscape.org/namespaces/inkscape"
   width="300"
   height="300"
   viewBox="0 0 79.375 79.375"
   version="1.1"
   id="svg8"
   inkscape:version="0.92.2 (5c3e80d, 2017-08-06)"
   sodipodi:docname="Arpia.svg"
   inkscape:export-filename="C:\Users\irock\Desktop\Stuff\Images\Homestuck\ezodiac\01 Rust\Derse\Arpia.png"
   inkscape:export-xdpi="320"
   inkscape:export-ydpi="320">
  <title
     id="title4591">Arpia</title>
  <defs
     id="defs2" />
  <sodipodi:namedview
     id="base"
     pagecolor="#ffffff"
     bordercolor="#000000"
     borderopacity="1"
     inkscape:pageopacity="0"
     inkscape:pageshadow="2"
     inkscape:zoom="1.2983333"
     inkscape:cx="205.96827"
     inkscape:cy="146.20489"
     inkscape:document-units="px"
     inkscape:current-layer="svg8"
     showgrid="false"
     inkscape:window-width="1259"
     inkscape:window-height="1008"
     inkscape:window-x="652"
     inkscape:window-y="0"
     inkscape:window-maximized="0"
     units="px"
     inkscape:pagecheckerboard="true"
     inkscape:showpageshadow="false" />
  <metadata
     id="metadata5">
    <rdf:RDF>
      <cc:Work
         rdf:about="">
        <dc:format>image/svg+xml</dc:format>
        <dc:type
           rdf:resource="http://purl.org/dc/dcmitype/StillImage" />
        <dc:title>Arpia</dc:title>
      </cc:Work>
    </rdf:RDF>
  </metadata>
  <g
     inkscape:label="Layer 1"
     inkscape:groupmode="layer"
     id="layer1"
     transform="translate(-49.801259,-75.206536)" />
  <path
     style="color:#000000;font-style:normal;font-variant:normal;font-weight:normal;font-stretch:normal;font-size:medium;line-height:normal;font-family:sans-serif;font-variant-ligatures:normal;font-variant-position:normal;font-variant-caps:normal;font-variant-numeric:normal;font-variant-alternates:normal;font-feature-settings:normal;text-indent:0;text-align:start;text-decoration:none;text-decoration-line:none;text-decoration-style:solid;text-decoration-color:#000000;letter-spacing:normal;word-spacing:normal;text-transform:none;writing-mode:lr-tb;direction:ltr;text-orientation:mixed;dominant-baseline:auto;baseline-shift:baseline;text-anchor:start;white-space:normal;shape-padding:0;clip-rule:nonzero;display:inline;overflow:visible;visibility:visible;opacity:1;isolation:auto;mix-blend-mode:normal;color-interpolation:sRGB;color-interpolation-filters:linearRGB;solid-color:#000000;solid-opacity:1;vector-effect:none;fill:#a20000;fill-opacity:1;fill-rule:nonzero;stroke:none;stroke-width:4.4979167;stroke-linecap:butt;stroke-linejoin:miter;stroke-miterlimit:4;stroke-dasharray:none;stroke-dashoffset:0;stroke-opacity:1;color-rendering:auto;image-rendering:auto;shape-rendering:auto;text-rendering:auto;enable-background:accumulate"
     d="m 26.911282,14.664861 c -0.164817,-0.003 -0.33084,-0.0022 -0.498163,0.0026 -5.112453,0.146718 -9.994407,3.641749 -9.809736,9.640755 0.06335,2.057902 0.597996,4.319709 1.570447,6.239928 5.105612,7.369646 19.357882,7.118374 19.363158,12.911873 l 0.01085,11.496974 C 34.59411,51.168234 29.153393,47.999071 27.389805,48.036983 v 4.626592 c 5.250912,2.000419 8.728577,6.368415 10.0614,11.408605 l -0.05478,0.639755 h 0.212908 4.156334 0.212908 l -0.05478,-0.639755 c 1.332825,-5.04019 4.81049,-9.408186 10.0614,-11.408605 v -4.626592 c -1.763585,-0.03791 -7.204305,3.131251 -10.158034,6.919992 l 0.01085,-11.496974 c 0.0053,-5.793499 14.257546,-5.542227 19.36316,-12.911873 0.97245,-1.920219 1.507096,-4.182026 1.570445,-6.239928 0.184671,-5.999006 -4.697283,-9.494037 -9.809736,-9.640755 -5.354249,-0.153657 -9.473674,3.759956 -9.282637,7.936466 0.130202,2.84654 1.965995,5.71043 5.446178,5.757272 2.554468,0.03438 5.024099,-1.659454 5.231723,-5.373833 h -2.592091 c -0.467159,1.312565 -0.673039,2.278026 -1.96732,2.218986 -1.178864,-0.05378 -1.734788,-0.757644 -1.806609,-1.854667 -0.145318,-2.219546 1.958636,-4.573323 4.337203,-4.449858 3.688572,0.191465 6.241253,2.866977 6.119524,5.917469 -0.157398,3.944281 -2.434907,5.68797 -7.218164,7.340121 -2.602039,0.959694 -9.551432,3.068481 -11.541932,5.692674 -1.9905,-2.624193 -8.940411,-4.73298 -11.542448,-5.692674 -4.783259,-1.652151 -7.060768,-3.39584 -7.218164,-7.340121 -0.12173,-3.050492 2.430952,-5.726004 6.119522,-5.917469 2.37857,-0.123465 4.482523,2.230312 4.337203,4.449858 -0.07182,1.097023 -0.627742,1.800892 -1.806607,1.854667 -1.29428,0.05904 -1.500161,-0.906421 -1.967322,-2.218986 h -2.59209 c 0.207623,3.714379 2.677257,5.40821 5.231721,5.373833 3.480184,-0.04684 5.316495,-2.910732 5.446697,-5.757272 0.185065,-4.045994 -3.675732,-7.845249 -8.784992,-7.93905 z"
     id="path2844"
     inkscape:connector-curvature="0" />
</svg>
