<?xml version="1.0" encoding="UTF-8" standalone="no"?>
<!-- Created with Inkscape (http://www.inkscape.org/) -->

<svg
   xmlns:dc="http://purl.org/dc/elements/1.1/"
   xmlns:cc="http://creativecommons.org/ns#"
   xmlns:rdf="http://www.w3.org/1999/02/22-rdf-syntax-ns#"
   xmlns:svg="http://www.w3.org/2000/svg"
   xmlns="http://www.w3.org/2000/svg"
   xmlns:sodipodi="http://sodipodi.sourceforge.net/DTD/sodipodi-0.dtd"
   xmlns:inkscape="http://www.inkscape.org/namespaces/inkscape"
   width="79.375mm"
   height="79.375mm"
   viewBox="0 0 79.375 79.375"
   version="1.1"
   id="svg1964"
   inkscape:version="0.92.2 (5c3e80d, 2017-08-06)"
   sodipodi:docname="Arpio.svg"
   inkscape:export-filename="C:\Users\irock\Desktop\Stuff\Images\Homestuck\ezodiac\01 Rust\Prospit\Arpio.png"
   inkscape:export-xdpi="320"
   inkscape:export-ydpi="320">
  <title
     id="title2561">Arpio</title>
  <defs
     id="defs1958" />
  <sodipodi:namedview
     id="base"
     pagecolor="#ffffff"
     bordercolor="#666666"
     borderopacity="1.0"
     inkscape:pageopacity="0.0"
     inkscape:pageshadow="2"
     inkscape:zoom="1.979899"
     inkscape:cx="148.45629"
     inkscape:cy="149.11367"
     inkscape:document-units="mm"
     inkscape:current-layer="layer3"
     showgrid="false" />
  <metadata
     id="metadata1961">
    <rdf:RDF>
      <cc:Work
         rdf:about="">
        <dc:format>image/svg+xml</dc:format>
        <dc:type
           rdf:resource="http://purl.org/dc/dcmitype/StillImage" />
        <dc:title>Arpio</dc:title>
      </cc:Work>
    </rdf:RDF>
  </metadata>
  <g
     inkscape:groupmode="layer"
     id="layer3"
     inkscape:label="Layer 1">
    <path
       style="fill:#a20000;fill-opacity:1;stroke:none;stroke-width:0.26458332px;stroke-linecap:butt;stroke-linejoin:miter;stroke-opacity:1"
       d="m 27.754637,14.731104 c -10.553768,-0.09091 -17.593295,10.313945 -16.503902,18.909439 0.801282,6.322245 3.631363,14.748804 17.426327,16.195395 1.866156,-0.04009 3.556534,-0.339186 4.918561,-0.783416 0.655577,3.053202 1.667709,5.854573 3.110923,8.213453 -2.142349,1.839629 -4.744108,2.705446 -7.548893,2.70061 -5.819244,-0.01004 -11.492839,-5.831168 -11.492839,-5.831168 h -5.745903 c 0.26151,1.390491 7.540208,10.599216 17.57257,10.508403 4.291608,-0.03885 7.639523,-1.420334 10.195761,-3.732072 2.55624,2.311744 5.90415,3.693223 10.195761,3.732072 10.032362,0.09081 17.311576,-9.117912 17.573087,-10.508403 h -5.746419 c 0,0 -5.673598,5.821127 -11.492838,5.831168 -2.804814,0.0048 -5.406536,-0.860947 -7.548893,-2.70061 1.443206,-2.358869 2.455344,-5.160267 3.11092,-8.213453 1.362028,0.44423 3.052405,0.743328 4.918562,0.783416 13.794965,-1.446591 16.625562,-9.87315 17.426844,-16.195395 1.089393,-8.595494 -5.950135,-19.000349 -16.503903,-18.909439 -3.469021,0.02988 -8.108342,1.341175 -11.932605,4.945434 -3.824314,-3.604458 -8.464016,-4.915552 -11.933121,-4.945434 z m -0.687814,4.858101 c 0.143346,0.001 0.283377,0.0076 0.420129,0.01964 0,0 4.9945,-0.276532 9.200473,3.695382 -2.519503,3.915337 -4.189328,9.422808 -4.043164,17.018083 0.02522,1.310346 0.09831,2.606725 0.218075,3.880382 -0.01047,-0.0015 -0.01946,-0.0036 -0.02997,-0.0052 C 24.36121,46.672077 16.369078,40.926179 15.86079,33.974889 15.190874,24.813227 22.623149,19.557195 27.066823,19.589205 Z m 25.240837,0 c 4.443675,-0.03201 11.87595,5.224022 11.206036,14.385684 -0.508289,6.95129 -8.500423,12.697188 -16.971576,10.222632 -0.01034,0.0015 -0.01916,0.0036 -0.02945,0.0052 0.119764,-1.273657 0.192858,-2.570036 0.218072,-3.880382 0.146162,-7.595119 -1.523743,-13.102759 -4.043164,-17.018083 4.205931,-3.971712 9.199957,-3.695382 9.199957,-3.695382 0.136753,-0.01208 0.276786,-0.0186 0.420129,-0.01964 z m -12.620418,7.718391 c 1.571016,2.976824 2.659261,7.100247 2.700094,12.814207 0.04137,5.789512 -0.973257,10.196899 -2.700094,13.373343 -1.726838,-3.176444 -2.741467,-7.583831 -2.700094,-13.373343 0.04083,-5.71396 1.129077,-9.837383 2.700094,-12.814207 z"
       id="path2556"
       inkscape:connector-curvature="0" />
  </g>
</svg>
