<?xml version="1.0" encoding="UTF-8" standalone="no"?>
<!-- Created with Inkscape (http://www.inkscape.org/) -->

<svg
   xmlns:dc="http://purl.org/dc/elements/1.1/"
   xmlns:cc="http://creativecommons.org/ns#"
   xmlns:rdf="http://www.w3.org/1999/02/22-rdf-syntax-ns#"
   xmlns:svg="http://www.w3.org/2000/svg"
   xmlns="http://www.w3.org/2000/svg"
   xmlns:sodipodi="http://sodipodi.sourceforge.net/DTD/sodipodi-0.dtd"
   xmlns:inkscape="http://www.inkscape.org/namespaces/inkscape"
   width="79.375mm"
   height="79.375mm"
   viewBox="0 0 79.375 79.375"
   version="1.1"
   id="svg8"
   inkscape:version="0.92.2 (5c3e80d, 2017-08-06)"
   sodipodi:docname="Arsci.svg"
   inkscape:export-filename="C:\Users\irock\Desktop\Stuff\Images\Homestuck\ezodiac\01 Rust\Prospit\Arsci.png"
   inkscape:export-xdpi="319.79999"
   inkscape:export-ydpi="319.79999">
  <title
     id="title847">Arsci</title>
  <defs
     id="defs2" />
  <sodipodi:namedview
     id="base"
     pagecolor="#ffffff"
     bordercolor="#666666"
     borderopacity="1.0"
     inkscape:pageopacity="0.0"
     inkscape:pageshadow="2"
     inkscape:zoom="1.979899"
     inkscape:cx="96.412388"
     inkscape:cy="163.39692"
     inkscape:document-units="mm"
     inkscape:current-layer="layer2"
     showgrid="false" />
  <metadata
     id="metadata5">
    <rdf:RDF>
      <cc:Work
         rdf:about="">
        <dc:format>image/svg+xml</dc:format>
        <dc:type
           rdf:resource="http://purl.org/dc/dcmitype/StillImage" />
        <dc:title>Arsci</dc:title>
      </cc:Work>
    </rdf:RDF>
  </metadata>
  <g
     inkscape:groupmode="layer"
     id="layer2"
     inkscape:label="Layer 1">
    <path
       style="color:#000000;font-style:normal;font-variant:normal;font-weight:normal;font-stretch:normal;font-size:medium;line-height:normal;font-family:sans-serif;font-variant-ligatures:normal;font-variant-position:normal;font-variant-caps:normal;font-variant-numeric:normal;font-variant-alternates:normal;font-feature-settings:normal;text-indent:0;text-align:start;text-decoration:none;text-decoration-line:none;text-decoration-style:solid;text-decoration-color:#000000;letter-spacing:normal;word-spacing:normal;text-transform:none;writing-mode:lr-tb;direction:ltr;text-orientation:mixed;dominant-baseline:auto;baseline-shift:baseline;text-anchor:start;white-space:normal;shape-padding:0;clip-rule:nonzero;display:inline;overflow:visible;visibility:visible;opacity:1;isolation:auto;mix-blend-mode:normal;color-interpolation:sRGB;color-interpolation-filters:linearRGB;solid-color:#000000;solid-opacity:1;vector-effect:none;fill:#a20000;fill-opacity:1;fill-rule:nonzero;stroke:none;stroke-width:4.17909384;stroke-linecap:butt;stroke-linejoin:miter;stroke-miterlimit:4;stroke-dasharray:none;stroke-dashoffset:0;stroke-opacity:1;color-rendering:auto;image-rendering:auto;shape-rendering:auto;text-rendering:auto;enable-background:accumulate"
       d="m 25.774913,14.397468 c -3.346515,-0.03013 -5.116859,2.161637 -5.642033,5.492688 -1.815623,-1.498415 -3.268324,-1.867688 -5.507674,-2.022099 -4.7723099,0.08395 -6.2322973,5.64161 -4.7402791,8.733834 h 4.1046591 c -0.248344,-1.055208 -1.236913,-4.625602 0.857829,-4.616256 1.579208,0.172131 2.854591,1.174883 5.302002,2.991032 0.463483,3.604815 1.762457,7.708159 3.684012,11.600325 h 4.598168 c -2.936629,-5.183211 -6.702349,-17.365178 -2.749702,-18.050061 2.143409,-0.371392 5.773085,2.702579 7.555094,5.770708 2.244775,3.864883 3.566969,9.482014 3.629752,16.055867 0.04,0.0346 0.07542,0.06068 0.114723,0.09405 -5.439444,1.254373 -9.50278,6.234059 -9.50278,12.11037 0,6.808491 5.45296,12.419915 12.183237,12.419915 6.730278,0 12.18375,-5.611424 12.18375,-12.419915 0,-5.86206 -4.043931,-10.831713 -9.463502,-12.10107 0.04315,-0.03656 0.08211,-0.0653 0.126089,-0.103352 0.06278,-6.573853 1.384978,-12.190984 3.629753,-16.055867 1.782008,-3.068129 5.411684,-6.1421 7.555095,-5.770708 3.952647,0.684883 0.186928,12.86685 -2.749704,18.050061 h 4.59817 c 1.921553,-3.892166 3.22053,-7.99551 3.684011,-11.600325 2.447412,-1.816149 3.722793,-2.818901 5.302004,-2.991032 2.09474,-0.0093 1.106172,3.561048 0.857827,4.616256 h 4.104658 c 1.49202,-3.092224 0.03203,-8.649884 -4.740277,-8.733834 -2.239352,0.154411 -3.692052,0.523684 -5.507676,2.022099 -0.525171,-3.331051 -2.295517,-5.522818 -5.642033,-5.492688 -8.809471,0.0793 -12.970496,11.103524 -13.833263,14.949475 -0.01905,0.132083 -0.05164,0.304112 -0.07958,0.463021 C 39.659303,29.651087 39.627223,29.479 39.608173,29.346941 38.74541,25.500992 34.584384,14.476773 25.774913,14.397468 Z m 13.887008,29.920137 c 4.418867,0 8.004162,3.638732 8.004162,8.240323 0,4.601594 -3.585295,8.240324 -8.004162,8.240324 -4.41887,0 -8.003646,-3.63873 -8.003646,-8.240324 0,-4.601591 3.584776,-8.240323 8.003646,-8.240323 z"
       id="path827"
       inkscape:connector-curvature="0" />
  </g>
</svg>
