<?xml version="1.0" encoding="UTF-8" standalone="no"?>
<!-- Created with Inkscape (http://www.inkscape.org/) -->

<svg
   xmlns:dc="http://purl.org/dc/elements/1.1/"
   xmlns:cc="http://creativecommons.org/ns#"
   xmlns:rdf="http://www.w3.org/1999/02/22-rdf-syntax-ns#"
   xmlns:svg="http://www.w3.org/2000/svg"
   xmlns="http://www.w3.org/2000/svg"
   xmlns:sodipodi="http://sodipodi.sourceforge.net/DTD/sodipodi-0.dtd"
   xmlns:inkscape="http://www.inkscape.org/namespaces/inkscape"
   width="300"
   height="300"
   viewBox="0 0 79.375 79.375"
   version="1.1"
   id="svg8"
   inkscape:version="0.92.2 (5c3e80d, 2017-08-06)"
   sodipodi:docname="Arsces.svg"
   inkscape:export-filename="C:\Users\irock\Desktop\Stuff\Images\Homestuck\ezodiac\01 Rust\Derse\Arsces.png"
   inkscape:export-xdpi="320"
   inkscape:export-ydpi="320">
  <title
     id="title4591">Arsces</title>
  <defs
     id="defs2" />
  <sodipodi:namedview
     id="base"
     pagecolor="#ffffff"
     bordercolor="#000000"
     borderopacity="1"
     inkscape:pageopacity="0"
     inkscape:pageshadow="2"
     inkscape:zoom="1.979899"
     inkscape:cx="12.558842"
     inkscape:cy="145.93121"
     inkscape:document-units="px"
     inkscape:current-layer="layer1"
     showgrid="false"
     inkscape:window-width="1259"
     inkscape:window-height="1008"
     inkscape:window-x="652"
     inkscape:window-y="0"
     inkscape:window-maximized="0"
     units="px"
     inkscape:pagecheckerboard="true"
     inkscape:showpageshadow="false" />
  <metadata
     id="metadata5">
    <rdf:RDF>
      <cc:Work
         rdf:about="">
        <dc:format>image/svg+xml</dc:format>
        <dc:type
           rdf:resource="http://purl.org/dc/dcmitype/StillImage" />
        <dc:title>Arsces</dc:title>
      </cc:Work>
    </rdf:RDF>
  </metadata>
  <g
     inkscape:label="Layer 1"
     inkscape:groupmode="layer"
     id="layer1"
     transform="translate(-75.193891,-56.36201)">
    <path
       style="color:#000000;font-style:normal;font-variant:normal;font-weight:normal;font-stretch:normal;font-size:medium;line-height:normal;font-family:sans-serif;font-variant-ligatures:normal;font-variant-position:normal;font-variant-caps:normal;font-variant-numeric:normal;font-variant-alternates:normal;font-feature-settings:normal;text-indent:0;text-align:start;text-decoration:none;text-decoration-line:none;text-decoration-style:solid;text-decoration-color:#000000;letter-spacing:normal;word-spacing:normal;text-transform:none;writing-mode:lr-tb;direction:ltr;text-orientation:mixed;dominant-baseline:auto;baseline-shift:baseline;text-anchor:start;white-space:normal;shape-padding:0;clip-rule:nonzero;display:inline;overflow:visible;visibility:visible;opacity:1;isolation:auto;mix-blend-mode:normal;color-interpolation:sRGB;color-interpolation-filters:linearRGB;solid-color:#000000;solid-opacity:1;vector-effect:none;fill:#a20000;fill-opacity:1;fill-rule:nonzero;stroke:none;stroke-width:4.23333311;stroke-linecap:butt;stroke-linejoin:miter;stroke-miterlimit:4;stroke-dasharray:none;stroke-dashoffset:0;stroke-opacity:1;color-rendering:auto;image-rendering:auto;shape-rendering:auto;text-rendering:auto;enable-background:accumulate"
       d="m 109.82356,71.075887 -6.06268,0.213424 c 6.27675,6.989589 8.11901,17.461208 8.06411,23.25026 -0.0769,8.114089 -2.94912,21.414419 -13.613125,21.251929 -4.404928,-0.0671 -8.934173,-2.79478 -9.472807,-9.18859 -0.259388,-3.07904 1.464376,-7.458415 5.863208,-7.360265 3.63754,0.0812 4.286347,2.673465 4.474146,5.017775 0.08767,1.09444 -0.998104,3.4497 -2.526978,4.75526 l 5.638936,0.14883 c 3.94884,-8.42626 -2.663572,-15.193688 -7.651733,-14.990808 -5.804898,0.236098 -10.230243,4.795283 -10.448974,12.066438 -0.231702,7.70235 4.994014,14.67904 14.154691,14.78205 6.000616,0.0675 13.287426,-3.48269 16.639296,-15.37219 3.35187,11.88948 10.6387,15.43965 16.63929,15.37219 9.16068,-0.10301 14.38588,-7.0797 14.15418,-14.78205 -0.21873,-7.271155 -4.64407,-11.83034 -10.44897,-12.066438 -4.98816,-0.20288 -11.60058,6.564548 -7.65174,14.990808 l 5.63894,-0.14883 c -1.52887,-1.30556 -2.61416,-3.66082 -2.52646,-4.75526 0.1878,-2.34431 0.83609,-4.936615 4.47363,-5.017775 4.39884,-0.0982 6.12259,4.281225 5.8632,7.360265 -0.53863,6.39381 -5.06787,9.12149 -9.4728,9.18859 -10.66399,0.16249 -13.53622,-13.13784 -13.61313,-21.251929 -0.0549,-5.789052 1.78736,-16.260671 8.06411,-23.25026 l -6.06216,-0.213424 c -1.40423,2.309498 -3.96606,6.359203 -5.05809,10.649997 -1.09203,-4.290811 -3.65386,-8.34049 -5.05809,-10.649997 z"
       id="path3736"
       inkscape:connector-curvature="0" />
  </g>
</svg>
