<?xml version="1.0" encoding="UTF-8" standalone="no"?>
<!-- Created with Inkscape (http://www.inkscape.org/) -->

<svg
   xmlns:dc="http://purl.org/dc/elements/1.1/"
   xmlns:cc="http://creativecommons.org/ns#"
   xmlns:rdf="http://www.w3.org/1999/02/22-rdf-syntax-ns#"
   xmlns:svg="http://www.w3.org/2000/svg"
   xmlns="http://www.w3.org/2000/svg"
   xmlns:sodipodi="http://sodipodi.sourceforge.net/DTD/sodipodi-0.dtd"
   xmlns:inkscape="http://www.inkscape.org/namespaces/inkscape"
   width="79.375mm"
   height="79.375mm"
   viewBox="0 0 79.375 79.375"
   version="1.1"
   id="svg1395"
   inkscape:version="0.92.2 (5c3e80d, 2017-08-06)"
   sodipodi:docname="Arun.svg"
   inkscape:export-filename="C:\Users\irock\Desktop\Stuff\Images\Homestuck\ezodiac\01 Rust\Derse\Arun.png"
   inkscape:export-xdpi="320"
   inkscape:export-ydpi="320">
  <title
     id="title1971">Arun</title>
  <defs
     id="defs1389" />
  <sodipodi:namedview
     id="base"
     pagecolor="#ffffff"
     bordercolor="#666666"
     borderopacity="1.0"
     inkscape:pageopacity="0.0"
     inkscape:pageshadow="2"
     inkscape:zoom="1.979899"
     inkscape:cx="192.34643"
     inkscape:cy="157.28328"
     inkscape:document-units="mm"
     inkscape:current-layer="svg1395"
     showgrid="false" />
  <metadata
     id="metadata1392">
    <rdf:RDF>
      <cc:Work
         rdf:about="">
        <dc:format>image/svg+xml</dc:format>
        <dc:type
           rdf:resource="http://purl.org/dc/dcmitype/StillImage" />
        <dc:title>Arun</dc:title>
      </cc:Work>
    </rdf:RDF>
  </metadata>
  <g
     inkscape:groupmode="layer"
     id="layer3"
     inkscape:label="Layer  1" />
  <path
     style="color:#000000;font-style:normal;font-variant:normal;font-weight:normal;font-stretch:normal;font-size:medium;line-height:normal;font-family:sans-serif;font-variant-ligatures:normal;font-variant-position:normal;font-variant-caps:normal;font-variant-numeric:normal;font-variant-alternates:normal;font-feature-settings:normal;text-indent:0;text-align:start;text-decoration:none;text-decoration-line:none;text-decoration-style:solid;text-decoration-color:#000000;letter-spacing:normal;word-spacing:normal;text-transform:none;writing-mode:lr-tb;direction:ltr;text-orientation:mixed;dominant-baseline:auto;baseline-shift:baseline;text-anchor:start;white-space:normal;shape-padding:0;clip-rule:nonzero;display:inline;overflow:visible;visibility:visible;opacity:1;isolation:auto;mix-blend-mode:normal;color-interpolation:sRGB;color-interpolation-filters:linearRGB;solid-color:#000000;solid-opacity:1;vector-effect:none;fill:#a20000;fill-opacity:1;fill-rule:nonzero;stroke:none;stroke-width:4.23333311;stroke-linecap:butt;stroke-linejoin:miter;stroke-miterlimit:4;stroke-dasharray:none;stroke-dashoffset:0;stroke-opacity:1;color-rendering:auto;image-rendering:auto;shape-rendering:auto;text-rendering:auto;enable-background:accumulate"
     d="m 8.3811426,14.591874 c -3.5867879,8.983549 -2.7470168,19.530608 5.8146324,18.874817 4.16529,-0.319045 7.059276,-2.259859 9.044926,-4.859652 1.154182,5.085474 3.408423,9.845185 7.695136,12.572878 -3.958643,2.662428 -6.86533,7.108118 -6.804751,12.695864 0.06906,6.369873 2.590079,9.953829 3.278869,10.907345 h 6.124691 c -0.58294,-0.960234 -3.845644,-4.023929 -4.279326,-10.552327 -0.332914,-5.011523 3.878824,-10.088647 9.797852,-10.684102 0.214479,0.003 0.424987,0.0016 0.634587,-0.001 0.209389,0.0027 0.419809,0.0041 0.634069,0.001 5.919028,0.595455 10.130768,5.672576 9.797851,10.684102 -0.433681,6.528398 -3.696382,9.592093 -4.279323,10.552327 h 6.124689 c 0.688789,-0.953516 3.209811,-4.537472 3.27887,-10.907345 0.06058,-5.587746 -2.84611,-10.033436 -6.804753,-12.695864 4.286713,-2.727696 6.540958,-7.487401 7.695137,-12.572878 1.98565,2.599796 4.879636,4.540607 9.044926,4.859652 8.56165,0.655791 9.401421,-9.891268 5.814632,-18.874817 h -4.87412 C 67.61309,20.330388 69.436395,29.003178 65.46293,28.43134 58.373565,27.411081 57.444835,19.770006 57.231907,14.591874 h -5.129919 c -0.13743,8.07676 0.511019,22.742904 -11.49904,23.86366 -0.200973,-0.01338 -0.402897,-0.02215 -0.605132,-0.02636 -0.103166,-0.0021 -0.206629,-6.91e-4 -0.310057,-5.16e-4 -0.103351,-1.77e-4 -0.206968,-0.0016 -0.31006,5.16e-4 -0.202562,0.0042 -0.404347,0.01294 -0.605647,0.02636 C 26.761993,37.33478 27.410442,22.668633 27.273012,14.591874 h -5.129919 c -0.212927,5.178132 -1.141658,12.819207 -8.231022,13.839466 -3.9734653,0.571838 -2.15016,-8.100952 -0.656807,-13.839466 z"
     id="path1954"
     inkscape:connector-curvature="0" />
</svg>
