<?xml version="1.0" encoding="UTF-8" standalone="no"?>
<!-- Created with Inkscape (http://www.inkscape.org/) -->

<svg
   xmlns:dc="http://purl.org/dc/elements/1.1/"
   xmlns:cc="http://creativecommons.org/ns#"
   xmlns:rdf="http://www.w3.org/1999/02/22-rdf-syntax-ns#"
   xmlns:svg="http://www.w3.org/2000/svg"
   xmlns="http://www.w3.org/2000/svg"
   xmlns:sodipodi="http://sodipodi.sourceforge.net/DTD/sodipodi-0.dtd"
   xmlns:inkscape="http://www.inkscape.org/namespaces/inkscape"
   width="79.375mm"
   height="79.375mm"
   viewBox="0 0 79.375 79.375"
   version="1.1"
   id="svg5433"
   inkscape:version="0.92.2 (5c3e80d, 2017-08-06)"
   sodipodi:docname="Arus.svg"
   inkscape:export-filename="C:\Users\irock\Desktop\Stuff\Images\Homestuck\ezodiac\01 Rust\Prospit\Arus.png"
   inkscape:export-xdpi="320"
   inkscape:export-ydpi="320">
  <title
     id="title5997">Arus</title>
  <defs
     id="defs5427" />
  <sodipodi:namedview
     id="base"
     pagecolor="#ffffff"
     bordercolor="#666666"
     borderopacity="1.0"
     inkscape:pageopacity="0.0"
     inkscape:pageshadow="2"
     inkscape:zoom="2.8"
     inkscape:cx="38.133642"
     inkscape:cy="142.31676"
     inkscape:document-units="mm"
     inkscape:current-layer="svg5433"
     showgrid="false" />
  <metadata
     id="metadata5430">
    <rdf:RDF>
      <cc:Work
         rdf:about="">
        <dc:format>image/svg+xml</dc:format>
        <dc:type
           rdf:resource="http://purl.org/dc/dcmitype/StillImage" />
        <dc:title>Arus</dc:title>
      </cc:Work>
    </rdf:RDF>
  </metadata>
  <g
     inkscape:groupmode="layer"
     id="layer10"
     inkscape:label="Layer 1" />
  <path
     style="fill:#a20000;fill-opacity:1;stroke:none;stroke-width:0.26458332px;stroke-linecap:butt;stroke-linejoin:miter;stroke-opacity:1"
     d="m 19.755125,14.629096 c -1.864596,5.593787 -6.090289,10.108241 -8.18503,11.559501 l 1.536857,4.249353 H 29.9452 c -1.593776,2.216404 -3.474741,5.511544 -4.550626,12.333097 -0.462651,2.933398 -0.866526,7.399351 -0.873848,10.796757 -0.0099,4.6112 -0.418589,6.557274 -2.664954,6.481775 -3.089895,-0.103848 -2.779742,-5.274296 -2.799829,-8.337475 L 18.986693,41.285867 H 16.44783 c -0.824732,6.362218 -5.72605,23.746571 5.837369,23.45645 7.129005,-0.178867 7.607718,-8.215186 7.534423,-15.459522 -0.08515,-8.416428 2.057724,-18.709633 9.868133,-18.709452 7.810409,1.81e-4 9.953278,10.29321 9.86813,18.709452 -0.07329,7.244336 0.404905,15.280655 7.533907,15.459522 11.563421,0.290121 6.662102,-17.094232 5.83737,-23.45645 H 60.3883 l -0.06873,10.426237 c -0.02009,3.063179 0.289549,8.233627 -2.800345,8.337475 -2.246365,0.0755 -2.655054,-1.870575 -2.664955,-6.481775 -0.0073,-3.397406 -0.410678,-7.863359 -0.873331,-10.796757 -1.07588,-6.821553 -2.956845,-10.116693 -4.550624,-12.333097 h 16.837734 l 1.536856,-4.249353 c -2.094741,-1.45126 -6.320433,-5.965714 -8.185031,-11.559501 h -2.004528 c -1.192173,3.487751 2.74729,10.332046 3.641637,11.019999 h -43.13845 c 0.894347,-0.687953 4.833295,-7.532248 3.641121,-11.019999 z"
     id="path5990"
     inkscape:connector-curvature="0"
     sodipodi:nodetypes="ccccscscccsszsscccsccccccccccc" />
</svg>
