<?xml version="1.0" encoding="UTF-8" standalone="no"?>
<!-- Created with Inkscape (http://www.inkscape.org/) -->

<svg
   xmlns:dc="http://purl.org/dc/elements/1.1/"
   xmlns:cc="http://creativecommons.org/ns#"
   xmlns:rdf="http://www.w3.org/1999/02/22-rdf-syntax-ns#"
   xmlns:svg="http://www.w3.org/2000/svg"
   xmlns="http://www.w3.org/2000/svg"
   xmlns:sodipodi="http://sodipodi.sourceforge.net/DTD/sodipodi-0.dtd"
   xmlns:inkscape="http://www.inkscape.org/namespaces/inkscape"
   width="300"
   height="300"
   viewBox="0 0 79.375 79.375"
   version="1.1"
   id="svg8"
   inkscape:version="0.92.2 (5c3e80d, 2017-08-06)"
   sodipodi:docname="Arza.svg"
   inkscape:export-filename="C:\Users\irock\Desktop\Stuff\Images\Homestuck\ezodiac\01 Rust\Derse\Arza.png"
   inkscape:export-xdpi="320"
   inkscape:export-ydpi="320">
  <title
     id="title4591">Arza</title>
  <defs
     id="defs2" />
  <sodipodi:namedview
     id="base"
     pagecolor="#ffffff"
     bordercolor="#000000"
     borderopacity="1"
     inkscape:pageopacity="0"
     inkscape:pageshadow="2"
     inkscape:zoom="1.2983334"
     inkscape:cx="114.83035"
     inkscape:cy="157.55261"
     inkscape:document-units="px"
     inkscape:current-layer="layer1"
     showgrid="false"
     inkscape:window-width="1259"
     inkscape:window-height="1008"
     inkscape:window-x="652"
     inkscape:window-y="0"
     inkscape:window-maximized="0"
     units="px"
     inkscape:pagecheckerboard="true"
     inkscape:showpageshadow="false" />
  <metadata
     id="metadata5">
    <rdf:RDF>
      <cc:Work
         rdf:about="">
        <dc:format>image/svg+xml</dc:format>
        <dc:type
           rdf:resource="http://purl.org/dc/dcmitype/StillImage" />
        <dc:title>Arza</dc:title>
      </cc:Work>
    </rdf:RDF>
  </metadata>
  <g
     inkscape:label="Layer 1"
     inkscape:groupmode="layer"
     id="layer1"
     transform="translate(-25.19399,-81.880557)">
    <path
       style="color:#000000;font-style:normal;font-variant:normal;font-weight:normal;font-stretch:normal;font-size:medium;line-height:normal;font-family:sans-serif;font-variant-ligatures:normal;font-variant-position:normal;font-variant-caps:normal;font-variant-numeric:normal;font-variant-alternates:normal;font-feature-settings:normal;text-indent:0;text-align:start;text-decoration:none;text-decoration-line:none;text-decoration-style:solid;text-decoration-color:#000000;letter-spacing:normal;word-spacing:normal;text-transform:none;writing-mode:lr-tb;direction:ltr;text-orientation:mixed;dominant-baseline:auto;baseline-shift:baseline;text-anchor:start;white-space:normal;shape-padding:0;clip-rule:nonzero;display:inline;overflow:visible;visibility:visible;opacity:1;isolation:auto;mix-blend-mode:normal;color-interpolation:sRGB;color-interpolation-filters:linearRGB;solid-color:#000000;solid-opacity:1;vector-effect:none;fill:#a20000;fill-opacity:1;fill-rule:nonzero;stroke:none;stroke-width:4.4979167;stroke-linecap:butt;stroke-linejoin:miter;stroke-miterlimit:4;stroke-dasharray:none;stroke-dashoffset:0;stroke-opacity:1;color-rendering:auto;image-rendering:auto;shape-rendering:auto;text-rendering:auto;enable-background:accumulate"
       d="m 51.061919,96.663619 c -7.667987,-0.0799 -13.169951,5.391071 -13.223998,14.941201 -0.05789,10.22901 8.629065,14.72566 12.349634,15.79801 12.213612,3.52022 12.582399,5.35807 12.507246,8.59586 -0.08334,3.59067 -2.826279,6.24329 -6.256983,6.33036 -3.899709,0.099 -7.698356,-5.35168 -9.493993,-9.57255 v 8.79068 c 1.864343,2.82682 6.123794,4.78517 9.645922,4.91908 4.772245,0.18144 7.9775,-3.16535 8.138523,-4.0814 0.05407,-0.12414 0.101933,-0.24327 0.153479,-0.36535 0.05153,0.12205 0.09942,0.24124 0.153477,0.36535 0.161023,0.91605 3.365762,4.26284 8.138007,4.0814 3.522128,-0.13391 7.781578,-2.09226 9.645922,-4.91908 v -8.79068 c -1.795637,4.22087 -5.594284,9.67155 -9.493996,9.57255 -3.430701,-0.0871 -6.173123,-2.73969 -6.256464,-6.33036 -0.07515,-3.23779 0.293634,-5.07564 12.507245,-8.59586 3.720571,-1.07235 12.407019,-5.569 12.349118,-15.79801 -0.05404,-9.55013 -5.55601,-15.021061 -13.224,-14.941201 -8.795247,0.0916 -12.014734,6.588241 -11.915034,12.346021 0.04972,2.87166 1.165553,9.5371 9.198922,9.4821 5.375662,-0.0368 6.763422,-5.38715 7.170105,-7.19026 h -4.421952 c -0.82551,2.10627 -2.460344,3.03383 -3.551721,3.03445 -1.980698,10e-4 -3.930513,-1.44187 -3.997172,-5.02657 -0.06919,-3.72076 1.06675,-8.30247 7.811408,-8.28477 6.460995,0.017 8.551764,6.15088 8.588623,9.45731 0.0939,8.42375 -6.76993,12.29473 -10.242269,13.31908 -2.983378,0.8801 -11.59914,3.58543 -12.396142,5.68544 -0.02302,0.054 -0.0416,0.10461 -0.06408,0.15813 -0.02251,-0.0536 -0.04155,-0.10411 -0.0646,-0.15813 -0.796999,-2.10001 -9.412245,-4.80534 -12.395626,-5.68544 -3.472336,-1.02435 -10.336166,-4.89533 -10.242267,-13.31908 0.03686,-3.30643 2.127629,-9.44031 8.588623,-9.45731 6.744659,-0.0177 7.880595,4.56401 7.811409,8.28477 -0.06666,3.5847 -2.01699,5.02768 -3.997688,5.02657 -1.091379,-6.2e-4 -2.725695,-0.92818 -3.551205,-3.03445 h -4.422469 c 0.406682,1.80311 1.794443,7.15343 7.170106,7.19026 8.033369,0.055 9.149715,-6.61044 9.199438,-9.4821 0.0997,-5.75778 -3.120303,-12.254421 -11.915553,-12.346021 z"
       id="path2862"
       inkscape:connector-curvature="0" />
  </g>
</svg>
