<?xml version="1.0" encoding="UTF-8" standalone="no"?>
<!-- Created with Inkscape (http://www.inkscape.org/) -->

<svg
   xmlns:dc="http://purl.org/dc/elements/1.1/"
   xmlns:cc="http://creativecommons.org/ns#"
   xmlns:rdf="http://www.w3.org/1999/02/22-rdf-syntax-ns#"
   xmlns:svg="http://www.w3.org/2000/svg"
   xmlns="http://www.w3.org/2000/svg"
   xmlns:sodipodi="http://sodipodi.sourceforge.net/DTD/sodipodi-0.dtd"
   xmlns:inkscape="http://www.inkscape.org/namespaces/inkscape"
   width="300"
   height="300"
   viewBox="0 0 300 300"
   version="1.1"
   id="svg8"
   inkscape:version="0.92.2 (5c3e80d, 2017-08-06)"
   sodipodi:docname="Scorun.svg"
   inkscape:export-filename="C:\Users\irock\Desktop\Stuff\Images\Homestuck\ezodiac\08 Blue\Derse\Scorun.png"
   inkscape:export-xdpi="320"
   inkscape:export-ydpi="320">
  <title
     id="title4230">Scorun</title>
  <defs
     id="defs2" />
  <sodipodi:namedview
     id="base"
     pagecolor="#ffffff"
     bordercolor="#666666"
     borderopacity="1.0"
     inkscape:pageopacity="0.0"
     inkscape:pageshadow="2"
     inkscape:zoom="1.979899"
     inkscape:cx="154.30732"
     inkscape:cy="158.70906"
     inkscape:document-units="px"
     inkscape:current-layer="layer1"
     showgrid="false"
     showguides="false"
     units="px"
     inkscape:pagecheckerboard="true"
     inkscape:showpageshadow="false" />
  <metadata
     id="metadata5">
    <rdf:RDF>
      <cc:Work
         rdf:about="">
        <dc:format>image/svg+xml</dc:format>
        <dc:type
           rdf:resource="http://purl.org/dc/dcmitype/StillImage" />
        <dc:title>Scorun</dc:title>
      </cc:Work>
    </rdf:RDF>
  </metadata>
  <g
     inkscape:label="Layer 1"
     inkscape:groupmode="layer"
     id="layer1"
     transform="translate(1107.1428,-513.33929)">
    <path
       style="fill:#004183;fill-opacity:1;stroke:none;stroke-width:1px;stroke-linecap:butt;stroke-linejoin:miter;stroke-opacity:1"
       d="m -985.37327,568.2973 c -22.98083,0 -38.69723,25.57672 -38.69723,57.01758 v 93.21289 c 0,9.78583 -3.169,22.9414 -16.8692,22.9414 -14.1546,0 -18.0536,-14.42257 -17.6484,-21.5332 h -17.0391 c 0,17.43946 10.941,38.44531 34.4746,38.44531 18.9423,0 33.8672,-13.43475 33.8672,-41.08789 v -93.67773 c 0,-14.312 7.57867,-38.04883 21.89065,-38.04883 13.59816,0 19.19528,22.29025 19.24218,34.60742 l 0.37891,99.57422 h 17.26172 l 0.37891,-99.57422 c 0.047,-12.31717 5.64408,-34.60742 19.24218,-34.60742 14.312,0 21.89063,23.73683 21.89063,38.04883 v 93.67773 c 0,27.65314 14.92489,41.08789 33.86719,41.08789 23.5336,0 34.47461,-21.00585 34.47461,-38.44531 h -17.03907 c 0.4052,7.11063 -3.49385,21.5332 -17.64843,21.5332 -13.7002,0 -16.86915,-13.15557 -16.86915,-22.9414 v -93.21289 c 0,-31.44086 -15.71646,-57.01758 -38.69726,-57.01758 -16.4733,0 -26.51567,15.60825 -28.23047,19.18164 -1.71478,-3.57339 -11.75718,-19.18164 -28.23047,-19.18164 z"
       id="path4224"
       inkscape:connector-curvature="0" />
  </g>
</svg>
