<?xml version="1.0" encoding="UTF-8" standalone="no"?>
<!-- Created with Inkscape (http://www.inkscape.org/) -->

<svg
   xmlns:dc="http://purl.org/dc/elements/1.1/"
   xmlns:cc="http://creativecommons.org/ns#"
   xmlns:rdf="http://www.w3.org/1999/02/22-rdf-syntax-ns#"
   xmlns:svg="http://www.w3.org/2000/svg"
   xmlns="http://www.w3.org/2000/svg"
   xmlns:sodipodi="http://sodipodi.sourceforge.net/DTD/sodipodi-0.dtd"
   xmlns:inkscape="http://www.inkscape.org/namespaces/inkscape"
   width="300"
   height="300"
   viewBox="0 0 300 300"
   version="1.1"
   id="svg8"
   inkscape:version="0.92.2 (5c3e80d, 2017-08-06)"
   sodipodi:docname="Scoricorn.svg"
   inkscape:export-filename="C:\Users\irock\Desktop\Stuff\Images\Homestuck\ezodiac\08 Blue\Prospit\Scoricorn.png"
   inkscape:export-xdpi="320"
   inkscape:export-ydpi="320">
  <title
     id="title6489">Scoricorn</title>
  <defs
     id="defs2" />
  <sodipodi:namedview
     id="base"
     pagecolor="#ffffff"
     bordercolor="#666666"
     borderopacity="1.0"
     inkscape:pageopacity="0.0"
     inkscape:pageshadow="2"
     inkscape:zoom="1.979899"
     inkscape:cx="150.97532"
     inkscape:cy="128.05659"
     inkscape:document-units="px"
     inkscape:current-layer="layer1"
     showgrid="false"
     showguides="true"
     units="px"
     inkscape:pagecheckerboard="true"
     inkscape:showpageshadow="false" />
  <metadata
     id="metadata5">
    <rdf:RDF>
      <cc:Work
         rdf:about="">
        <dc:format>image/svg+xml</dc:format>
        <dc:type
           rdf:resource="http://purl.org/dc/dcmitype/StillImage" />
        <dc:title>Scoricorn</dc:title>
      </cc:Work>
    </rdf:RDF>
  </metadata>
  <g
     inkscape:label="Layer 1"
     inkscape:groupmode="layer"
     id="layer1"
     transform="translate(495.71429,-416.19641)">
    <path
       style="fill:#004183;fill-opacity:1;stroke:none;stroke-width:1px;stroke-linecap:butt;stroke-linejoin:miter;stroke-opacity:1"
       d="m -345.71429,482.66907 c -39.04669,0 -67.59511,39.88009 -90.14844,103.41406 -6.11973,-30.76351 -10.2279,-59.27461 -24.67383,-83.79883 h -17.48437 c 20.65894,31.50693 28.50314,80.57468 29.15234,129.9043 h 15.2793 c 10.87392,-47.46478 37.61418,-124.73772 80.36914,-133.73633 l 0.12695,108.43555 h -25.57031 l 32.94922,42.83594 32.94922,-42.83594 h -25.57031 l 0.12695,-108.43556 c 42.75496,8.99861 69.49522,86.27156 80.36914,133.73634 h 15.2793 c 0.6492,-49.32962 8.4934,-98.39737 29.15234,-129.9043 h -17.48437 c -14.44593,24.52422 -18.5541,53.03531 -24.67383,83.79882 -22.55333,-63.53396 -51.10175,-103.41406 -90.14844,-103.41405 z"
       id="path6484"
       inkscape:connector-curvature="0" />
  </g>
</svg>
