<?xml version="1.0" encoding="UTF-8" standalone="no"?>
<!-- Created with Inkscape (http://www.inkscape.org/) -->

<svg
   xmlns:dc="http://purl.org/dc/elements/1.1/"
   xmlns:cc="http://creativecommons.org/ns#"
   xmlns:rdf="http://www.w3.org/1999/02/22-rdf-syntax-ns#"
   xmlns:svg="http://www.w3.org/2000/svg"
   xmlns="http://www.w3.org/2000/svg"
   xmlns:sodipodi="http://sodipodi.sourceforge.net/DTD/sodipodi-0.dtd"
   xmlns:inkscape="http://www.inkscape.org/namespaces/inkscape"
   width="300"
   height="300"
   viewBox="0 0 300 300"
   version="1.1"
   id="svg8"
   inkscape:version="0.92.2 (5c3e80d, 2017-08-06)"
   sodipodi:docname="Scornius.svg"
   inkscape:export-filename="C:\Users\irock\Desktop\Stuff\Images\Homestuck\ezodiac\08 Blue\Prospit\Scornius.png"
   inkscape:export-xdpi="320"
   inkscape:export-ydpi="320">
  <title
     id="title5923">Scornius</title>
  <defs
     id="defs2" />
  <sodipodi:namedview
     id="base"
     pagecolor="#ffffff"
     bordercolor="#666666"
     borderopacity="1.0"
     inkscape:pageopacity="0.0"
     inkscape:pageshadow="2"
     inkscape:zoom="1.979899"
     inkscape:cx="129.28932"
     inkscape:cy="117.1429"
     inkscape:document-units="px"
     inkscape:current-layer="layer1"
     showgrid="false"
     showguides="false"
     units="px"
     inkscape:pagecheckerboard="true"
     inkscape:showpageshadow="false" />
  <metadata
     id="metadata5">
    <rdf:RDF>
      <cc:Work
         rdf:about="">
        <dc:format>image/svg+xml</dc:format>
        <dc:type
           rdf:resource="http://purl.org/dc/dcmitype/StillImage" />
        <dc:title>Scornius</dc:title>
      </cc:Work>
    </rdf:RDF>
  </metadata>
  <g
     inkscape:label="Layer 1"
     inkscape:groupmode="layer"
     id="layer1"
     transform="translate(450,1360.9464)">
    <path
       style="fill:#004183;fill-opacity:1;stroke:none;stroke-width:1px;stroke-linecap:butt;stroke-linejoin:miter;stroke-opacity:1"
       d="m -372.14285,-1284.3393 -17.5,8.2143 12.85714,-38.2143 35.71429,16.4285 -17.85714,8.0358 c 11.5568,21.4796 18.42823,55.746 17.14285,69.1071 l 32.14286,-25.5357 v 49.6428 l 20,-15.3571 c 1.77881,-16.7172 1.84118,-47.0618 18.75,-78.9286 h 15.89286 c -14.22455,20.691 -20.17858,52.0615 -20.17858,81.4286 0,31.6926 8.22346,68.401 35.71429,67.6786 l -1.25,-20.3572 30.35714,27.8572 -30.35714,26.7857 1.07143,-19.8214 c -41.36572,-3.9106 -46.19627,-45.3109 -49.10714,-68.2143 l -34.28572,28.0357 v -49.1072 l -18.75,14.6429 c -2.52257,25.5651 -11.64999,56.0738 -18.21428,66.7857 l -14.82143,0.3572 c 15.94882,-34.1818 19.64285,-59.7353 19.64285,-80.7143 0,-21.0913 -5.36425,-48.2796 -16.96428,-68.75 z"
       id="path5921"
       inkscape:connector-curvature="0"
       sodipodi:nodetypes="cccccccccccscccccccccccsc" />
  </g>
</svg>
