<?xml version="1.0" encoding="UTF-8" standalone="no"?>
<!-- Created with Inkscape (http://www.inkscape.org/) -->

<svg
   xmlns:dc="http://purl.org/dc/elements/1.1/"
   xmlns:cc="http://creativecommons.org/ns#"
   xmlns:rdf="http://www.w3.org/1999/02/22-rdf-syntax-ns#"
   xmlns:svg="http://www.w3.org/2000/svg"
   xmlns="http://www.w3.org/2000/svg"
   xmlns:sodipodi="http://sodipodi.sourceforge.net/DTD/sodipodi-0.dtd"
   xmlns:inkscape="http://www.inkscape.org/namespaces/inkscape"
   width="300"
   height="300"
   viewBox="0 0 300 300"
   version="1.1"
   id="svg8"
   inkscape:version="0.92.2 (5c3e80d, 2017-08-06)"
   sodipodi:docname="Scorlo.svg"
   inkscape:export-filename="C:\Users\irock\Desktop\Stuff\Images\Homestuck\ezodiac\08 Blue\Prospit\Scorlo.png"
   inkscape:export-xdpi="320"
   inkscape:export-ydpi="320">
  <title
     id="title2526">Scorlo</title>
  <defs
     id="defs2" />
  <sodipodi:namedview
     id="base"
     pagecolor="#ffffff"
     bordercolor="#666666"
     borderopacity="1.0"
     inkscape:pageopacity="0.0"
     inkscape:pageshadow="2"
     inkscape:zoom="1.979899"
     inkscape:cx="198.45548"
     inkscape:cy="109.18779"
     inkscape:document-units="px"
     inkscape:current-layer="layer1"
     showgrid="false"
     showguides="false"
     units="px"
     inkscape:pagecheckerboard="true"
     inkscape:showpageshadow="false" />
  <metadata
     id="metadata5">
    <rdf:RDF>
      <cc:Work
         rdf:about="">
        <dc:format>image/svg+xml</dc:format>
        <dc:type
           rdf:resource="http://purl.org/dc/dcmitype/StillImage" />
        <dc:title>Scorlo</dc:title>
      </cc:Work>
    </rdf:RDF>
  </metadata>
  <g
     inkscape:label="Layer 1"
     inkscape:groupmode="layer"
     id="layer1"
     transform="translate(375.71429,109.51788)">
    <path
       style="fill:#004183;fill-opacity:1;stroke:none;stroke-width:1px;stroke-linecap:butt;stroke-linejoin:miter;stroke-opacity:1"
       d="m -133.27636,121.63835 -14.2857,-0.53571 c -7.28892,-0.27334 -10.0345,-12.81996 -8.75001,-20.00001 2.90247,-16.224166 7.3149,-29.892376 8.75001,-47.142854 0.63796,-7.668444 -2.38788,-20.124161 -12.67858,-21.42857 -15.64135,-1.982637 -38.39286,28.928567 -38.39286,28.928567 1.8731,-5.321999 0.81188,-25.967342 -13.57142,-26.964281 -15.07507,-1.044887 -33.03572,26.785715 -33.03572,26.785715 -1.12671,-7.80186 -1.80275,-15.340096 -4.82142,-21.250001 l -19.28572,-0.178571 c 3.28136,1.312542 6.78572,18.31647 6.78572,26.964284 0,30.644289 -14.46024,51.250011 -35,51.250011 -18.59824,0 -19.82144,-18.350767 -19.82144,-38.750014 0,-21.753149 6.04017,-44.843745 20.83558,-64.245357 14.79741,-19.4042215 38.38478,-33.683452 66.30728,-35.040353 24.13902,-1.173042 83.13135,0.230874 83.13135,0.230874 l -3.8673,20.0037216 34.79079,-30.1733206 -24.18111,-25.945158 -3.6977,18.658085 c 0,0 -47.2816,-1.521211 -72.26169,-0.674674 -40.36661,1.367963 -69.4798,15.246733 -89.13163,38.6459984 -20.03864,23.8598316 -29.52771,56.7071086 -29.7827,89.0759006 -0.16444,20.873057 9.12918,46.964287 32.49999,46.964287 19.06918,0 46.49541,-14.03707 51.60714,-38.928568 2.93982,-14.315375 20.6458,-46.241737 34.82143,-45.357146 4.84541,0.302364 2.16596,15.522933 1.07143,22.857146 -2.93994,19.699907 -12.5,60.535718 -12.5,60.535718 l 18.57143,0.17857 8.03571,-36.607151 c 4.37545,-19.932627 17.20117,-46.249999 31.60715,-46.249999 4.88011,0 2.33137,13.226754 -0.069,27.340064 -2.19723,12.918883 -4.06753,26.170466 -4.21671,35.695656 -0.1387,8.85657 7.77474,17.43361 17.14286,18.21429 l 23.57143,1.96428 z"
       id="path2524"
       inkscape:connector-curvature="0"
       sodipodi:nodetypes="csssscscccssssscccccsssssssccssssscc" />
  </g>
</svg>
