<?xml version="1.0" encoding="UTF-8" standalone="no"?>
<!-- Created with Inkscape (http://www.inkscape.org/) -->

<svg
   xmlns:dc="http://purl.org/dc/elements/1.1/"
   xmlns:cc="http://creativecommons.org/ns#"
   xmlns:rdf="http://www.w3.org/1999/02/22-rdf-syntax-ns#"
   xmlns:svg="http://www.w3.org/2000/svg"
   xmlns="http://www.w3.org/2000/svg"
   xmlns:sodipodi="http://sodipodi.sourceforge.net/DTD/sodipodi-0.dtd"
   xmlns:inkscape="http://www.inkscape.org/namespaces/inkscape"
   width="300"
   height="300"
   viewBox="0 0 300 300"
   version="1.1"
   id="svg8"
   inkscape:version="0.92.2 (5c3e80d, 2017-08-06)"
   sodipodi:docname="Scoro.svg"
   inkscape:export-filename="C:\Users\irock\Desktop\Stuff\Images\Homestuck\ezodiac\08 Blue\Derse\Scoro.png"
   inkscape:export-xdpi="320"
   inkscape:export-ydpi="320">
  <title
     id="title2533">Scoro</title>
  <defs
     id="defs2" />
  <sodipodi:namedview
     id="base"
     pagecolor="#ffffff"
     bordercolor="#666666"
     borderopacity="1.0"
     inkscape:pageopacity="0.0"
     inkscape:pageshadow="2"
     inkscape:zoom="1.979899"
     inkscape:cx="179.44818"
     inkscape:cy="196.5082"
     inkscape:document-units="px"
     inkscape:current-layer="layer1"
     showgrid="false"
     showguides="false"
     units="px"
     inkscape:pagecheckerboard="true"
     inkscape:showpageshadow="false" />
  <metadata
     id="metadata5">
    <rdf:RDF>
      <cc:Work
         rdf:about="">
        <dc:format>image/svg+xml</dc:format>
        <dc:type
           rdf:resource="http://purl.org/dc/dcmitype/StillImage" />
        <dc:title>Scoro</dc:title>
      </cc:Work>
    </rdf:RDF>
  </metadata>
  <g
     inkscape:label="Layer 1"
     inkscape:groupmode="layer"
     id="layer1"
     transform="translate(738.57141,-479.05356)">
    <path
       style="fill:#004183;fill-opacity:1;stroke:none;stroke-width:1px;stroke-linecap:butt;stroke-linejoin:miter;stroke-opacity:1"
       d="m -694.39953,546.90219 c 0,25.2449 -1.26104,74.97461 31.91797,74.97461 11.39342,0 20.98158,-7.15625 24.91015,-15.53711 v 0.25196 c 2.32143,6.96178 12.69641,15.28515 24.08984,15.28515 11.39342,0 20.98159,-7.15625 24.91016,-15.53711 3.92857,8.38086 13.51674,15.53711 24.91016,15.53711 11.39343,0 21.76841,-8.32337 24.08984,-15.28515 v -0.25196 c 3.92857,8.38086 13.51674,15.53711 24.91016,15.53711 33.17901,0 31.91797,-49.72971 31.91796,-74.97461 h -15.37109 c 0,20.9878 1.92192,58.51563 -16.45703,58.51563 -18.37895,0 -16.91016,-35.701 -16.91016,-58.51563 h -15.63281 c 0,20.9878 1.92192,58.51563 -16.45703,58.51563 -18.37895,0 -16.91016,-35.701 -16.91016,-58.51563 h -16.17968 c 0,22.81463 1.46879,58.51563 -16.91016,58.51563 -18.37895,0 -16.45703,-37.52783 -16.45703,-58.51563 h -15.63281 c 0,22.81463 1.46879,58.51563 -16.91016,58.51563 -18.37895,0 -16.45703,-37.52783 -16.45703,-58.51563 z m 31.91797,89.32813 c -33.17901,0 -31.91798,49.72971 -31.91797,74.97461 h 15.37109 c 0,-20.9878 -1.92192,-58.51563 16.45703,-58.51563 18.37895,0 16.91016,35.701 16.91016,58.51563 h 15.63281 c 0,-20.9878 -1.92192,-58.51563 16.45703,-58.51563 18.37895,0 16.91016,35.701 16.91016,58.51563 h 16.17968 c 0,-22.81463 -1.46879,-58.51563 16.91016,-58.51563 18.37895,0 16.45703,37.52783 16.45703,58.51563 h 15.63281 c 0,-22.81463 -1.46879,-58.51563 16.91016,-58.51563 18.37895,0 16.45703,37.52783 16.45703,58.51563 h 15.37109 c 0,-25.2449 1.26105,-74.97461 -31.91796,-74.97461 -11.39342,0 -20.98159,7.15625 -24.91016,15.53711 v -0.25195 c -2.32143,-6.96178 -12.69641,-15.28516 -24.08984,-15.28516 -11.39342,0 -20.98159,7.15625 -24.91016,15.53711 -3.92857,-8.38086 -13.51674,-15.53711 -24.91016,-15.53711 -11.39343,0 -21.76841,8.32338 -24.08984,15.28516 v 0.25195 c -3.92857,-8.38086 -13.51673,-15.53711 -24.91015,-15.53711 z"
       id="path2521"
       inkscape:connector-curvature="0" />
  </g>
</svg>
