<?xml version="1.0" encoding="UTF-8" standalone="no"?>
<!-- Created with Inkscape (http://www.inkscape.org/) -->

<svg
   xmlns:dc="http://purl.org/dc/elements/1.1/"
   xmlns:cc="http://creativecommons.org/ns#"
   xmlns:rdf="http://www.w3.org/1999/02/22-rdf-syntax-ns#"
   xmlns:svg="http://www.w3.org/2000/svg"
   xmlns="http://www.w3.org/2000/svg"
   xmlns:sodipodi="http://sodipodi.sourceforge.net/DTD/sodipodi-0.dtd"
   xmlns:inkscape="http://www.inkscape.org/namespaces/inkscape"
   width="300"
   height="300"
   viewBox="0 0 300 300"
   version="1.1"
   id="svg8"
   inkscape:version="0.92.2 (5c3e80d, 2017-08-06)"
   sodipodi:docname="Scorittanius.svg"
   inkscape:export-filename="C:\Users\irock\Desktop\Stuff\Images\Homestuck\ezodiac\08 Blue\Prospit\Scorittanius.png"
   inkscape:export-xdpi="320"
   inkscape:export-ydpi="320">
  <title
     id="title7053">Scorittanius</title>
  <defs
     id="defs2" />
  <sodipodi:namedview
     id="base"
     pagecolor="#ffffff"
     bordercolor="#666666"
     borderopacity="1.0"
     inkscape:pageopacity="0.0"
     inkscape:pageshadow="2"
     inkscape:zoom="2.8"
     inkscape:cx="122.45464"
     inkscape:cy="132.52887"
     inkscape:document-units="px"
     inkscape:current-layer="layer1"
     showgrid="false"
     showguides="false"
     units="px"
     inkscape:pagecheckerboard="true"
     inkscape:showpageshadow="false" />
  <metadata
     id="metadata5">
    <rdf:RDF>
      <cc:Work
         rdf:about="">
        <dc:format>image/svg+xml</dc:format>
        <dc:type
           rdf:resource="http://purl.org/dc/dcmitype/StillImage" />
        <dc:title>Scorittanius</dc:title>
      </cc:Work>
    </rdf:RDF>
  </metadata>
  <g
     inkscape:label="Layer 1"
     inkscape:groupmode="layer"
     id="layer1"
     transform="translate(844.28571,-279.05356)">
    <path
       style="fill:#004183;fill-opacity:1;stroke:none;stroke-width:1px;stroke-linecap:butt;stroke-linejoin:miter;stroke-opacity:1"
       d="m -748.61807,519.76785 h 16.56428 l -2.8e-4,-125.71429 c -10e-6,-2.73931 4.25738,-38.83929 26.786,-38.83929 21.33411,0 26.45,28.07258 26.45,35.08403 v 129.46955 h 16.94286 l 1.4e-4,-36.67368 c 6e-5,-16.9185 9.27112,-28.64014 23.82383,-28.64014 15.12959,0 19.03317,16.01299 19.03317,27.9438 v 37.37002 l 16.42857,0.35714 0.35714,-42.85714 c 0.0644,-7.73179 -6.86358,-39.93501 -35.31381,-39.93501 -10.66605,0 -17.00802,1.9869 -24.5379,7.79215 l -3.5e-4,-53.3944 c -1.3e-4,-19.21445 -15.29526,-53.74845 -43.89794,-53.74845 -19.69741,0 -29.02984,13.68702 -34.82142,24.99999 -7.21411,-11.34408 -20.6713,-23.81134 -45.53529,-24.99999 l -4.3e-4,16.69643 c 34.73876,4.33312 37.72143,28.98359 37.72143,43.30357 z"
       id="path7050"
       inkscape:connector-curvature="0"
       sodipodi:nodetypes="ccsssccsscccsscsscccsc" />
  </g>
</svg>
