<?xml version="1.0" encoding="UTF-8" standalone="no"?>
<!-- Created with Inkscape (http://www.inkscape.org/) -->

<svg
   xmlns:dc="http://purl.org/dc/elements/1.1/"
   xmlns:cc="http://creativecommons.org/ns#"
   xmlns:rdf="http://www.w3.org/1999/02/22-rdf-syntax-ns#"
   xmlns:svg="http://www.w3.org/2000/svg"
   xmlns="http://www.w3.org/2000/svg"
   xmlns:sodipodi="http://sodipodi.sourceforge.net/DTD/sodipodi-0.dtd"
   xmlns:inkscape="http://www.inkscape.org/namespaces/inkscape"
   width="300"
   height="300"
   viewBox="0 0 300 300"
   version="1.1"
   id="svg8"
   inkscape:version="0.92.2 (5c3e80d, 2017-08-06)"
   sodipodi:docname="Scorcen.svg"
   inkscape:export-filename="C:\Users\irock\Desktop\Stuff\Images\Homestuck\ezodiac\08 Blue\Derse\Scorcen.png"
   inkscape:export-xdpi="320"
   inkscape:export-ydpi="320">
  <title
     id="title3097">Scorcen</title>
  <defs
     id="defs2" />
  <sodipodi:namedview
     id="base"
     pagecolor="#ffffff"
     bordercolor="#666666"
     borderopacity="1.0"
     inkscape:pageopacity="0.0"
     inkscape:pageshadow="2"
     inkscape:zoom="1.4"
     inkscape:cx="192.88746"
     inkscape:cy="139.94563"
     inkscape:document-units="px"
     inkscape:current-layer="layer1"
     showgrid="false"
     showguides="false"
     units="px"
     inkscape:pagecheckerboard="true"
     inkscape:showpageshadow="false" />
  <metadata
     id="metadata5">
    <rdf:RDF>
      <cc:Work
         rdf:about="">
        <dc:format>image/svg+xml</dc:format>
        <dc:type
           rdf:resource="http://purl.org/dc/dcmitype/StillImage" />
        <dc:title>Scorcen</dc:title>
      </cc:Work>
    </rdf:RDF>
  </metadata>
  <g
     inkscape:label="Layer 1"
     inkscape:groupmode="layer"
     id="layer1"
     transform="translate(818.57141,46.660736)">
    <path
       style="fill:#004183;fill-opacity:1;stroke:none;stroke-width:1px;stroke-linecap:butt;stroke-linejoin:miter;stroke-opacity:1"
       d="m -704.21301,-0.095306 c -23.99243,0 -41.65233,31.8424 -42.20508,36.158203 h 18.76172 c 0,0 12.51057,-19.476562 22.73828,-19.476562 5.39823,0 5.03319,9.070652 5.0332,14.304687 V 195.80898 h 16.66211 l -0.002,-103.755852 c -1.2e-4,-25.83442 30.74125,-63.757809 50.14648,-63.757809 7.22732,0 8.54881,8.92759 8.54883,14.740235 V 162.86367 h -16.26172 l 24.87305,43.91016 25.19336,-43.91016 h -16.99609 V 44.016022 c 5e-5,-18.560321 -8.62398,-32.630859 -25.36719,-32.630859 -22.23158,0 -44.32287,24.971192 -50.73633,33.992187 0.9768,-10.455024 4.18481,-45.472656 -20.38867,-45.472656 z"
       id="path3094"
       inkscape:connector-curvature="0" />
  </g>
</svg>
