<?xml version="1.0" encoding="UTF-8" standalone="no"?>
<!-- Created with Inkscape (http://www.inkscape.org/) -->

<svg
   xmlns:dc="http://purl.org/dc/elements/1.1/"
   xmlns:cc="http://creativecommons.org/ns#"
   xmlns:rdf="http://www.w3.org/1999/02/22-rdf-syntax-ns#"
   xmlns:svg="http://www.w3.org/2000/svg"
   xmlns="http://www.w3.org/2000/svg"
   xmlns:sodipodi="http://sodipodi.sourceforge.net/DTD/sodipodi-0.dtd"
   xmlns:inkscape="http://www.inkscape.org/namespaces/inkscape"
   width="300"
   height="300"
   viewBox="0 0 300 300"
   version="1.1"
   id="svg8"
   inkscape:version="0.92.2 (5c3e80d, 2017-08-06)"
   sodipodi:docname="Scorrius.svg"
   inkscape:export-filename="C:\Users\irock\Desktop\Stuff\Images\Homestuck\ezodiac\08 Blue\Derse\Scorrius.png"
   inkscape:export-xdpi="320"
   inkscape:export-ydpi="320">
  <title
     id="title5948">Scorrius</title>
  <defs
     id="defs2" />
  <sodipodi:namedview
     id="base"
     pagecolor="#ffffff"
     bordercolor="#666666"
     borderopacity="1.0"
     inkscape:pageopacity="0.0"
     inkscape:pageshadow="2"
     inkscape:zoom="1.979899"
     inkscape:cx="210.31181"
     inkscape:cy="188.81058"
     inkscape:document-units="px"
     inkscape:current-layer="layer1"
     showgrid="false"
     showguides="false"
     units="px"
     inkscape:pagecheckerboard="true"
     inkscape:showpageshadow="false" />
  <metadata
     id="metadata5">
    <rdf:RDF>
      <cc:Work
         rdf:about="">
        <dc:format>image/svg+xml</dc:format>
        <dc:type
           rdf:resource="http://purl.org/dc/dcmitype/StillImage" />
        <dc:title>Scorrius</dc:title>
      </cc:Work>
    </rdf:RDF>
  </metadata>
  <g
     inkscape:label="Layer 1"
     inkscape:groupmode="layer"
     id="layer1"
     transform="translate(821.42859,-533.33929)">
    <path
       style="fill:#004183;fill-opacity:1;stroke:none;stroke-width:1px;stroke-linecap:butt;stroke-linejoin:miter;stroke-opacity:1"
       d="m -784.1239,601.37249 v 16.03711 h 225.39062 v -16.03711 z m 0,42.30079 v 16.03515 h 225.39062 v -16.03515 z m 60.48242,33.71289 c -46.58248,0 -59.59766,52.63646 -59.59766,87.91992 h 16.03516 c 0,-26.40401 10.42412,-71.63086 44.06836,-71.63086 43.62222,0 43.94141,66.65144 43.94141,71.63086 h 16.11718 c 0,-4.97942 0.31919,-71.63086 43.94141,-71.63086 33.64424,0 44.06836,45.22685 44.06836,71.63086 h 16.03516 c 0,-35.28346 -13.01518,-87.91992 -59.59766,-87.91992 -33.42113,0 -46.79468,26.21349 -52.50586,39.03515 -5.71118,-12.82166 -19.08473,-39.03515 -52.50586,-39.03515 z"
       id="path5938"
       inkscape:connector-curvature="0" />
  </g>
</svg>
