<?xml version="1.0" encoding="UTF-8" standalone="no"?>
<!-- Created with Inkscape (http://www.inkscape.org/) -->

<svg
   xmlns:dc="http://purl.org/dc/elements/1.1/"
   xmlns:cc="http://creativecommons.org/ns#"
   xmlns:rdf="http://www.w3.org/1999/02/22-rdf-syntax-ns#"
   xmlns:svg="http://www.w3.org/2000/svg"
   xmlns="http://www.w3.org/2000/svg"
   xmlns:sodipodi="http://sodipodi.sourceforge.net/DTD/sodipodi-0.dtd"
   xmlns:inkscape="http://www.inkscape.org/namespaces/inkscape"
   width="300"
   height="300"
   viewBox="0 0 300 300"
   version="1.1"
   id="svg8"
   inkscape:version="0.92.2 (5c3e80d, 2017-08-06)"
   sodipodi:docname="Scorpio.svg"
   inkscape:export-filename="C:\Users\irock\Desktop\Stuff\Images\Homestuck\ezodiac\08 Blue\Prospit\Scorpio.png"
   inkscape:export-xdpi="320"
   inkscape:export-ydpi="320">
  <title
     id="title826">Scorpio</title>
  <defs
     id="defs2" />
  <sodipodi:namedview
     id="base"
     pagecolor="#ffffff"
     bordercolor="#666666"
     borderopacity="1.0"
     inkscape:pageopacity="0.0"
     inkscape:pageshadow="2"
     inkscape:zoom="1.979899"
     inkscape:cx="193.13098"
     inkscape:cy="92.737333"
     inkscape:document-units="px"
     inkscape:current-layer="layer1"
     showgrid="false"
     showguides="false"
     units="px"
     inkscape:pagecheckerboard="true"
     inkscape:showpageshadow="false" />
  <metadata
     id="metadata5">
    <rdf:RDF>
      <cc:Work
         rdf:about="">
        <dc:format>image/svg+xml</dc:format>
        <dc:type
           rdf:resource="http://purl.org/dc/dcmitype/StillImage" />
        <dc:title>Scorpio</dc:title>
      </cc:Work>
    </rdf:RDF>
  </metadata>
  <g
     inkscape:label="Layer 1"
     inkscape:groupmode="layer"
     id="layer1"
     transform="translate(644.28571,-401.91071)">
    <path
       style="fill:#004182;fill-opacity:1;stroke:none;stroke-width:1px;stroke-linecap:butt;stroke-linejoin:miter;stroke-opacity:1"
       d="m -524.84333,456.19879 c -16.00518,0 -29.06367,21.57909 -29.11523,26.14649 -2.75677,-8.2341 -4.67612,-19.39428 -10.08985,-22.31446 l -16.60547,0.9043 c 5.82681,4.67222 11.12913,15.97905 11.08594,29.36133 l -0.125,117.36914 h 16.43945 l -0.3789,-95.35156 c -0.0649,-16.34433 16.2148,-39.70117 24.24414,-39.70117 4.81886,0 4.16325,8.40972 4.1875,13.22851 l 0.48438,121.82422 h 15.9082 l 0.94531,-94.71484 c 0.11725,-11.74922 10.97609,-39.32618 21.40625,-39.32618 4.06163,0 6.02836,4.15366 6.06055,7.32227 l 1.31445,129.42578 c 0.10361,10.19705 8.97417,23.10743 20.58204,23.10743 h 28.81386 v 14.14257 l 21.76817,-21.5918 -21.76817,-17.92968 V 621.232 h -23.04824 c -4.77528,-8e-5 -11.12426,-5.85363 -11.13086,-10.62891 l -0.17773,-129.32422 c -0.0127,-9.19252 -3.88196,-24.64844 -15.93164,-24.64844 -9.09541,0 -20.44482,5.93695 -30.53516,26.51563 0,0 -1.4021,-26.94727 -14.33399,-26.94727 z"
       id="path823"
       inkscape:connector-curvature="0"
       sodipodi:nodetypes="scccccccsccccsccsccccccccscs" />
  </g>
</svg>
