<?xml version="1.0" encoding="UTF-8" standalone="no"?>
<!-- Created with Inkscape (http://www.inkscape.org/) -->

<svg
   xmlns:dc="http://purl.org/dc/elements/1.1/"
   xmlns:cc="http://creativecommons.org/ns#"
   xmlns:rdf="http://www.w3.org/1999/02/22-rdf-syntax-ns#"
   xmlns:svg="http://www.w3.org/2000/svg"
   xmlns="http://www.w3.org/2000/svg"
   xmlns:sodipodi="http://sodipodi.sourceforge.net/DTD/sodipodi-0.dtd"
   xmlns:inkscape="http://www.inkscape.org/namespaces/inkscape"
   width="300"
   height="300"
   viewBox="0 0 300 300"
   version="1.1"
   id="svg8"
   inkscape:version="0.92.2 (5c3e80d, 2017-08-06)"
   sodipodi:docname="Scormini.svg"
   inkscape:export-filename="C:\Users\irock\Desktop\Stuff\Images\Homestuck\ezodiac\08 Blue\Derse\Scormini.png"
   inkscape:export-xdpi="320"
   inkscape:export-ydpi="320">
  <title
     id="title3663">Scormini</title>
  <defs
     id="defs2" />
  <sodipodi:namedview
     id="base"
     pagecolor="#ffffff"
     bordercolor="#666666"
     borderopacity="1.0"
     inkscape:pageopacity="0.0"
     inkscape:pageshadow="2"
     inkscape:zoom="1.979899"
     inkscape:cx="144.70251"
     inkscape:cy="150.46935"
     inkscape:document-units="px"
     inkscape:current-layer="layer1"
     showgrid="false"
     showguides="false"
     units="px"
     inkscape:pagecheckerboard="true"
     inkscape:showpageshadow="false" />
  <metadata
     id="metadata5">
    <rdf:RDF>
      <cc:Work
         rdf:about="">
        <dc:format>image/svg+xml</dc:format>
        <dc:type
           rdf:resource="http://purl.org/dc/dcmitype/StillImage" />
        <dc:title>Scormini</dc:title>
      </cc:Work>
    </rdf:RDF>
  </metadata>
  <g
     inkscape:label="Layer 1"
     inkscape:groupmode="layer"
     id="layer1"
     transform="translate(327.14285,-507.62497)">
    <path
       style="fill:#004182;fill-opacity:1;stroke:none;stroke-width:1px;stroke-linecap:butt;stroke-linejoin:miter;stroke-opacity:1"
       d="m -185.16043,562.10251 c -17.00344,0 -34.4673,24.02052 -35.79688,31.88282 -1.29564,-7.1366 -6.02845,-21.44206 -11.61718,-27.21094 l -21.27735,1.51562 c 12.50841,11.47792 13.57422,25.55485 13.57422,39.08008 v 40.1543 h -43.31054 v 19.82422 h 43.31054 v 81.63281 h 19.88672 l 0.42773,-81.63281 h 34.61328 v 81.63281 h 19.88672 l 0.91602,-81.63281 h 34.47265 l 1.29297,85.79882 h 18.3086 l -0.0684,-85.79882 h 39.843754 v -19.82422 h -39.859384 l -0.043,-55.5586 c -0.01,-12.74379 -6.8899,-29.54687 -20.51758,-29.54687 -17.9783,0 -34.39328,26.1039 -36.42968,33.33398 0,0 -1.75285,-33.65039 -17.61328,-33.65039 z m -6.1875,20.20313 c 5.60208,0 5.99804,12.77063 5.99804,16.47851 v 48.74024 h -34.50976 l 0.10156,-19.38281 c 0.11176,-21.39097 21.55896,-45.83594 28.41016,-45.83594 z m 52.96875,1.32617 c 4.47479,0 7.135,6.094 7.19921,10.35352 l 0.80665,53.53906 h -33.95118 l 0.1875,-16.60547 c 0.19099,-17.0065 14.74803,-47.28711 25.75782,-47.28711 z"
       id="path3658"
       inkscape:connector-curvature="0" />
  </g>
</svg>
