<?xml version="1.0" encoding="UTF-8" standalone="no"?>
<!-- Created with Inkscape (http://www.inkscape.org/) -->

<svg
   xmlns:dc="http://purl.org/dc/elements/1.1/"
   xmlns:cc="http://creativecommons.org/ns#"
   xmlns:rdf="http://www.w3.org/1999/02/22-rdf-syntax-ns#"
   xmlns:svg="http://www.w3.org/2000/svg"
   xmlns="http://www.w3.org/2000/svg"
   xmlns:sodipodi="http://sodipodi.sourceforge.net/DTD/sodipodi-0.dtd"
   xmlns:inkscape="http://www.inkscape.org/namespaces/inkscape"
   width="300"
   height="300"
   viewBox="0 0 300 300"
   version="1.1"
   id="svg8"
   inkscape:version="0.92.2 (5c3e80d, 2017-08-06)"
   sodipodi:docname="Scorgo.svg"
   inkscape:export-filename="C:\Users\irock\Desktop\Stuff\Images\Homestuck\ezodiac\08 Blue\Prospit\Scorgo.png"
   inkscape:export-xdpi="320"
   inkscape:export-ydpi="320">
  <title
     id="title1963">Scorgo</title>
  <defs
     id="defs2" />
  <sodipodi:namedview
     id="base"
     pagecolor="#ffffff"
     bordercolor="#666666"
     borderopacity="1.0"
     inkscape:pageopacity="0.0"
     inkscape:pageshadow="2"
     inkscape:zoom="1.979899"
     inkscape:cx="171.29459"
     inkscape:cy="133.48794"
     inkscape:document-units="px"
     inkscape:current-layer="layer1"
     showgrid="false"
     showguides="false"
     units="px"
     inkscape:pagecheckerboard="true"
     inkscape:showpageshadow="false" />
  <metadata
     id="metadata5">
    <rdf:RDF>
      <cc:Work
         rdf:about="">
        <dc:format>image/svg+xml</dc:format>
        <dc:type
           rdf:resource="http://purl.org/dc/dcmitype/StillImage" />
        <dc:title>Scorgo</dc:title>
      </cc:Work>
    </rdf:RDF>
  </metadata>
  <g
     inkscape:label="Layer 1"
     inkscape:groupmode="layer"
     id="layer1"
     transform="translate(184.28572,-76.196411)">
    <path
       style="color:#000000;font-style:normal;font-variant:normal;font-weight:normal;font-stretch:normal;font-size:medium;line-height:normal;font-family:sans-serif;font-variant-ligatures:normal;font-variant-position:normal;font-variant-caps:normal;font-variant-numeric:normal;font-variant-alternates:normal;font-feature-settings:normal;text-indent:0;text-align:start;text-decoration:none;text-decoration-line:none;text-decoration-style:solid;text-decoration-color:#000000;letter-spacing:normal;word-spacing:normal;text-transform:none;writing-mode:lr-tb;direction:ltr;text-orientation:mixed;dominant-baseline:auto;baseline-shift:baseline;text-anchor:start;white-space:normal;shape-padding:0;clip-rule:nonzero;display:inline;overflow:visible;visibility:visible;opacity:1;isolation:auto;mix-blend-mode:normal;color-interpolation:sRGB;color-interpolation-filters:linearRGB;solid-color:#000000;solid-opacity:1;vector-effect:none;fill:#004183;fill-opacity:1;fill-rule:nonzero;stroke:none;stroke-width:14.52299976;stroke-linecap:butt;stroke-linejoin:miter;stroke-miterlimit:4;stroke-dasharray:none;stroke-dashoffset:0;stroke-opacity:1;color-rendering:auto;image-rendering:auto;shape-rendering:auto;text-rendering:auto;enable-background:accumulate"
       d="m -44.686114,135.60462 c -20.41089,0 -48.384421,25.4427 -56.626946,38.65234 0.2359,-10.81921 -2.10695,-23.74066 -8.86914,-29.39844 l -16.84571,-0.34179 c 6.47606,5.97423 9.94401,14.2068 9.95313,19.16406 l 0.26758,145.60742 h 15.61523 l -0.52148,-99.82812 c -0.05,-9.59836 10.050229,-23.35415 21.392576,-35.60352 11.77424,-12.7158 25.27266,-23.93164 35,-23.93164 6.93148,0 9.41486,12.04399 9.32617,18.7207 l -0.66601,34.03711 c -27.96226,3.82375 -49.64063,27.84134 -49.64063,56.7793 0,31.58384 25.81737,57.32617 57.45117,57.32617 31.6338,0 57.45117,-25.74233 57.45117,-57.32617 0,-28.66253 -21.26174,-52.51069 -48.83789,-56.67774 0.24311,-8.06795 32.71809,-52.45703 53.58789,-52.45703 9.20786,0 10.23936,16.97365 10.24805,22.30469 l 0.22461,137.65625 h 14.63281 l -0.5957,-138.62891 c -0.06064,-14.08099 -4.4518,-35.78711 -22.55078,-35.78711 -26.71976,0 -54.69636,35.79678 -56.64258,38.52149 2.84321,-17.20176 -3.88052,-38.78906 -23.35352,-38.78906 z m 23.28125,81.70312 c 20.2225,3.49424 35.48438,20.97177 35.48438,42.1543 0,21.06642 -15.09512,38.47028 -35.15234,42.09765 z m -15.52148,0.11133 0.37109,84.15234 c -20.09182,-3.59942 -35.22265,-21.01841 -35.22265,-42.10937 0,-20.96126 14.94439,-38.29699 34.85156,-42.04297 z"
       id="path1956"
       inkscape:connector-curvature="0" />
  </g>
</svg>
