<?xml version="1.0" encoding="UTF-8" standalone="no"?>
<!-- Created with Inkscape (http://www.inkscape.org/) -->

<svg
   xmlns:dc="http://purl.org/dc/elements/1.1/"
   xmlns:cc="http://creativecommons.org/ns#"
   xmlns:rdf="http://www.w3.org/1999/02/22-rdf-syntax-ns#"
   xmlns:svg="http://www.w3.org/2000/svg"
   xmlns="http://www.w3.org/2000/svg"
   xmlns:sodipodi="http://sodipodi.sourceforge.net/DTD/sodipodi-0.dtd"
   xmlns:inkscape="http://www.inkscape.org/namespaces/inkscape"
   width="79.375mm"
   height="79.375mm"
   viewBox="0 0 79.375 79.375"
   version="1.1"
   id="svg21775"
   inkscape:version="0.92.2 (5c3e80d, 2017-08-06)"
   sodipodi:docname="Camino.svg"
   inkscape:export-filename="C:\Users\irock\Desktop\Stuff\Images\Homestuck\ezodiac\04 Lime\Prospit\Camino.png"
   inkscape:export-xdpi="320"
   inkscape:export-ydpi="320">
  <title
     id="title22337">Camino</title>
  <defs
     id="defs21769" />
  <sodipodi:namedview
     id="base"
     pagecolor="#ffffff"
     bordercolor="#666666"
     borderopacity="1.0"
     inkscape:pageopacity="0.0"
     inkscape:pageshadow="2"
     inkscape:zoom="1.979899"
     inkscape:cx="-65.397994"
     inkscape:cy="173.82098"
     inkscape:document-units="mm"
     inkscape:current-layer="layer1"
     showgrid="false" />
  <metadata
     id="metadata21772">
    <rdf:RDF>
      <cc:Work
         rdf:about="">
        <dc:format>image/svg+xml</dc:format>
        <dc:type
           rdf:resource="http://purl.org/dc/dcmitype/StillImage" />
        <dc:title>Camino</dc:title>
      </cc:Work>
    </rdf:RDF>
  </metadata>
  <g
     inkscape:label="Layer 1"
     inkscape:groupmode="layer"
     id="layer1"
     transform="translate(56.223957,-86.278275)">
    <path
       style="fill:#678900;fill-opacity:1;stroke:none;stroke-width:0.26458332px;stroke-linecap:butt;stroke-linejoin:miter;stroke-opacity:1"
       d="m -22.876382,99.498246 c -7.599016,18.111764 -17.383111,21.491334 -24.795384,22.158854 v 4.08192 c 10.260842,0.31108 19.916674,-7.14997 25.645462,-18.02009 4.447844,8.62535 2.759773,14.5883 2.264462,18.02009 8.827302,0.78767 17.6890867,-2.82433 26.6417849,-18.08727 1.8290619,4.43858 3.6458051,9.01362 3.6245851,17.39946 h 4.094324 c -0.06388,-8.56466 -0.390271,-17.17477 -8.7529563,-25.51214 -6.15881199,13.76759 -13.1033994,20.25592 -20.6467997,21.68808 0.546595,-13.27443 -5.615292,-19.11179 -8.075478,-21.728904 z m 0,26.593204 c -7.599016,18.11178 -17.383111,21.49134 -24.795384,22.15886 v 4.08192 c 10.260842,0.31108 19.916674,-7.14997 25.645462,-18.02009 4.447844,8.62535 2.759773,14.5883 2.264462,18.02009 8.827302,0.78767 17.6890867,-2.82381 26.6417849,-18.08675 1.8290619,4.43858 3.6458051,9.0131 3.6245851,17.39894 h 4.094324 c -0.06388,-8.56466 -0.390271,-17.17477 -8.7529563,-25.51214 -6.15881199,13.76759 -13.1033994,20.25592 -20.6467997,21.68808 0.546595,-13.27443 -5.615292,-19.11179 -8.075478,-21.72891 z"
       id="path22331"
       inkscape:connector-curvature="0" />
  </g>
</svg>
