<?xml version="1.0" encoding="UTF-8" standalone="no"?>
<!-- Created with Inkscape (http://www.inkscape.org/) -->

<svg
   xmlns:dc="http://purl.org/dc/elements/1.1/"
   xmlns:cc="http://creativecommons.org/ns#"
   xmlns:rdf="http://www.w3.org/1999/02/22-rdf-syntax-ns#"
   xmlns:svg="http://www.w3.org/2000/svg"
   xmlns="http://www.w3.org/2000/svg"
   xmlns:sodipodi="http://sodipodi.sourceforge.net/DTD/sodipodi-0.dtd"
   xmlns:inkscape="http://www.inkscape.org/namespaces/inkscape"
   width="79.375mm"
   height="79.375mm"
   viewBox="0 0 79.375 79.375"
   version="1.1"
   id="svg21196"
   inkscape:version="0.92.2 (5c3e80d, 2017-08-06)"
   sodipodi:docname="Cancer.svg"
   inkscape:export-filename="C:\Users\irock\Desktop\Stuff\Images\Homestuck\ezodiac\04 Lime\Prospit\Cancer.png"
   inkscape:export-xdpi="320"
   inkscape:export-ydpi="320">
  <title
     id="title21767">Cancer</title>
  <defs
     id="defs21190" />
  <sodipodi:namedview
     id="base"
     pagecolor="#ffffff"
     bordercolor="#666666"
     borderopacity="1.0"
     inkscape:pageopacity="0.0"
     inkscape:pageshadow="2"
     inkscape:zoom="1.979899"
     inkscape:cx="-15.979838"
     inkscape:cy="140.97294"
     inkscape:document-units="mm"
     inkscape:current-layer="layer1"
     showgrid="false" />
  <metadata
     id="metadata21193">
    <rdf:RDF>
      <cc:Work
         rdf:about="">
        <dc:format>image/svg+xml</dc:format>
        <dc:type
           rdf:resource="http://purl.org/dc/dcmitype/StillImage" />
        <dc:title>Cancer</dc:title>
      </cc:Work>
    </rdf:RDF>
  </metadata>
  <g
     inkscape:label="Layer 1"
     inkscape:groupmode="layer"
     id="layer1"
     transform="translate(65.479012,-141.18388)">
    <path
       style="color:#000000;font-style:normal;font-variant:normal;font-weight:normal;font-stretch:normal;font-size:medium;line-height:normal;font-family:sans-serif;font-variant-ligatures:normal;font-variant-position:normal;font-variant-caps:normal;font-variant-numeric:normal;font-variant-alternates:normal;font-feature-settings:normal;text-indent:0;text-align:start;text-decoration:none;text-decoration-line:none;text-decoration-style:solid;text-decoration-color:#000000;letter-spacing:normal;word-spacing:normal;text-transform:none;writing-mode:lr-tb;direction:ltr;text-orientation:mixed;dominant-baseline:auto;baseline-shift:baseline;text-anchor:start;white-space:normal;shape-padding:0;clip-rule:nonzero;display:inline;overflow:visible;visibility:visible;opacity:1;isolation:auto;mix-blend-mode:normal;color-interpolation:sRGB;color-interpolation-filters:linearRGB;solid-color:#000000;solid-opacity:1;vector-effect:none;fill:#6c6c6c;fill-opacity:1;fill-rule:nonzero;stroke:none;stroke-width:2.81093311;stroke-linecap:butt;stroke-linejoin:miter;stroke-miterlimit:4;stroke-dasharray:none;stroke-dashoffset:0;stroke-opacity:1;color-rendering:auto;image-rendering:auto;shape-rendering:auto;text-rendering:auto;enable-background:accumulate"
       d="m -24.426737,161.18008 c -8.805014,0 -17.973169,3.16244 -22.475114,6.535 -2.580887,1.93343 -4.331519,4.94533 -4.331519,8.39793 0,5.70286 4.668743,10.35131 10.384379,10.35131 5.715635,0 10.384896,-4.64845 10.384896,-10.35131 0,-3.96004 -2.252475,-7.40896 -5.542296,-9.14827 2.456423,-1.01421 7.044986,-1.84227 11.579654,-1.84227 7.425618,0 15.2272808,1.63491 23.5479159,5.66839 v -4.87826 c -8.5935898,-3.55513 -17.7003949,-4.73252 -23.5479159,-4.73252 z m -16.422254,7.39386 c 4.202147,0 7.574214,3.36104 7.574214,7.53907 0,4.17803 -3.372067,7.54115 -7.574214,7.54115 -4.202148,0 -7.572147,-3.36312 -7.572147,-7.54115 0,-4.17803 3.369999,-7.53907 7.572147,-7.53907 z m 30.114957,6.7045 c -5.715635,0 -10.384896,4.64845 -10.384896,10.35131 0,3.96004 2.252475,7.40896 5.542299,9.14827 -2.456426,1.01422 -7.044987,1.84227 -11.579657,1.84227 -7.425615,0 -15.22728,-1.63491 -23.547915,-5.66839 v 4.87826 c 8.59359,3.55513 17.700396,4.73252 23.547915,4.73252 8.805016,0 17.9731698,-3.16244 22.475116,-6.535 2.5808861,-1.93343 4.33151756,-4.94533 4.33151756,-8.39793 0,-5.70286 -4.66874486,-10.35131 -10.38437956,-10.35131 z m 0,2.81017 c 4.2021493,0 7.5721472,3.36311 7.5721472,7.54114 0,4.17803 -3.3699979,7.53907 -7.5721472,7.53907 -4.202147,0 -7.574214,-3.36104 -7.574214,-7.53907 0,-4.17803 3.372067,-7.54114 7.574214,-7.54114 z"
       id="path21752"
       inkscape:connector-curvature="0" />
  </g>
</svg>
