<?xml version="1.0" encoding="UTF-8" standalone="no"?>
<!-- Created with Inkscape (http://www.inkscape.org/) -->

<svg
   xmlns:dc="http://purl.org/dc/elements/1.1/"
   xmlns:cc="http://creativecommons.org/ns#"
   xmlns:rdf="http://www.w3.org/1999/02/22-rdf-syntax-ns#"
   xmlns:svg="http://www.w3.org/2000/svg"
   xmlns="http://www.w3.org/2000/svg"
   xmlns:sodipodi="http://sodipodi.sourceforge.net/DTD/sodipodi-0.dtd"
   xmlns:inkscape="http://www.inkscape.org/namespaces/inkscape"
   width="79.375mm"
   height="79.375mm"
   viewBox="0 0 79.375 79.375"
   version="1.1"
   id="svg28688"
   inkscape:version="0.92.2 (5c3e80d, 2017-08-06)"
   sodipodi:docname="Cancen.svg"
   inkscape:export-filename="C:\Users\irock\Desktop\Stuff\Images\Homestuck\ezodiac\04 Lime\Derse\Cancen.png"
   inkscape:export-xdpi="320"
   inkscape:export-ydpi="320">
  <title
     id="title29251">Cancen</title>
  <defs
     id="defs28682" />
  <sodipodi:namedview
     id="base"
     pagecolor="#ffffff"
     bordercolor="#666666"
     borderopacity="1.0"
     inkscape:pageopacity="0.0"
     inkscape:pageshadow="2"
     inkscape:zoom="1.979899"
     inkscape:cx="104.06779"
     inkscape:cy="144.60167"
     inkscape:document-units="mm"
     inkscape:current-layer="layer1"
     showgrid="false" />
  <metadata
     id="metadata28685">
    <rdf:RDF>
      <cc:Work
         rdf:about="">
        <dc:format>image/svg+xml</dc:format>
        <dc:type
           rdf:resource="http://purl.org/dc/dcmitype/StillImage" />
        <dc:title>Cancen</dc:title>
      </cc:Work>
    </rdf:RDF>
  </metadata>
  <g
     inkscape:label="Layer 1"
     inkscape:groupmode="layer"
     id="layer1"
     transform="translate(1.1339285,-297.37799)">
    <path
       style="fill:#678900;fill-opacity:1;stroke:none;stroke-width:3.97669625;stroke-linecap:butt;stroke-miterlimit:4;stroke-dasharray:none;stroke-opacity:0.71356788"
       d="m 17.436005,308.49539 c -9.4141811,0 -13.6275918,7.67201 -13.6275918,13.73662 0,8.37212 6.3177208,13.6307 12.4364498,13.6307 6.082518,0 9.633004,-4.94031 9.633004,-9.50795 0,-4.09795 -2.532337,-9.12606 -7.861536,-9.12606 -4.565737,0 -6.138938,4.28505 -5.855456,6.60683 l 2.4722,0.0667 c -0.04397,-1.43283 0.907077,-3.35225 3.006535,-3.35225 2.554296,0 3.887101,2.91928 3.887101,5.19555 0,3.78037 -2.555022,5.89394 -5.203816,5.87974 -4.763515,-0.0255 -8.0377525,-5.03284 -8.0377525,-8.99273 0,-6.36252 4.5347955,-9.92808 9.0593955,-9.92808 6.088246,0 11.654791,4.46637 11.654584,10.89288 l -5.29e-4,15.60628 h 14.900383 v 12.22768 c 0,8.40683 7.696065,14.2043 15.772164,14.2043 9.41418,0 13.62759,-7.67202 13.62759,-13.73663 2e-6,-8.37212 -6.317721,-13.63069 -12.436449,-13.63069 -6.082519,0 -9.633002,4.93978 -9.633002,9.50742 0,4.09796 2.532335,9.12606 7.861535,9.12606 4.565737,0 6.138937,-4.28505 5.855457,-6.60683 l -2.472201,-0.0667 c 0.04397,1.43283 -0.907079,3.35225 -3.006537,3.35225 -2.554295,0 -3.887099,-2.91928 -3.887099,-5.19555 0,-3.78038 2.555023,-5.89394 5.203817,-5.87974 4.763513,0.0255 8.03775,5.03284 8.03775,8.99273 0,6.36252 -4.53531,9.92807 -9.05991,9.92807 -6.088248,0 -11.654277,-4.46636 -11.65407,-10.89287 l 5.29e-4,-15.60577 H 33.208169 v -12.22767 c 0,-8.40683 -7.696067,-14.2043 -15.772164,-14.2043 z"
       id="rect29244"
       inkscape:connector-curvature="0"
       sodipodi:nodetypes="sssssccsscsscccssssssccsscsscccss" />
  </g>
</svg>
