<?xml version="1.0" encoding="UTF-8" standalone="no"?>
<!-- Created with Inkscape (http://www.inkscape.org/) -->

<svg
   xmlns:dc="http://purl.org/dc/elements/1.1/"
   xmlns:cc="http://creativecommons.org/ns#"
   xmlns:rdf="http://www.w3.org/1999/02/22-rdf-syntax-ns#"
   xmlns:svg="http://www.w3.org/2000/svg"
   xmlns="http://www.w3.org/2000/svg"
   xmlns:sodipodi="http://sodipodi.sourceforge.net/DTD/sodipodi-0.dtd"
   xmlns:inkscape="http://www.inkscape.org/namespaces/inkscape"
   width="79.375mm"
   height="79.375mm"
   viewBox="0 0 79.375 79.375"
   version="1.1"
   id="svg27526"
   inkscape:version="0.92.2 (5c3e80d, 2017-08-06)"
   sodipodi:docname="Cango.svg"
   inkscape:export-filename="C:\Users\irock\Desktop\Stuff\Images\Homestuck\ezodiac\04 Lime\Prospit\Cango.png"
   inkscape:export-xdpi="320"
   inkscape:export-ydpi="320">
  <title
     id="title28105">Cango</title>
  <defs
     id="defs27520" />
  <sodipodi:namedview
     id="base"
     pagecolor="#ffffff"
     bordercolor="#666666"
     borderopacity="1.0"
     inkscape:pageopacity="0.0"
     inkscape:pageshadow="2"
     inkscape:zoom="1.979899"
     inkscape:cx="67.757306"
     inkscape:cy="143.78758"
     inkscape:document-units="mm"
     inkscape:current-layer="layer1"
     showgrid="false" />
  <metadata
     id="metadata27523">
    <rdf:RDF>
      <cc:Work
         rdf:about="">
        <dc:format>image/svg+xml</dc:format>
        <dc:type
           rdf:resource="http://purl.org/dc/dcmitype/StillImage" />
        <dc:title>Cango</dc:title>
      </cc:Work>
    </rdf:RDF>
  </metadata>
  <g
     inkscape:label="Layer 1"
     inkscape:groupmode="layer"
     id="layer1"
     transform="translate(-11.717262,-82.6875)">
    <path
       style="color:#000000;font-style:normal;font-variant:normal;font-weight:normal;font-stretch:normal;font-size:medium;line-height:normal;font-family:sans-serif;font-variant-ligatures:normal;font-variant-position:normal;font-variant-caps:normal;font-variant-numeric:normal;font-variant-alternates:normal;font-feature-settings:normal;text-indent:0;text-align:start;text-decoration:none;text-decoration-line:none;text-decoration-style:solid;text-decoration-color:#000000;letter-spacing:normal;word-spacing:normal;text-transform:none;writing-mode:lr-tb;direction:ltr;text-orientation:mixed;dominant-baseline:auto;baseline-shift:baseline;text-anchor:start;white-space:normal;shape-padding:0;clip-rule:nonzero;display:inline;overflow:visible;visibility:visible;opacity:1;isolation:auto;mix-blend-mode:normal;color-interpolation:sRGB;color-interpolation-filters:linearRGB;solid-color:#000000;solid-opacity:1;vector-effect:none;fill:#678900;fill-opacity:1;fill-rule:nonzero;stroke:none;stroke-width:4.0076437;stroke-linecap:butt;stroke-linejoin:miter;stroke-miterlimit:4;stroke-dasharray:none;stroke-dashoffset:0;stroke-opacity:1;color-rendering:auto;image-rendering:auto;shape-rendering:auto;text-rendering:auto;enable-background:accumulate"
       d="m 49.383439,94.43407 v 16.02434 c -6.122305,-0.6494 -10.759061,-4.19667 -13.56403,-8.27339 H 31.34268 c 1.267795,3.5227 7.368476,11.45913 18.040759,12.36823 v 2.48667 c -10.672302,0.90909 -16.772963,8.84553 -18.040759,12.36824 h 4.476729 c 2.804969,-4.07672 7.441725,-7.62399 13.56403,-8.2734 v 5.86321 c -5.543444,0.93216 -9.799402,5.77668 -9.799402,11.57552 0,6.46055 5.281366,11.74244 11.74192,11.74244 6.460551,0 11.740367,-5.28189 11.740367,-11.74244 0,-5.74371 -4.174371,-10.55032 -9.640237,-11.54709 v -5.89164 c 6.122077,0.64954 10.75913,4.19678 13.564029,8.2734 h 4.476728 c -1.267796,-3.52271 -7.368458,-11.45915 -18.040757,-12.36824 v -2.48667 c 10.672281,-0.9091 16.772964,-8.84553 18.040757,-12.36823 h -4.476728 c -2.804899,4.07662 -7.441952,7.62386 -13.564029,8.27339 V 94.43407 Z m 1.942518,36.40708 c 4.294658,0 7.732342,3.43768 7.732342,7.73234 0,4.29466 -3.437684,7.73442 -7.732342,7.73442 -4.294661,0 -7.734414,-3.43976 -7.734414,-7.73442 0,-4.29466 3.439753,-7.73234 7.734414,-7.73234 z"
       id="path28082"
       inkscape:connector-curvature="0" />
  </g>
</svg>
