<?xml version="1.0" encoding="UTF-8" standalone="no"?>
<!-- Created with Inkscape (http://www.inkscape.org/) -->

<svg
   xmlns:dc="http://purl.org/dc/elements/1.1/"
   xmlns:cc="http://creativecommons.org/ns#"
   xmlns:rdf="http://www.w3.org/1999/02/22-rdf-syntax-ns#"
   xmlns:svg="http://www.w3.org/2000/svg"
   xmlns="http://www.w3.org/2000/svg"
   xmlns:sodipodi="http://sodipodi.sourceforge.net/DTD/sodipodi-0.dtd"
   xmlns:inkscape="http://www.inkscape.org/namespaces/inkscape"
   width="79.375mm"
   height="79.375mm"
   viewBox="0 0 79.375 79.375"
   version="1.1"
   id="svg25211"
   inkscape:version="0.92.2 (5c3e80d, 2017-08-06)"
   sodipodi:docname="Canicorn.svg"
   inkscape:export-filename="C:\Users\irock\Desktop\Stuff\Images\Homestuck\ezodiac\04 Lime\Prospit\Canicorn.png"
   inkscape:export-xdpi="320"
   inkscape:export-ydpi="320">
  <title
     id="title25776">Canicorn</title>
  <defs
     id="defs25205" />
  <sodipodi:namedview
     id="base"
     pagecolor="#ffffff"
     bordercolor="#666666"
     borderopacity="1.0"
     inkscape:pageopacity="0.0"
     inkscape:pageshadow="2"
     inkscape:zoom="2.8"
     inkscape:cx="46.966326"
     inkscape:cy="150.49215"
     inkscape:document-units="mm"
     inkscape:current-layer="layer1"
     showgrid="false" />
  <metadata
     id="metadata25208">
    <rdf:RDF>
      <cc:Work
         rdf:about="">
        <dc:format>image/svg+xml</dc:format>
        <dc:type
           rdf:resource="http://purl.org/dc/dcmitype/StillImage" />
        <dc:title>Canicorn</dc:title>
      </cc:Work>
    </rdf:RDF>
  </metadata>
  <g
     inkscape:label="Layer 1"
     inkscape:groupmode="layer"
     id="layer1"
     transform="translate(113.01488,-125.77679)">
    <path
       style="color:#000000;font-style:normal;font-variant:normal;font-weight:normal;font-stretch:normal;font-size:medium;line-height:normal;font-family:sans-serif;font-variant-ligatures:normal;font-variant-position:normal;font-variant-caps:normal;font-variant-numeric:normal;font-variant-alternates:normal;font-feature-settings:normal;text-indent:0;text-align:start;text-decoration:none;text-decoration-line:none;text-decoration-style:solid;text-decoration-color:#000000;letter-spacing:normal;word-spacing:normal;text-transform:none;writing-mode:lr-tb;direction:ltr;text-orientation:mixed;dominant-baseline:auto;baseline-shift:baseline;text-anchor:start;white-space:normal;shape-padding:0;clip-rule:nonzero;display:inline;overflow:visible;visibility:visible;opacity:1;isolation:auto;mix-blend-mode:normal;color-interpolation:sRGB;color-interpolation-filters:linearRGB;solid-color:#000000;solid-opacity:1;vector-effect:none;fill:#678900;fill-opacity:1;fill-rule:nonzero;stroke:none;stroke-width:4.06989908;stroke-linecap:butt;stroke-linejoin:miter;stroke-miterlimit:4;stroke-dasharray:none;stroke-dashoffset:0;stroke-opacity:1;color-rendering:auto;image-rendering:auto;shape-rendering:auto;text-rendering:auto;enable-background:accumulate"
       d="m -92.767278,141.63784 c -6.370602,0 -8.293362,5.44986 -8.259962,10.12289 0.0233,3.26103 0,9.6976 0,9.6976 h 3.995107 v -10.59935 c 0,-1.66413 0.999915,-5.21209 4.231266,-5.21209 3.164587,0 4.781103,3.08579 4.781103,5.64617 v 27.16785 c 0,6.35333 5.217811,10.82983 10.896491,10.82983 5.678681,0 10.896494,-4.86451 10.896494,-10.82983 0,-5.96533 -4.910912,-10.82828 -10.896494,-10.82828 -2.55888,0 -4.919305,0.89086 -6.785631,2.37454 V 151.4269 c 0,-4.91429 -2.981507,-9.78906 -8.858374,-9.78906 z m 23.23579,0 c -5.678678,0 -10.896491,4.86451 -10.896491,10.82983 0,5.96533 4.910912,10.82828 10.896491,10.82828 2.558883,0 4.919308,-0.89086 6.785634,-2.37454 v 18.58027 c 0,4.91429 2.981507,9.78906 8.858374,9.78906 6.370603,0 8.293359,-5.44986 8.259961,-10.12289 -0.0233,-3.26103 0,-9.6976 0,-9.6976 h -3.995105 v 10.59935 c 0,1.66413 -0.999916,5.21209 -4.231267,5.21209 -3.164586,0 -4.781103,-3.08579 -4.781103,-5.64617 v -27.16785 c 0,-6.35333 -5.217811,-10.82983 -10.896494,-10.82983 z m 0,4.07003 c 3.802629,0 6.82594,3.01072 6.82594,6.7598 0,3.74908 -3.023311,6.75979 -6.82594,6.75979 -3.802629,0 -6.828007,-3.01071 -6.828007,-6.75979 0,-3.74908 3.025378,-6.7598 6.828007,-6.7598 z m -7.591785,25.99325 c 3.802632,0 6.82801,3.01071 6.828007,6.75979 0,3.74908 -3.025375,6.7598 -6.828007,6.7598 -3.802628,0 -6.825937,-3.01072 -6.825937,-6.7598 0,-3.74908 3.023309,-6.75979 6.825937,-6.75979 z"
       id="path25767"
       inkscape:connector-curvature="0" />
  </g>
</svg>
