<?xml version="1.0" encoding="UTF-8" standalone="no"?>
<!-- Created with Inkscape (http://www.inkscape.org/) -->

<svg
   xmlns:dc="http://purl.org/dc/elements/1.1/"
   xmlns:cc="http://creativecommons.org/ns#"
   xmlns:rdf="http://www.w3.org/1999/02/22-rdf-syntax-ns#"
   xmlns:svg="http://www.w3.org/2000/svg"
   xmlns="http://www.w3.org/2000/svg"
   xmlns:sodipodi="http://sodipodi.sourceforge.net/DTD/sodipodi-0.dtd"
   xmlns:inkscape="http://www.inkscape.org/namespaces/inkscape"
   width="79.375mm"
   height="79.375mm"
   viewBox="0 0 79.375 79.375"
   version="1.1"
   id="svg25784"
   inkscape:version="0.92.2 (5c3e80d, 2017-08-06)"
   sodipodi:docname="Canittanius.svg"
   inkscape:export-filename="C:\Users\irock\Desktop\Stuff\Images\Homestuck\ezodiac\04 Lime\Prospit\Canittanius.png"
   inkscape:export-xdpi="320"
   inkscape:export-ydpi="320">
  <title
     id="title26348">Canittanius</title>
  <defs
     id="defs25778" />
  <sodipodi:namedview
     id="base"
     pagecolor="#ffffff"
     bordercolor="#666666"
     borderopacity="1.0"
     inkscape:pageopacity="0.0"
     inkscape:pageshadow="2"
     inkscape:zoom="1.979899"
     inkscape:cx="-24.065198"
     inkscape:cy="167.55997"
     inkscape:document-units="mm"
     inkscape:current-layer="layer1"
     showgrid="false" />
  <metadata
     id="metadata25781">
    <rdf:RDF>
      <cc:Work
         rdf:about="">
        <dc:format>image/svg+xml</dc:format>
        <dc:type
           rdf:resource="http://purl.org/dc/dcmitype/StillImage" />
        <dc:title>Canittanius</dc:title>
      </cc:Work>
    </rdf:RDF>
  </metadata>
  <g
     inkscape:label="Layer 1"
     inkscape:groupmode="layer"
     id="layer1"
     transform="translate(153.08035,-149.96725)">
    <path
       style="fill:#678900;fill-opacity:1;stroke:none;stroke-width:4.23973513;stroke-linecap:butt;stroke-miterlimit:4;stroke-dasharray:none;stroke-opacity:0.69849249"
       d="m -126.48585,167.65273 c -4.9966,0.90927 -14.07976,4.68196 -14.07976,14.2689 0,6.75761 5.78727,12.09539 13.18214,12.09539 9.00982,0 12.68778,-5.47392 17.67747,-9.18756 4.21251,-3.13522 7.44501,-4.18372 12.418884,-4.18372 10.799728,0 10.63036,9.73326 10.63036,9.73326 0.694338,-4.11722 2.347664,-15.40268 -12.095387,-15.40268 -7.471387,0 -11.641617,3.41959 -13.814657,5.17178 -4.32607,3.48824 -8.38156,8.19898 -15.24197,8.19898 -3.92021,0 -7.89047,-4.29982 -7.89047,-8.03207 0,-5.00596 2.77071,-9.93647 9.21339,-12.66228 z m 2.20659,5.8751 a 3.9133965,3.9133965 0 0 0 -3.91346,3.91345 3.9133965,3.9133965 0 0 0 3.91346,3.91346 3.9133965,3.9133965 0 0 0 3.91345,-3.91346 3.9133965,3.9133965 0 0 0 -3.91345,-3.91345 z m 24.877546,11.76517 c -9.009816,0 -12.688306,5.4734 -17.677996,9.18704 -4.2125,3.13522 -7.44448,4.18372 -12.41836,4.18372 -10.79972,0 -10.63087,-9.73325 -10.63087,-9.73325 -0.69434,4.11721 -2.34767,15.40267 12.09538,15.40267 7.47139,0 11.64162,-3.41958 13.81466,-5.17178 4.32607,-3.48823 8.38156,-8.19898 15.241964,-8.19898 3.920213,0 7.890476,4.29982 7.890476,8.03207 0,5.00596 -2.770711,9.93646 -9.21339,12.66228 4.996598,-0.90927 14.07976,-4.68196 14.07976,-14.2689 0,-6.75761 -5.786755,-12.09487 -13.181624,-12.09487 z m -3.104716,12.66176 a 3.9133965,3.9133965 0 0 0 -3.91294,3.91345 3.9133965,3.9133965 0 0 0 3.91294,3.91346 3.9133965,3.9133965 0 0 0 3.913452,-3.91346 3.9133965,3.9133965 0 0 0 -3.913452,-3.91345 z"
       id="path26340"
       inkscape:connector-curvature="0" />
  </g>
</svg>
