<?xml version="1.0" encoding="UTF-8" standalone="no"?>
<!-- Created with Inkscape (http://www.inkscape.org/) -->

<svg
   xmlns:dc="http://purl.org/dc/elements/1.1/"
   xmlns:cc="http://creativecommons.org/ns#"
   xmlns:rdf="http://www.w3.org/1999/02/22-rdf-syntax-ns#"
   xmlns:svg="http://www.w3.org/2000/svg"
   xmlns="http://www.w3.org/2000/svg"
   xmlns:sodipodi="http://sodipodi.sourceforge.net/DTD/sodipodi-0.dtd"
   xmlns:inkscape="http://www.inkscape.org/namespaces/inkscape"
   width="79.375mm"
   height="79.375mm"
   viewBox="0 0 79.375 79.375"
   version="1.1"
   id="svg32127"
   inkscape:version="0.92.2 (5c3e80d, 2017-08-06)"
   sodipodi:docname="Caniborn.svg"
   inkscape:export-filename="C:\Users\irock\Desktop\Stuff\Images\Homestuck\ezodiac\04 Lime\Derse\Caniborn.png"
   inkscape:export-xdpi="320"
   inkscape:export-ydpi="320">
  <title
     id="title32696">Caniborn</title>
  <defs
     id="defs32121" />
  <sodipodi:namedview
     id="base"
     pagecolor="#ffffff"
     bordercolor="#666666"
     borderopacity="1.0"
     inkscape:pageopacity="0.0"
     inkscape:pageshadow="2"
     inkscape:zoom="1.4"
     inkscape:cx="67.539071"
     inkscape:cy="145.85313"
     inkscape:document-units="mm"
     inkscape:current-layer="layer1"
     showgrid="false" />
  <metadata
     id="metadata32124">
    <rdf:RDF>
      <cc:Work
         rdf:about="">
        <dc:format>image/svg+xml</dc:format>
        <dc:type
           rdf:resource="http://purl.org/dc/dcmitype/StillImage" />
        <dc:title>Caniborn</dc:title>
      </cc:Work>
    </rdf:RDF>
  </metadata>
  <g
     inkscape:label="Layer 1"
     inkscape:groupmode="layer"
     id="layer1"
     transform="translate(66.681725,-96.148972)">
    <path
       style="fill:#678900;fill-opacity:1;stroke:none;stroke-width:0.26458332px;stroke-linecap:butt;stroke-linejoin:miter;stroke-opacity:1"
       d="m -31.144617,108.55829 v 5.94641 c -5.266852,0.1242 -11.27923,1.18304 -15.784566,3.41168 -3.804107,1.88177 -6.583577,4.91077 -6.583577,8.22637 0,3.83045 3.718593,5.84641 4.818827,6.33088 -0.819879,-1.23746 -2.740918,-2.61769 -2.740918,-4.5992 0,-3.2884 2.862063,-5.80607 6.619234,-7.2869 3.772325,-1.48679 8.506751,-1.92575 13.671,-1.97714 v 5.75055 h 3.942394 v -5.66838 c 5.523053,0.33804 12.270568,1.73698 12.270568,5.76037 0,4.24933 -7.846406,7.3457 -15.409394,8.69869 -8.135633,1.45544 -19.786389,5.47694 -19.786388,13.77952 0,7.31211 10.308286,10.03663 18.98282,10.36629 v 5.81722 h 3.942394 v -5.78156 h 4.4943 c 1.63998,0 4.033279,4.84622 11.274248,4.84622 3.3311911,0 6.3897956,-0.74132 8.6289299,-2.3456 1.5377636,-1.10176 2.3290556,-2.10086 2.3290556,-4.6302 0,-2.52934 -0.791292,-3.52897 -2.3290556,-4.63073 -2.2391343,-1.60428 -5.2977415,-2.34559 -8.6289299,-2.34559 -7.240969,0 -9.18527,4.83925 -11.274248,4.84621 l -4.4943,0.015 v -5.77588 h -3.942394 v 5.7826 c -7.216564,-0.11796 -15.053345,-2.61625 -15.053345,-6.25802 0,-4.96947 10.189403,-8.64989 17.416508,-9.74462 7.424628,-1.12466 17.790646,-5.37696 17.790646,-12.36721 0,-6.2542 -5.994164,-9.63765 -16.211415,-10.15958 v -6.00738 z m 19.64428,43.74462 c 3.4295026,0 7.1830219,1.49827 7.1830219,2.9006 0,1.40233 -3.7535193,2.90008 -7.1830219,2.90008 -2.369563,0 -5.53593,-1.25445 -6.782017,-2.90008 1.246087,-1.64563 4.412454,-2.9006 6.782017,-2.9006 z"
       id="path32683"
       inkscape:connector-curvature="0"
       sodipodi:nodetypes="cccscscccccsssccccsscscssccccssscccssscs" />
  </g>
</svg>
