<?xml version="1.0" encoding="UTF-8" standalone="no"?>
<!-- Created with Inkscape (http://www.inkscape.org/) -->

<svg
   xmlns:dc="http://purl.org/dc/elements/1.1/"
   xmlns:cc="http://creativecommons.org/ns#"
   xmlns:rdf="http://www.w3.org/1999/02/22-rdf-syntax-ns#"
   xmlns:svg="http://www.w3.org/2000/svg"
   xmlns="http://www.w3.org/2000/svg"
   xmlns:sodipodi="http://sodipodi.sourceforge.net/DTD/sodipodi-0.dtd"
   xmlns:inkscape="http://www.inkscape.org/namespaces/inkscape"
   width="79.375mm"
   height="79.375mm"
   viewBox="0 0 79.375 79.375"
   version="1.1"
   id="svg28113"
   inkscape:version="0.92.2 (5c3e80d, 2017-08-06)"
   sodipodi:docname="Canlo.svg"
   inkscape:export-filename="C:\Users\irock\Desktop\Stuff\Images\Homestuck\ezodiac\04 Lime\Prospit\Canlo.png"
   inkscape:export-xdpi="320"
   inkscape:export-ydpi="320">
  <title
     id="title28680">Canlo</title>
  <defs
     id="defs28107" />
  <sodipodi:namedview
     id="base"
     pagecolor="#ffffff"
     bordercolor="#666666"
     borderopacity="1.0"
     inkscape:pageopacity="0.0"
     inkscape:pageshadow="2"
     inkscape:zoom="1.979899"
     inkscape:cx="87.207376"
     inkscape:cy="174.47664"
     inkscape:document-units="mm"
     inkscape:current-layer="layer1"
     showgrid="false"
     showguides="false" />
  <metadata
     id="metadata28110">
    <rdf:RDF>
      <cc:Work
         rdf:about="">
        <dc:format>image/svg+xml</dc:format>
        <dc:type
           rdf:resource="http://purl.org/dc/dcmitype/StillImage" />
        <dc:title>Canlo</dc:title>
      </cc:Work>
    </rdf:RDF>
  </metadata>
  <g
     inkscape:label="Layer 1"
     inkscape:groupmode="layer"
     id="layer1"
     transform="translate(60.935429,-96.549881)">
    <path
       style="fill:#678900;fill-opacity:1;stroke:none;stroke-width:0.26458332px;stroke-linecap:butt;stroke-linejoin:miter;stroke-opacity:1"
       d="m -21.247929,111.63475 c -8.623395,0 -15.190245,2.08278 -20.394104,6.72207 -5.498551,4.902 -8.842354,13.44625 -8.842354,19.80499 v 22.6782 h 4.180623 v -22.62239 c 0,-4.9775 2.516394,-11.54969 6.983036,-16.12408 3.532694,-3.61791 9.130237,-5.78903 15.993857,-6.15156 v 20.80958 c -3.778414,0.34507 -6.177643,1.6561 -8.131286,3.591 -2.863247,2.83577 -4.183209,6.85722 -4.183209,9.87898 v 10.61847 h 4.259689 v -9.9167 c 0,-3.11501 0.969944,-5.48911 2.581754,-7.15564 1.370343,-1.41687 3.214738,-2.31559 5.473052,-2.65048 v 19.65461 h 4.110341 v -19.66133 c 2.279952,0.32925 4.140671,1.23042 5.520595,2.6572 1.61181,1.66653 2.581754,4.04063 2.581754,7.15564 v 9.9167 h 4.2596883 v -10.61847 c 0,-3.02176 -1.3199612,-7.04321 -4.1832083,-9.87898 -1.961901,-1.94308 -4.372673,-3.25736 -8.178829,-3.59565 v -20.807 c 6.885207,0.35504 12.5005943,2.52741 16.0413993,6.15363 4.4666428,4.57439 6.9830367,11.14658 6.9830367,16.12408 v 22.62239 h 4.180623 v -22.6782 c 0,-6.35874 -3.3438042,-14.90299 -8.84235376,-19.80499 -5.20385934,-4.63929 -11.77070924,-6.72207 -20.39410424,-6.72207 z"
       id="path28669"
       inkscape:connector-curvature="0" />
  </g>
</svg>
