<?xml version="1.0" encoding="UTF-8" standalone="no"?>
<!-- Created with Inkscape (http://www.inkscape.org/) -->

<svg
   xmlns:dc="http://purl.org/dc/elements/1.1/"
   xmlns:cc="http://creativecommons.org/ns#"
   xmlns:rdf="http://www.w3.org/1999/02/22-rdf-syntax-ns#"
   xmlns:svg="http://www.w3.org/2000/svg"
   xmlns="http://www.w3.org/2000/svg"
   xmlns:sodipodi="http://sodipodi.sourceforge.net/DTD/sodipodi-0.dtd"
   xmlns:inkscape="http://www.inkscape.org/namespaces/inkscape"
   width="79.375mm"
   height="79.375mm"
   viewBox="0 0 79.375 79.375"
   version="1.1"
   id="svg24070"
   inkscape:version="0.92.2 (5c3e80d, 2017-08-06)"
   sodipodi:docname="Cannus.svg"
   inkscape:export-filename="C:\Users\irock\Desktop\Stuff\Images\Homestuck\ezodiac\04 Lime\Prospit\Cannus.png"
   inkscape:export-xdpi="320"
   inkscape:export-ydpi="320">
  <title
     id="title24632">Cannus</title>
  <defs
     id="defs24064" />
  <sodipodi:namedview
     id="base"
     pagecolor="#ffffff"
     bordercolor="#666666"
     borderopacity="1.0"
     inkscape:pageopacity="0.0"
     inkscape:pageshadow="2"
     inkscape:zoom="1.4"
     inkscape:cx="12.826372"
     inkscape:cy="169.54372"
     inkscape:document-units="mm"
     inkscape:current-layer="layer1"
     showgrid="false" />
  <metadata
     id="metadata24067">
    <rdf:RDF>
      <cc:Work
         rdf:about="">
        <dc:format>image/svg+xml</dc:format>
        <dc:type
           rdf:resource="http://purl.org/dc/dcmitype/StillImage" />
        <dc:title>Cannus</dc:title>
      </cc:Work>
    </rdf:RDF>
  </metadata>
  <g
     inkscape:label="Layer 1"
     inkscape:groupmode="layer"
     id="layer1"
     transform="translate(28.537203,-89.302086)">
    <path
       style="fill:#678900;fill-opacity:1;stroke:none;stroke-width:4.436203;stroke-linecap:butt;stroke-miterlimit:4;stroke-dasharray:none;stroke-opacity:0.5929648"
       d="m -6.3659456,104.35698 c -3.1332635,10.56029 -3.9077004,33.66771 16.0527662,44.95281 H -15.955024 v 4.3124 h 35.013365 l 0.581877,-4.12533 C 4.8121214,143.76273 -8.7348575,130.50945 -1.922289,104.35698 Z m 9.6081989,0 -0.581877,4.12533 c 14.8280967,5.73413 28.3750757,18.98741 21.5625067,45.13988 h 4.44314 c 3.133265,-10.56029 3.908219,-33.66771 -16.052249,-44.95281 h 25.641844 v -4.3124 z m 7.8811727,20.32951 a 4.2994788,4.2994788 0 0 0 -4.2994791,4.29948 4.2994788,4.2994788 0 0 0 4.2994791,4.29948 4.2994788,4.2994788 0 0 0 4.299479,-4.29948 4.2994788,4.2994788 0 0 0 -4.299479,-4.29948 z"
       id="path24626"
       inkscape:connector-curvature="0" />
  </g>
</svg>
