<?xml version="1.0" encoding="UTF-8" standalone="no"?>
<!-- Created with Inkscape (http://www.inkscape.org/) -->

<svg
   xmlns:dc="http://purl.org/dc/elements/1.1/"
   xmlns:cc="http://creativecommons.org/ns#"
   xmlns:rdf="http://www.w3.org/1999/02/22-rdf-syntax-ns#"
   xmlns:svg="http://www.w3.org/2000/svg"
   xmlns="http://www.w3.org/2000/svg"
   xmlns:sodipodi="http://sodipodi.sourceforge.net/DTD/sodipodi-0.dtd"
   xmlns:inkscape="http://www.inkscape.org/namespaces/inkscape"
   width="79.375mm"
   height="79.375mm"
   viewBox="0 0 79.375 79.375"
   version="1.1"
   id="svg34996"
   inkscape:version="0.92.2 (5c3e80d, 2017-08-06)"
   sodipodi:docname="Cano.svg"
   inkscape:export-filename="C:\Users\irock\Desktop\Stuff\Images\Homestuck\ezodiac\04 Lime\Derse\Cano.png"
   inkscape:export-xdpi="320"
   inkscape:export-ydpi="320">
  <title
     id="title35562">Cano</title>
  <defs
     id="defs34990" />
  <sodipodi:namedview
     id="base"
     pagecolor="#ffffff"
     bordercolor="#666666"
     borderopacity="1.0"
     inkscape:pageopacity="0.0"
     inkscape:pageshadow="2"
     inkscape:zoom="1.979899"
     inkscape:cx="84.936994"
     inkscape:cy="105.79982"
     inkscape:document-units="mm"
     inkscape:current-layer="layer1"
     showgrid="false" />
  <metadata
     id="metadata34993">
    <rdf:RDF>
      <cc:Work
         rdf:about="">
        <dc:format>image/svg+xml</dc:format>
        <dc:type
           rdf:resource="http://purl.org/dc/dcmitype/StillImage" />
        <dc:title>Cano</dc:title>
      </cc:Work>
    </rdf:RDF>
  </metadata>
  <g
     inkscape:label="Layer 1"
     inkscape:groupmode="layer"
     id="layer1"
     transform="translate(-106.96726,-5.5803571)">
    <path
       style="fill:#678900;fill-opacity:1;stroke:none;stroke-width:0.26458332px;stroke-linecap:butt;stroke-linejoin:miter;stroke-opacity:1"
       d="m 131.20026,19.156403 c -2.65989,0.06874 -5.93261,4.91531 -3.77807,8.273913 1.38336,2.156445 2.91196,2.83141 8.19124,2.884579 9.00762,0.09072 9.43982,5.055852 2.55126,10.607104 5.05854,-0.277151 10.2467,-6.340149 8.08736,-10.822078 -1.34578,-2.79333 -2.84584,-3.194273 -9.12657,-3.517615 -10.19866,-0.525042 -7.71215,-5.039146 -5.66994,-7.417635 -0.0843,-0.0079 -0.16948,-0.01049 -0.25528,-0.0083 z m 28.32747,6.988204 c -1.96055,0 -6.0957,1.268795 -7.58869,8.428943 -0.54626,2.61974 -0.52399,5.539512 -0.52399,10.346655 0,11.908427 -0.61318,21.982864 -11.07995,22.167638 -6.06164,0.107008 -8.81248,-7.076948 -9.09867,-8.19123 5.12447,-1.649994 6.57459,-5.128643 6.77633,-8.396904 0.18586,-5.048395 -2.39685,-10.005541 -6.71535,-10.022644 -4.88577,-0.01934 -7.96517,3.802973 -8.28528,9.48831 -0.21691,3.852484 1.84062,7.388852 4.30309,8.656836 0.42313,3.059599 3.81506,12.323942 13.10256,12.757878 17.08031,0 14.64459,-22.821321 14.64459,-24.471376 0,-7.334237 0.46957,-16.880622 4.6855,-16.880622 2.77884,0 4.15678,7.618456 4.60902,14.874543 0.40429,6.486753 2.0445,9.655847 5.95623,10.46086 -3.57319,-3.73911 -3.46336,-5.478706 -3.46336,-16.685286 0,-8.721245 -2.55962,-12.533602 -7.32203,-12.533601 z m -28.6613,18.404044 c 0.0654,-0.0011 0.13142,4.5e-5 0.1974,0.0041 2.11155,0.131088 3.2668,2.501395 3.24011,5.145421 -0.0344,3.408386 -2.94653,5.782011 -4.81055,5.612061 -1.48425,-0.135318 -2.83092,-3.66812 -2.63964,-5.746419 0.23063,-2.505829 1.98363,-4.982038 4.01268,-5.015198 z"
       id="path35552"
       inkscape:connector-curvature="0" />
  </g>
</svg>
