<?xml version="1.0" encoding="UTF-8" standalone="no"?>
<!-- Created with Inkscape (http://www.inkscape.org/) -->

<svg
   xmlns:dc="http://purl.org/dc/elements/1.1/"
   xmlns:cc="http://creativecommons.org/ns#"
   xmlns:rdf="http://www.w3.org/1999/02/22-rdf-syntax-ns#"
   xmlns:svg="http://www.w3.org/2000/svg"
   xmlns="http://www.w3.org/2000/svg"
   xmlns:sodipodi="http://sodipodi.sourceforge.net/DTD/sodipodi-0.dtd"
   xmlns:inkscape="http://www.inkscape.org/namespaces/inkscape"
   width="79.375mm"
   height="79.375mm"
   viewBox="0 0 79.375 79.375"
   version="1.1"
   id="svg33275"
   inkscape:version="0.92.2 (5c3e80d, 2017-08-06)"
   sodipodi:docname="Canpia.svg"
   inkscape:export-filename="C:\Users\irock\Desktop\Stuff\Images\Homestuck\ezodiac\04 Lime\Derse\Canpia.png"
   inkscape:export-xdpi="320"
   inkscape:export-ydpi="320">
  <title
     id="title33833">Canpia</title>
  <defs
     id="defs33269" />
  <sodipodi:namedview
     id="base"
     pagecolor="#ffffff"
     bordercolor="#666666"
     borderopacity="1.0"
     inkscape:pageopacity="0.0"
     inkscape:pageshadow="2"
     inkscape:zoom="1.979899"
     inkscape:cx="82.536046"
     inkscape:cy="165.79736"
     inkscape:document-units="mm"
     inkscape:current-layer="layer1"
     showgrid="false" />
  <metadata
     id="metadata33272">
    <rdf:RDF>
      <cc:Work
         rdf:about="">
        <dc:format>image/svg+xml</dc:format>
        <dc:type
           rdf:resource="http://purl.org/dc/dcmitype/StillImage" />
        <dc:title>Canpia</dc:title>
      </cc:Work>
    </rdf:RDF>
  </metadata>
  <g
     inkscape:label="Layer 1"
     inkscape:groupmode="layer"
     id="layer1"
     transform="translate(58.586311,-132.58035)">
    <path
       style="fill:#678900;fill-opacity:1;stroke:none;stroke-width:0.26458332px;stroke-linecap:butt;stroke-linejoin:miter;stroke-opacity:1"
       d="m -7.9548144,154.88133 v -5.62576 c 0,0 -5.2210626,-3.90193 -14.0121856,-3.90193 -8.540584,0 -14.396505,4.29457 -14.396505,11.55595 0,8.40294 13.95486,9.56326 17.87657,10.35521 5.270627,1.06435 16.0317654,2.54382 16.1021451,9.37685 0.080712,7.83613 -9.0751181,9.52768 -15.0407651,9.52768 -12.150907,0 -18.098968,-4.55014 -18.098968,-8.24866 0,-3.15408 3.363629,-6.3645 3.363629,-6.3645 h -5.625754 c 0,0 -2.04546,2.74279 -2.04546,6.65372 0,6.69707 9.799703,10.4497 9.799703,10.4497 0,0 -0.700597,2.84329 -0.700597,4.08617 0,6.9442 8.842204,6.7711 10.316313,6.16979 v -4.25321 c -1.771574,0.42348 -6.036395,0.59467 -6.024942,-1.87744 0.0031,-0.67358 0.566965,-2.99138 0.566965,-2.99138 0,0 4.136014,0.5727 8.081615,0.5727 14.9976682,0 19.8275371,-6.99418 19.8275371,-13.49743 0,-10.54465 -12.7606251,-12.35151 -19.9382431,-13.66724 -5.223809,-0.95758 -14.140699,-2.00098 -14.140699,-7.04218 0,-3.94346 4.282443,-6.5535 10.47836,-6.5535 9.502742,0 13.6112816,5.27546 13.6112816,5.27546 z"
       id="path33831"
       inkscape:connector-curvature="0"
       sodipodi:nodetypes="ccssssssccscsccscsssssc" />
  </g>
</svg>
