<?xml version="1.0" encoding="UTF-8" standalone="no"?>
<!-- Created with Inkscape (http://www.inkscape.org/) -->

<svg
   xmlns:dc="http://purl.org/dc/elements/1.1/"
   xmlns:cc="http://creativecommons.org/ns#"
   xmlns:rdf="http://www.w3.org/1999/02/22-rdf-syntax-ns#"
   xmlns:svg="http://www.w3.org/2000/svg"
   xmlns="http://www.w3.org/2000/svg"
   xmlns:sodipodi="http://sodipodi.sourceforge.net/DTD/sodipodi-0.dtd"
   xmlns:inkscape="http://www.inkscape.org/namespaces/inkscape"
   width="79.375mm"
   height="79.375mm"
   viewBox="0 0 79.375 79.375"
   version="1.1"
   id="svg26356"
   inkscape:version="0.92.2 (5c3e80d, 2017-08-06)"
   sodipodi:docname="Canpio.svg"
   inkscape:export-filename="C:\Users\irock\Desktop\Stuff\Images\Homestuck\ezodiac\04 Lime\Prospit\Canpio.png"
   inkscape:export-xdpi="320"
   inkscape:export-ydpi="320">
  <title
     id="title26919">Canpio</title>
  <defs
     id="defs26350" />
  <sodipodi:namedview
     id="base"
     pagecolor="#ffffff"
     bordercolor="#666666"
     borderopacity="1.0"
     inkscape:pageopacity="0.0"
     inkscape:pageshadow="2"
     inkscape:zoom="1.979899"
     inkscape:cx="-25.194568"
     inkscape:cy="144.50278"
     inkscape:document-units="mm"
     inkscape:current-layer="layer1"
     showgrid="false" />
  <metadata
     id="metadata26353">
    <rdf:RDF>
      <cc:Work
         rdf:about="">
        <dc:format>image/svg+xml</dc:format>
        <dc:type
           rdf:resource="http://purl.org/dc/dcmitype/StillImage" />
        <dc:title>Canpio</dc:title>
      </cc:Work>
    </rdf:RDF>
  </metadata>
  <g
     inkscape:label="Layer 1"
     inkscape:groupmode="layer"
     id="layer1"
     transform="translate(46.49107,87.401787)">
    <path
       style="fill:#678900;fill-opacity:1;stroke:none;stroke-width:4.01579762;stroke-linecap:butt;stroke-miterlimit:4;stroke-dasharray:none;stroke-opacity:0.69849249"
       d="m -21.511974,-77.514793 c -2.854967,1.749309 -10.390064,7.605344 -10.390064,16.336988 0,7.778429 6.012403,9.287805 8.419125,9.287805 5.619752,0 8.807688,-5.051806 9.781315,-6.615101 v 11.415326 h -9.354985 v 3.940844 h 9.354985 v 17.618046 l 3.999756,-3.24063 V -67.95982 l -3.792016,-0.701766 c -1.328566,3.376178 -4.613693,12.612598 -9.989055,12.662276 -2.957308,0.02733 -4.243152,-2.687245 -4.243152,-5.245158 0,-6.212777 4.992324,-10.346853 6.214091,-11.192081 z m 21.60643299,7.617107 -3.99975649,3.240629 v 39.188305 l 3.79201624,0.701765 C 1.2152842,-30.143166 4.5004117,-39.379584 9.875774,-39.429263 c 2.957309,-0.02733 4.243152,2.687246 4.243152,5.245159 0,6.212775 -4.992325,10.346854 -6.2140915,11.192081 v 5.078243 c 2.8549675,-1.749311 10.3900635,-7.605342 10.3900635,-16.336986 0,-7.77843 -6.012403,-9.287806 -8.419124,-9.287806 -5.6197526,0 -8.807688,5.051803 -9.78131501,6.615099 V -48.338797 H 9.4494429 v -3.940844 H 0.09445899 Z"
       id="rect26912"
       inkscape:connector-curvature="0" />
  </g>
</svg>
