<?xml version="1.0" encoding="UTF-8" standalone="no"?>
<!-- Created with Inkscape (http://www.inkscape.org/) -->

<svg
   xmlns:dc="http://purl.org/dc/elements/1.1/"
   xmlns:cc="http://creativecommons.org/ns#"
   xmlns:rdf="http://www.w3.org/1999/02/22-rdf-syntax-ns#"
   xmlns:svg="http://www.w3.org/2000/svg"
   xmlns="http://www.w3.org/2000/svg"
   xmlns:sodipodi="http://sodipodi.sourceforge.net/DTD/sodipodi-0.dtd"
   xmlns:inkscape="http://www.inkscape.org/namespaces/inkscape"
   width="79.375mm"
   height="79.375mm"
   viewBox="0 0 79.375 79.375"
   version="1.1"
   id="svg30405"
   inkscape:version="0.92.2 (5c3e80d, 2017-08-06)"
   sodipodi:docname="Canries.svg"
   inkscape:export-filename="C:\Users\irock\Desktop\Stuff\Images\Homestuck\ezodiac\04 Lime\Derse\Canries.png"
   inkscape:export-xdpi="320"
   inkscape:export-ydpi="320">
  <title
     id="title30968">Canries</title>
  <defs
     id="defs30399" />
  <sodipodi:namedview
     id="base"
     pagecolor="#ffffff"
     bordercolor="#666666"
     borderopacity="1.0"
     inkscape:pageopacity="0.0"
     inkscape:pageshadow="2"
     inkscape:zoom="2.8"
     inkscape:cx="94.597676"
     inkscape:cy="130.35624"
     inkscape:document-units="mm"
     inkscape:current-layer="layer1"
     showgrid="false" />
  <metadata
     id="metadata30402">
    <rdf:RDF>
      <cc:Work
         rdf:about="">
        <dc:format>image/svg+xml</dc:format>
        <dc:type
           rdf:resource="http://purl.org/dc/dcmitype/StillImage" />
        <dc:title>Canries</dc:title>
      </cc:Work>
    </rdf:RDF>
  </metadata>
  <g
     inkscape:label="Layer 1"
     inkscape:groupmode="layer"
     id="layer1"
     transform="translate(0.37797618,-120.48512)">
    <path
       style="color:#000000;font-style:normal;font-variant:normal;font-weight:normal;font-stretch:normal;font-size:medium;line-height:normal;font-family:sans-serif;font-variant-ligatures:normal;font-variant-position:normal;font-variant-caps:normal;font-variant-numeric:normal;font-variant-alternates:normal;font-feature-settings:normal;text-indent:0;text-align:start;text-decoration:none;text-decoration-line:none;text-decoration-style:solid;text-decoration-color:#000000;letter-spacing:normal;word-spacing:normal;text-transform:none;writing-mode:lr-tb;direction:ltr;text-orientation:mixed;dominant-baseline:auto;baseline-shift:baseline;text-anchor:start;white-space:normal;shape-padding:0;clip-rule:nonzero;display:inline;overflow:visible;visibility:visible;opacity:1;isolation:auto;mix-blend-mode:normal;color-interpolation:sRGB;color-interpolation-filters:linearRGB;solid-color:#000000;solid-opacity:1;vector-effect:none;fill:#678900;fill-opacity:1;fill-rule:nonzero;stroke:none;stroke-width:4.31759834;stroke-linecap:butt;stroke-linejoin:miter;stroke-miterlimit:4;stroke-dasharray:none;stroke-dashoffset:0;stroke-opacity:1;color-rendering:auto;image-rendering:auto;shape-rendering:auto;text-rendering:auto;enable-background:accumulate"
       d="m 44.85544,129.68068 c -10.004965,3.78816 -25.02328,15.74506 -25.02328,31.93862 0,10.47962 4.220837,17.62817 8.581167,23.08489 2.614178,3.27151 6.72343,5.96036 11.629485,5.96036 7.646384,0 13.209529,-6.00548 13.209529,-13.29479 0,-7.31859 -5.978274,-13.29842 -13.29686,-13.29842 -6.310778,0 -11.622849,4.44771 -12.967168,10.36476 -1.559584,-3.8996 -2.770515,-8.59232 -2.812748,-12.41579 0,-9.39297 5.535898,-17.20738 13.363524,-23.18566 -1.196848,6.19589 -1.41687,16.19668 4.142383,20.91397 2.417638,-1.85939 7.460707,-5.25885 9.755478,-11.96051 2.336303,4.284 3.591531,7.12488 4.142899,14.93397 0.185309,2.62452 -0.190177,4.92959 -0.467672,6.84868 1.267957,-1.76647 3.67471,-5.21916 3.67471,-12.89585 0,-4.42982 -2.451486,-9.28401 -4.94905,-12.83333 -2.188395,-3.10996 -4.380862,-5.09367 -5.407421,-6.57686 0.406344,7.72214 -1.460207,12.35276 -6.080768,16.06931 0,0 -1.302761,-4.60298 -1.302761,-7.08278 0,-5.30964 2.216917,-11.87943 3.808553,-16.57057 z m -4.899959,38.70875 c 4.985184,0 8.980329,3.99514 8.980329,8.98033 0,4.98518 -3.995145,8.97878 -8.980329,8.97878 -4.985187,0 -8.980847,-3.99359 -8.980847,-8.97878 0,-4.98519 3.99566,-8.98033 8.980847,-8.98033 z"
       id="path30961"
       inkscape:connector-curvature="0"
       sodipodi:nodetypes="cssssscccccscssccsccsssc" />
  </g>
</svg>
