<?xml version="1.0" encoding="UTF-8" standalone="no"?>
<!-- Created with Inkscape (http://www.inkscape.org/) -->

<svg
   xmlns:dc="http://purl.org/dc/elements/1.1/"
   xmlns:cc="http://creativecommons.org/ns#"
   xmlns:rdf="http://www.w3.org/1999/02/22-rdf-syntax-ns#"
   xmlns:svg="http://www.w3.org/2000/svg"
   xmlns="http://www.w3.org/2000/svg"
   xmlns:sodipodi="http://sodipodi.sourceforge.net/DTD/sodipodi-0.dtd"
   xmlns:inkscape="http://www.inkscape.org/namespaces/inkscape"
   width="79.375mm"
   height="79.375mm"
   viewBox="0 0 79.375 79.375"
   version="1.1"
   id="svg26927"
   inkscape:version="0.92.2 (5c3e80d, 2017-08-06)"
   sodipodi:docname="Canra.svg"
   inkscape:export-filename="C:\Users\irock\Desktop\Stuff\Images\Homestuck\ezodiac\04 Lime\Prospit\Canra.png"
   inkscape:export-xdpi="320"
   inkscape:export-ydpi="320">
  <title
     id="title27518">Canra</title>
  <defs
     id="defs26921" />
  <sodipodi:namedview
     id="base"
     pagecolor="#ffffff"
     bordercolor="#666666"
     borderopacity="1.0"
     inkscape:pageopacity="0.0"
     inkscape:pageshadow="2"
     inkscape:zoom="2"
     inkscape:cx="21.46977"
     inkscape:cy="176.2054"
     inkscape:document-units="mm"
     inkscape:current-layer="layer1"
     showgrid="false" />
  <metadata
     id="metadata26924">
    <rdf:RDF>
      <cc:Work
         rdf:about="">
        <dc:format>image/svg+xml</dc:format>
        <dc:type
           rdf:resource="http://purl.org/dc/dcmitype/StillImage" />
        <dc:title>Canra</dc:title>
      </cc:Work>
    </rdf:RDF>
  </metadata>
  <g
     inkscape:label="Layer 1"
     inkscape:groupmode="layer"
     id="layer1"
     transform="translate(19.276785,29.949406)">
    <path
       style="color:#000000;font-style:normal;font-variant:normal;font-weight:normal;font-stretch:normal;font-size:medium;line-height:normal;font-family:sans-serif;font-variant-ligatures:normal;font-variant-position:normal;font-variant-caps:normal;font-variant-numeric:normal;font-variant-alternates:normal;font-feature-settings:normal;text-indent:0;text-align:start;text-decoration:none;text-decoration-line:none;text-decoration-style:solid;text-decoration-color:#000000;letter-spacing:normal;word-spacing:normal;text-transform:none;writing-mode:lr-tb;direction:ltr;text-orientation:mixed;dominant-baseline:auto;baseline-shift:baseline;text-anchor:start;white-space:normal;shape-padding:0;clip-rule:nonzero;display:inline;overflow:visible;visibility:visible;opacity:1;isolation:auto;mix-blend-mode:normal;color-interpolation:sRGB;color-interpolation-filters:linearRGB;solid-color:#000000;solid-opacity:1;vector-effect:none;fill:#678900;fill-opacity:1;fill-rule:nonzero;stroke:none;stroke-width:3.39105272;stroke-linecap:butt;stroke-linejoin:miter;stroke-miterlimit:4;stroke-dasharray:none;stroke-dashoffset:0;stroke-opacity:1;color-rendering:auto;image-rendering:auto;shape-rendering:auto;text-rendering:auto;enable-background:accumulate"
       d="M -2.1253768,-3.2742901 V 0.21025122 C -0.44651458,1.7965421 2.1819237,4.126746 2.7291071,8.1901268 H -1.9047185 C -2.35541,4.6827334 -4.4299222,2.2057202 -8.5544416,1.150247 v 3.2127243 c 1.3343133,0.9822523 2.8722817,1.6909705 3.3672362,3.8271555 h -7.7065066 v 3.0096352 h 7.7240765 c -0.4736005,2.202021 -2.0331306,2.917904 -3.3848061,3.912939 v 3.212724 c 4.1576542,-1.06395 6.2294394,-3.573423 6.6574746,-7.125663 h 4.637443 c -0.5213352,4.11666 -3.1751645,6.468711 -4.8658528,8.066175 v 3.484541 C 2.1786513,21.249526 5.4744645,16.779576 5.9697362,11.199762 H 9.361776 c 0.718436,5.45115 5.424723,9.681062 11.081496,9.681062 5.65677,0 10.363057,-4.229912 11.081493,-9.681062 h 3.326929 c 0.495271,5.579814 3.791085,10.049764 8.095113,11.550716 V 19.265937 C 41.256119,17.668473 38.60229,15.316422 38.080955,11.199762 h 4.637442 c 0.428035,3.55224 2.49982,6.061713 6.657475,7.125663 v -3.212724 c -1.351677,-0.995035 -2.911205,-1.710918 -3.384807,-3.912939 h 7.724077 V 8.1901268 H 46.008636 C 46.50359,6.0539418 48.041557,5.3452236 49.375872,4.3629713 V 1.150247 C 45.251351,2.2057202 43.176841,4.6827334 42.726149,8.1901268 H 38.092322 C 38.639506,4.126746 41.267943,1.7965421 42.946807,0.21025122 V -3.2742901 c -4.28198,1.4932634 -7.566105,5.9245605 -8.08736,11.4644169 h -3.348636 c -0.766998,-5.3980767 -5.448977,-9.5725429 -11.067539,-9.5725429 -5.618562,0 -10.300544,4.1744662 -11.0675419,9.5725429 H 5.9619847 C 5.4407283,2.6502704 2.1566028,-1.7810267 -2.1253768,-3.2742901 Z M 20.443272,2.0080764 c 4.325998,0 7.789188,3.4514102 7.789188,7.7421607 0,4.2907529 -3.46319,7.7400969 -7.789188,7.7400969 -4.326001,0 -7.787121,-3.449344 -7.787121,-7.7400969 0,-4.2907505 3.46112,-7.7421607 7.787121,-7.7421607 z"
       id="path27483"
       inkscape:connector-curvature="0" />
  </g>
</svg>
