<?xml version="1.0" encoding="UTF-8" standalone="no"?>
<!-- Created with Inkscape (http://www.inkscape.org/) -->

<svg
   xmlns:dc="http://purl.org/dc/elements/1.1/"
   xmlns:cc="http://creativecommons.org/ns#"
   xmlns:rdf="http://www.w3.org/1999/02/22-rdf-syntax-ns#"
   xmlns:svg="http://www.w3.org/2000/svg"
   xmlns="http://www.w3.org/2000/svg"
   xmlns:sodipodi="http://sodipodi.sourceforge.net/DTD/sodipodi-0.dtd"
   xmlns:inkscape="http://www.inkscape.org/namespaces/inkscape"
   width="79.375mm"
   height="79.375mm"
   viewBox="0 0 79.375 79.375"
   version="1.1"
   id="svg31552"
   inkscape:version="0.92.2 (5c3e80d, 2017-08-06)"
   sodipodi:docname="Canrius.svg"
   inkscape:export-filename="C:\Users\irock\Desktop\Stuff\Images\Homestuck\ezodiac\04 Lime\Derse\Canrius.png"
   inkscape:export-xdpi="320"
   inkscape:export-ydpi="320">
  <title
     id="title32119">Canrius</title>
  <defs
     id="defs31546" />
  <sodipodi:namedview
     id="base"
     pagecolor="#ffffff"
     bordercolor="#666666"
     borderopacity="1.0"
     inkscape:pageopacity="0.0"
     inkscape:pageshadow="2"
     inkscape:zoom="2.8"
     inkscape:cx="76.071436"
     inkscape:cy="126.96428"
     inkscape:document-units="mm"
     inkscape:current-layer="layer1"
     showgrid="false" />
  <metadata
     id="metadata31549">
    <rdf:RDF>
      <cc:Work
         rdf:about="">
        <dc:format>image/svg+xml</dc:format>
        <dc:type
           rdf:resource="http://purl.org/dc/dcmitype/StillImage" />
        <dc:title>Canrius</dc:title>
      </cc:Work>
    </rdf:RDF>
  </metadata>
  <g
     inkscape:label="Layer 1"
     inkscape:groupmode="layer"
     id="layer1"
     transform="translate(94.872025,-115.19345)">
    <path
       style="fill:#678900;fill-opacity:1;stroke:none;stroke-width:0.26458332px;stroke-linecap:butt;stroke-linejoin:miter;stroke-opacity:1"
       d="m -85.139285,130.44678 c 1.735644,8.42045 8.905929,13.32673 17.53278,15.58148 l -6.145878,16.01711 9.354466,-2.882 -8.787576,20.15174 h 4.724777 l 12.047842,-27.23864 -10.111009,3.11815 3.228742,-8.27546 c 2.667264,0.41929 5.404527,0.62167 8.110617,0.62167 2.306539,0 4.635708,-0.1479 6.925159,-0.45011 l -5.738667,14.95465 9.354984,-2.882 -8.788096,20.15174 h 4.724778 l 12.047842,-27.23864 -10.110494,3.11815 3.530018,-9.04802 c 8.837713,-2.19744 16.241826,-7.12525 18.009235,-15.69982 h -4.299479 c -2.882067,9.08404 -15.481438,12.88913 -25.65528,12.88913 -10.173843,0 -22.773214,-3.8051 -25.655282,-12.88913 z"
       id="path32108"
       inkscape:connector-curvature="0" />
  </g>
</svg>
