<?xml version="1.0" encoding="UTF-8" standalone="no"?>
<!-- Created with Inkscape (http://www.inkscape.org/) -->

<svg
   xmlns:dc="http://purl.org/dc/elements/1.1/"
   xmlns:cc="http://creativecommons.org/ns#"
   xmlns:rdf="http://www.w3.org/1999/02/22-rdf-syntax-ns#"
   xmlns:svg="http://www.w3.org/2000/svg"
   xmlns="http://www.w3.org/2000/svg"
   xmlns:sodipodi="http://sodipodi.sourceforge.net/DTD/sodipodi-0.dtd"
   xmlns:inkscape="http://www.inkscape.org/namespaces/inkscape"
   width="79.375mm"
   height="79.375mm"
   viewBox="0 0 79.375 79.375"
   version="1.1"
   id="svg30976"
   inkscape:version="0.92.2 (5c3e80d, 2017-08-06)"
   sodipodi:docname="Cansces.svg"
   inkscape:export-filename="C:\Users\irock\Desktop\Stuff\Images\Homestuck\ezodiac\04 Lime\Derse\Cansces.png"
   inkscape:export-xdpi="320"
   inkscape:export-ydpi="320">
  <title
     id="title31544">Cansces</title>
  <defs
     id="defs30970" />
  <sodipodi:namedview
     id="base"
     pagecolor="#ffffff"
     bordercolor="#666666"
     borderopacity="1.0"
     inkscape:pageopacity="0.0"
     inkscape:pageshadow="2"
     inkscape:zoom="1.979899"
     inkscape:cx="107.76035"
     inkscape:cy="152.23765"
     inkscape:document-units="mm"
     inkscape:current-layer="layer1"
     showgrid="false" />
  <metadata
     id="metadata30973">
    <rdf:RDF>
      <cc:Work
         rdf:about="">
        <dc:format>image/svg+xml</dc:format>
        <dc:type
           rdf:resource="http://purl.org/dc/dcmitype/StillImage" />
        <dc:title>Cansces</dc:title>
      </cc:Work>
    </rdf:RDF>
  </metadata>
  <g
     inkscape:label="Layer 1"
     inkscape:groupmode="layer"
     id="layer1"
     transform="translate(72.828918,-94.144455)">
    <path
       style="color:#000000;font-style:normal;font-variant:normal;font-weight:normal;font-stretch:normal;font-size:medium;line-height:normal;font-family:sans-serif;font-variant-ligatures:normal;font-variant-position:normal;font-variant-caps:normal;font-variant-numeric:normal;font-variant-alternates:normal;font-feature-settings:normal;text-indent:0;text-align:start;text-decoration:none;text-decoration-line:none;text-decoration-style:solid;text-decoration-color:#000000;letter-spacing:normal;word-spacing:normal;text-transform:none;writing-mode:lr-tb;direction:ltr;text-orientation:mixed;dominant-baseline:auto;baseline-shift:baseline;text-anchor:start;white-space:normal;shape-padding:0;clip-rule:nonzero;display:inline;overflow:visible;visibility:visible;opacity:1;isolation:auto;mix-blend-mode:normal;color-interpolation:sRGB;color-interpolation-filters:linearRGB;solid-color:#000000;solid-opacity:1;vector-effect:none;fill:#678900;fill-opacity:1;fill-rule:nonzero;stroke:none;stroke-width:4.40954018;stroke-linecap:butt;stroke-linejoin:miter;stroke-miterlimit:4;stroke-dasharray:none;stroke-dashoffset:0;stroke-opacity:1;color-rendering:auto;image-rendering:auto;shape-rendering:auto;text-rendering:auto;enable-background:accumulate"
       d="m -44.173819,107.97384 c -3.090575,0 -6.752338,1.17116 -10.013859,4.46588 -4.614033,4.661 -8.062761,10.73595 -8.145239,20.58686 -0.125414,14.97881 9.647407,27.26153 26.593207,26.52654 l -0.200504,-4.20956 c -11.923419,0.87742 -21.960831,-7.65581 -22.049816,-22.18366 -0.01441,-2.35232 0.651697,-6.55992 1.125513,-8.18193 1.60754,5.51406 6.691513,9.5741 12.690698,9.5741 7.283537,0 13.222448,-5.98309 13.222448,-13.28912 0,-8.3402 -6.541796,-13.28911 -13.222448,-13.28911 z m 15.198039,0.10594 c -0.515464,-0.002 -1.037791,0.008 -1.567346,0.031 l 0.200503,4.20956 c 11.923422,-0.87743 21.9608325,7.65581 22.0498171,22.18366 0.014409,2.35232 -0.6516978,6.55992 -1.1255137,8.18193 -1.6075394,-5.51405 -6.6915114,-9.5741 -12.6906974,-9.5741 -7.283537,0 -13.222449,5.98308 -13.222449,13.28912 0,8.3402 6.541797,13.28911 13.222449,13.28911 3.090574,0 6.751823,-1.17116 10.013341,-4.46588 4.614035,-4.661 8.0632782,-10.73595 8.1457568,-20.58686 0.121494,-14.51073 -9.0464958,-26.49115 -25.0258608,-26.55755 z m -15.198039,4.30465 c 4.885991,0 8.812381,3.94123 8.812381,8.87852 0,4.93731 -3.92639,8.87905 -8.812381,8.87905 -4.885991,0 -8.812899,-3.94174 -8.812899,-8.87905 0,-4.93729 3.926908,-8.87852 8.812899,-8.87852 z m 22.064802,25.13748 c 4.885992,0 8.812898,3.94174 8.8129,8.87905 0,4.9373 -3.926908,8.87852 -8.8129,8.87852 -4.885991,0 -8.812382,-3.94122 -8.812382,-8.87852 0,-4.93731 3.926391,-8.87905 8.812382,-8.87905 z"
       id="path31532"
       inkscape:connector-curvature="0" />
  </g>
</svg>
