<?xml version="1.0" encoding="UTF-8" standalone="no"?>
<!-- Created with Inkscape (http://www.inkscape.org/) -->

<svg
   xmlns:dc="http://purl.org/dc/elements/1.1/"
   xmlns:cc="http://creativecommons.org/ns#"
   xmlns:rdf="http://www.w3.org/1999/02/22-rdf-syntax-ns#"
   xmlns:svg="http://www.w3.org/2000/svg"
   xmlns="http://www.w3.org/2000/svg"
   xmlns:sodipodi="http://sodipodi.sourceforge.net/DTD/sodipodi-0.dtd"
   xmlns:inkscape="http://www.inkscape.org/namespaces/inkscape"
   width="79.375mm"
   height="79.375mm"
   viewBox="0 0 79.375 79.375"
   version="1.1"
   id="svg23499"
   inkscape:version="0.92.2 (5c3e80d, 2017-08-06)"
   sodipodi:docname="Cansci.svg"
   inkscape:export-filename="C:\Users\irock\Desktop\Stuff\Images\Homestuck\ezodiac\04 Lime\Prospit\Cansci.png"
   inkscape:export-xdpi="320"
   inkscape:export-ydpi="320">
  <title
     id="title24062">Cansci</title>
  <defs
     id="defs23493" />
  <sodipodi:namedview
     id="base"
     pagecolor="#ffffff"
     bordercolor="#666666"
     borderopacity="1.0"
     inkscape:pageopacity="0.0"
     inkscape:pageshadow="2"
     inkscape:zoom="1.4"
     inkscape:cx="53.681891"
     inkscape:cy="121.79043"
     inkscape:document-units="mm"
     inkscape:current-layer="layer1"
     showgrid="false" />
  <metadata
     id="metadata23496">
    <rdf:RDF>
      <cc:Work
         rdf:about="">
        <dc:format>image/svg+xml</dc:format>
        <dc:type
           rdf:resource="http://purl.org/dc/dcmitype/StillImage" />
        <dc:title>Cansci</dc:title>
      </cc:Work>
    </rdf:RDF>
  </metadata>
  <g
     inkscape:label="Layer 1"
     inkscape:groupmode="layer"
     id="layer1"
     transform="translate(83.532738,-108.38988)">
    <path
       style="fill:#678900;fill-opacity:1;stroke:none;stroke-width:4.12248802;stroke-linecap:butt;stroke-miterlimit:4;stroke-dasharray:none;stroke-opacity:0.5929648"
       d="m -39.466693,118.47531 c -6.959618,0 -10.991577,4.97213 -10.991577,13.06277 0,4.98766 2.696919,9.57235 7.669299,13.61261 2.517402,2.04548 4.435248,4.00769 6.262151,5.564 4.994814,4.255 6.180341,10.30648 6.1805,12.62507 h -16.570047 v -10.18129 h -4.157888 v 10.18129 h -10.654128 v 4.15788 h 10.654128 v 10.18181 h 4.157888 v -10.18181 h 20.954274 v -4.15788 c 0,-5.16392 -2.659962,-11.25771 -7.858434,-16.16646 -2.49791,-2.35869 -5.337392,-4.42017 -7.526155,-6.60579 -2.858534,-2.85443 -4.935617,-5.60994 -4.935617,-9.19634 0,-3.45256 1.453013,-8.61963 6.782017,-8.61963 5.580597,0 7.07141,4.8003 7.11636,6.98045 h 4.04213 c 0.617151,-7.10794 -5.608757,-11.25668 -11.124901,-11.25668 z"
       id="rect24055"
       inkscape:connector-curvature="0" />
  </g>
</svg>
