<?xml version="1.0" encoding="UTF-8" standalone="no"?>
<!-- Created with Inkscape (http://www.inkscape.org/) -->

<svg
   xmlns:dc="http://purl.org/dc/elements/1.1/"
   xmlns:cc="http://creativecommons.org/ns#"
   xmlns:rdf="http://www.w3.org/1999/02/22-rdf-syntax-ns#"
   xmlns:svg="http://www.w3.org/2000/svg"
   xmlns="http://www.w3.org/2000/svg"
   xmlns:sodipodi="http://sodipodi.sourceforge.net/DTD/sodipodi-0.dtd"
   xmlns:inkscape="http://www.inkscape.org/namespaces/inkscape"
   width="79.375mm"
   height="79.375mm"
   viewBox="0 0 79.375 79.375"
   version="1.1"
   id="svg29833"
   inkscape:version="0.92.2 (5c3e80d, 2017-08-06)"
   sodipodi:docname="Canun.svg"
   inkscape:export-filename="C:\Users\irock\Desktop\Stuff\Images\Homestuck\ezodiac\04 Lime\Derse\Canun.png"
   inkscape:export-xdpi="320"
   inkscape:export-ydpi="320">
  <title
     id="title30397">Canun</title>
  <defs
     id="defs29827" />
  <sodipodi:namedview
     id="base"
     pagecolor="#ffffff"
     bordercolor="#666666"
     borderopacity="1.0"
     inkscape:pageopacity="0.0"
     inkscape:pageshadow="2"
     inkscape:zoom="1.979899"
     inkscape:cx="175.66706"
     inkscape:cy="155.71428"
     inkscape:document-units="mm"
     inkscape:current-layer="layer1"
     showgrid="false" />
  <metadata
     id="metadata29830">
    <rdf:RDF>
      <cc:Work
         rdf:about="">
        <dc:format>image/svg+xml</dc:format>
        <dc:type
           rdf:resource="http://purl.org/dc/dcmitype/StillImage" />
        <dc:title>Canun</dc:title>
      </cc:Work>
    </rdf:RDF>
  </metadata>
  <g
     inkscape:label="Layer 1"
     inkscape:groupmode="layer"
     id="layer1"
     transform="translate(23.056547,70.770836)">
    <path
       style="fill:#678900;fill-opacity:1;stroke:none;stroke-width:0.44994479px;stroke-linecap:butt;stroke-linejoin:miter;stroke-opacity:1"
       d="m 19.995353,-56.588497 c -13.123698,4.337806 -11.7855546,18.142321 -7.031611,28.311449 6.704817,14.342226 3.105078,20.885398 0.16433,22.6988733 4.04699,-0.2297351 16.598566,-7.2604973 7.572147,-27.6184673 C 13.763873,-48.840714 16.697063,-52.7594 19.995353,-56.588497 Z M 4.2826172,-46.298169 c -7.8805722,2.604784 -7.077149,10.894111 -4.22248036,17.000512 4.02613566,8.61228 1.86457456,12.541213 0.09870202,13.630177 C 2.588991,-15.805434 10.12607,-20.027358 4.7058473,-32.251997 0.54068208,-41.646015 2.3020464,-43.998857 4.2826172,-46.298169 Z m 28.5977378,0 c -7.880572,2.604784 -7.076633,10.894111 -4.221964,17.000512 4.026133,8.61228 1.864058,12.541213 0.09818,13.630177 2.430153,-0.137954 9.96723,-4.359878 4.54701,-16.584517 -4.165166,-9.394018 -2.403803,-11.74686 -0.42323,-14.046172 z"
       id="path30391"
       inkscape:connector-curvature="0" />
  </g>
</svg>
