<?xml version="1.0" encoding="UTF-8" standalone="no"?>
<!-- Created with Inkscape (http://www.inkscape.org/) -->

<svg
   xmlns:dc="http://purl.org/dc/elements/1.1/"
   xmlns:cc="http://creativecommons.org/ns#"
   xmlns:rdf="http://www.w3.org/1999/02/22-rdf-syntax-ns#"
   xmlns:svg="http://www.w3.org/2000/svg"
   xmlns="http://www.w3.org/2000/svg"
   xmlns:sodipodi="http://sodipodi.sourceforge.net/DTD/sodipodi-0.dtd"
   xmlns:inkscape="http://www.inkscape.org/namespaces/inkscape"
   width="79.375mm"
   height="79.375mm"
   viewBox="0 0 79.375 79.375"
   version="1.1"
   id="svg22345"
   inkscape:version="0.92.2 (5c3e80d, 2017-08-06)"
   sodipodi:docname="Canus.svg"
   inkscape:export-filename="C:\Users\irock\Desktop\Stuff\Images\Homestuck\ezodiac\04 Lime\Prospit\Canus.png"
   inkscape:export-xdpi="320"
   inkscape:export-ydpi="320">
  <title
     id="title22913">Canus</title>
  <defs
     id="defs22339" />
  <sodipodi:namedview
     id="base"
     pagecolor="#ffffff"
     bordercolor="#666666"
     borderopacity="1.0"
     inkscape:pageopacity="0.0"
     inkscape:pageshadow="2"
     inkscape:zoom="1.979899"
     inkscape:cx="81.714646"
     inkscape:cy="125.98914"
     inkscape:document-units="mm"
     inkscape:current-layer="layer1"
     showgrid="false" />
  <metadata
     id="metadata22342">
    <rdf:RDF>
      <cc:Work
         rdf:about="">
        <dc:format>image/svg+xml</dc:format>
        <dc:type
           rdf:resource="http://purl.org/dc/dcmitype/StillImage" />
        <dc:title>Canus</dc:title>
      </cc:Work>
    </rdf:RDF>
  </metadata>
  <g
     inkscape:label="Layer 1"
     inkscape:groupmode="layer"
     id="layer1"
     transform="translate(70.156227,-116.59509)">
    <path
       style="color:#000000;font-style:normal;font-variant:normal;font-weight:normal;font-stretch:normal;font-size:medium;line-height:normal;font-family:sans-serif;font-variant-ligatures:normal;font-variant-position:normal;font-variant-caps:normal;font-variant-numeric:normal;font-variant-alternates:normal;font-feature-settings:normal;text-indent:0;text-align:start;text-decoration:none;text-decoration-line:none;text-decoration-style:solid;text-decoration-color:#000000;letter-spacing:normal;word-spacing:normal;text-transform:none;writing-mode:lr-tb;direction:ltr;text-orientation:mixed;dominant-baseline:auto;baseline-shift:baseline;text-anchor:start;white-space:normal;shape-padding:0;clip-rule:nonzero;display:inline;overflow:visible;visibility:visible;opacity:1;isolation:auto;mix-blend-mode:normal;color-interpolation:sRGB;color-interpolation-filters:linearRGB;solid-color:#000000;solid-opacity:1;vector-effect:none;fill:#678900;fill-opacity:1;fill-rule:nonzero;stroke:none;stroke-width:3.80696034;stroke-linecap:butt;stroke-linejoin:miter;stroke-miterlimit:4;stroke-dasharray:none;stroke-dashoffset:0;stroke-opacity:1;color-rendering:auto;image-rendering:auto;shape-rendering:auto;text-rendering:auto;enable-background:accumulate"
       d="m -46.317888,133.20684 2.351278,3.91604 h 9.885703 c 2.592856,0 7.96902,1.94334 7.96902,7.33288 0,6.16409 -5.961869,6.95462 -7.03988,6.95462 H -37.644 c -9.756191,0 -14.500406,6.90771 -14.500406,14.23479 0,8.45553 6.199946,13.82844 12.896888,13.7113 l 18.270717,-0.24959 c 5.33532,0 9.699151,-4.37188 9.699151,-9.71052 0,-5.33864 -4.363831,-9.70897 -9.699151,-9.70897 -5.335317,0 -9.697082,4.37033 -9.697082,9.70897 0,2.14846 0.707083,4.13967 1.89911,5.75314 l -10.779188,0.0641 c -5.110265,0.0305 -8.522993,-5.22945 -8.522993,-9.5684 0,-4.46703 2.472272,-10.39834 9.541536,-10.39834 h 19.263423 c 1.999612,0 10.478947,-1.54482 10.478947,-10.60555 0,-7.77743 -7.006638,-11.43444 -11.642698,-11.43444 z m 21.281905,3.89485 c 1.23597,0.005 2.404086,0.0117 3.418396,0.0212 4.956302,0.0465 8.915217,2.81099 8.915217,7.73234 0,2.6068 -2.095055,6.55516 -8.06514,6.55516 h -3.851444 c 0,0 2.475817,-2.60082 2.475817,-6.95462 0,-3.77936 -2.287831,-6.65837 -2.892846,-7.35407 z m 4.059182,26.39219 c 3.274846,0 5.892665,2.61824 5.892665,5.90248 0,3.28424 -2.617819,5.90196 -5.892665,5.90196 -3.274843,0 -5.890596,-2.61772 -5.890596,-5.90196 0,-3.28424 2.615753,-5.90248 5.890596,-5.90248 z"
       id="path22901"
       inkscape:connector-curvature="0"
       sodipodi:nodetypes="ccsssssccsssccssssscsssscscssssss" />
  </g>
</svg>
