<?xml version="1.0" encoding="UTF-8" standalone="no"?>
<!-- Created with Inkscape (http://www.inkscape.org/) -->

<svg
   xmlns:dc="http://purl.org/dc/elements/1.1/"
   xmlns:cc="http://creativecommons.org/ns#"
   xmlns:rdf="http://www.w3.org/1999/02/22-rdf-syntax-ns#"
   xmlns:svg="http://www.w3.org/2000/svg"
   xmlns="http://www.w3.org/2000/svg"
   xmlns:sodipodi="http://sodipodi.sourceforge.net/DTD/sodipodi-0.dtd"
   xmlns:inkscape="http://www.inkscape.org/namespaces/inkscape"
   width="79.375mm"
   height="79.375mm"
   viewBox="0 0 79.375 79.375"
   version="1.1"
   id="svg33841"
   inkscape:version="0.92.2 (5c3e80d, 2017-08-06)"
   sodipodi:docname="Canza.svg"
   inkscape:export-filename="C:\Users\irock\Desktop\Stuff\Images\Homestuck\ezodiac\04 Lime\Derse\Canza.png"
   inkscape:export-xdpi="320"
   inkscape:export-ydpi="320">
  <title
     id="title34415">Canza</title>
  <defs
     id="defs33835" />
  <sodipodi:namedview
     id="base"
     pagecolor="#ffffff"
     bordercolor="#666666"
     borderopacity="1.0"
     inkscape:pageopacity="0.0"
     inkscape:pageshadow="2"
     inkscape:zoom="1.979899"
     inkscape:cx="160.54538"
     inkscape:cy="146.50294"
     inkscape:document-units="mm"
     inkscape:current-layer="layer1"
     showgrid="false" />
  <metadata
     id="metadata33838">
    <rdf:RDF>
      <cc:Work
         rdf:about="">
        <dc:format>image/svg+xml</dc:format>
        <dc:type
           rdf:resource="http://purl.org/dc/dcmitype/StillImage" />
        <dc:title>Canza</dc:title>
      </cc:Work>
    </rdf:RDF>
  </metadata>
  <g
     inkscape:label="Layer 1"
     inkscape:groupmode="layer"
     id="layer1"
     transform="translate(33.639881,-142.40775)">
    <path
       style="color:#000000;font-style:normal;font-variant:normal;font-weight:normal;font-stretch:normal;font-size:medium;line-height:normal;font-family:sans-serif;font-variant-ligatures:normal;font-variant-position:normal;font-variant-caps:normal;font-variant-numeric:normal;font-variant-alternates:normal;font-feature-settings:normal;text-indent:0;text-align:start;text-decoration:none;text-decoration-line:none;text-decoration-style:solid;text-decoration-color:#000000;letter-spacing:normal;word-spacing:normal;text-transform:none;writing-mode:lr-tb;direction:ltr;text-orientation:mixed;dominant-baseline:auto;baseline-shift:baseline;text-anchor:start;white-space:normal;shape-padding:0;clip-rule:nonzero;display:inline;overflow:visible;visibility:visible;opacity:1;isolation:auto;mix-blend-mode:normal;color-interpolation:sRGB;color-interpolation-filters:linearRGB;solid-color:#000000;solid-opacity:1;vector-effect:none;fill:#678900;fill-opacity:1;fill-rule:nonzero;stroke:none;stroke-width:3.96657991;stroke-linecap:butt;stroke-linejoin:miter;stroke-miterlimit:4;stroke-dasharray:none;stroke-dashoffset:0;stroke-opacity:1;color-rendering:auto;image-rendering:auto;shape-rendering:auto;text-rendering:auto;enable-background:accumulate"
       d="m -16.309672,156.33248 v 37.58788 c 0,5.63404 3.942444,13.94652 22.357291,13.93766 18.414849,0.009 22.357291,-8.30361 22.357291,-13.93766 v -37.58788 h -3.730521 v 24.91527 c 0,7.94612 -7.988708,11.16056 -18.62677,11.16056 -10.6380623,0 -18.62677,-3.21444 -18.62677,-11.16056 v -24.91527 z m 22.452377,11.64425 c -4.1201075,0 -7.8743571,0.93426 -10.7502483,2.58951 -2.8758938,1.65525 -5.036903,4.21308 -5.036903,7.33805 0,3.12497 2.1610092,5.68074 5.036903,7.33598 2.8758912,1.65526 6.6301408,2.59158 10.7502483,2.59158 4.120105,0 7.873836,-0.93632 10.74973,-2.59158 2.875893,-1.65524 5.035351,-4.21101 5.035351,-7.33598 0,-3.12497 -2.159458,-5.6828 -5.035351,-7.33805 -2.875894,-1.65525 -6.629625,-2.58951 -10.74973,-2.58951 z m 0,3.96462 c 3.5031917,0 6.651672,0.84228 8.771556,2.0624 2.119884,1.22012 3.048392,2.63784 3.048392,3.90054 0,1.2627 -0.928508,2.67835 -3.048392,3.89847 -2.119884,1.22012 -5.2683643,2.06241 -8.771556,2.06241 -3.5031945,0 -6.65167523,-0.84229 -8.7715592,-2.06241 -2.119884,-1.22012 -3.0489101,-2.63577 -3.0489101,-3.89847 0,-1.2627 0.9290261,-2.68042 3.0489101,-3.90054 2.11988397,-1.22012 5.2683647,-2.0624 8.7715592,-2.0624 z m -18.721856,18.9022 c 4.2138378,4.09747 11.5558996,5.39192 18.62677,5.39192 7.07087,0 14.412931,-1.29445 18.62677,-5.39192 -0.0082,0.8154 -0.02124,1.70035 0,2.67736 0,7.57623 -7.761502,10.4417 -18.62677,10.69909 -10.8652679,-0.25739 -18.62677,-3.12286 -18.62677,-10.69909 0.02124,-0.97701 0.0082,-1.86196 0,-2.67736 z"
       id="path34397"
       inkscape:connector-curvature="0" />
  </g>
</svg>
