<?xml version="1.0" encoding="UTF-8" standalone="no"?>
<!-- Created with Inkscape (http://www.inkscape.org/) -->

<svg
   xmlns:dc="http://purl.org/dc/elements/1.1/"
   xmlns:cc="http://creativecommons.org/ns#"
   xmlns:rdf="http://www.w3.org/1999/02/22-rdf-syntax-ns#"
   xmlns:svg="http://www.w3.org/2000/svg"
   xmlns="http://www.w3.org/2000/svg"
   xmlns:sodipodi="http://sodipodi.sourceforge.net/DTD/sodipodi-0.dtd"
   xmlns:inkscape="http://www.inkscape.org/namespaces/inkscape"
   width="300"
   height="300"
   viewBox="0 0 300 300"
   version="1.1"
   id="svg8"
   inkscape:version="0.92.2 (5c3e80d, 2017-08-06)"
   sodipodi:docname="Picen.svg"
   inkscape:export-filename="C:\Users\irock\Desktop\Stuff\Images\Homestuck\ezodiac\12 Fuchsia\Derse\Picen.png"
   inkscape:export-xdpi="320"
   inkscape:export-ydpi="320">
  <title
     id="title5993">Picen</title>
  <defs
     id="defs2" />
  <sodipodi:namedview
     id="base"
     pagecolor="#ffffff"
     bordercolor="#666666"
     borderopacity="1.0"
     inkscape:pageopacity="0.0"
     inkscape:pageshadow="2"
     inkscape:zoom="1.979899"
     inkscape:cx="156.99418"
     inkscape:cy="145.89903"
     inkscape:document-units="px"
     inkscape:current-layer="layer1"
     showgrid="false"
     showguides="false"
     units="px"
     inkscape:pagecheckerboard="true"
     inkscape:showpageshadow="false" />
  <metadata
     id="metadata5">
    <rdf:RDF>
      <cc:Work
         rdf:about="">
        <dc:format>image/svg+xml</dc:format>
        <dc:type
           rdf:resource="http://purl.org/dc/dcmitype/StillImage" />
        <dc:title>Picen</dc:title>
      </cc:Work>
    </rdf:RDF>
  </metadata>
  <g
     inkscape:label="Layer 1"
     inkscape:groupmode="layer"
     id="layer1"
     transform="translate(850,-267.62497)">
    <path
       style="fill:#99014e;fill-opacity:1;stroke:none;stroke-width:20.75672722;stroke-linecap:butt;stroke-miterlimit:4;stroke-dasharray:none;stroke-opacity:0.62311557"
       d="m -707.80176,321.23141 v 99.2207 h -19.13868 c -0.34924,-40.73161 -30.87622,-57.97048 -40.07421,-62.3125 v 18.75 c 15.32763,7.95087 23.83766,27.31107 24.09375,43.5625 h -47.39063 v 16.79493 h 180.56445 v -16.79493 h -47.34179 c 0.25607,-16.25143 8.76611,-35.61163 24.09375,-43.5625 v -18.75 c -9.19799,4.34202 -39.72694,21.58089 -40.07618,62.3125 h -19.0957 v -99.2207 z m 7.89648,140.07031 c -34.69103,0 -70.87297,12.77891 -90.21679,30.11524 v 22.60156 c 15.35311,-16.74256 44.90885,-37.25 90.21679,-37.25 45.30794,0 74.86369,20.50744 90.2168,37.25 v -22.60156 c -19.34382,-17.33632 -55.52577,-30.11523 -90.2168,-30.11524 z"
       id="rect5969"
       inkscape:connector-curvature="0" />
  </g>
</svg>
