<?xml version="1.0" encoding="UTF-8" standalone="no"?>
<!-- Created with Inkscape (http://www.inkscape.org/) -->

<svg
   xmlns:dc="http://purl.org/dc/elements/1.1/"
   xmlns:cc="http://creativecommons.org/ns#"
   xmlns:rdf="http://www.w3.org/1999/02/22-rdf-syntax-ns#"
   xmlns:svg="http://www.w3.org/2000/svg"
   xmlns="http://www.w3.org/2000/svg"
   xmlns:sodipodi="http://sodipodi.sourceforge.net/DTD/sodipodi-0.dtd"
   xmlns:inkscape="http://www.inkscape.org/namespaces/inkscape"
   width="300"
   height="300"
   viewBox="0 0 300 300"
   version="1.1"
   id="svg8"
   inkscape:version="0.92.2 (5c3e80d, 2017-08-06)"
   sodipodi:docname="Picorn.svg"
   inkscape:export-filename="C:\Users\irock\Desktop\Stuff\Images\Homestuck\ezodiac\12 Fuchsia\Prospit\Picorn.png"
   inkscape:export-xdpi="320"
   inkscape:export-ydpi="320">
  <title
     id="title2000">Picorn</title>
  <defs
     id="defs2" />
  <sodipodi:namedview
     id="base"
     pagecolor="#ffffff"
     bordercolor="#666666"
     borderopacity="1.0"
     inkscape:pageopacity="0.0"
     inkscape:pageshadow="2"
     inkscape:zoom="1.979899"
     inkscape:cx="130.91373"
     inkscape:cy="155.86477"
     inkscape:document-units="px"
     inkscape:current-layer="layer1"
     showgrid="false"
     showguides="false"
     units="px"
     inkscape:pagecheckerboard="true"
     inkscape:showpageshadow="false" />
  <metadata
     id="metadata5">
    <rdf:RDF>
      <cc:Work
         rdf:about="">
        <dc:format>image/svg+xml</dc:format>
        <dc:type
           rdf:resource="http://purl.org/dc/dcmitype/StillImage" />
        <dc:title>Picorn</dc:title>
      </cc:Work>
    </rdf:RDF>
  </metadata>
  <g
     inkscape:label="Layer 1"
     inkscape:groupmode="layer"
     id="layer1"
     transform="translate(218.57143,263.80359)">
    <path
       style="color:#000000;font-style:normal;font-variant:normal;font-weight:normal;font-stretch:normal;font-size:medium;line-height:normal;font-family:sans-serif;font-variant-ligatures:normal;font-variant-position:normal;font-variant-caps:normal;font-variant-numeric:normal;font-variant-alternates:normal;font-feature-settings:normal;text-indent:0;text-align:start;text-decoration:none;text-decoration-line:none;text-decoration-style:solid;text-decoration-color:#000000;letter-spacing:normal;word-spacing:normal;text-transform:none;writing-mode:lr-tb;direction:ltr;text-orientation:mixed;dominant-baseline:auto;baseline-shift:baseline;text-anchor:start;white-space:normal;shape-padding:0;clip-rule:nonzero;display:inline;overflow:visible;visibility:visible;opacity:1;isolation:auto;mix-blend-mode:normal;color-interpolation:sRGB;color-interpolation-filters:linearRGB;solid-color:#000000;solid-opacity:1;vector-effect:none;fill:#99014e;fill-opacity:1;fill-rule:nonzero;stroke:none;stroke-width:15.61979008;stroke-linecap:butt;stroke-linejoin:miter;stroke-miterlimit:4;stroke-dasharray:none;stroke-dashoffset:0;stroke-opacity:1;color-rendering:auto;image-rendering:auto;shape-rendering:auto;text-rendering:auto;enable-background:accumulate"
       d="m -140.43471,-207.52527 c 9.92318,30.87396 38.26097,53.3457 71.738281,53.3457 33.47731,0 61.8131495,-22.47174 71.7363295,-53.3457 H -13.501119 c -9.10591,22.25273 -30.4072,37.72461 -55.19531,37.72461 -24.78811,0 -46.090801,-15.47188 -55.197261,-37.72461 z m -22.36328,23.53906 v 16.23242 c 22.25273,8.93645 37.72461,29.84068 37.72461,54.16602 0,24.32533 -15.47188,45.23011 -37.72461,54.16601 v 16.23243 c 30.87396,-9.73791 53.3457,-37.54613 53.3457,-70.39844 0,-32.85231 -22.47174,-60.66051 -53.3457,-70.39844 z m 188.453121,0 c -30.8739605,9.73793 -53.3457,37.54613 -53.3457,70.39844 0,32.85231 22.4717395,60.66053 53.3457,70.39844 v -16.23243 c -22.2527305,-8.9359 -37.7246,-29.84068 -37.7246,-54.16601 0,-24.32534 15.4718695,-45.22957 37.7246,-54.16602 z m -94.32421,42.77344 c -15.34449,0 -27.95118,12.60668 -27.95118,27.95117 0,15.34448 12.60669,27.95117 27.95118,27.95117 15.34448,0 27.95117,-12.60669 27.95117,-27.95117 0,-15.34449 -12.60669,-27.95117 -27.95117,-27.95117 z m 0,15.62109 c 6.90292,0 12.33203,5.42716 12.33203,12.33008 0,6.90292 -5.42911,12.33203 -12.33203,12.33203 -6.90293,0 -12.33204,-5.42911 -12.33204,-12.33203 0,-6.90292 5.42911,-12.33008 12.33204,-12.33008 z m -0.02735,52.16407 c -33.477311,0 -61.815101,22.47174 -71.738281,53.3457 h 16.54102 c 9.10646,-22.25273 30.409151,-37.72461 55.197261,-37.72461 24.78811,0 46.0894,15.47188 55.19531,37.72461 H 3.0399005 c -9.92318,-30.87396 -38.2590195,-53.3457 -71.7363295,-53.3457 z"
       id="path1979"
       inkscape:connector-curvature="0" />
  </g>
</svg>
