<?xml version="1.0" encoding="UTF-8" standalone="no"?>
<!-- Created with Inkscape (http://www.inkscape.org/) -->

<svg
   xmlns:dc="http://purl.org/dc/elements/1.1/"
   xmlns:cc="http://creativecommons.org/ns#"
   xmlns:rdf="http://www.w3.org/1999/02/22-rdf-syntax-ns#"
   xmlns:svg="http://www.w3.org/2000/svg"
   xmlns="http://www.w3.org/2000/svg"
   xmlns:sodipodi="http://sodipodi.sourceforge.net/DTD/sodipodi-0.dtd"
   xmlns:inkscape="http://www.inkscape.org/namespaces/inkscape"
   width="300"
   height="300"
   viewBox="0 0 300 300"
   version="1.1"
   id="svg8"
   inkscape:version="0.92.2 (5c3e80d, 2017-08-06)"
   sodipodi:docname="Pigo.svg"
   inkscape:export-filename="C:\Users\irock\Desktop\Stuff\Images\Homestuck\ezodiac\12 Fuchsia\Prospit\Pigo.png"
   inkscape:export-xdpi="320"
   inkscape:export-ydpi="320">
  <title
     id="title4308">Pigo</title>
  <defs
     id="defs2" />
  <sodipodi:namedview
     id="base"
     pagecolor="#ffffff"
     bordercolor="#666666"
     borderopacity="1.0"
     inkscape:pageopacity="0.0"
     inkscape:pageshadow="2"
     inkscape:zoom="1.979899"
     inkscape:cx="171.11662"
     inkscape:cy="177.03412"
     inkscape:document-units="px"
     inkscape:current-layer="layer1"
     showgrid="false"
     showguides="false"
     units="px"
     inkscape:pagecheckerboard="true"
     inkscape:showpageshadow="false" />
  <metadata
     id="metadata5">
    <rdf:RDF>
      <cc:Work
         rdf:about="">
        <dc:format>image/svg+xml</dc:format>
        <dc:type
           rdf:resource="http://purl.org/dc/dcmitype/StillImage" />
        <dc:title>Pigo</dc:title>
      </cc:Work>
    </rdf:RDF>
  </metadata>
  <g
     inkscape:label="Layer 1"
     inkscape:groupmode="layer"
     id="layer1"
     transform="translate(661.42859,-196.19641)">
    <path
       style="color:#000000;font-style:normal;font-variant:normal;font-weight:normal;font-stretch:normal;font-size:medium;line-height:normal;font-family:sans-serif;font-variant-ligatures:normal;font-variant-position:normal;font-variant-caps:normal;font-variant-numeric:normal;font-variant-alternates:normal;font-feature-settings:normal;text-indent:0;text-align:start;text-decoration:none;text-decoration-line:none;text-decoration-style:solid;text-decoration-color:#000000;letter-spacing:normal;word-spacing:normal;text-transform:none;writing-mode:lr-tb;direction:ltr;text-orientation:mixed;dominant-baseline:auto;baseline-shift:baseline;text-anchor:start;white-space:normal;shape-padding:0;clip-rule:nonzero;display:inline;overflow:visible;visibility:visible;opacity:1;isolation:auto;mix-blend-mode:normal;color-interpolation:sRGB;color-interpolation-filters:linearRGB;solid-color:#000000;solid-opacity:1;vector-effect:none;fill:#99014e;fill-opacity:1;fill-rule:nonzero;stroke:none;stroke-width:15.97299957;stroke-linecap:butt;stroke-linejoin:miter;stroke-miterlimit:4;stroke-dasharray:none;stroke-dashoffset:0;stroke-opacity:1;color-rendering:auto;image-rendering:auto;shape-rendering:auto;text-rendering:auto;enable-background:accumulate"
       d="m -600.88562,252.20031 c 20.56702,31.50304 31.67704,60.33501 34.90039,90.97852 -6.38757,1.83988 -12.3645,3.99354 -17.8125,6.45312 -9.53413,4.30433 -17.54225,9.50162 -23.47852,15.8379 -5.93627,6.33625 -9.83594,14.14891 -9.83594,22.62891 0,8.48001 3.89967,16.29263 9.83594,22.6289 5.93627,6.33627 13.94439,11.53553 23.47852,15.83985 19.06825,8.60864 44.41649,13.625 72.36914,13.625 27.95265,0 53.30089,-5.01636 72.36914,-13.625 9.53412,-4.30432 17.54226,-9.50358 23.47852,-15.83985 5.93627,-6.33627 9.83594,-14.14889 9.83594,-22.6289 0,-8.48 -3.89967,-16.29265 -9.83594,-22.62891 -5.93626,-6.33628 -13.9444,-11.53357 -23.47852,-15.8379 -5.35179,-2.41613 -11.21274,-4.53676 -17.47265,-6.35547 3.20993,-30.68004 14.32317,-59.53956 34.91211,-91.07617 h -18.01563 c -7.18289,10.92237 -13.4626,23.72273 -18.56445,36.80469 H -564.30555 C -569.4074,275.92304 -575.6871,263.12268 -582.87,252.20031 Z m 42.19727,52.77734 h 94.87109 c -3.84936,12.33199 -6.51179,24.33809 -7.71875,34.69141 -12.31784,-2.37678 -25.77157,-3.66211 -39.89258,-3.66211 -13.98907,0 -27.32504,1.25754 -39.54883,3.5918 -1.21082,-10.33729 -3.87033,-22.31716 -7.71093,-34.6211 z m 47.25976,47.00196 c 26.00403,0 49.5057,4.85604 65.79688,12.21093 8.14559,3.67745 14.44331,7.98371 18.39453,12.20118 3.95123,4.21747 5.51953,8.00728 5.51953,11.70703 0,3.69976 -1.5683,7.49151 -5.51953,11.70898 -3.95122,4.21747 -10.24894,8.52372 -18.39453,12.20117 -16.29118,7.35489 -39.79285,12.21094 -65.79688,12.21094 -26.00403,0 -49.50568,-4.85605 -65.79688,-12.21094 -8.14559,-3.67745 -14.4433,-7.9837 -18.39453,-12.20117 -3.95123,-4.21747 -5.51953,-8.00922 -5.51953,-11.70898 0,-3.69976 1.5683,-7.48956 5.51953,-11.70703 3.95123,-4.21746 10.24894,-8.52373 18.39453,-12.20118 16.2912,-7.35489 39.79285,-12.21093 65.79688,-12.21093 z"
       id="path4297"
       inkscape:connector-curvature="0" />
  </g>
</svg>
