<?xml version="1.0" encoding="UTF-8" standalone="no"?>
<!-- Created with Inkscape (http://www.inkscape.org/) -->

<svg
   xmlns:dc="http://purl.org/dc/elements/1.1/"
   xmlns:cc="http://creativecommons.org/ns#"
   xmlns:rdf="http://www.w3.org/1999/02/22-rdf-syntax-ns#"
   xmlns:svg="http://www.w3.org/2000/svg"
   xmlns="http://www.w3.org/2000/svg"
   xmlns:sodipodi="http://sodipodi.sourceforge.net/DTD/sodipodi-0.dtd"
   xmlns:inkscape="http://www.inkscape.org/namespaces/inkscape"
   width="300"
   height="300"
   viewBox="0 0 300 300"
   version="1.1"
   id="svg8"
   inkscape:version="0.92.2 (5c3e80d, 2017-08-06)"
   sodipodi:docname="Pilo.svg"
   inkscape:export-filename="C:\Users\irock\Desktop\Stuff\Images\Homestuck\ezodiac\12 Fuchsia\Prospit\Pilo.png"
   inkscape:export-xdpi="320"
   inkscape:export-ydpi="320">
  <title
     id="title4905">Pilo</title>
  <defs
     id="defs2" />
  <sodipodi:namedview
     id="base"
     pagecolor="#ffffff"
     bordercolor="#666666"
     borderopacity="1.0"
     inkscape:pageopacity="0.0"
     inkscape:pageshadow="2"
     inkscape:zoom="2.8"
     inkscape:cx="80.572034"
     inkscape:cy="140.81582"
     inkscape:document-units="px"
     inkscape:current-layer="layer1"
     showgrid="false"
     showguides="false"
     units="px"
     inkscape:pagecheckerboard="true"
     inkscape:showpageshadow="false" />
  <metadata
     id="metadata5">
    <rdf:RDF>
      <cc:Work
         rdf:about="">
        <dc:format>image/svg+xml</dc:format>
        <dc:type
           rdf:resource="http://purl.org/dc/dcmitype/StillImage" />
        <dc:title>Pilo</dc:title>
      </cc:Work>
    </rdf:RDF>
  </metadata>
  <g
     inkscape:label="Layer 1"
     inkscape:groupmode="layer"
     id="layer1"
     transform="translate(-135.71428,258.08929)">
    <path
       style="fill:#99014e;fill-opacity:1;stroke:none;stroke-width:15.23727036;stroke-linecap:butt;stroke-miterlimit:4;stroke-dasharray:none;stroke-opacity:0.55276382"
       d="m 305.59316,-210.05218 c -28.02678,0 -41.98515,27.71095 -50.21875,47.12109 l -12.20703,28.7754 -55.52734,2.26758 c 2.62743,11.0218 4.72717,19.2954 4.76372,30.58987 0.0798,24.663475 -13.40039,43.046875 -13.40039,43.046875 l 13.69917,5.70309 c 0,0 14.24414,-22.42092 14.24414,-48.843745 0,-6.21828 -0.61767,-11.87778 -1.40429,-16.60156 l 31.31249,-1.27736 -30.75781,72.507825 13.45313,5.70703 30.88476,-72.810555 20.67773,22.636725 c -3.93968,2.72192 -8.41859,6.20536 -12.87695,10.51367 -19.17778,18.53236 -25.5664,44.70703 -25.5664,44.70703 l 13.64453,6.04883 c 0,0 3.94828,-22.823 21.94531,-40.02148 7.57381,-7.23775 16.83217,-13.23328 25.50781,-17.96094 l -37.05469,-40.720695 12.11524,-28.56055 c 9.35628,-22.0568 18.54628,-38.29102 36.63086,-38.29102 13.48128,0 20.56055,11.5178 20.56055,23.97657 0,17.91795 -20.37305,46.45891 -20.37305,82.955065 0,43.22603 35.83471,48.74917 59.81836,49.45118 l -22.85547,22.85546 10.15039,10.1504 39.66601,-39.66407 -39.66601,-39.66601 -10.15039,10.15234 21.95508,21.95508 c -19.87604,-0.55687 -44.67969,-4.64464 -44.67969,-34.71289 0,-30.892005 20.70703,-61.593685 20.70703,-84.212885 0,-15.67705 -10.36322,-37.77735 -34.99805,-37.77735 z"
       id="rect4869"
       inkscape:connector-curvature="0"
       sodipodi:nodetypes="scccsccsccccccsccscccssscccccccsss" />
  </g>
</svg>
