<?xml version="1.0" encoding="UTF-8" standalone="no"?>
<!-- Created with Inkscape (http://www.inkscape.org/) -->

<svg
   xmlns:dc="http://purl.org/dc/elements/1.1/"
   xmlns:cc="http://creativecommons.org/ns#"
   xmlns:rdf="http://www.w3.org/1999/02/22-rdf-syntax-ns#"
   xmlns:svg="http://www.w3.org/2000/svg"
   xmlns="http://www.w3.org/2000/svg"
   xmlns:sodipodi="http://sodipodi.sourceforge.net/DTD/sodipodi-0.dtd"
   xmlns:inkscape="http://www.inkscape.org/namespaces/inkscape"
   width="300"
   height="300"
   viewBox="0 0 300 300"
   version="1.1"
   id="svg8"
   inkscape:version="0.92.2 (5c3e80d, 2017-08-06)"
   sodipodi:docname="Pipia.svg"
   inkscape:export-filename="C:\Users\irock\Desktop\Stuff\Images\Homestuck\ezodiac\12 Fuchsia\Derse\Pipia.png"
   inkscape:export-xdpi="320"
   inkscape:export-ydpi="320">
  <title
     id="title3691">Pipia</title>
  <defs
     id="defs2" />
  <sodipodi:namedview
     id="base"
     pagecolor="#ffffff"
     bordercolor="#666666"
     borderopacity="1.0"
     inkscape:pageopacity="0.0"
     inkscape:pageshadow="2"
     inkscape:zoom="1.979899"
     inkscape:cx="160.97003"
     inkscape:cy="158.82885"
     inkscape:document-units="px"
     inkscape:current-layer="layer1"
     showgrid="false"
     showguides="false"
     units="px"
     inkscape:pagecheckerboard="true"
     inkscape:showpageshadow="false" />
  <metadata
     id="metadata5">
    <rdf:RDF>
      <cc:Work
         rdf:about="">
        <dc:format>image/svg+xml</dc:format>
        <dc:type
           rdf:resource="http://purl.org/dc/dcmitype/StillImage" />
        <dc:title>Pipia</dc:title>
      </cc:Work>
    </rdf:RDF>
  </metadata>
  <g
     inkscape:label="Layer 1"
     inkscape:groupmode="layer"
     id="layer1"
     transform="translate(92.85714,323.80359)">
    <path
       style="fill:#99014e;fill-opacity:1;stroke:none;stroke-width:1px;stroke-linecap:butt;stroke-linejoin:miter;stroke-opacity:1"
       d="m -3.413782,-267.42957 c 14.821331,16.02751 24.156091,38.75378 28.521481,62.17579 -24.053161,-4.24374 -47.406259,-13.35614 -63.863278,-27.84375 v 21.11132 c 19.639888,14.41648 44.823149,21.05427 66.177738,23.95313 0.40219,4.79265 0.60742,9.55223 0.60742,14.22851 0,4.67629 -0.20523,9.43782 -0.60742,14.23047 -21.354622,2.89827 -46.537803,9.53661 -66.177738,23.95313 v 21.11133 c 16.457019,-14.48762 39.810117,-23.59864 63.863278,-27.8418 -4.36554,23.42133 -13.70054,46.14675 -28.521481,62.17383 h 21.650391 c 14.73888,-19.11475 21.55003,-43.60917 24.53711,-64.41602 4.83913,-0.38117 9.64659,-0.57617 14.36914,-0.57617 4.88833,0 9.86757,0.20863 14.87891,0.61719 2.99078,20.798 9.80211,45.27288 24.53125,64.375 h 21.652341 c -14.80202,-16.00663 -24.136531,-38.69433 -28.509771,-62.08399 23.870421,4.28212 47.006681,13.36821 63.345711,27.75196 v -21.11133 c -19.48304,-14.30135 -44.42345,-20.94975 -65.667971,-23.88477 -0.40612,-4.81575 -0.61524,-9.6003 -0.61524,-14.29883 0,-4.69789 0.20923,-9.47982 0.61524,-14.29492 21.244541,-2.93559 46.184901,-9.58535 65.667971,-23.88672 v -21.11132 c -16.33903,14.38374 -39.47529,23.47121 -63.345711,27.7539 4.37309,-23.39033 13.707351,-46.07889 28.509771,-62.08594 H 96.553019 c -14.7296,19.10271 -21.54062,43.57854 -24.53125,64.37696 -5.01134,0.40863 -9.99058,0.61718 -14.87891,0.61718 -4.72255,0 -9.53001,-0.19493 -14.36914,-0.57617 -2.98693,-20.80727 -9.79778,-45.30263 -24.53711,-64.41797 z m 73.712891,81.0293 c -0.29279,4.6641 -0.41992,8.94087 -0.41992,12.5957 0,3.65484 0.12713,7.93356 0.41992,12.59766 -4.87876,-0.29701 -9.3456,-0.42187 -13.15625,-0.42187 -3.67673,0 -7.97367,0.12041 -12.65039,0.39453 0.2914,-4.65317 0.41797,-8.92273 0.41797,-12.57032 0,-3.64707 -0.12666,-7.91401 -0.41797,-12.5664 4.67669,0.2742 8.97368,0.39453 12.65039,0.39453 3.81066,0 8.27748,-0.12672 13.15625,-0.42383 z"
       id="path3673"
       inkscape:connector-curvature="0" />
  </g>
</svg>
