<?xml version="1.0" encoding="UTF-8" standalone="no"?>
<!-- Created with Inkscape (http://www.inkscape.org/) -->

<svg
   xmlns:dc="http://purl.org/dc/elements/1.1/"
   xmlns:cc="http://creativecommons.org/ns#"
   xmlns:rdf="http://www.w3.org/1999/02/22-rdf-syntax-ns#"
   xmlns:svg="http://www.w3.org/2000/svg"
   xmlns="http://www.w3.org/2000/svg"
   xmlns:sodipodi="http://sodipodi.sourceforge.net/DTD/sodipodi-0.dtd"
   xmlns:inkscape="http://www.inkscape.org/namespaces/inkscape"
   width="300"
   height="300"
   viewBox="0 0 300 300"
   version="1.1"
   id="svg8"
   inkscape:version="0.92.2 (5c3e80d, 2017-08-06)"
   sodipodi:docname="Pirist.svg"
   inkscape:export-filename="C:\Users\irock\Desktop\Stuff\Images\Homestuck\ezodiac\12 Fuchsia\Prospit\Pirist.png"
   inkscape:export-xdpi="320"
   inkscape:export-ydpi="320">
  <title
     id="title7237">Pirist</title>
  <defs
     id="defs2" />
  <sodipodi:namedview
     id="base"
     pagecolor="#ffffff"
     bordercolor="#666666"
     borderopacity="1.0"
     inkscape:pageopacity="0.0"
     inkscape:pageshadow="2"
     inkscape:zoom="1.979899"
     inkscape:cx="137.21218"
     inkscape:cy="180.30819"
     inkscape:document-units="px"
     inkscape:current-layer="layer1"
     showgrid="false"
     showguides="false"
     units="px"
     inkscape:pagecheckerboard="true"
     inkscape:showpageshadow="false" />
  <metadata
     id="metadata5">
    <rdf:RDF>
      <cc:Work
         rdf:about="">
        <dc:format>image/svg+xml</dc:format>
        <dc:type
           rdf:resource="http://purl.org/dc/dcmitype/StillImage" />
        <dc:title>Pirist</dc:title>
      </cc:Work>
    </rdf:RDF>
  </metadata>
  <g
     inkscape:label="Layer 1"
     inkscape:groupmode="layer"
     id="layer1"
     transform="translate(761.42859,-81.910698)">
    <path
       style="color:#000000;font-style:normal;font-variant:normal;font-weight:normal;font-stretch:normal;font-size:medium;line-height:normal;font-family:sans-serif;font-variant-ligatures:normal;font-variant-position:normal;font-variant-caps:normal;font-variant-numeric:normal;font-variant-alternates:normal;font-feature-settings:normal;text-indent:0;text-align:start;text-decoration:none;text-decoration-line:none;text-decoration-style:solid;text-decoration-color:#000000;letter-spacing:normal;word-spacing:normal;text-transform:none;writing-mode:lr-tb;direction:ltr;text-orientation:mixed;dominant-baseline:auto;baseline-shift:baseline;text-anchor:start;white-space:normal;shape-padding:0;clip-rule:nonzero;display:inline;overflow:visible;visibility:visible;opacity:1;isolation:auto;mix-blend-mode:normal;color-interpolation:sRGB;color-interpolation-filters:linearRGB;solid-color:#000000;solid-opacity:1;vector-effect:none;fill:#99014e;fill-opacity:1;fill-rule:nonzero;stroke:none;stroke-width:14.67593861;stroke-linecap:butt;stroke-linejoin:miter;stroke-miterlimit:4;stroke-dasharray:none;stroke-dashoffset:0;stroke-opacity:1;color-rendering:auto;image-rendering:auto;shape-rendering:auto;text-rendering:auto;enable-background:accumulate"
       d="m -678.96765,136.20952 -4.96094,0.82813 9.92383,71.97656 29.14062,13.30078 c -0.48758,2.29122 -0.75,4.66363 -0.75,7.09375 0,2.6438 0.31426,5.21668 0.88867,7.69336 l -18.78906,8.81446 -20.20312,81.69531 h 15.53125 l 17.29883,-71.15235 12.70507,-5.82421 c 6.25292,7.87372 15.8741,12.95507 26.63086,12.95507 10.79399,0 20.44619,-5.11674 26.69727,-13.03711 l 12.88281,5.90625 17.29883,71.15235 h 15.53125 l -20.20313,-81.69531 -19.00781,-8.91602 c 0.55928,-2.44557 0.86328,-4.98409 0.86328,-7.5918 0,-2.39398 -0.25104,-4.73262 -0.72461,-6.99218 l 29.35938,-13.40235 9.92578,-71.97656 -4.96289,-0.82813 -18.3457,62.47852 -22.10743,10.22656 c -6.22884,-8.29262 -16.11823,-13.6875 -27.20703,-13.6875 -11.05158,0 -20.90822,5.3601 -27.14062,13.60547 L -660.62,198.68804 Z m 67.41601,73.69336 c 10.77571,0 19.38477,8.6284 19.38477,19.50586 0,10.87745 -8.60906,19.50586 -19.38477,19.50586 -10.77571,0 -19.38672,-8.62841 -19.38672,-19.50586 0,-10.87746 8.61101,-19.50586 19.38672,-19.50586 z"
       id="path7216"
       inkscape:connector-curvature="0" />
  </g>
</svg>
