<?xml version="1.0" encoding="UTF-8" standalone="no"?>
<!-- Created with Inkscape (http://www.inkscape.org/) -->

<svg
   xmlns:dc="http://purl.org/dc/elements/1.1/"
   xmlns:cc="http://creativecommons.org/ns#"
   xmlns:rdf="http://www.w3.org/1999/02/22-rdf-syntax-ns#"
   xmlns:svg="http://www.w3.org/2000/svg"
   xmlns="http://www.w3.org/2000/svg"
   xmlns:sodipodi="http://sodipodi.sourceforge.net/DTD/sodipodi-0.dtd"
   xmlns:inkscape="http://www.inkscape.org/namespaces/inkscape"
   width="300"
   height="300"
   viewBox="0 0 300 300"
   version="1.1"
   id="svg8"
   inkscape:version="0.92.2 (5c3e80d, 2017-08-06)"
   sodipodi:docname="Piun.svg"
   inkscape:export-filename="C:\Users\irock\Desktop\Stuff\Images\Homestuck\ezodiac\12 Fuchsia\Derse\Piun.png"
   inkscape:export-xdpi="320"
   inkscape:export-ydpi="320">
  <title
     id="title7143">Piun</title>
  <defs
     id="defs2" />
  <sodipodi:namedview
     id="base"
     pagecolor="#ffffff"
     bordercolor="#666666"
     borderopacity="1.0"
     inkscape:pageopacity="0.0"
     inkscape:pageshadow="2"
     inkscape:zoom="1.979899"
     inkscape:cx="163.17743"
     inkscape:cy="149.9766"
     inkscape:document-units="px"
     inkscape:current-layer="layer1"
     showgrid="false"
     showguides="false"
     units="px"
     inkscape:pagecheckerboard="true"
     inkscape:showpageshadow="false" />
  <metadata
     id="metadata5">
    <rdf:RDF>
      <cc:Work
         rdf:about="">
        <dc:format>image/svg+xml</dc:format>
        <dc:type
           rdf:resource="http://purl.org/dc/dcmitype/StillImage" />
        <dc:title>Piun</dc:title>
      </cc:Work>
    </rdf:RDF>
  </metadata>
  <g
     inkscape:label="Layer 1"
     inkscape:groupmode="layer"
     id="layer1"
     transform="translate(758.57141,186.66074)">
    <path
       style="fill:#99014e;fill-opacity:1;stroke:none;stroke-width:1px;stroke-linecap:butt;stroke-linejoin:miter;stroke-opacity:1"
       d="m -657.98645,-113.61875 c 15.99605,17.417019 23.76051,43.118005 24.98438,65.691415 h -64.79688 l 25.43164,-25.42969 -10.88086,-10.88281 -44.18555,44.18554 44.18555,44.18555 10.88086,-10.88086 -25.78711,-25.78711 h 64.98828 c -1.6908,21.87868 -9.47788,46.21264 -24.82031,62.91797 h 19.28516 c 13.05109,-16.5838 19.21639,-42.12894 20.61523,-62.91797 h 40.64258 c 1.24089,12.88366 5.25665,28.259 11.46289,42.28125 7.46621,16.86898 16.43225,30.55274 32.30664,30.55273 24.82572,0 43.96485,-41.304 43.96485,-61.77343 0,-8.24247 -1.73646,-13.98055 -6.09766,-18.22852 -5.60101,-5.45558 -12.6873,-8.22265 -33.39649,-8.22265 h -34.09374 c 0.21099,-23.83785 10.22728,-50.183374 21.43164,-65.576185 h -17.72852 c -10.72542,17.101199 -18.53517,39.116135 -18.75195,65.576185 h -39.58985 c -1.01547,-21.2494 -7.12466,-48.358082 -20.76562,-65.691415 z m 95.33985,81.082035 h 33.44335 c 20.12649,0 24.49415,1.70566 24.49415,10.11524 0,16.21395 -17.05386,47.65625 -29.16407,47.65624 -12.17167,0 -25.753,-37.27156 -28.77343,-57.77148 z"
       id="path7124"
       inkscape:connector-curvature="0"
       sodipodi:nodetypes="ccccccccccccccsssssccccccccsssc" />
  </g>
</svg>
