<?xml version="1.0" encoding="UTF-8" standalone="no"?>
<!-- Created with Inkscape (http://www.inkscape.org/) -->

<svg
   xmlns:dc="http://purl.org/dc/elements/1.1/"
   xmlns:cc="http://creativecommons.org/ns#"
   xmlns:rdf="http://www.w3.org/1999/02/22-rdf-syntax-ns#"
   xmlns:svg="http://www.w3.org/2000/svg"
   xmlns="http://www.w3.org/2000/svg"
   xmlns:sodipodi="http://sodipodi.sourceforge.net/DTD/sodipodi-0.dtd"
   xmlns:inkscape="http://www.inkscape.org/namespaces/inkscape"
   width="300"
   height="300"
   viewBox="0 0 300 300"
   version="1.1"
   id="svg8"
   inkscape:version="0.92.2 (5c3e80d, 2017-08-06)"
   sodipodi:docname="Libiborn.svg"
   inkscape:export-filename="C:\Users\irock\Desktop\Stuff\Images\Homestuck\ezodiac\07 Teal\Derse\Libiborn.png"
   inkscape:export-xdpi="320"
   inkscape:export-ydpi="320">
  <title
     id="title21921">Libiborn</title>
  <defs
     id="defs2" />
  <sodipodi:namedview
     id="base"
     pagecolor="#ffffff"
     bordercolor="#666666"
     borderopacity="1.0"
     inkscape:pageopacity="0.0"
     inkscape:pageshadow="2"
     inkscape:zoom="1.979899"
     inkscape:cx="163.37718"
     inkscape:cy="127.51624"
     inkscape:document-units="px"
     inkscape:current-layer="layer1"
     showgrid="false"
     showguides="false"
     units="px"
     inkscape:pagecheckerboard="true"
     inkscape:showpageshadow="false" />
  <metadata
     id="metadata5">
    <rdf:RDF>
      <cc:Work
         rdf:about="">
        <dc:format>image/svg+xml</dc:format>
        <dc:type
           rdf:resource="http://purl.org/dc/dcmitype/StillImage" />
        <dc:title>Libiborn</dc:title>
      </cc:Work>
    </rdf:RDF>
  </metadata>
  <g
     inkscape:label="Layer 1"
     inkscape:groupmode="layer"
     id="layer1"
     transform="translate(210,-96.196411)">
    <path
       style="color:#000000;font-style:normal;font-variant:normal;font-weight:normal;font-stretch:normal;font-size:medium;line-height:normal;font-family:sans-serif;font-variant-ligatures:normal;font-variant-position:normal;font-variant-caps:normal;font-variant-numeric:normal;font-variant-alternates:normal;font-feature-settings:normal;text-indent:0;text-align:start;text-decoration:none;text-decoration-line:none;text-decoration-style:solid;text-decoration-color:#000000;letter-spacing:normal;word-spacing:normal;text-transform:none;writing-mode:lr-tb;direction:ltr;text-orientation:mixed;dominant-baseline:auto;baseline-shift:baseline;text-anchor:start;white-space:normal;shape-padding:0;clip-rule:nonzero;display:inline;overflow:visible;visibility:visible;opacity:1;isolation:auto;mix-blend-mode:normal;color-interpolation:sRGB;color-interpolation-filters:linearRGB;solid-color:#000000;solid-opacity:1;vector-effect:none;fill:#008282;fill-opacity:1;fill-rule:nonzero;stroke:none;stroke-width:14.79899979;stroke-linecap:butt;stroke-linejoin:miter;stroke-miterlimit:4;stroke-dasharray:none;stroke-dashoffset:0;stroke-opacity:1;color-rendering:auto;image-rendering:auto;shape-rendering:auto;text-rendering:auto;enable-background:accumulate"
       d="m -123.97265,171.41473 c -31.86693,0 -57.83594,26.06111 -57.83594,57.98633 0,31.92522 25.96901,57.98437 57.83594,57.98437 24.077692,0 44.780182,-14.8804 53.466792,-35.92383 h 21.01172 c 8.68661,21.04343 29.38911,35.92383 53.4668,35.92383 31.86693,0 57.83593,-26.05915 57.83593,-57.98437 0,-31.92522 -25.969,-57.98633 -57.83593,-57.98633 -20.19036,0 -38.00261,10.46941 -48.35352,26.25586 h -31.23828 c -10.35091,-15.78645 -28.163152,-26.25586 -48.353512,-26.25586 z m 0,14.79883 c 23.8455,0 43.039062,19.23687 43.039062,43.1875 0,23.95062 -19.193562,43.18554 -43.039062,43.18554 -23.8455,0 -43.03711,-19.23492 -43.03711,-43.18554 0,-23.95064 19.19161,-43.1875 43.03711,-43.1875 z m 127.945312,0 c 23.8455,0 43.03711,19.23686 43.03711,43.1875 0,23.95062 -19.19161,43.18554 -43.03711,43.18554 -23.84551,0 -43.03907,-19.23492 -43.03907,-43.18554 0,-23.95063 19.19356,-43.1875 43.03907,-43.1875 z m -72.80274,25.7246 h 17.66016 c -1.74613,5.51641 -2.69531,11.38127 -2.69531,17.4629 0,2.64229 0.19463,5.24053 0.53906,7.79101 h -13.34766 c 0.34443,-2.55048 0.53906,-5.14872 0.53906,-7.79101 0,-6.08163 -0.94918,-11.94649 -2.69531,-17.4629 z m 9.51367,61.00977 c -26.72228,33.56614 -66.891222,42.82178 -105.605462,21.69727 l -8.20703,12.8789 c 34.07681,17.99047 76.485952,21.34249 113.128902,-12.37304 38.12415,35.66581 88.17078,30.16985 117.05273,8.95117 l -9.33593,-11.61133 c -44.18393,28.37288 -88.85412,7.263 -107.03321,-19.54297 z"
       id="path21897"
       inkscape:connector-curvature="0"
       sodipodi:nodetypes="sssccsssccsssssssssssccsccscccccccc" />
  </g>
</svg>
