<?xml version="1.0" encoding="UTF-8" standalone="no"?>
<!-- Created with Inkscape (http://www.inkscape.org/) -->

<svg
   xmlns:dc="http://purl.org/dc/elements/1.1/"
   xmlns:cc="http://creativecommons.org/ns#"
   xmlns:rdf="http://www.w3.org/1999/02/22-rdf-syntax-ns#"
   xmlns:svg="http://www.w3.org/2000/svg"
   xmlns="http://www.w3.org/2000/svg"
   xmlns:sodipodi="http://sodipodi.sourceforge.net/DTD/sodipodi-0.dtd"
   xmlns:inkscape="http://www.inkscape.org/namespaces/inkscape"
   width="300"
   height="300"
   viewBox="0 0 300 300"
   version="1.1"
   id="svg8"
   inkscape:version="0.92.2 (5c3e80d, 2017-08-06)"
   sodipodi:docname="Libicorn.svg"
   inkscape:export-filename="C:\Users\irock\Desktop\Stuff\Images\Homestuck\ezodiac\07 Teal\Prospit\Libicorn.png"
   inkscape:export-xdpi="320"
   inkscape:export-ydpi="320">
  <title
     id="title13380">Libicorn</title>
  <defs
     id="defs2" />
  <sodipodi:namedview
     id="base"
     pagecolor="#ffffff"
     bordercolor="#666666"
     borderopacity="1.0"
     inkscape:pageopacity="0.0"
     inkscape:pageshadow="2"
     inkscape:zoom="1.979899"
     inkscape:cx="78.717166"
     inkscape:cy="160.00573"
     inkscape:document-units="px"
     inkscape:current-layer="layer1"
     showgrid="false"
     showguides="false"
     units="px"
     inkscape:pagecheckerboard="true"
     inkscape:showpageshadow="false" />
  <metadata
     id="metadata5">
    <rdf:RDF>
      <cc:Work
         rdf:about="">
        <dc:format>image/svg+xml</dc:format>
        <dc:type
           rdf:resource="http://purl.org/dc/dcmitype/StillImage" />
        <dc:title>Libicorn</dc:title>
      </cc:Work>
    </rdf:RDF>
  </metadata>
  <g
     inkscape:label="Layer 1"
     inkscape:groupmode="layer"
     id="layer1"
     transform="translate(550,306.66074)">
    <path
       style="fill:#008282;fill-opacity:1;stroke:none;stroke-width:1px;stroke-linecap:butt;stroke-linejoin:miter;stroke-opacity:1"
       d="m -400,-245.34726 c -25.85029,0 -35.01367,33.7051 -35.01367,56.3164 0,16.49277 5.26621,31.336 14.84375,42.22656 -0.90582,0.0437 -1.82624,0.0742 -2.77344,0.0742 -30.9529,0 -50.2539,-40.95421 -50.2539,-50.88672 h -16.54102 c 0,19.07865 23.37702,69.32227 66.54297,69.32227 8.55939,0 16.3197,-1.52703 23.19531,-4.2832 6.87561,2.75617 14.63592,4.2832 23.19531,4.2832 43.16595,0 66.54297,-50.24362 66.54297,-69.32227 h -16.54101 c 0,9.93251 -19.30101,50.88672 -50.25391,50.88672 -0.9472,0 -1.86762,-0.0305 -2.77344,-0.0742 9.57754,-10.89056 14.84375,-25.73379 14.84375,-42.22656 0,-22.6113 -9.16338,-56.3164 -35.01367,-56.3164 z m 0,18.6875 c 14.58839,0 17.96875,28.15799 17.96875,37.37695 0,10.25705 -3.69831,27.47589 -17.96875,36.54492 -14.27044,-9.06903 -17.96875,-26.28787 -17.96875,-36.54492 0,-9.21896 3.38036,-37.37695 17.96875,-37.37695 z m -118.12695,71.11914 c 30.42487,70.70168 79.67749,87.5664 118.12695,87.5664 38.44946,0 87.70208,-16.86472 118.12695,-87.5664 h -18.59375 c -19.5663,38.55364 -50.0026,68.82421 -99.5332,68.82421 -49.5306,0 -79.9669,-30.27057 -99.5332,-68.82421 z"
       id="path13370"
       inkscape:connector-curvature="0" />
  </g>
</svg>
