<?xml version="1.0" encoding="UTF-8" standalone="no"?>
<!-- Created with Inkscape (http://www.inkscape.org/) -->

<svg
   xmlns:dc="http://purl.org/dc/elements/1.1/"
   xmlns:cc="http://creativecommons.org/ns#"
   xmlns:rdf="http://www.w3.org/1999/02/22-rdf-syntax-ns#"
   xmlns:svg="http://www.w3.org/2000/svg"
   xmlns="http://www.w3.org/2000/svg"
   xmlns:sodipodi="http://sodipodi.sourceforge.net/DTD/sodipodi-0.dtd"
   xmlns:inkscape="http://www.inkscape.org/namespaces/inkscape"
   width="300"
   height="300"
   viewBox="0 0 300 300"
   version="1.1"
   id="svg8"
   inkscape:version="0.92.2 (5c3e80d, 2017-08-06)"
   sodipodi:docname="Liblo.svg"
   inkscape:export-filename="C:\Users\irock\Desktop\Stuff\Images\Homestuck\ezodiac\07 Teal\Prospit\Liblo.png"
   inkscape:export-xdpi="320"
   inkscape:export-ydpi="320">
  <title
     id="title8811">Liblo</title>
  <defs
     id="defs2" />
  <sodipodi:namedview
     id="base"
     pagecolor="#ffffff"
     bordercolor="#666666"
     borderopacity="1.0"
     inkscape:pageopacity="0.0"
     inkscape:pageshadow="2"
     inkscape:zoom="1.979899"
     inkscape:cx="153.05008"
     inkscape:cy="195.15713"
     inkscape:document-units="px"
     inkscape:current-layer="layer1"
     showgrid="false"
     showguides="false"
     units="px"
     inkscape:pagecheckerboard="true"
     inkscape:showpageshadow="false" />
  <metadata
     id="metadata5">
    <rdf:RDF>
      <cc:Work
         rdf:about="">
        <dc:format>image/svg+xml</dc:format>
        <dc:type
           rdf:resource="http://purl.org/dc/dcmitype/StillImage" />
        <dc:title>Liblo</dc:title>
      </cc:Work>
    </rdf:RDF>
  </metadata>
  <g
     inkscape:label="Layer 1"
     inkscape:groupmode="layer"
     id="layer1"
     transform="translate(998.57141,-273.33926)">
    <path
       style="color:#000000;font-style:normal;font-variant:normal;font-weight:normal;font-stretch:normal;font-size:medium;line-height:normal;font-family:sans-serif;font-variant-ligatures:normal;font-variant-position:normal;font-variant-caps:normal;font-variant-numeric:normal;font-variant-alternates:normal;font-feature-settings:normal;text-indent:0;text-align:start;text-decoration:none;text-decoration-line:none;text-decoration-style:solid;text-decoration-color:#000000;letter-spacing:normal;word-spacing:normal;text-transform:none;writing-mode:lr-tb;direction:ltr;text-orientation:mixed;dominant-baseline:auto;baseline-shift:baseline;text-anchor:start;white-space:normal;shape-padding:0;clip-rule:nonzero;display:inline;overflow:visible;visibility:visible;opacity:1;isolation:auto;mix-blend-mode:normal;color-interpolation:sRGB;color-interpolation-filters:linearRGB;solid-color:#000000;solid-opacity:1;vector-effect:none;fill:#008282;fill-opacity:1;fill-rule:nonzero;stroke:none;stroke-width:13.48202419;stroke-linecap:butt;stroke-linejoin:miter;stroke-miterlimit:4;stroke-dasharray:none;stroke-dashoffset:0;stroke-opacity:1;color-rendering:auto;image-rendering:auto;shape-rendering:auto;text-rendering:auto;enable-background:accumulate"
       d="m -808.25793,341.08731 v 14.91211 c 9.75924,15.94642 24.55078,44.31478 24.55078,77.41016 0,50.17913 -43.99682,57.32227 -64.64258,57.32227 -28.2219,0 -64.64258,-11.94136 -64.64258,-57.32227 0,-33.09538 15.35833,-61.09128 24.10742,-76.78516 v -14.91211 h -54.73242 v 14.91211 h 35.49805 c -8.69777,25.19521 -18.62305,40.24375 -18.62305,77.44727 0,64.85761 53.77657,71.51953 78.39258,71.51953 20.07032,0 78.39258,-5.39923 78.39258,-71.51954 0,-37.04723 -8.11035,-50.15345 -18.7168,-78.07227 h 35.14844 v -14.9121 z m -48.39453,0.89454 v 45.71875 c -17.45135,3.8097 -30.62891,19.34765 -30.62891,37.85156 0,21.34381 17.52975,38.7539 38.93164,38.7539 21.4019,0 38.93359,-17.41009 38.93359,-38.7539 0,-18.50326 -13.18004,-34.04116 -30.63086,-37.85156 v -45.71875 z m 8.30273,58.29882 c 14.15609,0 25.45117,11.25456 25.45117,25.27149 0,14.01694 -11.29508,25.27148 -25.45117,25.27148 -14.15608,0 -25.44922,-11.25454 -25.44922,-25.27148 0,-14.01693 11.29314,-25.27149 25.44922,-25.27149 z"
       id="path8786"
       inkscape:connector-curvature="0" />
  </g>
</svg>
