<?xml version="1.0" encoding="UTF-8" standalone="no"?>
<!-- Created with Inkscape (http://www.inkscape.org/) -->

<svg
   xmlns:dc="http://purl.org/dc/elements/1.1/"
   xmlns:cc="http://creativecommons.org/ns#"
   xmlns:rdf="http://www.w3.org/1999/02/22-rdf-syntax-ns#"
   xmlns:svg="http://www.w3.org/2000/svg"
   xmlns="http://www.w3.org/2000/svg"
   xmlns:sodipodi="http://sodipodi.sourceforge.net/DTD/sodipodi-0.dtd"
   xmlns:inkscape="http://www.inkscape.org/namespaces/inkscape"
   width="300"
   height="300"
   viewBox="0 0 300 300"
   version="1.1"
   id="svg8"
   inkscape:version="0.92.2 (5c3e80d, 2017-08-06)"
   sodipodi:docname="Libsces.svg"
   inkscape:export-filename="C:\Users\irock\Desktop\Stuff\Images\Homestuck\ezodiac\07 Teal\Derse\Libsces.png"
   inkscape:export-xdpi="320"
   inkscape:export-ydpi="320">
  <title
     id="title20764">Libsces</title>
  <defs
     id="defs2" />
  <sodipodi:namedview
     id="base"
     pagecolor="#ffffff"
     bordercolor="#666666"
     borderopacity="1.0"
     inkscape:pageopacity="0.0"
     inkscape:pageshadow="2"
     inkscape:zoom="1.979899"
     inkscape:cx="137.35945"
     inkscape:cy="125.93755"
     inkscape:document-units="px"
     inkscape:current-layer="layer1"
     showgrid="false"
     showguides="false"
     units="px"
     inkscape:pagecheckerboard="true"
     inkscape:showpageshadow="false" />
  <metadata
     id="metadata5">
    <rdf:RDF>
      <cc:Work
         rdf:about="">
        <dc:format>image/svg+xml</dc:format>
        <dc:type
           rdf:resource="http://purl.org/dc/dcmitype/StillImage" />
        <dc:title>Libsces</dc:title>
      </cc:Work>
    </rdf:RDF>
  </metadata>
  <g
     inkscape:label="Layer 1"
     inkscape:groupmode="layer"
     id="layer1"
     transform="translate(432.85715,206.66074)">
    <path
       style="fill:#008282;fill-opacity:1;stroke:none;stroke-width:16.50005341;stroke-linecap:butt;stroke-miterlimit:4;stroke-dasharray:none;stroke-opacity:0.48241206"
       d="m -354.78488,-134.25058 c -43.41685,0 -54.46485,42.477105 -54.46485,72.679685 0,16.88776 9.0941,28.57031 20.89258,28.57031 13.24282,0 21.42773,-12.91901 21.42773,-25.80274 0,-6.53472 0.93095,-18.03711 4.91211,-18.03711 4.03339,0 4.46289,11.32428 4.46289,17.58985 0,10.83014 8.12584,23.57226 17.94727,23.57226 3.68792,0 10.14275,-4.85342 10.12109,-11.0039 l -0.0312,-8.90821 c -4.24002,6.61845 -12.94726,7.14851 -12.94726,-6.69531 0,-12.24065 -3.46722,-30.32929 -18.92774,-30.44726 -12.49935,-0.09538 -20.80469,12.14314 -20.80469,30.625 0,6.04619 -1.68823,12.76757 -6.16015,12.76757 -5.0092,0 -5.625,-8.38337 -5.625,-13.39257 0,-12.05858 2.32888,-55.445325 38.83984,-55.445325 23.48722,0 34.50249,20.058075 38.2168,44.675785 3.86901,25.64309 7.74496,65.76954 34.06836,65.76954 26.3234,0 30.19935,-40.12645 34.06836,-65.76954 3.71431,-24.61771 14.72958,-44.675785 38.2168,-44.675785 36.51096,0 38.83984,43.386745 38.83984,55.445325 0,5.0092 -0.6158,13.39257 -5.625,13.39257 -4.47192,0 -6.16016,-6.72138 -6.16016,-12.76757 0,-18.48186 -8.30533,-30.72038 -20.80468,-30.625 -15.46052,0.11797 -18.92774,18.20661 -18.92774,30.44726 0,13.84382 -8.70724,13.31376 -12.94726,6.69531 l -0.0312,8.90821 c -0.0217,6.15048 6.43317,11.0039 10.12109,11.0039 9.82143,0 17.94727,-12.74212 17.94727,-23.57226 0,-6.26557 0.4295,-17.58985 4.46289,-17.58985 3.98116,0 4.91211,11.50239 4.91211,18.03711 0,12.88373 8.18491,25.80274 21.42773,25.80274 11.79848,0 20.89258,-11.68255 20.89258,-28.57031 0,-30.20258 -11.048,-72.679685 -54.46485,-72.679685 -28.13106,0 -44.51805,21.3992 -51.01562,47.884755 -7.13188,29.07119 -7.11604,62.65039 -20.91211,62.65039 -13.79607,0 -13.78023,-33.5792 -20.91211,-62.65039 -6.49757,-26.485555 -22.88456,-47.884755 -51.01562,-47.884755 z M -369.87473,5.124415 v 15.80469 h 173.83985 V 5.124415 Z"
       id="rect20757"
       inkscape:connector-curvature="0" />
  </g>
</svg>
