<?xml version="1.0" encoding="UTF-8" standalone="no"?>
<!-- Created with Inkscape (http://www.inkscape.org/) -->

<svg
   xmlns:dc="http://purl.org/dc/elements/1.1/"
   xmlns:cc="http://creativecommons.org/ns#"
   xmlns:rdf="http://www.w3.org/1999/02/22-rdf-syntax-ns#"
   xmlns:svg="http://www.w3.org/2000/svg"
   xmlns="http://www.w3.org/2000/svg"
   xmlns:sodipodi="http://sodipodi.sourceforge.net/DTD/sodipodi-0.dtd"
   xmlns:inkscape="http://www.inkscape.org/namespaces/inkscape"
   width="300"
   height="300"
   viewBox="0 0 300 300"
   version="1.1"
   id="svg8"
   inkscape:version="0.92.2 (5c3e80d, 2017-08-06)"
   sodipodi:docname="Libza.svg"
   inkscape:export-filename="C:\Users\irock\Desktop\Stuff\Images\Homestuck\ezodiac\07 Teal\Derse\Libza.png"
   inkscape:export-xdpi="320"
   inkscape:export-ydpi="320">
  <title
     id="title15666">Libza</title>
  <defs
     id="defs2" />
  <sodipodi:namedview
     id="base"
     pagecolor="#ffffff"
     bordercolor="#666666"
     borderopacity="1.0"
     inkscape:pageopacity="0.0"
     inkscape:pageshadow="2"
     inkscape:zoom="1.979899"
     inkscape:cx="126.04692"
     inkscape:cy="204.67979"
     inkscape:document-units="px"
     inkscape:current-layer="layer1"
     showgrid="false"
     showguides="false"
     units="px"
     inkscape:pagecheckerboard="true"
     inkscape:showpageshadow="false" />
  <metadata
     id="metadata5">
    <rdf:RDF>
      <cc:Work
         rdf:about="">
        <dc:format>image/svg+xml</dc:format>
        <dc:type
           rdf:resource="http://purl.org/dc/dcmitype/StillImage" />
        <dc:title>Libza</dc:title>
      </cc:Work>
    </rdf:RDF>
  </metadata>
  <g
     inkscape:label="Layer 1"
     inkscape:groupmode="layer"
     id="layer1"
     transform="translate(712.85712,-199.05356)">
    <path
       style="fill:#008282;fill-opacity:1;stroke:none;stroke-width:15.64381695;stroke-linecap:butt;stroke-miterlimit:4;stroke-dasharray:none;stroke-opacity:1"
       d="m -562.85712,252.17856 c -51.94043,0 -61.78516,53.54699 -61.78516,84.10743 0,25.47487 1.16948,57.14257 -13.92968,57.14257 -9.61514,0 -11.07032,-22.85686 -11.07032,-30.89257 l -14.82226,0.17968 c 0,-4.23201 -5.48991,46.96289 26.60742,46.96289 29.4457,0 28.75,-45.82744 28.75,-71.42773 0,-34.90104 10.38747,-69.54748 46.25,-69.64258 35.86253,0.0951 46.25,34.74154 46.25,69.64258 0,25.60029 -0.6957,71.42773 28.75,71.42773 32.09733,0 26.60742,-51.1949 26.60742,-46.96289 l -14.82226,-0.17968 c 0,8.03571 -1.45518,30.89257 -11.07032,30.89257 -15.09916,0 -13.92968,-31.6677 -13.92968,-57.14257 0,-30.56044 -9.84473,-84.10743 -61.78516,-84.10743 z m 0,55.15821 c -38.20782,0 -34.46484,58.13772 -34.46484,97.52148 h 15.2539 c 0,-32.66002 -2.86012,-81.07226 19.21094,-81.07226 22.07106,0 19.21094,48.41224 19.21094,81.07226 h 15.2539 c 0,-39.38376 3.74298,-97.52148 -34.46484,-97.52148 z m -86.07227,122.52148 v 16.07031 h 172.5 v -16.07031 z"
       id="rect15653"
       inkscape:connector-curvature="0" />
  </g>
</svg>
