<?xml version="1.0" encoding="UTF-8" standalone="no"?>
<!-- Created with Inkscape (http://www.inkscape.org/) -->

<svg
   xmlns:dc="http://purl.org/dc/elements/1.1/"
   xmlns:cc="http://creativecommons.org/ns#"
   xmlns:rdf="http://www.w3.org/1999/02/22-rdf-syntax-ns#"
   xmlns:svg="http://www.w3.org/2000/svg"
   xmlns="http://www.w3.org/2000/svg"
   xmlns:sodipodi="http://sodipodi.sourceforge.net/DTD/sodipodi-0.dtd"
   xmlns:inkscape="http://www.inkscape.org/namespaces/inkscape"
   width="300"
   height="300"
   viewBox="0 0 300 300"
   version="1.1"
   id="svg8"
   inkscape:version="0.92.2 (5c3e80d, 2017-08-06)"
   sodipodi:docname="Limini.svg"
   inkscape:export-filename="C:\Users\irock\Desktop\Stuff\Images\Homestuck\ezodiac\07 Teal\Derse\Limini.png"
   inkscape:export-xdpi="320"
   inkscape:export-ydpi="320">
  <title
     id="title19044">Limini</title>
  <defs
     id="defs2" />
  <sodipodi:namedview
     id="base"
     pagecolor="#ffffff"
     bordercolor="#666666"
     borderopacity="1.0"
     inkscape:pageopacity="0.0"
     inkscape:pageshadow="2"
     inkscape:zoom="1.979899"
     inkscape:cx="134.37416"
     inkscape:cy="169.17716"
     inkscape:document-units="px"
     inkscape:current-layer="layer1"
     showgrid="false"
     showguides="false"
     units="px"
     inkscape:pagecheckerboard="true"
     inkscape:showpageshadow="false" />
  <metadata
     id="metadata5">
    <rdf:RDF>
      <cc:Work
         rdf:about="">
        <dc:format>image/svg+xml</dc:format>
        <dc:type
           rdf:resource="http://purl.org/dc/dcmitype/StillImage" />
        <dc:title>Limini</dc:title>
      </cc:Work>
    </rdf:RDF>
  </metadata>
  <g
     inkscape:label="Layer 1"
     inkscape:groupmode="layer"
     id="layer1"
     transform="translate(310,-399.05356)">
    <path
       style="color:#000000;font-style:normal;font-variant:normal;font-weight:normal;font-stretch:normal;font-size:medium;line-height:normal;font-family:sans-serif;font-variant-ligatures:normal;font-variant-position:normal;font-variant-caps:normal;font-variant-numeric:normal;font-variant-alternates:normal;font-feature-settings:normal;text-indent:0;text-align:start;text-decoration:none;text-decoration-line:none;text-decoration-style:solid;text-decoration-color:#000000;letter-spacing:normal;word-spacing:normal;text-transform:none;writing-mode:lr-tb;direction:ltr;text-orientation:mixed;dominant-baseline:auto;baseline-shift:baseline;text-anchor:start;white-space:normal;shape-padding:0;clip-rule:nonzero;display:inline;overflow:visible;visibility:visible;opacity:1;isolation:auto;mix-blend-mode:normal;color-interpolation:sRGB;color-interpolation-filters:linearRGB;solid-color:#000000;solid-opacity:1;vector-effect:none;fill:#008282;fill-opacity:1;fill-rule:nonzero;stroke:none;stroke-width:16.9056015;stroke-linecap:butt;stroke-linejoin:miter;stroke-miterlimit:4;stroke-dasharray:none;stroke-dashoffset:0;stroke-opacity:1;color-rendering:auto;image-rendering:auto;shape-rendering:auto;text-rendering:auto;enable-background:accumulate"
       d="m -159.8877,442.86606 c -19.89969,0 -36.89863,13.44554 -48.39062,32.75586 -10.25575,17.23302 -16.70425,39.61876 -17.97657,64.38281 h -46.37695 v 17.80469 h 46.36328 c 1.23654,24.87942 7.69444,47.37545 17.99024,64.67578 11.49199,19.31031 28.49093,32.75586 48.39062,32.75586 19.8997,0 36.90059,-13.44555 48.39258,-32.75586 10.2958,-17.30033 16.753698,-39.79636 17.990238,-64.67578 h 46.13672 v -17.80469 h -46.1504 c -1.27231,-24.76405 -7.720808,-47.14979 -17.976558,-64.38281 -11.49199,-19.31032 -28.49288,-32.75586 -48.39258,-32.75586 z m 0,16.90625 c 12.22357,0 24.30589,8.43129 33.86524,24.49414 9.55935,16.06284 15.84765,39.15762 15.84765,64.78711 0,25.62948 -6.2883,48.72426 -15.84765,64.78711 -9.55935,16.06284 -21.64167,24.49609 -33.86524,24.49609 -12.22356,0 -24.30393,-8.43325 -33.86328,-24.49609 -9.55935,-16.06285 -15.84766,-39.15763 -15.84766,-64.78711 0,-25.62949 6.28831,-48.72427 15.84766,-64.78711 9.55935,-16.06285 21.63972,-24.49414 33.86328,-24.49414 z"
       id="path19035"
       inkscape:connector-curvature="0" />
  </g>
</svg>
