<?xml version="1.0" encoding="UTF-8" standalone="no"?>
<!-- Created with Inkscape (http://www.inkscape.org/) -->

<svg
   xmlns:dc="http://purl.org/dc/elements/1.1/"
   xmlns:cc="http://creativecommons.org/ns#"
   xmlns:rdf="http://www.w3.org/1999/02/22-rdf-syntax-ns#"
   xmlns:svg="http://www.w3.org/2000/svg"
   xmlns="http://www.w3.org/2000/svg"
   xmlns:sodipodi="http://sodipodi.sourceforge.net/DTD/sodipodi-0.dtd"
   xmlns:inkscape="http://www.inkscape.org/namespaces/inkscape"
   width="300"
   height="300"
   viewBox="0 0 300 300"
   version="1.1"
   id="svg8"
   inkscape:version="0.92.2 (5c3e80d, 2017-08-06)"
   sodipodi:docname="Lipio.svg"
   inkscape:export-filename="C:\Users\irock\Desktop\Stuff\Images\Homestuck\ezodiac\07 Teal\Prospit\Lipio.png"
   inkscape:export-xdpi="320"
   inkscape:export-ydpi="320">
  <title
     id="title15092">Lipio</title>
  <defs
     id="defs2" />
  <sodipodi:namedview
     id="base"
     pagecolor="#ffffff"
     bordercolor="#666666"
     borderopacity="1.0"
     inkscape:pageopacity="0.0"
     inkscape:pageshadow="2"
     inkscape:zoom="1.979899"
     inkscape:cx="151.90919"
     inkscape:cy="151.73165"
     inkscape:document-units="px"
     inkscape:current-layer="layer1"
     showgrid="false"
     showguides="false"
     units="px"
     inkscape:pagecheckerboard="true"
     inkscape:showpageshadow="false" />
  <metadata
     id="metadata5">
    <rdf:RDF>
      <cc:Work
         rdf:about="">
        <dc:format>image/svg+xml</dc:format>
        <dc:type
           rdf:resource="http://purl.org/dc/dcmitype/StillImage" />
        <dc:title>Lipio</dc:title>
      </cc:Work>
    </rdf:RDF>
  </metadata>
  <g
     inkscape:label="Layer 1"
     inkscape:groupmode="layer"
     id="layer1"
     transform="translate(290,-16.196409)">
    <path
       style="fill:#008282;fill-opacity:1;stroke:none;stroke-width:1px;stroke-linecap:butt;stroke-linejoin:miter;stroke-opacity:1"
       d="m -243.91992,89.326294 v 17.232416 h 64.85742 c -9.7154,11.20657 -20.70131,32.75195 -24.39844,56.875 h -54.97656 v 17.05273 h 53.69531 c 0.28357,42.43152 33.44184,62.58008 64.82227,62.58008 31.38043,0 64.538699,-20.14856 64.822269,-62.58008 h 53.53515 v -17.05273 h -54.8164 c -3.69713,-24.12305 -14.68304,-45.66843 -24.398439,-56.875 h 64.857419 V 89.326294 h -83.427729 l -4.49805,15.654296 c 14.60912,12.74978 27.781649,36.1477 32.189449,58.45312 h -96.527339 c 4.4078,-22.30542 17.58033,-45.70334 32.18945,-58.45312 l -4.49805,-15.654296 z m 54.23047,91.160146 h 99.539059 c -1.19621,35.09779 -33.270639,45.55274 -49.769529,45.55274 -16.49889,0 -48.57332,-10.45495 -49.76953,-45.55274 z"
       id="path15081"
       inkscape:connector-curvature="0" />
  </g>
</svg>
