<?xml version="1.0" encoding="UTF-8" standalone="no"?>
<!-- Created with Inkscape (http://www.inkscape.org/) -->

<svg
   xmlns:dc="http://purl.org/dc/elements/1.1/"
   xmlns:cc="http://creativecommons.org/ns#"
   xmlns:rdf="http://www.w3.org/1999/02/22-rdf-syntax-ns#"
   xmlns:svg="http://www.w3.org/2000/svg"
   xmlns="http://www.w3.org/2000/svg"
   xmlns:sodipodi="http://sodipodi.sourceforge.net/DTD/sodipodi-0.dtd"
   xmlns:inkscape="http://www.inkscape.org/namespaces/inkscape"
   width="300"
   height="300"
   viewBox="0 0 300 300"
   version="1.1"
   id="svg8"
   inkscape:version="0.92.2 (5c3e80d, 2017-08-06)"
   sodipodi:docname="Sagirist.svg"
   inkscape:export-filename="C:\Users\irock\Desktop\Stuff\Images\Homestuck\ezodiac\09 Indigo\Prospit\Sagirist.png"
   inkscape:export-xdpi="320"
   inkscape:export-ydpi="320">
  <title
     id="title6598">Sagirist</title>
  <defs
     id="defs2" />
  <sodipodi:namedview
     id="base"
     pagecolor="#ffffff"
     bordercolor="#666666"
     borderopacity="1.0"
     inkscape:pageopacity="0.0"
     inkscape:pageshadow="2"
     inkscape:zoom="1.979899"
     inkscape:cx="156.50828"
     inkscape:cy="153.07462"
     inkscape:document-units="px"
     inkscape:current-layer="layer1"
     showgrid="false"
     showguides="false"
     units="px"
     inkscape:pagecheckerboard="true"
     inkscape:showpageshadow="false" />
  <metadata
     id="metadata5">
    <rdf:RDF>
      <cc:Work
         rdf:about="">
        <dc:format>image/svg+xml</dc:format>
        <dc:type
           rdf:resource="http://purl.org/dc/dcmitype/StillImage" />
        <dc:title>Sagirist</dc:title>
      </cc:Work>
    </rdf:RDF>
  </metadata>
  <g
     inkscape:label="Layer 1"
     inkscape:groupmode="layer"
     id="layer1"
     transform="translate(690,12.37502)">
    <path
       style="fill:#0121cc;fill-opacity:1;stroke:none;stroke-width:1px;stroke-linecap:butt;stroke-linejoin:miter;stroke-opacity:1"
       d="m -540.00098,32.808573 -44.20508,35.054687 10.20117,12.457031 26.59571,-21.691406 v 37.5 c -40.81053,-1.675021 -64.35348,-17.12337 -76.54102,-33.177734 h -17.92968 c 4.72929,11.548878 23.02087,33.136056 59.09374,43.300779 v 84.24219 c -36.07287,10.16473 -54.36445,31.74995 -59.09374,43.29883 h 17.92968 c 12.18754,-16.05437 35.7305,-31.50076 76.54102,-33.17578 v 41.82422 h 14.81836 v -41.82422 c 40.81026,1.67511 64.35156,17.12147 76.53906,33.17578 h 17.93164 c -4.74985,-11.59907 -23.17558,-33.32483 -59.56055,-43.43359 V 106.3867 c 36.38497,-10.108761 54.8107,-31.836487 59.56055,-43.435549 h -17.93164 c -12.1875,16.05431 -35.72879,31.502625 -76.53906,33.177734 v -37.5 l 26.5957,21.691406 10.19922,-12.457031 z m -27.75977,76.791017 c 6.33172,1.05876 13.1199,1.75806 20.35157,2.05078 v 73.44336 c -7.23168,0.29272 -14.01985,0.99398 -20.35157,2.05274 z m 55.05469,0.0703 v 77.40625 c -6.19962,-1.01697 -12.82777,-1.69677 -19.88476,-1.98242 v -73.44336 c 7.05698,-0.28565 13.68515,-0.9635 19.88476,-1.98047 z"
       id="path6579"
       inkscape:connector-curvature="0"
       sodipodi:nodetypes="cccccccccccccccccccccccccccccccccccc" />
  </g>
</svg>
