<?xml version="1.0" encoding="UTF-8" standalone="no"?>
<!-- Created with Inkscape (http://www.inkscape.org/) -->

<svg
   xmlns:dc="http://purl.org/dc/elements/1.1/"
   xmlns:cc="http://creativecommons.org/ns#"
   xmlns:rdf="http://www.w3.org/1999/02/22-rdf-syntax-ns#"
   xmlns:svg="http://www.w3.org/2000/svg"
   xmlns="http://www.w3.org/2000/svg"
   xmlns:sodipodi="http://sodipodi.sourceforge.net/DTD/sodipodi-0.dtd"
   xmlns:inkscape="http://www.inkscape.org/namespaces/inkscape"
   width="300"
   height="300"
   viewBox="0 0 300 300"
   version="1.1"
   id="svg8"
   inkscape:version="0.92.2 (5c3e80d, 2017-08-06)"
   sodipodi:docname="Virga.svg"
   inkscape:export-filename="C:\Users\irock\Desktop\Stuff\Images\Homestuck\ezodiac\06 Jade\Derse\Virga.png"
   inkscape:export-xdpi="320"
   inkscape:export-ydpi="320">
  <title
     id="title834">Virga</title>
  <defs
     id="defs2" />
  <sodipodi:namedview
     id="base"
     pagecolor="#ffffff"
     bordercolor="#666666"
     borderopacity="1.0"
     inkscape:pageopacity="0.0"
     inkscape:pageshadow="2"
     inkscape:zoom="1.979899"
     inkscape:cx="146.9854"
     inkscape:cy="192.99619"
     inkscape:document-units="px"
     inkscape:current-layer="layer1"
     showgrid="false"
     showguides="false"
     units="px"
     inkscape:pagecheckerboard="true"
     inkscape:showpageshadow="false" />
  <metadata
     id="metadata5">
    <rdf:RDF>
      <cc:Work
         rdf:about="">
        <dc:format>image/svg+xml</dc:format>
        <dc:type
           rdf:resource="http://purl.org/dc/dcmitype/StillImage" />
        <dc:title>Virga</dc:title>
      </cc:Work>
    </rdf:RDF>
  </metadata>
  <g
     inkscape:label="Layer 1"
     inkscape:groupmode="layer"
     id="layer1"
     transform="translate(-150,649.51788)">
    <path
       style="fill:#088446;fill-opacity:1;stroke:none;stroke-width:1px;stroke-linecap:butt;stroke-linejoin:miter;stroke-opacity:1"
       d="m 300,-602.58233 c -9.64386,0 -23.11523,9.75451 -23.11523,32.95703 0,13.29694 4.63487,23.9038 13.51171,32.83008 -6.44764,6.81678 -46.36624,28.52701 -61.87304,37.27734 15.5068,8.75033 55.4254,30.46056 61.87304,37.27734 -8.87684,8.92628 -13.51171,19.53314 -13.51171,32.83008 0,23.20252 13.47137,32.95703 23.11523,32.95703 9.64386,0 23.11523,-9.75451 23.11523,-32.95703 0,-13.29694 -4.63487,-23.9038 -13.51171,-32.83008 6.44764,-6.81678 46.36624,-28.52701 61.87304,-37.27734 -15.5068,-8.75033 -55.4254,-30.46056 -61.87304,-37.27734 8.87684,-8.92628 13.51171,-19.53314 13.51171,-32.83008 0,-23.20252 -13.47137,-32.95703 -23.11523,-32.95703 z m 0,12.375 c 3.29386,0 10.23633,8.93127 10.23633,21.33984 0,10.00314 -6.83127,20.08906 -10.23633,23.48438 -3.40506,-3.39532 -10.23633,-13.48124 -10.23633,-23.48438 0,-12.40857 6.94247,-21.33984 10.23633,-21.33984 z m 0,61.87109 c 9.83953,9.85253 33.80729,22.67797 44.70703,28.81836 -10.89974,6.14039 -34.8675,18.96583 -44.70703,28.81836 -9.83953,-9.85253 -33.80729,-22.67797 -44.70703,-28.81836 10.89974,-6.14039 34.8675,-18.96583 44.70703,-28.81836 z m 0,74.68359 c 3.40506,3.39532 10.23633,13.48124 10.23633,23.48438 0,12.40857 -6.94247,21.33984 -10.23633,21.33984 -3.29386,0 -10.23633,-8.93127 -10.23633,-21.33984 0,-10.00314 6.83127,-20.08906 10.23633,-23.48438 z"
       id="path823"
       inkscape:connector-curvature="0" />
  </g>
</svg>
