<?xml version="1.0" encoding="UTF-8" standalone="no"?>
<!-- Created with Inkscape (http://www.inkscape.org/) -->

<svg
   xmlns:dc="http://purl.org/dc/elements/1.1/"
   xmlns:cc="http://creativecommons.org/ns#"
   xmlns:rdf="http://www.w3.org/1999/02/22-rdf-syntax-ns#"
   xmlns:svg="http://www.w3.org/2000/svg"
   xmlns="http://www.w3.org/2000/svg"
   xmlns:sodipodi="http://sodipodi.sourceforge.net/DTD/sodipodi-0.dtd"
   xmlns:inkscape="http://www.inkscape.org/namespaces/inkscape"
   width="300"
   height="300"
   viewBox="0 0 300 300"
   version="1.1"
   id="svg8"
   inkscape:version="0.92.2 (5c3e80d, 2017-08-06)"
   sodipodi:docname="Viricorn.svg"
   inkscape:export-filename="C:\Users\irock\Desktop\Stuff\Images\Homestuck\ezodiac\06 Jade\Prospit\Viricorn.png"
   inkscape:export-xdpi="320"
   inkscape:export-ydpi="320">
  <title
     id="title14016">Viricorn</title>
  <defs
     id="defs2" />
  <sodipodi:namedview
     id="base"
     pagecolor="#ffffff"
     bordercolor="#666666"
     borderopacity="1.0"
     inkscape:pageopacity="0.0"
     inkscape:pageshadow="2"
     inkscape:zoom="2.8"
     inkscape:cx="143.48946"
     inkscape:cy="121.99687"
     inkscape:document-units="px"
     inkscape:current-layer="layer1"
     showgrid="false"
     showguides="false"
     units="px"
     inkscape:pagecheckerboard="true"
     inkscape:showpageshadow="false" />
  <metadata
     id="metadata5">
    <rdf:RDF>
      <cc:Work
         rdf:about="">
        <dc:format>image/svg+xml</dc:format>
        <dc:type
           rdf:resource="http://purl.org/dc/dcmitype/StillImage" />
        <dc:title>Viricorn</dc:title>
      </cc:Work>
    </rdf:RDF>
  </metadata>
  <g
     inkscape:label="Layer 1"
     inkscape:groupmode="layer"
     id="layer1"
     transform="translate(475.71429,206.66074)">
    <path
       style="fill:#088446;fill-opacity:1;stroke:none;stroke-width:1px;stroke-linecap:butt;stroke-linejoin:miter;stroke-opacity:1"
       d="m -422.17034,-155.48956 c -2.03062,0.0214 -4.15372,0.17971 -6.36914,0.47461 v 13.92773 c 12.82093,-0.2602 20.5875,1.47782 21.94531,13.43555 -11.65035,9.40408 -18.55078,24.03574 -18.55078,38.886718 0,37.19472 31.87674,75.27872 60.43359,100.6582 -5.8231,8.16116 -12.1941,12.03726 -14.89844,13.62695 l -0.53515,15.89258 c 4.77424,-1.09688 16.7444,-7.12954 26.55273,-20.11133 9.66836,6.69048 18.81151,15.04335 29.57422,19.80078 11.4021,-6.2254 20.59631,-12.67809 28.65625,-19.06445 9.80821,12.99468 21.78267,19.03555 26.55859,20.13281 l -0.53711,-15.89258 c -2.69935,-1.58675 -9.05088,-5.46289 -14.86523,-13.59375 28.77759,-25.37461 61.3164,-63.8721 61.3164,-101.44921 1e-5,-24.926998 -19.43727,-49.244138 -48.15234,-49.244138 -30.65306,0 -51.42283,18.94313 -52.97656,20.40039 -1.55903,-1.46207 -22.32591,-20.40039 -52.97461,-20.40039 -6.74372,0 -12.96788,1.3553 -18.55664,3.73046 l 2.36719,-1.45117 c -5.09128,-13.35239 -14.77397,-19.90945 -28.98828,-19.75976 z m 46.31054,31.72461 c 14.02794,0 30.20475,8.50888 40.79492,15.75195 -7.96774,6.81468 -16.60755,16.356448 -18.15039,31.380858 -1.87243,18.234 0.81527,34.75165 0.0332,51.25976 -0.43838,9.25361 -2.05821,16.8998498 -4.30664,23.2226598 -25.08339,-22.6430198 -53.01367,-55.1458898 -53.01367,-86.2597698 0,-16.500008 12.08164,-35.355458 34.64257,-35.355458 z m 103.68555,0 c 22.56093,0 34.64258,18.85545 34.64258,35.355458 0,33.19434 -31.79504,67.98728 -58.00196,90.6816498 5.77001,-14.2103898 5.72461,-32.7519898 5.72461,-53.0195398 0,-29.70108 -9.1875,-45.31526 -22.69336,-57.583978 10.59603,-7.17133 26.50701,-15.43359 40.32813,-15.43359 z m -51.54297,25.712888 c 1.48096,4.41669 19.36132,5.27375 19.06445,58.20507 0.33695,13.1123 0.33206,39.2993798 -19.36523,64.08985 -4.92909,-3.27567 -12.7334,-8.89751 -21.72266,-16.2734402 3.64689,-8.14654 6.20587,-17.95992 6.67188,-29.6874998 0.69641,-17.52584 -0.73641,-20.25273 -0.72071,-32.22656 0.032,-24.30907 3.62432,-34.78505 16.07227,-44.10742 z"
       id="path13993"
       inkscape:connector-curvature="0"
       sodipodi:nodetypes="scccscccccccccsscsccsscsscsssscscsccccscc" />
  </g>
</svg>
