<?xml version="1.0" encoding="UTF-8" standalone="no"?>
<!-- Created with Inkscape (http://www.inkscape.org/) -->

<svg
   xmlns:dc="http://purl.org/dc/elements/1.1/"
   xmlns:cc="http://creativecommons.org/ns#"
   xmlns:rdf="http://www.w3.org/1999/02/22-rdf-syntax-ns#"
   xmlns:svg="http://www.w3.org/2000/svg"
   xmlns="http://www.w3.org/2000/svg"
   xmlns:sodipodi="http://sodipodi.sourceforge.net/DTD/sodipodi-0.dtd"
   xmlns:inkscape="http://www.inkscape.org/namespaces/inkscape"
   width="300"
   height="300"
   viewBox="0 0 300 300"
   version="1.1"
   id="svg8"
   inkscape:version="0.92.2 (5c3e80d, 2017-08-06)"
   sodipodi:docname="Virist.svg"
   inkscape:export-filename="C:\Users\irock\Desktop\Stuff\Images\Homestuck\ezodiac\06 Jade\Prospit\Virist.png"
   inkscape:export-xdpi="320"
   inkscape:export-ydpi="320">
  <title
     id="title11089">Virist</title>
  <defs
     id="defs2" />
  <sodipodi:namedview
     id="base"
     pagecolor="#ffffff"
     bordercolor="#666666"
     borderopacity="1.0"
     inkscape:pageopacity="0.0"
     inkscape:pageshadow="2"
     inkscape:zoom="1.979899"
     inkscape:cx="177.1314"
     inkscape:cy="168.42694"
     inkscape:document-units="px"
     inkscape:current-layer="layer1"
     showgrid="false"
     showguides="false"
     units="px"
     inkscape:pagecheckerboard="true"
     inkscape:showpageshadow="false" />
  <metadata
     id="metadata5">
    <rdf:RDF>
      <cc:Work
         rdf:about="">
        <dc:format>image/svg+xml</dc:format>
        <dc:type
           rdf:resource="http://purl.org/dc/dcmitype/StillImage" />
        <dc:title>Virist</dc:title>
      </cc:Work>
    </rdf:RDF>
  </metadata>
  <g
     inkscape:label="Layer 1"
     inkscape:groupmode="layer"
     id="layer1"
     transform="translate(915.71429,-227.62498)">
    <path
       style="fill:#088446;fill-opacity:1;stroke:none;stroke-width:1px;stroke-linecap:butt;stroke-linejoin:miter;stroke-opacity:1"
       d="m -810.20941,278.85349 c -13.23318,28.08364 -39.69305,39.32579 -54.79101,40.92384 l 0.002,13.86718 c 31.26925,-1.2989 42.64557,-15.04012 53.92773,-27.85741 l 0.64844,81.64844 c 0.2592,32.61088 2.10091,42.04219 10.34961,59.36131 2.8768,6.04019 13.82929,14.13757 18.48828,17.47266 13.74154,9.83675 28.15555,12.12696 44.00586,12.12696 21.29174,0 38.45283,-8.35834 51.40429,-21.70898 11.94633,-12.31453 17.60359,-29.84983 18.57813,-48.00195 l 1.16797,-21.75978 h -15.75781 l -0.91797,21.95703 c -1.62494,38.82873 -28.73192,55.64649 -56.53907,55.64649 -38.34185,0 -55.9259,-29.38924 -55.95117,-56.07618 l -0.11914,-127.59961 z m 41.88672,23.94532 c -1.43783,9.56691 -8.46347,21.65137 -17.36328,22.77148 l -0.002,14.42578 c 7.18474,-0.83087 12.85408,-3.06287 17.09961,-7.14453 l -0.0742,71.85547 c -0.0184,17.88924 10.03959,39.26172 35.60742,39.26172 23.64882,0 35.38989,-13.58118 34.98633,-39.04297 l 0.22266,-19.97852 -14.5625,0.002 -0.26367,22.61719 c -0.0803,6.84426 -3.4292,21.79687 -19.37305,21.79687 -10.92938,0 -20.68905,-5.97436 -20.67578,-27.5 l 0.0606,-99.06445 z"
       id="path11082"
       inkscape:connector-curvature="0" />
  </g>
</svg>
