<?xml version="1.0" encoding="UTF-8" standalone="no"?>
<!-- Created with Inkscape (http://www.inkscape.org/) -->

<svg
   xmlns:dc="http://purl.org/dc/elements/1.1/"
   xmlns:cc="http://creativecommons.org/ns#"
   xmlns:rdf="http://www.w3.org/1999/02/22-rdf-syntax-ns#"
   xmlns:svg="http://www.w3.org/2000/svg"
   xmlns="http://www.w3.org/2000/svg"
   xmlns:sodipodi="http://sodipodi.sourceforge.net/DTD/sodipodi-0.dtd"
   xmlns:inkscape="http://www.inkscape.org/namespaces/inkscape"
   width="300"
   height="300"
   viewBox="0 0 300 300"
   version="1.1"
   id="svg8"
   inkscape:version="0.92.2 (5c3e80d, 2017-08-06)"
   sodipodi:docname="Virittarius.svg"
   inkscape:export-filename="C:\Users\irock\Desktop\Stuff\Images\Homestuck\ezodiac\06 Jade\Derse\Virittarius.png"
   inkscape:export-xdpi="320"
   inkscape:export-ydpi="320">
  <title
     id="title5921">Virittarius</title>
  <defs
     id="defs2" />
  <sodipodi:namedview
     id="base"
     pagecolor="#ffffff"
     bordercolor="#666666"
     borderopacity="1.0"
     inkscape:pageopacity="0.0"
     inkscape:pageshadow="2"
     inkscape:zoom="1.979899"
     inkscape:cx="150.61002"
     inkscape:cy="156.7703"
     inkscape:document-units="px"
     inkscape:current-layer="layer1"
     showgrid="false"
     showguides="true"
     units="px"
     inkscape:pagecheckerboard="true"
     inkscape:showpageshadow="false" />
  <metadata
     id="metadata5">
    <rdf:RDF>
      <cc:Work
         rdf:about="">
        <dc:format>image/svg+xml</dc:format>
        <dc:type
           rdf:resource="http://purl.org/dc/dcmitype/StillImage" />
        <dc:title>Virittarius</dc:title>
      </cc:Work>
    </rdf:RDF>
  </metadata>
  <g
     inkscape:label="Layer 1"
     inkscape:groupmode="layer"
     id="layer1"
     transform="translate(187.14285,-207.62498)">
    <path
       style="fill:#088446;fill-opacity:1;stroke:none;stroke-width:1px;stroke-linecap:butt;stroke-linejoin:miter;stroke-opacity:1"
       d="m -124.52961,278.73743 -4.1e-4,-16.04515 178.383844,3.9e-4 -4.29e-4,62.82559 -143.249974,4.1e-4 c -10.395387,3e-5 -26.104321,4.95593 -26.516511,15.34314 -0.39098,9.85274 15.39333,15.40483 25.25382,15.40483 H 50.644792 v 15.62703 h -82.998391 v 18.361 h 47.002734 c 24.501165,0 41.41625,10.42524 41.41625,30.66173 0,20.53654 -15.390943,31.64128 -43.798957,31.64127 l -136.544038,-3e-5 1.3e-4,-16.08847 136.653765,-5e-4 c 11.032641,-4e-5 29.473001,-2.51644 29.473001,-14.51148 0,-9.99432 -12.22239,-16.34046 -29.718095,-16.34052 l -136.377801,-4.9e-4 -2.4e-4,-15.36151 76.919245,2e-5 2.87e-4,-18.36132 -41.638152,3e-4 c -17.44201,1.3e-4 -41.38561,-7.62533 -41.38561,-31.13646 0,-23.93404 25.20248,-31.10554 42.148482,-31.10554 l 127.73571,2e-5 v -30.91402 z"
       id="path5919"
       inkscape:connector-curvature="0"
       sodipodi:nodetypes="ccccsssccccsssccsssccccsssccc" />
  </g>
</svg>
