<?xml version="1.0" encoding="UTF-8" standalone="no"?>
<!-- Created with Inkscape (http://www.inkscape.org/) -->

<svg
   xmlns:dc="http://purl.org/dc/elements/1.1/"
   xmlns:cc="http://creativecommons.org/ns#"
   xmlns:rdf="http://www.w3.org/1999/02/22-rdf-syntax-ns#"
   xmlns:svg="http://www.w3.org/2000/svg"
   xmlns="http://www.w3.org/2000/svg"
   xmlns:sodipodi="http://sodipodi.sourceforge.net/DTD/sodipodi-0.dtd"
   xmlns:inkscape="http://www.inkscape.org/namespaces/inkscape"
   width="300"
   height="300"
   viewBox="0 0 300 300"
   version="1.1"
   id="svg8"
   inkscape:version="0.92.2 (5c3e80d, 2017-08-06)"
   sodipodi:docname="Viriborn.svg"
   inkscape:export-filename="C:\Users\irock\Desktop\Stuff\Images\Homestuck\ezodiac\06 Jade\Derse\Viriborn.png"
   inkscape:export-xdpi="320"
   inkscape:export-ydpi="320">
  <title
     id="title5358">Viriborn</title>
  <defs
     id="defs2" />
  <sodipodi:namedview
     id="base"
     pagecolor="#ffffff"
     bordercolor="#666666"
     borderopacity="1.0"
     inkscape:pageopacity="0.0"
     inkscape:pageshadow="2"
     inkscape:zoom="2.8"
     inkscape:cx="152.47459"
     inkscape:cy="136.0402"
     inkscape:document-units="px"
     inkscape:current-layer="layer1"
     showgrid="false"
     showguides="false"
     units="px"
     inkscape:pagecheckerboard="true"
     inkscape:showpageshadow="false" />
  <metadata
     id="metadata5">
    <rdf:RDF>
      <cc:Work
         rdf:about="">
        <dc:format>image/svg+xml</dc:format>
        <dc:type
           rdf:resource="http://purl.org/dc/dcmitype/StillImage" />
        <dc:title>Viriborn</dc:title>
      </cc:Work>
    </rdf:RDF>
  </metadata>
  <g
     inkscape:label="Layer 1"
     inkscape:groupmode="layer"
     id="layer1"
     transform="translate(438.57144,52.375019)">
    <path
       style="fill:#088446;fill-opacity:1;stroke:none;stroke-width:1px;stroke-linecap:butt;stroke-linejoin:miter;stroke-opacity:1"
       d="m -198.92789,1.3749825 c -5.83334,8.392857 -11.31092,17.4988845 -15.53711,28.5703125 -8.27381,-12.380952 -17.42746,-18.570312 -32.32031,-18.570312 -25.25973,0 -41.07218,24.023149 -41.07226,48.927738 v 93.037109 c -4e-5,13.56251 -4.22596,25.71289 -14.28516,25.71289 -19.5753,0 -33.21484,-67.78449 -33.21484,-155.892581 l -15.53516,0.179688 c -5.04035,31.007182 -20.18305,93.952453 -45.71484,97.855463 v 14.64454 c 22.02413,0 38.51273,-25.65505 47.32226,-56.607429 2.53963,19.68575 6.95033,114.642579 46.96485,114.642579 17.7317,0 29.82031,-12.77576 29.82031,-44.46484 V 59.052721 c 0,-13.703413 9.33113,-32.401636 26.60742,-32.320316 14.72517,0.06931 24.4648,15.738254 24.46484,31.962886 V 186.37498 h 15.53516 V 58.695291 c 0,-20.391919 16.25027,-43.986975 25.35742,-57.3203085 z"
       id="path5355"
       inkscape:connector-curvature="0" />
  </g>
</svg>
