<?xml version="1.0" encoding="UTF-8" standalone="no"?>
<!-- Created with Inkscape (http://www.inkscape.org/) -->

<svg
   xmlns:dc="http://purl.org/dc/elements/1.1/"
   xmlns:cc="http://creativecommons.org/ns#"
   xmlns:rdf="http://www.w3.org/1999/02/22-rdf-syntax-ns#"
   xmlns:svg="http://www.w3.org/2000/svg"
   xmlns="http://www.w3.org/2000/svg"
   xmlns:sodipodi="http://sodipodi.sourceforge.net/DTD/sodipodi-0.dtd"
   xmlns:inkscape="http://www.inkscape.org/namespaces/inkscape"
   width="300"
   height="300"
   viewBox="0 0 300 300"
   version="1.1"
   id="svg8"
   inkscape:version="0.92.2 (5c3e80d, 2017-08-06)"
   sodipodi:docname="Virlo.svg"
   inkscape:export-filename="C:\Users\irock\Desktop\Stuff\Images\Homestuck\ezodiac\06 Jade\Prospit\Virlo.png"
   inkscape:export-xdpi="320"
   inkscape:export-ydpi="320">
  <title
     id="title8823">Virlo</title>
  <defs
     id="defs2" />
  <sodipodi:namedview
     id="base"
     pagecolor="#ffffff"
     bordercolor="#666666"
     borderopacity="1.0"
     inkscape:pageopacity="0.0"
     inkscape:pageshadow="2"
     inkscape:zoom="1.979899"
     inkscape:cx="71.700396"
     inkscape:cy="117.47081"
     inkscape:document-units="px"
     inkscape:current-layer="layer1"
     showgrid="false"
     showguides="false"
     units="px"
     inkscape:pagecheckerboard="true"
     inkscape:showpageshadow="false" />
  <metadata
     id="metadata5">
    <rdf:RDF>
      <cc:Work
         rdf:about="">
        <dc:format>image/svg+xml</dc:format>
        <dc:type
           rdf:resource="http://purl.org/dc/dcmitype/StillImage" />
        <dc:title>Virlo</dc:title>
      </cc:Work>
    </rdf:RDF>
  </metadata>
  <g
     inkscape:label="Layer 1"
     inkscape:groupmode="layer"
     id="layer1"
     transform="translate(41.42857,106.66074)">
    <path
       style="fill:#088446;fill-opacity:1;stroke:none;stroke-width:1px;stroke-linecap:butt;stroke-linejoin:miter;stroke-opacity:1"
       d="m 109.64367,-48.714468 c -16.193266,0 -31.944056,10.110217 -42.499996,22.5 -2.05171,-5.90169 -3.6912,-13.453233 -7.5,-18.03711 l -19.107418,-0.892578 c 4.010097,2.130364 11.468664,18.021052 11.427734,26.78711 L 51.428834,96.371468 h 16.96484 l 0.71289,-88.83594 c 0.1274,-15.844608 21.29568,-39.617794 36.072266,-39.642574 3.37138,-0.0057 7.09749,6.801821 6.96484,15 -0.64939,40.134214 0.94996,104.800644 1.41211,118.519536 l -29.134756,9.90234 0.40039,13.64648 c 11.86005,-2.81248 23.557216,-6.78963 30.714836,-9.92578 l 0.0391,-0.0234 c 1.93005,6.82774 5.12664,14.12794 9.06836,20.38086 l 20.89258,-0.35743 c -6.99521,-8.59362 -12.02634,-18.50498 -14.61523,-28.96679 14.15409,-8.223532 45.68554,-32.825292 45.68554,-69.248052 0,-34.87395 -23.7688,-54.822266 -28.21289,-54.822266 -4.6651,0 -15.86735,12.164626 -19.46484,18.214846 -0.0628,0.0943 -0.53416,-12.240637 -0.53516,-23.39258 -0.003,-21.453113 -10.24747,-25.535156 -18.75,-25.535156 z m 36.25,51.785156 c 2.12373,0 14.64258,11.53754 14.64258,33.21484 0,32.14074 -31.8085,54.59043 -31.8085,54.59043 -0.34424,-15.53349 0.20622,-32.96024 0.20108,-49.05722 2.73304,-25.85223 15.23022,-38.74805 16.96484,-38.74805 z"
       id="path8818"
       inkscape:connector-curvature="0"
       sodipodi:nodetypes="scccccccssccccccccssccsssccs" />
  </g>
</svg>
