<?xml version="1.0" encoding="UTF-8" standalone="no"?>
<!-- Created with Inkscape (http://www.inkscape.org/) -->

<svg
   xmlns:dc="http://purl.org/dc/elements/1.1/"
   xmlns:cc="http://creativecommons.org/ns#"
   xmlns:rdf="http://www.w3.org/1999/02/22-rdf-syntax-ns#"
   xmlns:svg="http://www.w3.org/2000/svg"
   xmlns="http://www.w3.org/2000/svg"
   xmlns:sodipodi="http://sodipodi.sourceforge.net/DTD/sodipodi-0.dtd"
   xmlns:inkscape="http://www.inkscape.org/namespaces/inkscape"
   width="300"
   height="300"
   viewBox="0 0 300 300"
   version="1.1"
   id="svg8"
   inkscape:version="0.92.2 (5c3e80d, 2017-08-06)"
   sodipodi:docname="Virsci.svg"
   inkscape:export-filename="C:\Users\irock\Desktop\Stuff\Images\Homestuck\ezodiac\06 Jade\Prospit\Virsci.png"
   inkscape:export-xdpi="320"
   inkscape:export-ydpi="320">
  <title
     id="title11659">Virsci</title>
  <defs
     id="defs2" />
  <sodipodi:namedview
     id="base"
     pagecolor="#ffffff"
     bordercolor="#666666"
     borderopacity="1.0"
     inkscape:pageopacity="0.0"
     inkscape:pageshadow="2"
     inkscape:zoom="1.979899"
     inkscape:cx="163.39336"
     inkscape:cy="155.64191"
     inkscape:document-units="px"
     inkscape:current-layer="layer1"
     showgrid="false"
     showguides="true"
     units="px"
     inkscape:pagecheckerboard="true"
     inkscape:showpageshadow="false" />
  <metadata
     id="metadata5">
    <rdf:RDF>
      <cc:Work
         rdf:about="">
        <dc:format>image/svg+xml</dc:format>
        <dc:type
           rdf:resource="http://purl.org/dc/dcmitype/StillImage" />
        <dc:title>Virsci</dc:title>
      </cc:Work>
    </rdf:RDF>
  </metadata>
  <g
     inkscape:label="Layer 1"
     inkscape:groupmode="layer"
     id="layer1"
     transform="translate(292.85715,238.08931)">
    <path
       style="fill:#088446;fill-opacity:1;stroke:none;stroke-width:1px;stroke-linecap:butt;stroke-linejoin:miter;stroke-opacity:1"
       d="m -142.85715,-185.37447 c -5.1819,18.29575 -11.66078,35.52711 -20.57227,52.32032 -19.17058,-21.12202 -46.99393,-38.99989 -88.42773,-38.03516 v 14.64258 c 47.02329,1.77474 66.33208,23.37273 80.21484,37.5 -4.75827,6.74927 -9.70417,13.32094 -16.78711,20.53515 -26.78088,-21.13634 -45.0126,-21.63359 -63.42773,-22.32031 v 15 c 23.13396,0.77766 34.53176,6.10395 51.64258,17.64258 -17.11082,11.53863 -28.50862,16.86492 -51.64258,17.64258 v 15 c 18.41513,-0.68672 36.64685,-1.18397 63.42773,-22.32031 7.08294,7.21421 12.02884,13.78588 16.78711,20.53515 -13.88276,14.12727 -33.19155,35.72526 -80.21484,37.5 v 14.64258 c 41.4338,0.96473 69.25715,-16.91314 88.42773,-38.03516 8.91149,16.79321 15.39037,34.02457 20.57227,52.32032 5.1819,-18.29575 11.66078,-35.52711 20.57227,-52.32032 19.17058,21.12202 46.99393,38.99989 88.42773,38.03516 v -14.64258 c -47.02329,-1.77474 -66.33208,-23.37273 -80.21484,-37.5 4.75827,-6.74927 9.70417,-13.32094 16.78711,-20.53515 26.78088,21.13634 45.0126,21.63359 63.42773,22.32031 v -15 c -23.13396,-0.77766 -34.53176,-6.10395 -51.64258,-17.64258 17.11082,-11.53863 28.50862,-16.86492 51.64258,-17.64258 v -15 c -18.41513,0.68672 -36.64685,1.18397 -63.42773,22.32031 -7.08294,-7.21421 -12.02884,-13.78588 -16.78711,-20.53515 13.88276,-14.12727 33.19155,-35.72526 80.21484,-37.5 v -14.64258 c -41.4338,-0.96473 -69.25715,16.91314 -88.42773,38.03516 -8.91149,-16.79321 -15.39037,-34.02457 -20.57227,-52.32032 z m 0,45.71289 c 2.84444,5.60912 5.52831,11.01797 10.21484,18.92969 -3.9984,5.71187 -7.15432,10.15979 -10.21484,14.46485 -3.06052,-4.30506 -6.21644,-8.75298 -10.21484,-14.46485 4.68653,-7.91172 7.3704,-13.32057 10.21484,-18.92969 z m -19.14258,33.57227 c 3.88769,6 7.28946,12 10.71485,18 -3.42539,6 -6.82716,12 -10.71485,18 -3.33772,-5.40622 -10.77324,-13.96429 -14.28515,-18 3.51191,-4.03571 10.94743,-12.59378 14.28515,-18 z m 38.28516,0 c 3.33772,5.40622 10.77324,13.96429 14.28515,18 -3.51191,4.03571 -10.94743,12.59378 -14.28515,18 -3.88769,-6 -7.28946,-12 -10.71485,-18 3.42539,-6 6.82716,-12 10.71485,-18 z m -19.14258,36.17773 c 3.06052,4.30506 6.21644,8.75298 10.21484,14.46485 -4.68653,7.91172 -7.3704,13.32057 -10.21484,18.92969 -2.84444,-5.60912 -5.52831,-11.01797 -10.21484,-18.92969 3.9984,-5.71187 7.15432,-10.15979 10.21484,-14.46485 z"
       id="path11650"
       inkscape:connector-curvature="0"
       inkscape:export-filename="C:\Users\irock\path11650.png"
       inkscape:export-xdpi="320"
       inkscape:export-ydpi="320" />
  </g>
</svg>
