<?xml version="1.0" encoding="UTF-8" standalone="no"?>
<!-- Created with Inkscape (http://www.inkscape.org/) -->

<svg
   xmlns:dc="http://purl.org/dc/elements/1.1/"
   xmlns:cc="http://creativecommons.org/ns#"
   xmlns:rdf="http://www.w3.org/1999/02/22-rdf-syntax-ns#"
   xmlns:svg="http://www.w3.org/2000/svg"
   xmlns="http://www.w3.org/2000/svg"
   xmlns:sodipodi="http://sodipodi.sourceforge.net/DTD/sodipodi-0.dtd"
   xmlns:inkscape="http://www.inkscape.org/namespaces/inkscape"
   width="300"
   height="300"
   viewBox="0 0 300 300"
   version="1.1"
   id="svg8"
   inkscape:version="0.92.2 (5c3e80d, 2017-08-06)"
   sodipodi:docname="Virsces.svg"
   inkscape:export-filename="C:\Users\irock\Desktop\Stuff\Images\Homestuck\ezodiac\06 Jade\Derse\Virsces.png"
   inkscape:export-xdpi="320"
   inkscape:export-ydpi="320">
  <title
     id="title4228">Virsces</title>
  <defs
     id="defs2" />
  <sodipodi:namedview
     id="base"
     pagecolor="#ffffff"
     bordercolor="#666666"
     borderopacity="1.0"
     inkscape:pageopacity="0.0"
     inkscape:pageshadow="2"
     inkscape:zoom="1.979899"
     inkscape:cx="142.37322"
     inkscape:cy="184.65413"
     inkscape:document-units="px"
     inkscape:current-layer="layer1"
     showgrid="false"
     showguides="false"
     units="px"
     inkscape:pagecheckerboard="true"
     inkscape:showpageshadow="false" />
  <metadata
     id="metadata5">
    <rdf:RDF>
      <cc:Work
         rdf:about="">
        <dc:format>image/svg+xml</dc:format>
        <dc:type
           rdf:resource="http://purl.org/dc/dcmitype/StillImage" />
        <dc:title>Virsces</dc:title>
      </cc:Work>
    </rdf:RDF>
  </metadata>
  <g
     inkscape:label="Layer 1"
     inkscape:groupmode="layer"
     id="layer1"
     transform="translate(158.57143,-336.19641)">
    <path
       style="fill:#088446;fill-opacity:1;stroke:none;stroke-width:1px;stroke-linecap:butt;stroke-linejoin:miter;stroke-opacity:1"
       d="m -39.999158,383.33899 c -9.75156,12.69876 -32.679692,36.18873 -32.679692,80.53516 0,25.01446 10.448847,46.90355 23.025392,64.4082 -18.758443,22.63118 -42.055721,39.20392 -53.382812,47.02148 v 13.75 h 6.787108 c 0,0 30.840781,-18.251 56.453124,-48.30664 13.22432,15.3085 26.46882,25.84056 31.22461,30.26953 4.75579,-4.42897 18.00029,-14.96103 31.22461,-30.26953 25.61234,30.05564 56.45312,48.30664 56.45312,48.30664 h 6.78711 v -13.75 c -11.32709,-7.81756 -34.62437,-24.3903 -53.38281,-47.02148 12.57655,-17.50465 23.02539,-39.39374 23.02539,-64.4082 0,-44.34642 -22.92813,-67.8364 -32.67969,-80.53516 -13.49457,13.99313 -26.20823,34.36053 -31.42773,56.80664 -5.2195,-22.44611 -17.93316,-42.81351 -31.42773,-56.80664 z m 0.35546,24.82227 c 0,0 17.85743,22.69115 17.85743,53.21289 0,19.51105 -7.28522,37.46724 -17.65821,53.20117 -10.63338,-16.16149 -18.76953,-34.4931 -18.76953,-52.12891 0,-27.66674 18.57031,-54.28515 18.57031,-54.28515 z m 62.14454,0 c 0,0 18.57031,26.61841 18.57031,54.28515 0,17.63581 -8.13615,35.96742 -18.76953,52.12891 -10.37299,-15.73393 -17.65821,-33.69012 -17.65821,-53.20117 0,-30.52174 17.85743,-53.21289 17.85743,-53.21289 z m -31.07227,74.57421 c 3.81652,16.57663 11.67741,31.78044 21.20117,45.19141 -7.17405,9.06734 -14.68335,16.99377 -21.20117,23.08984 -6.51782,-6.09607 -14.02712,-14.0225 -21.20117,-23.08984 9.52376,-13.41097 17.38465,-28.61478 21.20117,-45.19141 z"
       id="path4223"
       inkscape:connector-curvature="0" />
  </g>
</svg>
