<?xml version="1.0" encoding="UTF-8" standalone="no"?>
<!-- Created with Inkscape (http://www.inkscape.org/) -->

<svg
   xmlns:dc="http://purl.org/dc/elements/1.1/"
   xmlns:cc="http://creativecommons.org/ns#"
   xmlns:rdf="http://www.w3.org/1999/02/22-rdf-syntax-ns#"
   xmlns:svg="http://www.w3.org/2000/svg"
   xmlns="http://www.w3.org/2000/svg"
   xmlns:sodipodi="http://sodipodi.sourceforge.net/DTD/sodipodi-0.dtd"
   xmlns:inkscape="http://www.inkscape.org/namespaces/inkscape"
   width="300"
   height="300"
   viewBox="0 0 300 300"
   version="1.1"
   id="svg8"
   inkscape:version="0.92.2 (5c3e80d, 2017-08-06)"
   sodipodi:docname="Capriza.svg"
   inkscape:export-filename="C:\Users\irock\Desktop\Stuff\Images\Homestuck\ezodiac\10 Purple\Derse\Capriza.png"
   inkscape:export-xdpi="320"
   inkscape:export-ydpi="320">
  <title
     id="title6235">Capriza</title>
  <defs
     id="defs2" />
  <sodipodi:namedview
     id="base"
     pagecolor="#ffffff"
     bordercolor="#666666"
     borderopacity="1.0"
     inkscape:pageopacity="0.0"
     inkscape:pageshadow="2"
     inkscape:zoom="2.8"
     inkscape:cx="169.41046"
     inkscape:cy="153.48983"
     inkscape:document-units="px"
     inkscape:current-layer="layer1"
     showgrid="false"
     showguides="false"
     units="px"
     inkscape:pagecheckerboard="true"
     inkscape:showpageshadow="false" />
  <metadata
     id="metadata5">
    <rdf:RDF>
      <cc:Work
         rdf:about="">
        <dc:format>image/svg+xml</dc:format>
        <dc:type
           rdf:resource="http://purl.org/dc/dcmitype/StillImage" />
        <dc:title>Capriza</dc:title>
      </cc:Work>
    </rdf:RDF>
  </metadata>
  <g
     inkscape:label="Layer 1"
     inkscape:groupmode="layer"
     id="layer1"
     transform="translate(-304.28571,483.80359)">
    <path
       style="fill:#450a80;fill-opacity:1;stroke:none;stroke-width:1px;stroke-linecap:butt;stroke-linejoin:miter;stroke-opacity:1"
       d="m 415.62555,-429.87878 c -4.75836,0 -11.51953,3.06446 -11.51953,3.06446 v 17.74218 c 2.33598,-2.41183 6.95446,-5.76172 11.16211,-5.76172 5.07211,0 10.22266,4.30322 10.22266,12.32031 0,15.03193 -17.02161,16.97866 -33.77539,33.73243 -16.4017,16.40171 -33.70117,38.62604 -33.70117,73.03905 0,39.90833 31.03031,58.01368 62.94336,58.01368 13.28401,0 23.48902,-2.40223 33.32812,-8.60351 9.8391,6.20128 20.04411,8.60351 33.32812,8.60351 31.91306,0 62.94336,-18.10535 62.94336,-58.01368 0,-34.41301 -17.29947,-56.63734 -33.70117,-73.03905 -16.75378,-16.75377 -33.77539,-18.7005 -33.77539,-33.73243 0,-8.01709 5.15055,-12.32031 10.22266,-12.32031 4.20765,0 8.82613,3.34989 11.16211,5.76172 v -17.74218 c 0,0 -6.76117,-3.06446 -11.51953,-3.06446 -14.17959,0 -24.82032,12.2586 -24.82032,27.1875 0,24.85973 27.44098,33.26715 40.66407,46.49024 16.42688,16.42688 26.59765,37.07523 26.59765,59.94531 0,33.91857 -27.14557,43.95898 -48.57422,43.95898 -6.80554,0 -13.39404,-1.68217 -19.52539,-4.55078 13.5755,-13.40488 25.86328,-33.49553 25.86328,-52.47656 0,-14.19387 -5.10788,-26.84215 -11.33593,-35.47266 -7.5518,-10.46488 -17.22505,-15.43945 -27.5293,-15.43945 -10.30425,0 -19.9775,4.97457 -27.5293,15.43945 -6.22805,8.63051 -11.33593,21.27879 -11.33593,35.47266 0,18.98103 12.28778,39.07168 25.86328,52.47656 -6.13135,2.86861 -12.71985,4.55078 -19.52539,4.55078 -21.42865,0 -48.57422,-10.04041 -48.57422,-43.95898 0,-22.87008 10.17078,-43.51843 26.59766,-59.94531 13.22308,-13.22309 40.66406,-21.63051 40.66406,-46.49024 0,-14.9289 -10.64073,-27.1875 -24.82032,-27.1875 z m 38.66016,84.59766 c 13.38625,0 23.98047,19.94816 23.98047,35.41015 0,14.6892 -9.62599,32.74093 -23.98047,44.67383 -14.35448,-11.9329 -23.98047,-29.98463 -23.98047,-44.67383 0,-15.46199 10.59422,-35.41015 23.98047,-35.41015 z"
       id="path6222"
       inkscape:connector-curvature="0" />
  </g>
</svg>
