<?xml version="1.0" encoding="UTF-8" standalone="no"?>
<!-- Created with Inkscape (http://www.inkscape.org/) -->

<svg
   xmlns:dc="http://purl.org/dc/elements/1.1/"
   xmlns:cc="http://creativecommons.org/ns#"
   xmlns:rdf="http://www.w3.org/1999/02/22-rdf-syntax-ns#"
   xmlns:svg="http://www.w3.org/2000/svg"
   xmlns="http://www.w3.org/2000/svg"
   xmlns:sodipodi="http://sodipodi.sourceforge.net/DTD/sodipodi-0.dtd"
   xmlns:inkscape="http://www.inkscape.org/namespaces/inkscape"
   width="300"
   height="300"
   viewBox="0 0 300 300"
   version="1.1"
   id="svg8"
   inkscape:version="0.92.2 (5c3e80d, 2017-08-06)"
   sodipodi:docname="Caprisces.svg"
   inkscape:export-filename="C:\Users\irock\Desktop\Stuff\Images\Homestuck\ezodiac\10 Purple\Derse\Caprisces.png"
   inkscape:export-xdpi="320"
   inkscape:export-ydpi="320">
  <title
     id="title9669">Caprisces</title>
  <defs
     id="defs2" />
  <sodipodi:namedview
     id="base"
     pagecolor="#ffffff"
     bordercolor="#666666"
     borderopacity="1.0"
     inkscape:pageopacity="0.0"
     inkscape:pageshadow="2"
     inkscape:zoom="1.979899"
     inkscape:cx="148.88709"
     inkscape:cy="133.86408"
     inkscape:document-units="px"
     inkscape:current-layer="layer1"
     showgrid="false"
     showguides="false"
     units="px"
     inkscape:pagecheckerboard="true"
     inkscape:showpageshadow="false" />
  <metadata
     id="metadata5">
    <rdf:RDF>
      <cc:Work
         rdf:about="">
        <dc:format>image/svg+xml</dc:format>
        <dc:type
           rdf:resource="http://purl.org/dc/dcmitype/StillImage" />
        <dc:title>Caprisces</dc:title>
      </cc:Work>
    </rdf:RDF>
  </metadata>
  <g
     inkscape:label="Layer 1"
     inkscape:groupmode="layer"
     id="layer1"
     transform="translate(-178.57143,-370.48212)">
    <path
       style="fill:#450a80;fill-opacity:1;stroke:none;stroke-width:14.83300018;stroke-linecap:butt;stroke-miterlimit:4;stroke-dasharray:none;stroke-opacity:0.57788942"
       d="m 297.74775,432.49091 c -12.53734,0 -23.8432,7.08951 -30.99414,14.7168 -7.35101,7.84068 -13.51667,19.99365 -18.35547,31.17578 l -21.73633,-10.5586 -6.61914,13.63086 22.71094,11.03125 -8.60352,19.07032 13.81055,6.23242 8.42773,-18.67969 22.30273,10.83398 6.6211,-13.6289 -23.18164,-11.26172 c 3.0966,-7.78911 6.09033,-14.94551 10.29102,-20.81836 6.39992,-8.94753 15.18573,-15.94141 25.14648,-15.94141 12.30877,0 23.08259,12.68941 22.94726,26.78711 l -0.64062,66.70508 c -0.19063,19.85846 2.7063,34.06612 10.64648,44.07422 13.28461,16.74442 35.916,22.61328 49.2793,22.61328 9.61011,0 18.24094,-3.88425 24.04492,-9.67383 6.46807,-6.45202 9.82877,-20.6955 10.51367,-30.32421 14.87853,-2.34965 21.76345,-7.72289 22.65821,-24.19141 0.30495,-5.61281 -0.21986,-13.58498 -1.76563,-16.02149 l -3.69726,0.125 c 1.01797,9.97199 -0.94728,22.56606 -16.81836,25.01368 0.41398,-24.48763 0.4571,-52.18375 0.25586,-78.12891 -0.12627,-16.2794 -5.42119,-37.56641 -28.39258,-37.56641 -16.46791,0 -28.65821,11.29689 -28.65821,35.08399 0,20.71429 -1.53179,40.13674 0.88282,61.13281 2.84073,24.70151 22.59518,34.86649 40.50195,35.83984 -0.89968,11.79642 -4.56172,22.63868 -19.07812,22.63868 -24.11512,0 -46.74327,-10.86202 -46.25,-47.58789 l 0.98046,-73.125 c 0.23584,-17.55912 -15.68616,-39.19727 -37.23046,-39.19727 z M 386.029,452.1706 c 10.37052,0 13.69726,11.33708 13.69726,19.94336 0,24.84734 -0.12691,55.95113 -0.12695,82.79297 -13.66844,-1.65978 -25.86164,-8.47601 -26.50977,-28.4961 -0.37881,-11.70096 -0.37881,-36.2734 0,-47.9707 0.38887,-12.00799 -0.53575,-26.26953 12.93946,-26.26953 z"
       id="rect9660"
       inkscape:connector-curvature="0" />
  </g>
</svg>
