<?xml version="1.0" encoding="UTF-8" standalone="no"?>
<!-- Created with Inkscape (http://www.inkscape.org/) -->

<svg
   xmlns:dc="http://purl.org/dc/elements/1.1/"
   xmlns:cc="http://creativecommons.org/ns#"
   xmlns:rdf="http://www.w3.org/1999/02/22-rdf-syntax-ns#"
   xmlns:svg="http://www.w3.org/2000/svg"
   xmlns="http://www.w3.org/2000/svg"
   xmlns:sodipodi="http://sodipodi.sourceforge.net/DTD/sodipodi-0.dtd"
   xmlns:inkscape="http://www.inkscape.org/namespaces/inkscape"
   width="300"
   height="300"
   viewBox="0 0 300 300"
   version="1.1"
   id="svg8"
   inkscape:version="0.92.2 (5c3e80d, 2017-08-06)"
   sodipodi:docname="Caprimini.svg"
   inkscape:export-filename="C:\Users\irock\Desktop\Stuff\Images\Homestuck\ezodiac\10 Purple\Derse\Caprimini.png"
   inkscape:export-xdpi="320"
   inkscape:export-ydpi="320">
  <title
     id="title8525">Caprimini</title>
  <defs
     id="defs2" />
  <sodipodi:namedview
     id="base"
     pagecolor="#ffffff"
     bordercolor="#666666"
     borderopacity="1.0"
     inkscape:pageopacity="0.0"
     inkscape:pageshadow="2"
     inkscape:zoom="2.8"
     inkscape:cx="177.30677"
     inkscape:cy="115.50044"
     inkscape:document-units="px"
     inkscape:current-layer="layer1"
     showgrid="false"
     showguides="false"
     units="px"
     inkscape:pagecheckerboard="true"
     inkscape:showpageshadow="false" />
  <metadata
     id="metadata5">
    <rdf:RDF>
      <cc:Work
         rdf:about="">
        <dc:format>image/svg+xml</dc:format>
        <dc:type
           rdf:resource="http://purl.org/dc/dcmitype/StillImage" />
        <dc:title>Caprimini</dc:title>
      </cc:Work>
    </rdf:RDF>
  </metadata>
  <g
     inkscape:label="Layer 1"
     inkscape:groupmode="layer"
     id="layer1"
     transform="translate(181.42857,-513.33929)">
    <path
       style="color:#000000;font-style:normal;font-variant:normal;font-weight:normal;font-stretch:normal;font-size:medium;line-height:normal;font-family:sans-serif;font-variant-ligatures:normal;font-variant-position:normal;font-variant-caps:normal;font-variant-numeric:normal;font-variant-alternates:normal;font-feature-settings:normal;text-indent:0;text-align:start;text-decoration:none;text-decoration-line:none;text-decoration-style:solid;text-decoration-color:#000000;letter-spacing:normal;word-spacing:normal;text-transform:none;writing-mode:lr-tb;direction:ltr;text-orientation:mixed;dominant-baseline:auto;baseline-shift:baseline;text-anchor:start;white-space:normal;shape-padding:0;clip-rule:nonzero;display:inline;overflow:visible;visibility:visible;opacity:1;isolation:auto;mix-blend-mode:normal;color-interpolation:sRGB;color-interpolation-filters:linearRGB;solid-color:#000000;solid-opacity:1;vector-effect:none;fill:#450a80;fill-opacity:1;fill-rule:nonzero;stroke:none;stroke-width:14.81578732;stroke-linecap:butt;stroke-linejoin:miter;stroke-miterlimit:4;stroke-dasharray:none;stroke-dashoffset:0;stroke-opacity:1;color-rendering:auto;image-rendering:auto;shape-rendering:auto;text-rendering:auto;enable-background:accumulate"
       d="m 1.930807,557.00251 c -11.73084,3.00761 -20.80274,13.33721 -20.80274,25.53515 0,19.1922 18.44164,33.51909 26.33985,41.875 -15.51532,0 -128.662117,-6.84147 -128.662117,75.89258 0,77.71452 123.240417,69.08594 141.607847,69.08594 22.58752,0 37.92341,-17.68216 37.92341,-37.74805 0,-20.78224 -17.08995,-37.74414 -37.92383,-37.74414 -20.83388,0 -37.92578,16.9619 -37.92578,37.74414 0,8.3649 2.77389,16.10843 7.4414,22.37891 -20.31783,-0.63467 -96.011717,-2.4242 -96.011717,-54.50586 0,-74.01485 120.997227,-58.67578 136.828127,-58.67578 v -18.83789 c -13.07037,-8.65759 -34.61719,-25.57195 -34.61719,-39.375 0,-5.6413 5.80274,-9.28711 5.80274,-9.28711 z m 18.48242,151.71093 c 12.87368,0 23.10742,10.20162 23.10742,22.92969 0,12.72807 -10.23374,22.93163 -23.10742,22.93164 -12.87369,0 -23.10938,-10.20357 -23.10938,-22.93164 0,-12.72807 10.23569,-22.92969 23.10938,-22.92969 z"
       id="path8518"
       inkscape:connector-curvature="0"
       sodipodi:nodetypes="cscssssscsccsccsssss" />
  </g>
</svg>
