<?xml version="1.0" encoding="UTF-8" standalone="no"?>
<!-- Created with Inkscape (http://www.inkscape.org/) -->

<svg
   xmlns:dc="http://purl.org/dc/elements/1.1/"
   xmlns:cc="http://creativecommons.org/ns#"
   xmlns:rdf="http://www.w3.org/1999/02/22-rdf-syntax-ns#"
   xmlns:svg="http://www.w3.org/2000/svg"
   xmlns="http://www.w3.org/2000/svg"
   xmlns:sodipodi="http://sodipodi.sourceforge.net/DTD/sodipodi-0.dtd"
   xmlns:inkscape="http://www.inkscape.org/namespaces/inkscape"
   width="300"
   height="300"
   viewBox="0 0 300 300"
   version="1.1"
   id="svg8"
   inkscape:version="0.92.2 (5c3e80d, 2017-08-06)"
   sodipodi:docname="Caprist.svg"
   inkscape:export-filename="C:\Users\irock\Desktop\Stuff\Images\Homestuck\ezodiac\10 Purple\Prospit\Caprist.png"
   inkscape:export-xdpi="320"
   inkscape:export-ydpi="320">
  <title
     id="title3681">Caprist</title>
  <defs
     id="defs2" />
  <sodipodi:namedview
     id="base"
     pagecolor="#ffffff"
     bordercolor="#666666"
     borderopacity="1.0"
     inkscape:pageopacity="0.0"
     inkscape:pageshadow="2"
     inkscape:zoom="2.8"
     inkscape:cx="183.15448"
     inkscape:cy="187.00499"
     inkscape:document-units="px"
     inkscape:current-layer="layer1"
     showgrid="false"
     showguides="false"
     units="px"
     inkscape:pagecheckerboard="true"
     inkscape:showpageshadow="false" />
  <metadata
     id="metadata5">
    <rdf:RDF>
      <cc:Work
         rdf:about="">
        <dc:format>image/svg+xml</dc:format>
        <dc:type
           rdf:resource="http://purl.org/dc/dcmitype/StillImage" />
        <dc:title>Caprist</dc:title>
      </cc:Work>
    </rdf:RDF>
  </metadata>
  <g
     inkscape:label="Layer 1"
     inkscape:groupmode="layer"
     id="layer1"
     transform="translate(582.85712,-214.05354)">
    <path
       style="fill:#450a80;fill-opacity:1;stroke:none;stroke-width:1px;stroke-linecap:butt;stroke-linejoin:miter;stroke-opacity:1"
       d="m -489.47796,306.48567 v -14.40999 c 7.81167,-0.0218 23.73858,3.80743 23.73858,22.49122 0,12.53622 -13.92678,24.49619 -28.53681,24.49619 -17.50041,0 -37.0185,-13.56659 -37.0185,-36.69199 0,-25.56925 20.82041,-39.97499 42.66625,-39.97499 29.60447,0 51.48452,25.08691 51.48452,49.33423 0,33.08393 -12.26977,56.7233 -12.26977,86.73523 0,8.78695 0.9205,12.49205 5.47142,12.49205 13.54839,0 35.91155,-21.49963 48.76301,-37.37076 13.7797,-16.8527 27.67722,-43.91006 27.67722,-58.26234 0,-6.62939 -2.17138,-6.9448 -5.05076,-6.9448 -9.18859,0 -25.98098,13.57666 -36.08886,31.32844 -10.20074,17.9149 -16.69162,47.29562 -16.69162,60.47179 0,4.57592 -1.91282,18.48325 5.59647,29.21763 7.64268,10.92505 25.15085,21.03483 39.60786,21.03483 14.3876,0 28.92196,-7.84158 28.92196,-19.68265 0,-8.58464 -5.20287,-19.99647 -17.26188,-19.99647 -4.6482,0 -11.36422,3.58645 -11.36422,8.88479 0,5.57823 6.37521,7.74779 9.58376,5.5252 l -1.3e-4,14.28372 c -1.50505,3.26094 -26.1682,-0.48102 -26.1682,-20.45558 0,-11.67539 12.41318,-22.94399 28.50617,-22.94399 21.6843,0 33.49194,18.77056 33.49194,34.43448 0,23.36293 -26.1225,35.22907 -44.95179,35.22907 -14.08158,0 -30.92646,-7.07952 -44.79152,-17.94687 -10.61983,-8.32378 -17.33286,-17.71298 -17.33286,-43.54616 0,-31.8653 10.71226,-57.23398 18.69314,-72.223 11.41556,-21.43977 33.27405,-38.64125 50.62858,-38.64125 14.64689,0 21.2132,10.65566 21.2132,20.8344 0,25.54212 -27.65292,65.53364 -27.65292,65.53364 0,0 -37.85864,46.71956 -66.25428,46.71956 -12.65522,0 -21.19789,-10.17738 -21.19789,-30.68973 0,-21.28978 12.25445,-61.13676 12.25445,-82.7686 0,-18.08939 -14.33798,-35.3606 -35.95233,-35.3606 -17.35093,0 -25.07261,11.65385 -25.07261,24.12374 0,13.7248 11.04713,22.10606 20.75408,22.10606 5.78714,0 11.54279,-3.99335 11.54279,-10.6832 0,-5.17908 -5.03334,-6.30731 -6.93845,-6.6833 z"
       id="path3679"
       inkscape:connector-curvature="0"
       sodipodi:nodetypes="ccssssssscsssssssssccssssssssscsssssssc" />
  </g>
</svg>
