<?xml version="1.0" encoding="UTF-8" standalone="no"?>
<!-- Created with Inkscape (http://www.inkscape.org/) -->

<svg
   xmlns:dc="http://purl.org/dc/elements/1.1/"
   xmlns:cc="http://creativecommons.org/ns#"
   xmlns:rdf="http://www.w3.org/1999/02/22-rdf-syntax-ns#"
   xmlns:svg="http://www.w3.org/2000/svg"
   xmlns="http://www.w3.org/2000/svg"
   xmlns:sodipodi="http://sodipodi.sourceforge.net/DTD/sodipodi-0.dtd"
   xmlns:inkscape="http://www.inkscape.org/namespaces/inkscape"
   width="300"
   height="300"
   viewBox="0 0 300 300"
   version="1.1"
   id="svg8"
   inkscape:version="0.92.2 (5c3e80d, 2017-08-06)"
   sodipodi:docname="Caprius.svg"
   inkscape:export-filename="C:\Users\irock\Desktop\Stuff\Images\Homestuck\ezodiac\10 Purple\Prospit\Caprirus.png"
   inkscape:export-xdpi="320"
   inkscape:export-ydpi="320">
  <title
     id="title3107">Caprius</title>
  <defs
     id="defs2" />
  <sodipodi:namedview
     id="base"
     pagecolor="#ffffff"
     bordercolor="#666666"
     borderopacity="1.0"
     inkscape:pageopacity="0.0"
     inkscape:pageshadow="2"
     inkscape:zoom="2.8"
     inkscape:cx="180.41331"
     inkscape:cy="172.54533"
     inkscape:document-units="px"
     inkscape:current-layer="layer1"
     showgrid="false"
     showguides="false"
     units="px"
     inkscape:pagecheckerboard="true"
     inkscape:showpageshadow="false" />
  <metadata
     id="metadata5">
    <rdf:RDF>
      <cc:Work
         rdf:about="">
        <dc:format>image/svg+xml</dc:format>
        <dc:type
           rdf:resource="http://purl.org/dc/dcmitype/StillImage" />
        <dc:title>Caprius</dc:title>
      </cc:Work>
    </rdf:RDF>
  </metadata>
  <g
     inkscape:label="Layer 1"
     inkscape:groupmode="layer"
     id="layer1"
     transform="translate(724.28571,-619.05353)">
    <path
       style="fill:#450a80;fill-opacity:1;stroke:none;stroke-width:1px;stroke-linecap:butt;stroke-linejoin:miter;stroke-opacity:1"
       d="m -517.85309,673.77326 c -28.19353,0 -48.17457,19.72691 -55.0293,39.58398 -9.50057,-14.90091 -24.92605,-26.125 -49.63867,-26.125 -30.90824,0 -56.46289,19.77527 -56.46289,53.56836 0,32.02441 29.15052,53.26757 56.88281,53.26757 16.90534,0 34.59961,-8.94843 46.66211,-19.87891 -0.82194,52.10639 -28.23242,56.70508 -48.19531,56.70508 v 16.16407 c 49.21487,0 65.1543,-33.22942 65.1543,-76.09766 0,-8.0851 -0.75919,-18.49087 -3.15235,-29.19922 -1.52783,-17.64711 11.11997,-51.35155 44.77735,-51.35155 16.45946,0 28.29687,8.67872 28.29687,21.10937 0,15.66792 -16.90129,32.82303 -26.23242,47.6543 -21.42998,34.06167 -31.21094,37.93355 -31.21094,65.51172 0,22.40008 16.44672,39.64844 30.91406,39.64844 17.66085,0 33.39139,-27.37696 45.5,-27.37696 v -16.22266 c -20.27057,0 -37.38393,26.82812 -45.45703,26.82812 -9.22638,0 -14.46875,-13.90376 -14.46875,-23.48632 0,-18.40913 14.33883,-34.0266 24.31836,-49.49609 11.66748,-18.08601 34.01953,-40.24154 34.01953,-63.56641 0,-19.90714 -18.55631,-37.24023 -46.67773,-37.24023 z m -104.89844,29.96875 c 27.48516,0 39.36817,18.11429 44.23633,38.32422 -0.4127,22.50499 -26.39709,34.57651 -43.85742,35.03905 -18.0578,0 -40.14267,-12.12185 -40.1543,-36.36719 -0.0131,-27.38071 21.36087,-36.99609 39.77539,-36.99608 z"
       id="path3104"
       inkscape:connector-curvature="0"
       sodipodi:nodetypes="scssscccscsssssccsssssccccc" />
  </g>
</svg>
