<?xml version="1.0" encoding="UTF-8" standalone="no"?>
<!-- Created with Inkscape (http://www.inkscape.org/) -->

<svg
   xmlns:dc="http://purl.org/dc/elements/1.1/"
   xmlns:cc="http://creativecommons.org/ns#"
   xmlns:rdf="http://www.w3.org/1999/02/22-rdf-syntax-ns#"
   xmlns:svg="http://www.w3.org/2000/svg"
   xmlns="http://www.w3.org/2000/svg"
   xmlns:sodipodi="http://sodipodi.sourceforge.net/DTD/sodipodi-0.dtd"
   xmlns:inkscape="http://www.inkscape.org/namespaces/inkscape"
   width="300"
   height="300"
   viewBox="0 0 300 300"
   version="1.1"
   id="svg8"
   inkscape:version="0.92.2 (5c3e80d, 2017-08-06)"
   sodipodi:docname="Caprio.svg"
   inkscape:export-filename="C:\Users\irock\Desktop\Stuff\Images\Homestuck\ezodiac\10 Purple\Derse\Caprio.png"
   inkscape:export-xdpi="320"
   inkscape:export-ydpi="320">
  <title
     id="title7388">Caprio</title>
  <defs
     id="defs2" />
  <sodipodi:namedview
     id="base"
     pagecolor="#ffffff"
     bordercolor="#666666"
     borderopacity="1.0"
     inkscape:pageopacity="0.0"
     inkscape:pageshadow="2"
     inkscape:zoom="1.979899"
     inkscape:cx="187.51938"
     inkscape:cy="116.88156"
     inkscape:document-units="px"
     inkscape:current-layer="layer1"
     showgrid="false"
     showguides="false"
     units="px"
     inkscape:pagecheckerboard="true"
     inkscape:showpageshadow="false" />
  <metadata
     id="metadata5">
    <rdf:RDF>
      <cc:Work
         rdf:about="">
        <dc:format>image/svg+xml</dc:format>
        <dc:type
           rdf:resource="http://purl.org/dc/dcmitype/StillImage" />
        <dc:title>Caprio</dc:title>
      </cc:Work>
    </rdf:RDF>
  </metadata>
  <g
     inkscape:label="Layer 1"
     inkscape:groupmode="layer"
     id="layer1"
     transform="translate(830,-710.48212)">
    <path
       style="fill:#450a80;fill-opacity:1;stroke:none;stroke-width:1px;stroke-linecap:butt;stroke-linejoin:miter;stroke-opacity:1"
       d="m -735.50098,764.71748 c -23.4798,13.02088 -24.84383,33.91049 -24.13476,47.52148 -19.96115,3.30048 -35.31055,19.27909 -35.31055,37.53905 h 13.44531 c 0.12628,-11.22276 11.68903,-24.62109 28.86719,-24.62109 15.32568,0 24.01172,11.84336 24.01172,25.23438 0,23.38439 -17.98242,35.44521 -17.98242,68.10352 0,18.01752 11.43724,37.75194 38.54883,37.75194 23.21287,0 36.05078,-15.93215 36.05078,-36.85155 0,-32.16748 -18.15039,-45.61982 -18.15039,-72.8125 0,-17.68088 14.17401,-36.32031 36.40625,-36.32031 33.24381,0 39.51758,41.98204 39.51758,67.83594 0,44.63495 -23.8839,59.07925 -41.46484,59.28515 v 12.9082 c 13.43646,0.54873 26.77178,-5.19398 36.98242,-16.72266 10.90126,9.35587 28.57576,20.04075 53.66015,9.96484 -15.70245,-2.45931 -31.83095,-8.09664 -43.47461,-25.75195 5.06076,-10.94032 8.09961,-24.52268 8.09961,-40.62891 0,-33.6826 -12.21012,-80.2539 -53.65429,-80.2539 -23.53761,0 -49.51758,18.64507 -49.51758,49.53906 0,28.77101 18.15039,47.39745 18.15039,73.4414 0,18.22078 -12.08595,22.81641 -22.79297,22.81641 -17.4542,0 -24.87305,-12.28827 -24.87305,-23.90625 0,-26.63237 17.98243,-42.93218 17.98243,-67.43555 0,-21.24008 -12.48764,-34.07073 -26.61133,-38.24218 -6.55447,-19.5315 -1.43632,-35.20003 6.24413,-48.39452 z"
       id="path7381"
       inkscape:connector-curvature="0" />
  </g>
</svg>
