<?xml version="1.0" encoding="UTF-8" standalone="no"?>
<!-- Created with Inkscape (http://www.inkscape.org/) -->

<svg
   xmlns:dc="http://purl.org/dc/elements/1.1/"
   xmlns:cc="http://creativecommons.org/ns#"
   xmlns:rdf="http://www.w3.org/1999/02/22-rdf-syntax-ns#"
   xmlns:svg="http://www.w3.org/2000/svg"
   xmlns="http://www.w3.org/2000/svg"
   xmlns:sodipodi="http://sodipodi.sourceforge.net/DTD/sodipodi-0.dtd"
   xmlns:inkscape="http://www.inkscape.org/namespaces/inkscape"
   width="300"
   height="300"
   viewBox="0 0 300 300"
   version="1.1"
   id="svg8"
   inkscape:version="0.92.2 (5c3e80d, 2017-08-06)"
   sodipodi:docname="Caprisci.svg"
   inkscape:export-filename="C:\Users\irock\Desktop\Stuff\Images\Homestuck\ezodiac\10 Purple\Prospit\Caprisci.png"
   inkscape:export-xdpi="320"
   inkscape:export-ydpi="320">
  <title
     id="title4255">Caprisci</title>
  <defs
     id="defs2" />
  <sodipodi:namedview
     id="base"
     pagecolor="#ffffff"
     bordercolor="#666666"
     borderopacity="1.0"
     inkscape:pageopacity="0.0"
     inkscape:pageshadow="2"
     inkscape:zoom="2.8"
     inkscape:cx="88.189826"
     inkscape:cy="160.71612"
     inkscape:document-units="px"
     inkscape:current-layer="layer1"
     showgrid="false"
     showguides="false"
     units="px"
     inkscape:pagecheckerboard="true"
     inkscape:showpageshadow="false" />
  <metadata
     id="metadata5">
    <rdf:RDF>
      <cc:Work
         rdf:about="">
        <dc:format>image/svg+xml</dc:format>
        <dc:type
           rdf:resource="http://purl.org/dc/dcmitype/StillImage" />
        <dc:title>Caprisci</dc:title>
      </cc:Work>
    </rdf:RDF>
  </metadata>
  <g
     inkscape:label="Layer 1"
     inkscape:groupmode="layer"
     id="layer1"
     transform="translate(841.42859,826.66071)">
    <path
       id="path4253"
       d="m -777.14343,-761.93417 -7.14258,0.002 c 6.45077,6.01313 16.91992,18.84823 16.91992,33.39257 0,12.88246 -6.11226,16.19611 -18.5293,32.74414 -10.54906,14.0586 -13.16015,35.08828 -13.16015,45.6211 0,22.74056 11.35861,47.16992 30.48437,47.16992 12.6349,0 21.38681,-11.95597 26.27344,-23.61328 3.32378,-7.92905 4.47243,-15.88696 5.06641,-19.24414 0.75542,-4.26967 9.18812,-19.82031 14.91015,-19.82031 4.20725,0 6.95918,4.72811 8.30664,7.76562 -8.89036,6.78657 -14.65819,17.48196 -14.6582,29.46484 0,20.38656 16.67788,37.06446 37.06445,37.06446 20.38656,0 37.06446,-16.6779 37.06446,-37.06446 0,-11.86221 -5.65242,-22.45983 -14.39063,-29.25585 1.31027,-3.02189 4.09331,-7.97461 8.39844,-7.97461 5.72203,0 14.15473,15.55064 14.91015,19.82031 0.59398,3.35718 1.74263,11.31509 5.06641,19.24414 4.88663,11.65731 13.63854,23.61328 26.27344,23.61328 19.12576,0 30.48437,-24.42936 30.48437,-47.16992 0,-10.53282 -2.61109,-31.5625 -13.16015,-45.6211 -12.41704,-16.54803 -18.5293,-19.86168 -18.5293,-32.74414 0,-14.54434 10.46915,-27.37944 16.91992,-33.39257 l -7.14258,-0.002 c -2.72537,2.11321 -20.26757,18.74506 -20.26757,35.66992 0,16.67045 6.53043,20.56616 17.28711,39.19727 4.98929,8.64173 9.89062,17.91226 9.89062,36.62109 0,12.53308 -4.74773,32.41016 -15.08984,32.41016 -5.00174,0 -9.87162,-7.41524 -12.72657,-13.90234 -2.91142,-6.61542 -3.50613,-12.99314 -5.37695,-19.07813 -3.87669,-12.60926 -13.47041,-29.75586 -29.3418,-29.75586 -11.06264,0 -17.84981,10.25258 -20.94726,16.45313 -2.98106,-0.77947 -6.10561,-1.19727 -9.32227,-1.19727 -3.10256,0 -6.11689,0.39036 -9.00195,1.11719 -3.11669,-6.2088 -9.89533,-16.37305 -20.9082,-16.37305 -15.87139,0 -25.46511,17.1466 -29.3418,29.75586 -1.87082,6.08499 -2.46553,12.46271 -5.37695,19.07813 -2.85495,6.4871 -7.72482,13.90234 -12.72656,13.90234 -10.34211,0 -15.08985,-19.87708 -15.08985,-32.41016 0,-18.70883 4.90133,-27.97936 9.89063,-36.62109 10.75668,-18.63111 17.28711,-22.52682 17.28711,-39.19727 0,-16.92486 -17.54221,-33.55671 -20.26758,-35.66992 z m 85.53515,110.4668 c 12.79426,0 23.01563,10.22135 23.01563,23.01562 0,12.79426 -10.22137,23.01563 -23.01563,23.01563 -12.79427,0 -23.01562,-10.22137 -23.01562,-23.01563 0,-12.79427 10.22135,-23.01562 23.01562,-23.01562 z"
       style="color:#000000;font-style:normal;font-variant:normal;font-weight:normal;font-stretch:normal;font-size:medium;line-height:normal;font-family:sans-serif;font-variant-ligatures:normal;font-variant-position:normal;font-variant-caps:normal;font-variant-numeric:normal;font-variant-alternates:normal;font-feature-settings:normal;text-indent:0;text-align:start;text-decoration:none;text-decoration-line:none;text-decoration-style:solid;text-decoration-color:#000000;letter-spacing:normal;word-spacing:normal;text-transform:none;writing-mode:lr-tb;direction:ltr;text-orientation:mixed;dominant-baseline:auto;baseline-shift:baseline;text-anchor:start;white-space:normal;shape-padding:0;clip-rule:nonzero;display:inline;overflow:visible;visibility:visible;opacity:1;isolation:auto;mix-blend-mode:normal;color-interpolation:sRGB;color-interpolation-filters:linearRGB;solid-color:#000000;solid-opacity:1;vector-effect:none;fill:#450a80;fill-opacity:1;fill-rule:nonzero;stroke:none;stroke-width:14.04836559;stroke-linecap:butt;stroke-linejoin:miter;stroke-miterlimit:4;stroke-dasharray:none;stroke-dashoffset:0;stroke-opacity:1;color-rendering:auto;image-rendering:auto;shape-rendering:auto;text-rendering:auto;enable-background:accumulate"
       inkscape:connector-curvature="0"
       inkscape:export-xdpi="320"
       inkscape:export-ydpi="320" />
  </g>
</svg>
