<?xml version="1.0" encoding="UTF-8" standalone="no"?>
<!-- Created with Inkscape (http://www.inkscape.org/) -->

<svg
   xmlns:dc="http://purl.org/dc/elements/1.1/"
   xmlns:cc="http://creativecommons.org/ns#"
   xmlns:rdf="http://www.w3.org/1999/02/22-rdf-syntax-ns#"
   xmlns:svg="http://www.w3.org/2000/svg"
   xmlns="http://www.w3.org/2000/svg"
   xmlns:sodipodi="http://sodipodi.sourceforge.net/DTD/sodipodi-0.dtd"
   xmlns:inkscape="http://www.inkscape.org/namespaces/inkscape"
   width="300"
   height="300"
   viewBox="0 0 300 300"
   version="1.1"
   id="svg8"
   inkscape:version="0.92.2 (5c3e80d, 2017-08-06)"
   sodipodi:docname="Capricen.svg"
   inkscape:export-filename="C:\Users\irock\Desktop\Stuff\Images\Homestuck\ezodiac\10 Purple\Derse\Capricen.png"
   inkscape:export-xdpi="320"
   inkscape:export-ydpi="320">
  <title
     id="title7957">Capricen</title>
  <defs
     id="defs2" />
  <sodipodi:namedview
     id="base"
     pagecolor="#ffffff"
     bordercolor="#666666"
     borderopacity="1.0"
     inkscape:pageopacity="0.0"
     inkscape:pageshadow="2"
     inkscape:zoom="1.979899"
     inkscape:cx="62.928706"
     inkscape:cy="133.31763"
     inkscape:document-units="px"
     inkscape:current-layer="layer1"
     showgrid="false"
     showguides="false"
     units="px"
     inkscape:pagecheckerboard="true"
     inkscape:showpageshadow="false" />
  <metadata
     id="metadata5">
    <rdf:RDF>
      <cc:Work
         rdf:about="">
        <dc:format>image/svg+xml</dc:format>
        <dc:type
           rdf:resource="http://purl.org/dc/dcmitype/StillImage" />
        <dc:title>Capricen</dc:title>
      </cc:Work>
    </rdf:RDF>
  </metadata>
  <g
     inkscape:label="Layer 1"
     inkscape:groupmode="layer"
     id="layer1"
     transform="translate(644.28571,-401.91071)">
    <path
       style="fill:#450a80;fill-opacity:1;stroke:none;stroke-width:15.23782158;stroke-linecap:butt;stroke-miterlimit:4;stroke-dasharray:none;stroke-opacity:0.49748745"
       d="m -447.3775,452.85212 c -24.38902,0 -31.94532,24.44426 -31.94532,43.94336 0,21.19228 8.46094,53.14446 8.46094,78.79101 0,43.00383 -24.89374,61.36719 -57.07422,61.36719 -34.59378,0 -59.34766,-28.05089 -59.34766,-57.07422 0,-19.56007 9.98782,-43.68945 38.38672,-43.68945 29.58957,0 36.23829,19.35758 36.23829,34.47265 0,8.84885 -2.31421,21.84375 -15.5293,21.84375 -15.45193,0 -16.10088,-12.94242 -16.28906,-15.91015 h -13.89063 c 0,12.95934 7.15229,29.80078 30.55664,29.80078 20.57747,0 29.54883,-16.67282 29.54883,-35.86133 0,-32.61883 -22.51781,-48.36133 -49.75,-48.36133 -39.50695,0 -53.79102,30.949 -53.79102,57.32617 0,34.56942 27.95014,71.46875 74.2461,71.46875 46.53226,0 71.21484,-31.11569 71.21484,-74.625 0,-29.47149 -8.83789,-59.3637 -8.83789,-79.16992 0,-16.39101 5.72252,-30.17969 17.92969,-30.17969 13.73496,0 20.75791,10.93517 23.46094,41.92188 h -26.23828 v 14.01562 h 27.12109 v 35.69336 h 14.01758 v -35.69336 h 22.12109 v -14.01562 h -22.51953 c -1.49862,-25.25708 -8.46935,-56.06445 -38.08984,-56.06445 z"
       id="rect7949"
       inkscape:connector-curvature="0" />
  </g>
</svg>
