<?xml version="1.0" encoding="UTF-8" standalone="no"?>
<!-- Created with Inkscape (http://www.inkscape.org/) -->

<svg
   xmlns:dc="http://purl.org/dc/elements/1.1/"
   xmlns:cc="http://creativecommons.org/ns#"
   xmlns:rdf="http://www.w3.org/1999/02/22-rdf-syntax-ns#"
   xmlns:svg="http://www.w3.org/2000/svg"
   xmlns="http://www.w3.org/2000/svg"
   xmlns:sodipodi="http://sodipodi.sourceforge.net/DTD/sodipodi-0.dtd"
   xmlns:inkscape="http://www.inkscape.org/namespaces/inkscape"
   width="300"
   height="300"
   viewBox="0 0 300 300"
   version="1.1"
   id="svg8"
   inkscape:version="0.92.2 (5c3e80d, 2017-08-06)"
   sodipodi:docname="Capripia.svg"
   inkscape:export-filename="C:\Users\irock\Desktop\Stuff\Images\Homestuck\ezodiac\10 Purple\Derse\Capripia.png"
   inkscape:export-xdpi="320"
   inkscape:export-ydpi="320">
  <title
     id="title5661">Capripia</title>
  <defs
     id="defs2" />
  <sodipodi:namedview
     id="base"
     pagecolor="#ffffff"
     bordercolor="#666666"
     borderopacity="1.0"
     inkscape:pageopacity="0.0"
     inkscape:pageshadow="2"
     inkscape:zoom="1.979899"
     inkscape:cx="111.4086"
     inkscape:cy="196.73676"
     inkscape:document-units="px"
     inkscape:current-layer="layer1"
     showgrid="false"
     showguides="false"
     units="px"
     inkscape:pagecheckerboard="true"
     inkscape:showpageshadow="false" />
  <metadata
     id="metadata5">
    <rdf:RDF>
      <cc:Work
         rdf:about="">
        <dc:format>image/svg+xml</dc:format>
        <dc:type
           rdf:resource="http://purl.org/dc/dcmitype/StillImage" />
        <dc:title>Capripia</dc:title>
      </cc:Work>
    </rdf:RDF>
  </metadata>
  <g
     inkscape:label="Layer 1"
     inkscape:groupmode="layer"
     id="layer1"
     transform="translate(55.714287,-359.05356)">
    <path
       style="fill:#450a80;fill-opacity:1;stroke:none;stroke-width:1px;stroke-linecap:butt;stroke-linejoin:miter;stroke-opacity:1"
       d="m 94.285712,425.79675 c -17.07806,0 -40.2785,10.16903 -45.48633,41.97461 -3.55227,8.08816 -18.192274,20.01562 -33.472654,20.01562 -15.7574895,0 -28.337975,-14.1789 -37.640625,-30.60937 v 28.03125 c 9.2029,10.22575 20.6736915,19.80273 38.400391,19.80273 14.42054,0 25.796666,-8.14839 32.160158,-12.80078 2.59514,26.70939 14.95324,46.47674 31.50781,61.04687 -33.14099,18.09767 -73.8464325,21.9513 -85.8496085,21.39844 v 17.54102 c 10.268829,0.88674 61.3118985,-2.97752 100.3808585,-28.03321 39.068958,25.05569 90.112028,28.91995 100.380858,28.03321 v -17.54102 c -12.00317,0.55286 -52.70862,-3.30077 -85.84961,-21.39844 16.55458,-14.57013 28.91267,-34.33748 31.50781,-61.04687 6.36349,4.65239 17.73962,12.80078 32.16016,12.80078 17.7267,0 29.19749,-9.57698 38.40039,-19.80273 v -28.03125 c -9.30265,16.43047 -21.88313,30.60937 -37.64062,30.60937 -15.28038,0 -29.92039,-11.92745 -33.47266,-20.01562 -5.20783,-31.80558 -28.40827,-41.97461 -45.486328,-41.97461 z m 0,17.05273 c 18.508978,0 31.970368,13.26025 32.009768,38.66016 0.044,28.37081 -13.48314,48.39517 -32.009768,62.41211 -18.52663,-14.01694 -32.05382,-34.0413 -32.00977,-62.41211 0.03941,-25.3999 13.50079,-38.66016 32.00977,-38.66016 z"
       id="path5649"
       inkscape:connector-curvature="0" />
  </g>
</svg>
