<?xml version="1.0" encoding="UTF-8" standalone="no"?>
<!-- Created with Inkscape (http://www.inkscape.org/) -->

<svg
   xmlns:dc="http://purl.org/dc/elements/1.1/"
   xmlns:cc="http://creativecommons.org/ns#"
   xmlns:rdf="http://www.w3.org/1999/02/22-rdf-syntax-ns#"
   xmlns:svg="http://www.w3.org/2000/svg"
   xmlns="http://www.w3.org/2000/svg"
   xmlns:sodipodi="http://sodipodi.sourceforge.net/DTD/sodipodi-0.dtd"
   xmlns:inkscape="http://www.inkscape.org/namespaces/inkscape"
   width="300"
   height="300"
   viewBox="0 0 300 300"
   version="1.1"
   id="svg8"
   inkscape:version="0.92.2 (5c3e80d, 2017-08-06)"
   sodipodi:docname="Caprilo.svg"
   inkscape:export-filename="C:\Users\irock\Desktop\Stuff\Images\Homestuck\ezodiac\10 Purple\Prospit\Caprilo.png"
   inkscape:export-xdpi="320"
   inkscape:export-ydpi="320">
  <title
     id="title1398">Caprilo</title>
  <defs
     id="defs2" />
  <sodipodi:namedview
     id="base"
     pagecolor="#ffffff"
     bordercolor="#666666"
     borderopacity="1.0"
     inkscape:pageopacity="0.0"
     inkscape:pageshadow="2"
     inkscape:zoom="1.979899"
     inkscape:cx="152.34951"
     inkscape:cy="163.2434"
     inkscape:document-units="px"
     inkscape:current-layer="layer1"
     showgrid="false"
     showguides="false"
     units="px"
     inkscape:pagecheckerboard="true"
     inkscape:showpageshadow="false" />
  <metadata
     id="metadata5">
    <rdf:RDF>
      <cc:Work
         rdf:about="">
        <dc:format>image/svg+xml</dc:format>
        <dc:type
           rdf:resource="http://purl.org/dc/dcmitype/StillImage" />
        <dc:title>Caprilo</dc:title>
      </cc:Work>
    </rdf:RDF>
  </metadata>
  <g
     inkscape:label="Layer 1"
     inkscape:groupmode="layer"
     id="layer1"
     transform="translate(424.28571,398.08929)">
    <path
       style="fill:#450a80;fill-opacity:1;stroke:none;stroke-width:1px;stroke-linecap:butt;stroke-linejoin:miter;stroke-opacity:1"
       d="m -226.15974,-333.95199 c -37.86028,0 -67.12508,25.52478 -74.2207,52.45507 -12.22508,3.38007 -22.59228,12.87729 -26.77148,28.78321 -6.57465,25.02295 3.35262,60.29241 46.24609,69.86523 0.0473,0.008 0.0879,0.0149 0.13477,0.0234 -13.36706,5.8468 -29.60677,7.58865 -45.32422,3.45898 -18.24692,-4.79427 -33.38132,-16.05596 -46.05078,-28.67187 l -12.08789,9.63867 c 10.06165,8.82574 28.10846,26.43651 55.07226,33.67383 40.37747,10.83767 85.48814,-15.37881 90,-43.94141 18.31532,-2.49997 33.41797,-16.50521 33.41797,-39.67578 0,-25.87226 -18.56438,-57.45986 -62.48242,-55.81836 -0.0478,0.004 -0.0892,0.008 -0.13672,0.0117 11.44247,-9.0517 26.70611,-14.86328 42.95703,-14.86328 18.86624,0 36.36667,7.04512 51.82617,16.02734 l 9.24219,-12.39449 c -11.97416,-5.97916 -33.77126,-18.57226 -61.82227,-18.57226 z m -39.07031,43.80273 c 26.17406,0 44.21094,17.01349 44.21094,41.22266 0,12.98111 -7.40768,26.40429 -25.81836,26.40429 -19.91668,0 -41.59766,-21.72448 -41.59766,-44.64257 0,-7.2208 2.11333,-14.27665 5.82813,-20.74805 3.57026,-1.64034 12.61848,-2.23633 17.37695,-2.23633 z m -36.66992,25.7793 c 2.118,35.38214 27.68361,51.87277 48.42773,55.37695 -2.09568,5.19668 -5.31212,9.93912 -9.39648,14.08398 -3.86989,0.67922 -12.77273,-1.04468 -17.375,-2.2539 -25.31484,-6.65133 -38.18379,-28.64604 -32.2832,-51.10352 1.67247,-6.36537 5.21948,-12.35281 10.62695,-16.10351 z"
       id="path1389"
       inkscape:connector-curvature="0"
       sodipodi:nodetypes="scsccsccscsccsccssssscscccssc" />
  </g>
</svg>
