<?xml version="1.0" encoding="UTF-8" standalone="no"?>
<!-- Created with Inkscape (http://www.inkscape.org/) -->

<svg
   xmlns:dc="http://purl.org/dc/elements/1.1/"
   xmlns:cc="http://creativecommons.org/ns#"
   xmlns:rdf="http://www.w3.org/1999/02/22-rdf-syntax-ns#"
   xmlns:svg="http://www.w3.org/2000/svg"
   xmlns="http://www.w3.org/2000/svg"
   xmlns:sodipodi="http://sodipodi.sourceforge.net/DTD/sodipodi-0.dtd"
   xmlns:inkscape="http://www.inkscape.org/namespaces/inkscape"
   width="79.375mm"
   height="79.375mm"
   viewBox="0 0 79.375 79.375"
   version="1.1"
   id="svg856"
   inkscape:version="0.92.2 (5c3e80d, 2017-08-06)"
   sodipodi:docname="Tauries.svg"
   inkscape:export-filename="C:\Users\irock\Desktop\Stuff\Images\Homestuck\ezodiac\02 Bronze\Derse\Tauries.png"
   inkscape:export-xdpi="320"
   inkscape:export-ydpi="320">
  <title
     id="title1423">Tauries</title>
  <defs
     id="defs850" />
  <sodipodi:namedview
     id="base"
     pagecolor="#ffffff"
     bordercolor="#666666"
     borderopacity="1.0"
     inkscape:pageopacity="0.0"
     inkscape:pageshadow="2"
     inkscape:zoom="1.979899"
     inkscape:cx="69.476766"
     inkscape:cy="167.91535"
     inkscape:document-units="mm"
     inkscape:current-layer="layer1"
     showgrid="false" />
  <metadata
     id="metadata853">
    <rdf:RDF>
      <cc:Work
         rdf:about="">
        <dc:format>image/svg+xml</dc:format>
        <dc:type
           rdf:resource="http://purl.org/dc/dcmitype/StillImage" />
        <dc:title>Tauries</dc:title>
      </cc:Work>
    </rdf:RDF>
  </metadata>
  <g
     inkscape:label="Layer 1"
     inkscape:groupmode="layer"
     id="layer1"
     transform="translate(-44.223213,-97.050598)">
    <path
       style="color:#000000;font-style:normal;font-variant:normal;font-weight:normal;font-stretch:normal;font-size:medium;line-height:normal;font-family:sans-serif;font-variant-ligatures:normal;font-variant-position:normal;font-variant-caps:normal;font-variant-numeric:normal;font-variant-alternates:normal;font-feature-settings:normal;text-indent:0;text-align:start;text-decoration:none;text-decoration-line:none;text-decoration-style:solid;text-decoration-color:#000000;letter-spacing:normal;word-spacing:normal;text-transform:none;writing-mode:lr-tb;direction:ltr;text-orientation:mixed;dominant-baseline:auto;baseline-shift:baseline;text-anchor:start;white-space:normal;shape-padding:0;clip-rule:nonzero;display:inline;overflow:visible;visibility:visible;opacity:1;isolation:auto;mix-blend-mode:normal;color-interpolation:sRGB;color-interpolation-filters:linearRGB;solid-color:#000000;solid-opacity:1;vector-effect:none;fill:#a15203;fill-opacity:1;fill-rule:nonzero;stroke:none;stroke-width:3.9359417;stroke-linecap:butt;stroke-linejoin:miter;stroke-miterlimit:4;stroke-dasharray:none;stroke-dashoffset:0;stroke-opacity:1;color-rendering:auto;image-rendering:auto;shape-rendering:auto;text-rendering:auto;enable-background:accumulate"
       d="m 62.756192,113.40994 c -9.070376,-0.1026 -9.121275,9.85692 -9.31571,11.33522 h 4.076237 c 0.300935,-3.72681 1.138404,-7.33719 4.944401,-7.2595 1.430679,0.0292 4.20547,0.11032 4.39353,4.30723 0.06416,1.43195 -0.152636,3.48121 -4.452442,8.66665 -2.155613,2.59961 -5.742791,4.4837 -5.42034,9.27644 0.25807,3.83583 3.636231,5.1971 5.770707,5.1971 h 4.25452 c 0.939491,8.49534 8.189368,15.13396 16.94677,15.13396 8.7574,0 16.008598,-6.63862 16.948315,-15.13396 h 4.16719 c 2.13448,0 5.51212,-1.36127 5.77019,-5.1971 0.32245,-4.79274 -3.26422,-6.67683 -5.41983,-9.27644 -4.29981,-5.18544 -4.51664,-7.2347 -4.45244,-8.66665 0.18806,-4.19691 2.96285,-4.27803 4.39353,-4.30723 3.806,-0.0777 4.64347,3.53269 4.9444,7.2595 h 4.07572 c -0.19443,-1.4783 -0.24481,-11.43782 -9.31519,-11.33522 -4.44962,0.0503 -8.009266,2.90771 -8.124049,8.35194 -0.166854,7.91415 6.601979,11.20005 9.557039,16.4791 1.07256,1.97371 -1.37431,2.80293 -2.79518,2.80293 h -2.81998 c -1.006115,-8.42536 -8.222479,-14.98875 -16.929715,-14.98875 -8.707236,0 -15.922297,6.56339 -16.928165,14.98875 h -2.907834 c -1.420869,0 -3.867213,-0.82922 -2.794661,-2.80293 2.955062,-5.27905 9.723895,-8.56495 9.557039,-16.4791 -0.114781,-5.44423 -3.674431,-8.30161 -8.124052,-8.35194 z m 21.197673,16.58296 c 6.581524,0 11.994877,4.77688 12.962516,11.05101 H 70.992898 c 0.967335,-6.27413 6.379443,-11.05101 12.960967,-11.05101 z m -12.980604,14.94018 h 25.962758 c -0.906119,6.3455 -6.350138,11.19828 -12.982154,11.19828 -6.632017,0 -12.074768,-4.85278 -12.980604,-11.19828 z"
       id="path1412"
       inkscape:connector-curvature="0" />
  </g>
</svg>
