<?xml version="1.0" encoding="UTF-8" standalone="no"?>
<!-- Created with Inkscape (http://www.inkscape.org/) -->

<svg
   xmlns:dc="http://purl.org/dc/elements/1.1/"
   xmlns:cc="http://creativecommons.org/ns#"
   xmlns:rdf="http://www.w3.org/1999/02/22-rdf-syntax-ns#"
   xmlns:svg="http://www.w3.org/2000/svg"
   xmlns="http://www.w3.org/2000/svg"
   xmlns:sodipodi="http://sodipodi.sourceforge.net/DTD/sodipodi-0.dtd"
   xmlns:inkscape="http://www.inkscape.org/namespaces/inkscape"
   width="79.375mm"
   height="79.375mm"
   viewBox="0 0 79.375 79.375"
   version="1.1"
   id="svg2030"
   inkscape:version="0.92.2 (5c3e80d, 2017-08-06)"
   sodipodi:docname="Taurlo.svg"
   inkscape:export-filename="C:\Users\irock\Desktop\Stuff\Images\Homestuck\ezodiac\02 Bronze\Prospit\Taurlo.png"
   inkscape:export-xdpi="320"
   inkscape:export-ydpi="320">
  <title
     id="title2607">Taurlo</title>
  <defs
     id="defs2024" />
  <sodipodi:namedview
     id="base"
     pagecolor="#ffffff"
     bordercolor="#666666"
     borderopacity="1.0"
     inkscape:pageopacity="0.0"
     inkscape:pageshadow="2"
     inkscape:zoom="1.979899"
     inkscape:cx="96.019126"
     inkscape:cy="125.38379"
     inkscape:document-units="mm"
     inkscape:current-layer="layer1"
     showgrid="false" />
  <metadata
     id="metadata2027">
    <rdf:RDF>
      <cc:Work
         rdf:about="">
        <dc:format>image/svg+xml</dc:format>
        <dc:type
           rdf:resource="http://purl.org/dc/dcmitype/StillImage" />
        <dc:title>Taurlo</dc:title>
      </cc:Work>
    </rdf:RDF>
  </metadata>
  <g
     inkscape:label="Layer 1"
     inkscape:groupmode="layer"
     id="layer1"
     transform="translate(-4.1577382,-68.324402)">
    <path
       style="color:#000000;font-style:normal;font-variant:normal;font-weight:normal;font-stretch:normal;font-size:medium;line-height:normal;font-family:sans-serif;font-variant-ligatures:normal;font-variant-position:normal;font-variant-caps:normal;font-variant-numeric:normal;font-variant-alternates:normal;font-feature-settings:normal;text-indent:0;text-align:start;text-decoration:none;text-decoration-line:none;text-decoration-style:solid;text-decoration-color:#000000;letter-spacing:normal;word-spacing:normal;text-transform:none;writing-mode:lr-tb;direction:ltr;text-orientation:mixed;dominant-baseline:auto;baseline-shift:baseline;text-anchor:start;white-space:normal;shape-padding:0;clip-rule:nonzero;display:inline;overflow:visible;visibility:visible;opacity:1;isolation:auto;mix-blend-mode:normal;color-interpolation:sRGB;color-interpolation-filters:linearRGB;solid-color:#000000;solid-opacity:1;vector-effect:none;fill:#a15203;fill-opacity:1;fill-rule:nonzero;stroke:none;stroke-width:4.17587376;stroke-linecap:butt;stroke-linejoin:miter;stroke-miterlimit:4;stroke-dasharray:none;stroke-dashoffset:0;stroke-opacity:1;color-rendering:auto;image-rendering:auto;shape-rendering:auto;text-rendering:auto;enable-background:accumulate"
       d="m 33.237876,87.198445 c -2.452359,0 -10.154295,2.197894 -10.222632,11.258748 -0.05202,6.897727 4.096276,9.666607 7.318933,10.779177 0.67351,6.85272 6.514523,12.2344 13.560931,12.2344 6.399802,0 11.802755,-4.44028 13.245702,-10.38903 1.757458,0.99278 3.532849,2.87195 3.59668,6.41924 0.05848,3.24997 -3.044192,7.3825 -6.284888,7.3825 H 23.014727 v 3.94188 h 31.437875 c 2.452359,0 10.154295,-2.1979 10.222632,-11.25875 0.05138,-6.81337 -3.995704,-9.59841 -7.200596,-10.73784 -0.559266,-6.966577 -6.451238,-12.476757 -13.57953,-12.476757 -6.480157,0 -11.938088,4.55414 -13.297898,10.615887 -1.772935,-0.98562 -3.579813,-2.86561 -3.644222,-6.445087 -0.05848,-3.24997 3.044192,-7.38249 6.284888,-7.38249 h 31.437873 v -3.941878 z m 10.657232,11.329028 c 4.603273,0 8.398824,3.215907 9.265065,7.513227 H 34.63004 c 0.86624,-4.29732 4.661794,-7.513227 9.265068,-7.513227 z m -9.22011,11.455627 h 18.440217 c -0.942036,4.19638 -4.688488,7.31221 -9.220107,7.31221 -4.531622,0 -8.278075,-3.11583 -9.22011,-7.31221 z"
       id="path2586"
       inkscape:connector-curvature="0" />
  </g>
</svg>
