<?xml version="1.0" encoding="UTF-8" standalone="no"?>
<!-- Created with Inkscape (http://www.inkscape.org/) -->

<svg
   xmlns:dc="http://purl.org/dc/elements/1.1/"
   xmlns:cc="http://creativecommons.org/ns#"
   xmlns:rdf="http://www.w3.org/1999/02/22-rdf-syntax-ns#"
   xmlns:svg="http://www.w3.org/2000/svg"
   xmlns="http://www.w3.org/2000/svg"
   xmlns:sodipodi="http://sodipodi.sourceforge.net/DTD/sodipodi-0.dtd"
   xmlns:inkscape="http://www.inkscape.org/namespaces/inkscape"
   width="79.375mm"
   height="79.375mm"
   viewBox="0 0 79.375 79.375"
   version="1.1"
   id="svg6143"
   inkscape:version="0.92.2 (5c3e80d, 2017-08-06)"
   sodipodi:docname="Taurcen.svg"
   inkscape:export-filename="C:\Users\irock\Desktop\Stuff\Images\Homestuck\ezodiac\02 Bronze\Derse\Taurcen.png"
   inkscape:export-xdpi="320"
   inkscape:export-ydpi="320">
  <title
     id="title6713">Taurcen</title>
  <defs
     id="defs6137" />
  <sodipodi:namedview
     id="base"
     pagecolor="#ffffff"
     bordercolor="#666666"
     borderopacity="1.0"
     inkscape:pageopacity="0.0"
     inkscape:pageshadow="2"
     inkscape:zoom="1.979899"
     inkscape:cx="139.28248"
     inkscape:cy="145.2848"
     inkscape:document-units="mm"
     inkscape:current-layer="layer1"
     showgrid="false" />
  <metadata
     id="metadata6140">
    <rdf:RDF>
      <cc:Work
         rdf:about="">
        <dc:format>image/svg+xml</dc:format>
        <dc:type
           rdf:resource="http://purl.org/dc/dcmitype/StillImage" />
        <dc:title>Taurcen</dc:title>
      </cc:Work>
    </rdf:RDF>
  </metadata>
  <g
     inkscape:label="Layer 1"
     inkscape:groupmode="layer"
     id="layer1"
     transform="translate(69.925598,-75.127975)">
    <path
       style="color:#000000;font-style:normal;font-variant:normal;font-weight:normal;font-stretch:normal;font-size:medium;line-height:normal;font-family:sans-serif;font-variant-ligatures:normal;font-variant-position:normal;font-variant-caps:normal;font-variant-numeric:normal;font-variant-alternates:normal;font-feature-settings:normal;text-indent:0;text-align:start;text-decoration:none;text-decoration-line:none;text-decoration-style:solid;text-decoration-color:#000000;letter-spacing:normal;word-spacing:normal;text-transform:none;writing-mode:lr-tb;direction:ltr;text-orientation:mixed;dominant-baseline:auto;baseline-shift:baseline;text-anchor:start;white-space:normal;shape-padding:0;clip-rule:nonzero;display:inline;overflow:visible;visibility:visible;opacity:1;isolation:auto;mix-blend-mode:normal;color-interpolation:sRGB;color-interpolation-filters:linearRGB;solid-color:#000000;solid-opacity:1;vector-effect:none;fill:#a15203;fill-opacity:1;fill-rule:nonzero;stroke:none;stroke-width:4.4855361;stroke-linecap:butt;stroke-linejoin:miter;stroke-miterlimit:4;stroke-dasharray:none;stroke-dashoffset:0;stroke-opacity:1;color-rendering:auto;image-rendering:auto;shape-rendering:auto;text-rendering:auto;enable-background:accumulate"
       d="M -9.7419327,95.622077 V 112.8944 h -4.5072193 c -0.900745,-8.04276 -7.74174,-14.338653 -16.005741,-14.338653 -8.264004,0 -15.104996,6.295893 -16.005741,14.338653 h -4.473629 -3.808553 v 3.84214 17.27233 h 3.808553 v -17.27233 h 4.503601 c 1.006123,7.93035 7.792201,14.10457 15.975769,14.10457 8.183568,0 14.969646,-6.17422 15.975769,-14.10457 H -5.93338 V 112.8944 95.622077 Z m -20.5129603,7.420213 c 5.831306,0 10.627233,4.2505 11.485605,9.85211 h -7.250205 a 4.7515644,4.7515644 0 0 0 -4.319117,-2.78588 4.7515644,4.7515644 0 0 0 -4.321183,2.78588 h -7.080705 c 0.858372,-5.60161 5.6543,-9.85211 11.485605,-9.85211 z m -11.444264,13.69425 h 7.001124 a 4.7515644,4.7515644 0 0 0 4.359423,2.87528 4.7515644,4.7515644 0 0 0 4.363559,-2.87528 h 7.164422 c -0.954591,5.48523 -5.694657,9.61802 -11.444264,9.61802 -5.749607,0 -10.489673,-4.13279 -11.444264,-9.61802 z"
       id="path6699"
       inkscape:connector-curvature="0" />
  </g>
</svg>
