<?xml version="1.0" encoding="UTF-8" standalone="no"?>
<!-- Created with Inkscape (http://www.inkscape.org/) -->

<svg
   xmlns:dc="http://purl.org/dc/elements/1.1/"
   xmlns:cc="http://creativecommons.org/ns#"
   xmlns:rdf="http://www.w3.org/1999/02/22-rdf-syntax-ns#"
   xmlns:svg="http://www.w3.org/2000/svg"
   xmlns="http://www.w3.org/2000/svg"
   xmlns:sodipodi="http://sodipodi.sourceforge.net/DTD/sodipodi-0.dtd"
   xmlns:inkscape="http://www.inkscape.org/namespaces/inkscape"
   width="79.375mm"
   height="79.375mm"
   viewBox="0 0 79.375 79.375"
   version="1.1"
   id="svg1431"
   inkscape:version="0.92.2 (5c3e80d, 2017-08-06)"
   sodipodi:docname="Taursces.svg"
   inkscape:export-filename="C:\Users\irock\Desktop\Stuff\Images\Homestuck\ezodiac\02 Bronze\Derse\Taursces.png"
   inkscape:export-xdpi="320"
   inkscape:export-ydpi="320">
  <title
     id="title2007">Taursces</title>
  <defs
     id="defs1425" />
  <sodipodi:namedview
     id="base"
     pagecolor="#ffffff"
     bordercolor="#666666"
     borderopacity="1.0"
     inkscape:pageopacity="0.0"
     inkscape:pageshadow="2"
     inkscape:zoom="1.979899"
     inkscape:cx="169.36636"
     inkscape:cy="123.38136"
     inkscape:document-units="mm"
     inkscape:current-layer="layer1"
     showgrid="false" />
  <metadata
     id="metadata1428">
    <rdf:RDF>
      <cc:Work
         rdf:about="">
        <dc:format>image/svg+xml</dc:format>
        <dc:type
           rdf:resource="http://purl.org/dc/dcmitype/StillImage" />
        <dc:title>Taursces</dc:title>
      </cc:Work>
    </rdf:RDF>
  </metadata>
  <g
     inkscape:label="Layer 1"
     inkscape:groupmode="layer"
     id="layer1"
     transform="translate(61.610119,-83.443451)">
    <path
       style="color:#000000;font-style:normal;font-variant:normal;font-weight:normal;font-stretch:normal;font-size:medium;line-height:normal;font-family:sans-serif;font-variant-ligatures:normal;font-variant-position:normal;font-variant-caps:normal;font-variant-numeric:normal;font-variant-alternates:normal;font-feature-settings:normal;text-indent:0;text-align:start;text-decoration:none;text-decoration-line:none;text-decoration-style:solid;text-decoration-color:#000000;letter-spacing:normal;word-spacing:normal;text-transform:none;writing-mode:lr-tb;direction:ltr;text-orientation:mixed;dominant-baseline:auto;baseline-shift:baseline;text-anchor:start;white-space:normal;shape-padding:0;clip-rule:nonzero;display:inline;overflow:visible;visibility:visible;opacity:1;isolation:auto;mix-blend-mode:normal;color-interpolation:sRGB;color-interpolation-filters:linearRGB;solid-color:#000000;solid-opacity:1;vector-effect:none;fill:#a15203;fill-opacity:1;fill-rule:nonzero;stroke:none;stroke-width:3.97776484;stroke-linecap:butt;stroke-linejoin:miter;stroke-miterlimit:4;stroke-dasharray:none;stroke-dashoffset:0;stroke-opacity:1;color-rendering:auto;image-rendering:auto;shape-rendering:auto;text-rendering:auto;enable-background:accumulate"
       d="m -52.851997,100.07758 5.097363,16.88424 12.617317,-5.89577 4.110345,10.01128 c -1.401162,1.71825 -2.326389,3.83834 -2.566252,6.1557 l -6.99854,-4.42971 -7.313765,5.29167 v 4.96093 l 7.455359,-5.38623 7.4166,4.51083 c 1.368042,4.01539 4.867788,7.0626 9.136912,7.77679 v 6.22701 h 3.931026 v -6.24251 c 4.228507,-0.74002 7.688966,-3.77033 9.048543,-7.75663 l 7.4238357,-4.51549 7.4553603,5.38623 v -4.96093 l -7.3137659,-5.29167 -7.0042251,4.4328 c -0.236672,-2.29329 -1.144418,-4.393 -2.520259,-6.10195 l 0.02532,0.0212 4.1423836,-10.08931 12.6173175,5.89577 5.0978805,-16.88424 H 4.7450038 l -3.2302926,11.38896 -12.2829722,-5.80946 -5.239475,12.75116 c -1.748708,-1.04623 -3.789333,-1.65055 -5.966042,-1.65055 -2.142569,0 -4.152778,0.58642 -5.883362,1.60249 l -5.220353,-12.7031 -12.282971,5.80946 -3.230294,-11.38896 z m 30.878219,20.65662 c 4.278122,0 7.703405,3.42528 7.703405,7.7034 0,0.13248 -0.0038,0.26404 -0.01033,0.39481 l -7.636742,-2.72438 -7.748881,2.76469 c -0.0079,-0.14407 -0.0124,-0.28896 -0.0124,-0.43512 0,-4.27812 3.426833,-7.7034 7.704957,-7.7034 z m 0.05633,9.63972 6.328293,2.39468 c -1.38058,2.041 -3.716549,3.37396 -6.384621,3.37396 -2.653051,0 -4.977825,-1.3183 -6.361887,-3.33985 z"
       id="path1987"
       inkscape:connector-curvature="0" />
  </g>
</svg>
