<?xml version="1.0" encoding="UTF-8" standalone="no"?>
<!-- Created with Inkscape (http://www.inkscape.org/) -->

<svg
   xmlns:dc="http://purl.org/dc/elements/1.1/"
   xmlns:cc="http://creativecommons.org/ns#"
   xmlns:rdf="http://www.w3.org/1999/02/22-rdf-syntax-ns#"
   xmlns:svg="http://www.w3.org/2000/svg"
   xmlns="http://www.w3.org/2000/svg"
   xmlns:sodipodi="http://sodipodi.sourceforge.net/DTD/sodipodi-0.dtd"
   xmlns:inkscape="http://www.inkscape.org/namespaces/inkscape"
   width="79.375mm"
   height="79.375mm"
   viewBox="0 0 79.375 79.375"
   version="1.1"
   id="svg6723"
   inkscape:version="0.92.2 (5c3e80d, 2017-08-06)"
   sodipodi:docname="Taurmini.svg"
   inkscape:export-filename="C:\Users\irock\Desktop\Stuff\Images\Homestuck\ezodiac\02 Bronze\Derse\Taurmini.png"
   inkscape:export-xdpi="320"
   inkscape:export-ydpi="320">
  <title
     id="title7296">Taurmini</title>
  <defs
     id="defs6717" />
  <sodipodi:namedview
     id="base"
     pagecolor="#ffffff"
     bordercolor="#666666"
     borderopacity="1.0"
     inkscape:pageopacity="0.0"
     inkscape:pageshadow="2"
     inkscape:zoom="1.979899"
     inkscape:cx="117.84743"
     inkscape:cy="129.50288"
     inkscape:document-units="mm"
     inkscape:current-layer="layer1"
     showgrid="false" />
  <metadata
     id="metadata6720">
    <rdf:RDF>
      <cc:Work
         rdf:about="">
        <dc:format>image/svg+xml</dc:format>
        <dc:type
           rdf:resource="http://purl.org/dc/dcmitype/StillImage" />
        <dc:title>Taurmini</dc:title>
      </cc:Work>
    </rdf:RDF>
  </metadata>
  <g
     inkscape:label="Layer 1"
     inkscape:groupmode="layer"
     id="layer1"
     transform="translate(69.925598,-66.8125)">
    <path
       style="color:#000000;font-style:normal;font-variant:normal;font-weight:normal;font-stretch:normal;font-size:medium;line-height:normal;font-family:sans-serif;font-variant-ligatures:normal;font-variant-position:normal;font-variant-caps:normal;font-variant-numeric:normal;font-variant-alternates:normal;font-feature-settings:normal;text-indent:0;text-align:start;text-decoration:none;text-decoration-line:none;text-decoration-style:solid;text-decoration-color:#000000;letter-spacing:normal;word-spacing:normal;text-transform:none;writing-mode:lr-tb;direction:ltr;text-orientation:mixed;dominant-baseline:auto;baseline-shift:baseline;text-anchor:start;white-space:normal;shape-padding:0;clip-rule:nonzero;display:inline;overflow:visible;visibility:visible;opacity:1;isolation:auto;mix-blend-mode:normal;color-interpolation:sRGB;color-interpolation-filters:linearRGB;solid-color:#000000;solid-opacity:1;vector-effect:none;fill:#a15203;fill-opacity:1;fill-rule:nonzero;stroke:none;stroke-width:3.93717432;stroke-linecap:butt;stroke-linejoin:miter;stroke-miterlimit:4;stroke-dasharray:none;stroke-dashoffset:0;stroke-opacity:1;color-rendering:auto;image-rendering:auto;shape-rendering:auto;text-rendering:auto;enable-background:accumulate"
       d="m -30.245594,82.304838 c -9.207227,0 -16.723009,7.476362 -16.723009,16.65635 0,1.912482 0.330453,3.748882 0.930177,5.461152 -0.622116,-0.1291 -1.265699,-0.1974 -1.924431,-0.1974 -5.215317,0 -9.491928,4.25467 -9.491928,9.46092 0,5.20626 4.276611,9.45885 9.491928,9.45885 5.215319,0 9.494512,-4.25259 9.494512,-9.45885 0,-0.0802 -0.0042,-0.1595 -0.0062,-0.23926 0.56923,0.3223 1.157272,0.61507 1.765266,0.87023 -1.865064,1.7295 -3.038573,4.19206 -3.038573,6.91741 0,5.20626 4.277127,9.46092 9.492443,9.46092 5.215317,0 9.493993,-4.25466 9.493993,-9.46092 0,-2.7226 -1.171617,-5.183 -3.033921,-6.91224 0.617548,-0.25857 1.214551,-0.5559 1.792139,-0.88367 -0.0022,0.0825 -0.0062,0.16454 -0.0062,0.24753 0,5.20626 4.278678,9.45885 9.493994,9.45885 5.2153175,0 9.4939925,-4.25259 9.4939925,-9.45885 0,-5.20625 -4.278675,-9.46092 -9.4939925,-9.46092 -0.663869,0 -1.312273,0.0694 -1.938899,0.2005 0.600409,-1.71315 0.931209,-3.55062 0.931209,-5.464251 0,-9.179988 -7.515267,-16.65635 -16.722495,-16.65635 z m 0,3.937227 c 7.089058,0 12.784749,5.676624 12.784749,12.719123 0,7.042482 -5.695691,12.718592 -12.784749,12.718592 -7.089057,0 -12.785264,-5.67611 -12.785264,-12.718592 0,-7.0425 5.696207,-12.719123 12.785264,-12.719123 z m -17.717264,21.892715 c 3.111185,0 5.584156,2.46774 5.584156,5.55108 0,3.08335 -2.472971,5.5485 -5.584156,5.5485 -3.111185,0 -5.581571,-2.46515 -5.581571,-5.5485 0,-3.08334 2.470386,-5.55108 5.581571,-5.55108 z m 35.447449,0 c 3.1111845,0 5.5820885,2.46774 5.5820885,5.55108 0,3.08335 -2.470904,5.5485 -5.5820885,5.5485 -3.111186,0 -5.584156,-2.46515 -5.584156,-5.5485 0,-3.08334 2.47297,-5.55108 5.584156,-5.55108 z m -17.740003,7.55096 c 3.111185,0 5.583639,2.46515 5.583639,5.5485 0,3.08334 -2.472454,5.55108 -5.583639,5.55108 -3.111185,0 -5.582087,-2.46774 -5.582087,-5.55108 0,-3.08335 2.470902,-5.5485 5.582087,-5.5485 z"
       id="path7279"
       inkscape:connector-curvature="0" />
  </g>
</svg>
