<?xml version="1.0" encoding="UTF-8" standalone="no"?>
<!-- Created with Inkscape (http://www.inkscape.org/) -->

<svg
   xmlns:dc="http://purl.org/dc/elements/1.1/"
   xmlns:cc="http://creativecommons.org/ns#"
   xmlns:rdf="http://www.w3.org/1999/02/22-rdf-syntax-ns#"
   xmlns:svg="http://www.w3.org/2000/svg"
   xmlns="http://www.w3.org/2000/svg"
   xmlns:sodipodi="http://sodipodi.sourceforge.net/DTD/sodipodi-0.dtd"
   xmlns:inkscape="http://www.inkscape.org/namespaces/inkscape"
   width="79.375mm"
   height="79.375mm"
   viewBox="0 0 79.375 79.375"
   version="1.1"
   id="svg861"
   inkscape:version="0.92.2 (5c3e80d, 2017-08-06)"
   sodipodi:docname="Taurra.svg"
   inkscape:export-filename="C:\Users\irock\Desktop\Stuff\Images\Homestuck\ezodiac\02 Bronze\Prospit\Taurra.png"
   inkscape:export-xdpi="320"
   inkscape:export-ydpi="320">
  <title
     id="title1442">Taurra</title>
  <defs
     id="defs855" />
  <sodipodi:namedview
     id="base"
     pagecolor="#ffffff"
     bordercolor="#666666"
     borderopacity="1.0"
     inkscape:pageopacity="0.0"
     inkscape:pageshadow="2"
     inkscape:zoom="1.979899"
     inkscape:cx="154.24468"
     inkscape:cy="148.57144"
     inkscape:document-units="mm"
     inkscape:current-layer="layer1"
     showgrid="false" />
  <metadata
     id="metadata858">
    <rdf:RDF>
      <cc:Work
         rdf:about="">
        <dc:format>image/svg+xml</dc:format>
        <dc:type
           rdf:resource="http://purl.org/dc/dcmitype/StillImage" />
        <dc:title>Taurra</dc:title>
      </cc:Work>
    </rdf:RDF>
  </metadata>
  <g
     inkscape:label="Layer 1"
     inkscape:groupmode="layer"
     id="layer1"
     transform="translate(-45.735119,-93.270836)">
    <path
       style="color:#000000;font-style:normal;font-variant:normal;font-weight:normal;font-stretch:normal;font-size:medium;line-height:normal;font-family:sans-serif;font-variant-ligatures:normal;font-variant-position:normal;font-variant-caps:normal;font-variant-numeric:normal;font-variant-alternates:normal;font-feature-settings:normal;text-indent:0;text-align:start;text-decoration:none;text-decoration-line:none;text-decoration-style:solid;text-decoration-color:#000000;letter-spacing:normal;word-spacing:normal;text-transform:none;writing-mode:lr-tb;direction:ltr;text-orientation:mixed;dominant-baseline:auto;baseline-shift:baseline;text-anchor:start;white-space:normal;shape-padding:0;clip-rule:nonzero;display:inline;overflow:visible;visibility:visible;opacity:1;isolation:auto;mix-blend-mode:normal;color-interpolation:sRGB;color-interpolation-filters:linearRGB;solid-color:#000000;solid-opacity:1;vector-effect:none;fill:#a15203;fill-opacity:1;fill-rule:nonzero;stroke:none;stroke-width:4.00969696;stroke-linecap:butt;stroke-linejoin:miter;stroke-miterlimit:4;stroke-dasharray:none;stroke-dashoffset:0;stroke-opacity:1;color-rendering:auto;image-rendering:auto;shape-rendering:auto;text-rendering:auto;enable-background:accumulate"
       d="m 57.2153,116.83892 c -0.03137,0 -0.06221,0.002 -0.09354,0.003 v 4.00957 c 0.03132,-2.3e-4 0.06216,-0.003 0.09354,-0.003 6.391518,0 11.589389,4.89624 12.071097,11.15953 -0.01844,0.31458 -0.02997,0.63073 -0.02997,0.94981 0,0.31905 0.01153,0.63525 0.02997,0.94981 -0.481708,6.2633 -5.679579,11.15953 -12.071097,11.15953 -0.03137,0 -0.06222,-0.002 -0.09354,-0.002 v 4.00958 c 0.03133,1.8e-4 0.06217,0.003 0.09354,0.003 6.040325,0 11.320364,-3.35314 14.080794,-8.29149 2.759885,4.93826 8.038918,8.29149 14.079244,8.29149 6.144964,0 11.503613,-3.46963 14.22187,-8.54883 2.704332,5.05197 8.021562,8.51048 14.126272,8.54625 v -4.0101 c -6.66724,-0.051 -12.01425,-5.42698 -12.01425,-12.10675 0,-6.67977 5.34701,-12.05579 12.01425,-12.10676 v -4.00957 c -6.10471,0.0358 -11.42194,3.49391 -14.126272,8.54573 -2.718258,-5.0792 -8.076906,-8.54831 -14.22187,-8.54831 -6.040326,0 -11.319359,3.35271 -14.079244,8.29096 -2.76043,-4.93818 -8.040469,-8.29096 -14.080794,-8.29096 z m 28.160038,4.00957 c 6.711668,0 12.10934,5.39768 12.10934,12.10934 0,6.71167 -5.397672,12.10934 -12.10934,12.10934 -6.392846,0 -11.589877,-4.89798 -12.069548,-11.16315 0.0183,-0.31337 0.03049,-0.62836 0.03049,-0.94619 0,-0.31783 -0.01218,-0.63282 -0.03049,-0.9462 0.479801,-6.26503 5.676793,-11.16314 12.069548,-11.16314 z"
       id="path1417"
       inkscape:connector-curvature="0" />
    <ellipse
       r="14.114399"
       cy="132.95833"
       cx="85.328125"
       id="ellipse1419"
       style="fill:none;fill-opacity:1;stroke:#00ffff;stroke-width:4.00969696;stroke-linecap:butt;stroke-miterlimit:4;stroke-dasharray:none;stroke-opacity:0.47738695" />
  </g>
</svg>
