<?xml version="1.0" encoding="UTF-8" standalone="no"?>
<!-- Created with Inkscape (http://www.inkscape.org/) -->

<svg
   xmlns:dc="http://purl.org/dc/elements/1.1/"
   xmlns:cc="http://creativecommons.org/ns#"
   xmlns:rdf="http://www.w3.org/1999/02/22-rdf-syntax-ns#"
   xmlns:svg="http://www.w3.org/2000/svg"
   xmlns="http://www.w3.org/2000/svg"
   xmlns:sodipodi="http://sodipodi.sourceforge.net/DTD/sodipodi-0.dtd"
   xmlns:inkscape="http://www.inkscape.org/namespaces/inkscape"
   width="79.375mm"
   height="79.375mm"
   viewBox="0 0 79.375 79.375"
   version="1.1"
   id="svg3770"
   inkscape:version="0.92.2 (5c3e80d, 2017-08-06)"
   sodipodi:docname="Taurpia.svg"
   inkscape:export-filename="C:\Users\irock\Desktop\Stuff\Images\Homestuck\ezodiac\02 Bronze\Derse\Taurpia.png"
   inkscape:export-xdpi="320"
   inkscape:export-ydpi="320">
  <title
     id="title4357">Taurpia</title>
  <defs
     id="defs3764" />
  <sodipodi:namedview
     id="base"
     pagecolor="#ffffff"
     bordercolor="#666666"
     borderopacity="1.0"
     inkscape:pageopacity="0.0"
     inkscape:pageshadow="2"
     inkscape:zoom="1.4"
     inkscape:cx="27.729528"
     inkscape:cy="150.40046"
     inkscape:document-units="mm"
     inkscape:current-layer="layer1"
     showgrid="false" />
  <metadata
     id="metadata3767">
    <rdf:RDF>
      <cc:Work
         rdf:about="">
        <dc:format>image/svg+xml</dc:format>
        <dc:type
           rdf:resource="http://purl.org/dc/dcmitype/StillImage" />
        <dc:title>Taurpia</dc:title>
      </cc:Work>
    </rdf:RDF>
  </metadata>
  <g
     inkscape:label="Layer 1"
     inkscape:groupmode="layer"
     id="layer1"
     transform="translate(32.88393,-211.1994)">
    <path
       style="color:#000000;font-style:normal;font-variant:normal;font-weight:normal;font-stretch:normal;font-size:medium;line-height:normal;font-family:sans-serif;font-variant-ligatures:normal;font-variant-position:normal;font-variant-caps:normal;font-variant-numeric:normal;font-variant-alternates:normal;font-feature-settings:normal;text-indent:0;text-align:start;text-decoration:none;text-decoration-line:none;text-decoration-style:solid;text-decoration-color:#000000;letter-spacing:normal;word-spacing:normal;text-transform:none;writing-mode:lr-tb;direction:ltr;text-orientation:mixed;dominant-baseline:auto;baseline-shift:baseline;text-anchor:start;white-space:normal;shape-padding:0;clip-rule:nonzero;display:inline;overflow:visible;visibility:visible;opacity:1;isolation:auto;mix-blend-mode:normal;color-interpolation:sRGB;color-interpolation-filters:linearRGB;solid-color:#000000;solid-opacity:1;vector-effect:none;fill:#a15203;fill-opacity:1;fill-rule:nonzero;stroke:none;stroke-width:3.85429907;stroke-linecap:butt;stroke-linejoin:miter;stroke-miterlimit:4;stroke-dasharray:none;stroke-dashoffset:0;stroke-opacity:1;color-rendering:auto;image-rendering:auto;shape-rendering:auto;text-rendering:auto;enable-background:accumulate"
       d="m -13.472969,228.83424 c -5.488191,0 -10.347959,2.7719 -13.240536,6.98355 h 5.054989 c 2.158312,-1.94637 5.026265,-3.13004 8.185547,-3.13004 3.5291699,0 6.6904321,1.48074 8.9090176,3.84835 -2.8986543,2.89197 -4.6963552,6.88084 -4.6963552,11.27683 0,8.8027 7.2062482,15.97266 16.0336477,15.97266 8.8273939,0 16.0331279,-7.16996 16.0331279,-15.97266 0,-4.37991 -1.785339,-8.35489 -4.665347,-11.24428 2.220023,-2.38648 5.393774,-3.8809 8.93899,-3.8809 3.159278,0 6.027234,1.18367 8.185546,3.13004 h 5.054987 c -2.892576,-4.21165 -7.752347,-6.98355 -13.240533,-6.98355 -4.743694,0 -9.015254,2.07283 -11.954828,5.35471 -2.43551,-1.48874 -5.2961219,-2.34869 -8.3519429,-2.34869 -3.0394883,0 -5.88669071,0.85032 -8.3137057,2.3244 -2.9388725,-3.26768 -7.2007316,-5.33042 -11.9326044,-5.33042 z m 20.2463101,6.86108 c 6.7533999,0 12.1775509,5.40699 12.1775509,12.11761 0,6.71063 -5.424151,12.11709 -12.1775509,12.11709 -6.7534022,0 -12.1801359,-5.40646 -12.1801359,-12.11709 0,-6.71062 5.4267337,-12.11761 12.1801359,-12.11761 z M -18.164673,250.8422 c 1.415308,12.42136 12.0585156,22.09736 24.9219936,22.09736 12.8634884,0 23.5090494,-9.67599 24.9245754,-22.09736 h -3.995105 c -1.383234,10.24854 -10.200921,18.13068 -20.9294704,18.13068 -10.7285498,0 -19.5444406,-7.88214 -20.9274046,-18.13068 z"
       id="path4326"
       inkscape:connector-curvature="0" />
  </g>
</svg>
