<?xml version="1.0" encoding="UTF-8" standalone="no"?>
<!-- Created with Inkscape (http://www.inkscape.org/) -->

<svg
   xmlns:dc="http://purl.org/dc/elements/1.1/"
   xmlns:cc="http://creativecommons.org/ns#"
   xmlns:rdf="http://www.w3.org/1999/02/22-rdf-syntax-ns#"
   xmlns:svg="http://www.w3.org/2000/svg"
   xmlns="http://www.w3.org/2000/svg"
   xmlns:sodipodi="http://sodipodi.sourceforge.net/DTD/sodipodi-0.dtd"
   xmlns:inkscape="http://www.inkscape.org/namespaces/inkscape"
   width="79.375mm"
   height="79.375mm"
   viewBox="0 0 79.375 79.375"
   version="1.1"
   id="svg2015"
   inkscape:version="0.92.2 (5c3e80d, 2017-08-06)"
   sodipodi:docname="Taurrius.svg"
   inkscape:export-filename="C:\Users\irock\Desktop\Stuff\Images\Homestuck\ezodiac\02 Bronze\Derse\Taurrius.png"
   inkscape:export-xdpi="320"
   inkscape:export-ydpi="320">
  <title
     id="title2582">Taurrius</title>
  <defs
     id="defs2009" />
  <sodipodi:namedview
     id="base"
     pagecolor="#ffffff"
     bordercolor="#666666"
     borderopacity="1.0"
     inkscape:pageopacity="0.0"
     inkscape:pageshadow="2"
     inkscape:zoom="1.979899"
     inkscape:cx="57.108746"
     inkscape:cy="142.7619"
     inkscape:document-units="mm"
     inkscape:current-layer="layer1"
     showgrid="false" />
  <metadata
     id="metadata2012">
    <rdf:RDF>
      <cc:Work
         rdf:about="">
        <dc:format>image/svg+xml</dc:format>
        <dc:type
           rdf:resource="http://purl.org/dc/dcmitype/StillImage" />
        <dc:title>Taurrius</dc:title>
      </cc:Work>
    </rdf:RDF>
  </metadata>
  <g
     inkscape:label="Layer 1"
     inkscape:groupmode="layer"
     id="layer1"
     transform="translate(7.9375,-155.25893)">
    <path
       style="color:#000000;font-style:normal;font-variant:normal;font-weight:normal;font-stretch:normal;font-size:medium;line-height:normal;font-family:sans-serif;font-variant-ligatures:normal;font-variant-position:normal;font-variant-caps:normal;font-variant-numeric:normal;font-variant-alternates:normal;font-feature-settings:normal;text-indent:0;text-align:start;text-decoration:none;text-decoration-line:none;text-decoration-style:solid;text-decoration-color:#000000;letter-spacing:normal;word-spacing:normal;text-transform:none;writing-mode:lr-tb;direction:ltr;text-orientation:mixed;dominant-baseline:auto;baseline-shift:baseline;text-anchor:start;white-space:normal;shape-padding:0;clip-rule:nonzero;display:inline;overflow:visible;visibility:visible;opacity:1;isolation:auto;mix-blend-mode:normal;color-interpolation:sRGB;color-interpolation-filters:linearRGB;solid-color:#000000;solid-opacity:1;vector-effect:none;fill:#a15203;fill-opacity:1;fill-rule:nonzero;stroke:none;stroke-width:3.90293598;stroke-linecap:butt;stroke-linejoin:miter;stroke-miterlimit:4;stroke-dasharray:none;stroke-dashoffset:0;stroke-opacity:1;color-rendering:auto;image-rendering:auto;shape-rendering:auto;text-rendering:auto;enable-background:accumulate"
       d="M 16.134416,171.65069 7.915796,186.6813 5.1567914,180.71215 H 0.9472293 l 6.3670531,15.37891 9.9089566,-18.21491 c 1.421381,1.99574 2.909885,4.0503 4.345987,6.36189 -5.003643,3.32236 -8.313704,9.01843 -8.313704,15.46882 0,10.2097 8.28732,18.5353 18.46864,18.5353 10.18132,0 18.470708,-8.3256 18.470708,-18.5353 0,-6.43497 -3.294407,-12.11982 -8.278566,-15.44557 1.440553,-2.32107 2.934835,-4.38272 4.360976,-6.38514 l 9.908436,18.21491 6.367055,-15.37891 h -4.209563 l -2.759003,5.96915 -8.21862,-15.03061 c -3.565559,2.36249 -6.629651,6.3375 -9.119857,10.71821 -2.029457,-0.77242 -4.226578,-1.19889 -6.521566,-1.19889 -2.278734,0 -4.461364,0.4198 -6.478675,1.18184 -2.488491,-4.37406 -5.550079,-8.34169 -9.111071,-10.70116 z m 15.589746,13.42347 c 1.644113,0 3.221826,0.27508 4.694288,0.77566 -2.166107,4.47141 -3.747521,9.03476 -4.668449,12.51655 -0.921927,-3.48556 -2.505961,-8.05497 -4.675685,-12.53102 1.459834,-0.49111 3.022026,-0.76119 4.649846,-0.76119 z m -8.21862,2.53938 c 3.181956,6.06203 5.767721,14.05854 6.214092,26.58598 -7.109018,-0.97627 -12.559958,-7.0683 -12.559958,-14.49266 0,-5.03847 2.510813,-9.46349 6.345866,-12.09332 z m 16.474964,0.0269 c 3.814315,2.63294 6.310209,7.04455 6.310209,12.06645 0,7.40626 -5.42595,13.4877 -12.50983,14.48645 0.446352,-12.50542 3.024618,-20.49511 6.199621,-26.5529 z"
       id="path2571"
       inkscape:connector-curvature="0" />
  </g>
</svg>
