<?xml version="1.0" encoding="UTF-8" standalone="no"?>
<!-- Created with Inkscape (http://www.inkscape.org/) -->

<svg
   xmlns:dc="http://purl.org/dc/elements/1.1/"
   xmlns:cc="http://creativecommons.org/ns#"
   xmlns:rdf="http://www.w3.org/1999/02/22-rdf-syntax-ns#"
   xmlns:svg="http://www.w3.org/2000/svg"
   xmlns="http://www.w3.org/2000/svg"
   xmlns:sodipodi="http://sodipodi.sourceforge.net/DTD/sodipodi-0.dtd"
   xmlns:inkscape="http://www.inkscape.org/namespaces/inkscape"
   width="79.375mm"
   height="79.375mm"
   viewBox="0 0 79.375 79.375"
   version="1.1"
   id="svg8"
   inkscape:version="0.92.2 (5c3e80d, 2017-08-06)"
   sodipodi:docname="Taurun.svg"
   inkscape:export-filename="C:\Users\irock\Desktop\Stuff\Images\Homestuck\ezodiac\02 Bronze\Derse\Taurun.png"
   inkscape:export-xdpi="320"
   inkscape:export-ydpi="320">
  <title
     id="title848">Taurun</title>
  <defs
     id="defs2" />
  <sodipodi:namedview
     id="base"
     pagecolor="#ffffff"
     bordercolor="#666666"
     borderopacity="1.0"
     inkscape:pageopacity="0.0"
     inkscape:pageshadow="2"
     inkscape:zoom="1.4"
     inkscape:cx="32.419186"
     inkscape:cy="146.13625"
     inkscape:document-units="mm"
     inkscape:current-layer="layer1"
     showgrid="false"
     showguides="false" />
  <metadata
     id="metadata5">
    <rdf:RDF>
      <cc:Work
         rdf:about="">
        <dc:format>image/svg+xml</dc:format>
        <dc:type
           rdf:resource="http://purl.org/dc/dcmitype/StillImage" />
        <dc:title>Taurun</dc:title>
      </cc:Work>
    </rdf:RDF>
  </metadata>
  <g
     inkscape:label="Layer 1"
     inkscape:groupmode="layer"
     id="layer1"
     transform="translate(44.979168,-145.43155)">
    <path
       style="color:#000000;font-style:normal;font-variant:normal;font-weight:normal;font-stretch:normal;font-size:medium;line-height:normal;font-family:sans-serif;font-variant-ligatures:normal;font-variant-position:normal;font-variant-caps:normal;font-variant-numeric:normal;font-variant-alternates:normal;font-feature-settings:normal;text-indent:0;text-align:start;text-decoration:none;text-decoration-line:none;text-decoration-style:solid;text-decoration-color:#000000;letter-spacing:normal;word-spacing:normal;text-transform:none;writing-mode:lr-tb;direction:ltr;text-orientation:mixed;dominant-baseline:auto;baseline-shift:baseline;text-anchor:start;white-space:normal;shape-padding:0;clip-rule:nonzero;display:inline;overflow:visible;visibility:visible;opacity:1;isolation:auto;mix-blend-mode:normal;color-interpolation:sRGB;color-interpolation-filters:linearRGB;solid-color:#000000;solid-opacity:1;vector-effect:none;fill:#a15203;fill-opacity:1;fill-rule:nonzero;stroke:none;stroke-width:3.86397505;stroke-linecap:butt;stroke-linejoin:miter;stroke-miterlimit:4;stroke-dasharray:none;stroke-dashoffset:0;stroke-opacity:1;color-rendering:auto;image-rendering:auto;shape-rendering:auto;text-rendering:auto;enable-background:accumulate"
       d="m -20.542417,158.49096 -8.051705,8.42688 v 3.04012 l 11.77344,9.40563 c -4.137234,3.34613 -6.789765,8.44417 -6.789765,14.14746 0,10.05458 8.238785,18.23609 18.3358335,18.23609 10.097045,0 18.3358305,-8.18151 18.3358305,-18.23609 0,-5.71105 -2.659914,-10.81499 -6.8068215,-14.1609 l 11.7563905,-9.39219 v -3.04012 L 9.9595969,158.49096 H 4.4136815 l 9.3544685,9.76323 -11.0246505,8.66717 v 4.64313 c 3.8816886,2.56821 6.4290652,6.95344 6.4290652,11.94656 0,7.93998 -6.4389612,14.34744 -14.4471782,14.34744 -8.0082215,0 -14.4471815,-6.40746 -14.4471815,-14.34744 0,-4.97934 2.53289,-9.35477 6.396508,-11.92589 v -4.66276 l -11.025683,-8.66821 9.35395,-9.76323 z m 15.2678035,28.75794 c -3.467648,0 -6.3629205,2.80207 -6.3629205,6.26215 0,3.46008 2.8952725,6.2637 6.3629205,6.2637 3.467645,0 6.363435,-2.80362 6.363435,-6.2637 0,-3.46008 -2.8957901,-6.26215 -6.363435,-6.26215 z m 0,3.86333 c 1.426633,0 2.498037,1.07532 2.498037,2.39882 0,1.3235 -1.071404,2.3983 -2.498037,2.3983 -1.426636,0 -2.500106,-1.0748 -2.500106,-2.3983 0,-1.3235 1.07347,-2.39882 2.500106,-2.39882 z"
       id="path826"
       inkscape:connector-curvature="0" />
  </g>
</svg>
