<?xml version="1.0" encoding="UTF-8" standalone="no"?>
<!-- Created with Inkscape (http://www.inkscape.org/) -->

<svg
   xmlns:dc="http://purl.org/dc/elements/1.1/"
   xmlns:cc="http://creativecommons.org/ns#"
   xmlns:rdf="http://www.w3.org/1999/02/22-rdf-syntax-ns#"
   xmlns:svg="http://www.w3.org/2000/svg"
   xmlns="http://www.w3.org/2000/svg"
   xmlns:sodipodi="http://sodipodi.sourceforge.net/DTD/sodipodi-0.dtd"
   xmlns:inkscape="http://www.inkscape.org/namespaces/inkscape"
   width="79.375mm"
   height="79.375mm"
   viewBox="0 0 79.375 79.375"
   version="1.1"
   id="svg4365"
   inkscape:version="0.92.2 (5c3e80d, 2017-08-06)"
   sodipodi:docname="Taurza.svg"
   inkscape:export-filename="C:\Users\irock\Desktop\Stuff\Images\Homestuck\ezodiac\02 Bronze\Derse\Taurza.png"
   inkscape:export-xdpi="320"
   inkscape:export-ydpi="320">
  <title
     id="title4956">Taurza</title>
  <defs
     id="defs4359" />
  <sodipodi:namedview
     id="base"
     pagecolor="#ffffff"
     bordercolor="#666666"
     borderopacity="1.0"
     inkscape:pageopacity="0.0"
     inkscape:pageshadow="2"
     inkscape:zoom="1.979899"
     inkscape:cx="58.218156"
     inkscape:cy="167.65479"
     inkscape:document-units="mm"
     inkscape:current-layer="layer1"
     showgrid="false" />
  <metadata
     id="metadata4362">
    <rdf:RDF>
      <cc:Work
         rdf:about="">
        <dc:format>image/svg+xml</dc:format>
        <dc:type
           rdf:resource="http://purl.org/dc/dcmitype/StillImage" />
        <dc:title>Taurza</dc:title>
      </cc:Work>
    </rdf:RDF>
  </metadata>
  <g
     inkscape:label="Layer 1"
     inkscape:groupmode="layer"
     id="layer1"
     transform="translate(36.663689,-49.425594)">
    <path
       style="color:#000000;font-style:normal;font-variant:normal;font-weight:normal;font-stretch:normal;font-size:medium;line-height:normal;font-family:sans-serif;font-variant-ligatures:normal;font-variant-position:normal;font-variant-caps:normal;font-variant-numeric:normal;font-variant-alternates:normal;font-feature-settings:normal;text-indent:0;text-align:start;text-decoration:none;text-decoration-line:none;text-decoration-style:solid;text-decoration-color:#000000;letter-spacing:normal;word-spacing:normal;text-transform:none;writing-mode:lr-tb;direction:ltr;text-orientation:mixed;dominant-baseline:auto;baseline-shift:baseline;text-anchor:start;white-space:normal;shape-padding:0;clip-rule:nonzero;display:inline;overflow:visible;visibility:visible;opacity:1;isolation:auto;mix-blend-mode:normal;color-interpolation:sRGB;color-interpolation-filters:linearRGB;solid-color:#000000;solid-opacity:1;vector-effect:none;fill:#a15203;fill-opacity:1;fill-rule:nonzero;stroke:none;stroke-width:3.89533257;stroke-linecap:butt;stroke-linejoin:miter;stroke-miterlimit:4;stroke-dasharray:none;stroke-dashoffset:0;stroke-opacity:1;color-rendering:auto;image-rendering:auto;shape-rendering:auto;text-rendering:auto;enable-background:accumulate"
       d="m -28.544287,70.273677 v 4.376477 l 7.09104,3.474724 v 3.507795 l -7.09104,-3.541384 v 4.510317 l 7.09104,3.373954 v 3.675229 l -7.09104,-3.608049 v 4.509802 l 17.74362,8.520932 c 2.4051623,5.230276 7.6933946,8.879036 13.8100082,8.879036 6.1098165,0 11.3938348,-3.64053 13.8032908,-8.861466 L 34.591909,90.552542 V 86.04274 l -7.090523,3.608049 V 85.97556 l 7.090523,-3.373954 v -4.510317 l -7.090523,3.541384 v -3.507795 l 7.090523,-3.474724 v -4.376477 l -11.059272,5.34541 v 15.902388 l -5.388819,2.54713 c 0.03732,-0.432691 0.06046,-0.869468 0.06046,-1.311547 0,-8.368697 -6.826242,-15.193388 -15.1949388,-15.193388 -8.3686966,0 -15.1933872,6.824691 -15.1933862,15.193388 0,0.437515 0.02288,0.869783 0.05943,1.298112 l -5.35988,-2.533695 V 75.619087 Z M 3.0093412,81.458524 c 6.2635024,0 11.3006018,5.035032 11.3006018,11.298534 0,6.263506 -5.0370994,11.299052 -11.3006018,11.299052 -6.2635023,0 -11.2990522,-5.035546 -11.2990522,-11.299052 0,-6.263502 5.0355499,-11.298534 11.2990522,-11.298534 z"
       id="path4921"
       inkscape:connector-curvature="0" />
  </g>
</svg>
