<?xml version="1.0" encoding="UTF-8" standalone="no"?>
<!-- Created with Inkscape (http://www.inkscape.org/) -->

<svg
   xmlns:dc="http://purl.org/dc/elements/1.1/"
   xmlns:cc="http://creativecommons.org/ns#"
   xmlns:rdf="http://www.w3.org/1999/02/22-rdf-syntax-ns#"
   xmlns:svg="http://www.w3.org/2000/svg"
   xmlns="http://www.w3.org/2000/svg"
   xmlns:sodipodi="http://sodipodi.sourceforge.net/DTD/sodipodi-0.dtd"
   xmlns:inkscape="http://www.inkscape.org/namespaces/inkscape"
   width="79.375mm"
   height="79.375mm"
   viewBox="0 0 79.375 79.375"
   version="1.1"
   id="svg841"
   inkscape:version="0.92.2 (5c3e80d, 2017-08-06)"
   sodipodi:docname="Lecen.svg"
   inkscape:export-filename="C:\Users\irock\Desktop\Stuff\Images\Homestuck\ezodiac\05 Olive\Derse\Lecen.png"
   inkscape:export-xdpi="320"
   inkscape:export-ydpi="320">
  <title
     id="title1408">Lecen</title>
  <defs
     id="defs835" />
  <sodipodi:namedview
     id="base"
     pagecolor="#ffffff"
     bordercolor="#666666"
     borderopacity="1.0"
     inkscape:pageopacity="0.0"
     inkscape:pageshadow="2"
     inkscape:zoom="1.979899"
     inkscape:cx="69.072776"
     inkscape:cy="132.04979"
     inkscape:document-units="mm"
     inkscape:current-layer="layer1"
     showgrid="false" />
  <metadata
     id="metadata838">
    <rdf:RDF>
      <cc:Work
         rdf:about="">
        <dc:format>image/svg+xml</dc:format>
        <dc:type
           rdf:resource="http://purl.org/dc/dcmitype/StillImage" />
        <dc:title>Lecen</dc:title>
      </cc:Work>
    </rdf:RDF>
  </metadata>
  <g
     inkscape:label="Layer 1"
     inkscape:groupmode="layer"
     id="layer1"
     transform="translate(97.139877,-54.717262)">
    <path
       style="color:#000000;font-style:normal;font-variant:normal;font-weight:normal;font-stretch:normal;font-size:medium;line-height:normal;font-family:sans-serif;font-variant-ligatures:normal;font-variant-position:normal;font-variant-caps:normal;font-variant-numeric:normal;font-variant-alternates:normal;font-feature-settings:normal;text-indent:0;text-align:start;text-decoration:none;text-decoration-line:none;text-decoration-style:solid;text-decoration-color:#000000;letter-spacing:normal;word-spacing:normal;text-transform:none;writing-mode:lr-tb;direction:ltr;text-orientation:mixed;dominant-baseline:auto;baseline-shift:baseline;text-anchor:start;white-space:normal;shape-padding:0;clip-rule:nonzero;display:inline;overflow:visible;visibility:visible;opacity:1;isolation:auto;mix-blend-mode:normal;color-interpolation:sRGB;color-interpolation-filters:linearRGB;solid-color:#000000;solid-opacity:1;vector-effect:none;fill:#336601;fill-opacity:1;fill-rule:nonzero;stroke:none;stroke-width:4.85000467;stroke-linecap:butt;stroke-linejoin:miter;stroke-miterlimit:4;stroke-dasharray:none;stroke-dashoffset:0;stroke-opacity:1;color-rendering:auto;image-rendering:auto;shape-rendering:auto;text-rendering:auto;enable-background:accumulate"
       d="m -56.081918,72.447188 c -12.052019,0 -26.861409,8.669978 -26.861409,26.626799 0,11.598903 6.660458,15.577543 11.078393,16.774173 1.153928,0.31255 2.359325,0.51418 3.611148,0.51418 7.147084,0 13.007475,-5.81454 13.007475,-12.94133 0,-7.126783 -5.860391,-12.94133 -13.007475,-12.94133 -4.248758,0 -8.042522,2.055455 -10.421068,5.219319 0.0029,-0.07994 0.0048,-0.152331 0.0078,-0.233061 2.504092,-13.529788 14.175435,-18.694983 23.196518,-18.694983 8.369093,0 10.830462,5.637423 10.980724,15.187704 v 4.609536 h -8.318873 v 3.875735 h 8.391221 v 13.85445 h 3.922757 v -13.85445 h 8.533328 v -3.875735 h -8.533329 l -0.02635,-9.010819 c -0.02332,-7.939973 -5.400508,-15.110188 -15.560807,-15.110188 z m -12.171868,22.882323 c 4.542497,0 8.15816,3.602509 8.15816,8.091499 0,4.489 -3.615663,8.08995 -8.15816,8.08995 -4.542495,0 -8.158674,-3.60095 -8.158674,-8.08995 0,-4.48899 3.616179,-8.091499 8.158674,-8.091499 z"
       id="path1397"
       inkscape:connector-curvature="0"
       sodipodi:nodetypes="ssssssccsccccccccccccssssss" />
  </g>
</svg>
