<?xml version="1.0" encoding="UTF-8" standalone="no"?>
<!-- Created with Inkscape (http://www.inkscape.org/) -->

<svg
   xmlns:dc="http://purl.org/dc/elements/1.1/"
   xmlns:cc="http://creativecommons.org/ns#"
   xmlns:rdf="http://www.w3.org/1999/02/22-rdf-syntax-ns#"
   xmlns:svg="http://www.w3.org/2000/svg"
   xmlns="http://www.w3.org/2000/svg"
   xmlns:sodipodi="http://sodipodi.sourceforge.net/DTD/sodipodi-0.dtd"
   xmlns:inkscape="http://www.inkscape.org/namespaces/inkscape"
   width="300"
   height="300"
   viewBox="0 0 300 300"
   version="1.1"
   id="svg8"
   inkscape:version="0.92.2 (5c3e80d, 2017-08-06)"
   sodipodi:docname="Lecer.svg"
   inkscape:export-filename="C:\Users\irock\Desktop\Stuff\Images\Homestuck\ezodiac\05 Olive\Prospit\Lecer.png"
   inkscape:export-xdpi="320"
   inkscape:export-ydpi="320">
  <title
     id="title1401">Lecer</title>
  <defs
     id="defs2" />
  <sodipodi:namedview
     id="base"
     pagecolor="#ffffff"
     bordercolor="#666666"
     borderopacity="1.0"
     inkscape:pageopacity="0.0"
     inkscape:pageshadow="2"
     inkscape:zoom="2.8"
     inkscape:cx="150.51778"
     inkscape:cy="137.44486"
     inkscape:document-units="px"
     inkscape:current-layer="layer1"
     showgrid="false"
     showguides="false"
     units="px"
     inkscape:pagecheckerboard="true"
     inkscape:showpageshadow="false" />
  <metadata
     id="metadata5">
    <rdf:RDF>
      <cc:Work
         rdf:about="">
        <dc:format>image/svg+xml</dc:format>
        <dc:type
           rdf:resource="http://purl.org/dc/dcmitype/StillImage" />
        <dc:title>Lecer</dc:title>
      </cc:Work>
    </rdf:RDF>
  </metadata>
  <g
     inkscape:label="Layer 1"
     inkscape:groupmode="layer"
     id="layer1"
     transform="translate(87.14286,609.51788)">
    <path
       style="color:#000000;font-style:normal;font-variant:normal;font-weight:normal;font-stretch:normal;font-size:medium;line-height:normal;font-family:sans-serif;font-variant-ligatures:normal;font-variant-position:normal;font-variant-caps:normal;font-variant-numeric:normal;font-variant-alternates:normal;font-feature-settings:normal;text-indent:0;text-align:start;text-decoration:none;text-decoration-line:none;text-decoration-style:solid;text-decoration-color:#000000;letter-spacing:normal;word-spacing:normal;text-transform:none;writing-mode:lr-tb;direction:ltr;text-orientation:mixed;dominant-baseline:auto;baseline-shift:baseline;text-anchor:start;white-space:normal;shape-padding:0;clip-rule:nonzero;display:inline;overflow:visible;visibility:visible;opacity:1;isolation:auto;mix-blend-mode:normal;color-interpolation:sRGB;color-interpolation-filters:linearRGB;solid-color:#000000;solid-opacity:1;vector-effect:none;fill:#336601;fill-opacity:1;fill-rule:nonzero;stroke:none;stroke-width:15.45752811;stroke-linecap:butt;stroke-linejoin:miter;stroke-miterlimit:4;stroke-dasharray:none;stroke-dashoffset:0;stroke-opacity:1;color-rendering:auto;image-rendering:auto;shape-rendering:auto;text-rendering:auto;enable-background:accumulate"
       d="m 74.133504,-553.08331 c -19.68895,0 -33.83984,24.25222 -33.83984,57.95703 0,15.01268 2.4259,33.88997 2.6875,35.88672 -7.07009,-7.11509 -16.82106,-11.53711 -27.5625,-11.53711 -21.5016305,0 -39.037108,17.71703 -39.037109,39.29102 0,21.57399 17.3569075,39.11049 38.858539,39.11049 41.19783,0 44.4109,-40.99935 44.62584,-54.51674 0.25171,-15.82932 -4.54493,-34.60817 -4.54493,-48.35938 0,-15.82929 6.74933,-42.30078 18.8125,-42.30078 11.78112,0 20.58205,15.36686 20.58203,35.35547 0,16.50266 -9.34375,48.51535 -9.34374,62.62891 0,11.01604 -0.6734,25.33919 0.87304,39.53906 -8.478,4.17287 -17.89859,7.26877 -28.27344,10.58984 l -0.25195,13.38477 c 10.83179,-2.72331 21.15081,-5.72939 30.88086,-10.05078 1.76359,7.23266 4.41626,14.11747 8.38867,20.15234 h 21.087886 c -6.55414,-7.21323 -12.17778,-17.87276 -14.66992,-28.18945 6.79421,-4.77245 45.92479,-29.12076 45.92578,-69.24414 7.5e-4,-21.38121 -4.44023,-26.33851 -10.86914,-37.74414 -3.98442,-7.06882 -14.84306,-17.9311 -16.52539,-17.875 -4.77473,0.15915 -13.07329,9.08101 -13.36719,9.39843 0,-27.61555 -18.056266,-42.82685 -34.437496,-43.47656 z m 44.953126,55.20117 c 0.93746,0 7.67057,7.55154 9.9375,12.31446 3.10061,6.51449 4.5,12.89099 4.5,21.17187 0,25.206 -16.0523,40.79818 -31.35742,53.9961 -0.0533,0.0463 -0.10869,0.0886 -0.16211,0.13476 l -0.2168,-46.0957 c -0.0389,-8.24059 1.47554,-13.57518 3.08399,-20.4375 5.99461,-12.89994 12.3323,-21.08399 14.21484,-21.08399 z m -103.667966,42.56446 c 13.08038,0 23.58008,10.54506 23.58008,23.83203 0,13.28696 -10.4997,23.83008 -23.58008,23.83008 -13.0803785,0 -23.5800775,-10.54312 -23.5800775,-23.83008 0,-13.28697 10.499699,-23.83203 23.5800775,-23.83203 z"
       id="path1391"
       inkscape:connector-curvature="0"
       sodipodi:nodetypes="cscsssssscsccccccccscccscsccccssssss" />
  </g>
</svg>
