<?xml version="1.0" encoding="UTF-8" standalone="no"?>
<!-- Created with Inkscape (http://www.inkscape.org/) -->

<svg
   xmlns:dc="http://purl.org/dc/elements/1.1/"
   xmlns:cc="http://creativecommons.org/ns#"
   xmlns:rdf="http://www.w3.org/1999/02/22-rdf-syntax-ns#"
   xmlns:svg="http://www.w3.org/2000/svg"
   xmlns="http://www.w3.org/2000/svg"
   xmlns:sodipodi="http://sodipodi.sourceforge.net/DTD/sodipodi-0.dtd"
   xmlns:inkscape="http://www.inkscape.org/namespaces/inkscape"
   width="300"
   height="300"
   viewBox="0 0 300 300"
   version="1.1"
   id="svg8"
   inkscape:version="0.92.2 (5c3e80d, 2017-08-06)"
   sodipodi:docname="Lego.svg"
   inkscape:export-filename="C:\Users\irock\Desktop\Stuff\Images\Homestuck\ezodiac\05 Olive\Prospit\Lego.png"
   inkscape:export-xdpi="320"
   inkscape:export-ydpi="320">
  <title
     id="title7693">Lego</title>
  <defs
     id="defs2" />
  <sodipodi:namedview
     id="base"
     pagecolor="#ffffff"
     bordercolor="#666666"
     borderopacity="1.0"
     inkscape:pageopacity="0.0"
     inkscape:pageshadow="2"
     inkscape:zoom="1.979899"
     inkscape:cx="160.71163"
     inkscape:cy="132.68985"
     inkscape:document-units="px"
     inkscape:current-layer="layer1"
     showgrid="false"
     showguides="false"
     units="px"
     inkscape:pagecheckerboard="true"
     inkscape:showpageshadow="false" />
  <metadata
     id="metadata5">
    <rdf:RDF>
      <cc:Work
         rdf:about="">
        <dc:format>image/svg+xml</dc:format>
        <dc:type
           rdf:resource="http://purl.org/dc/dcmitype/StillImage" />
        <dc:title>Lego</dc:title>
      </cc:Work>
    </rdf:RDF>
  </metadata>
  <g
     inkscape:label="Layer 1"
     inkscape:groupmode="layer"
     id="layer1"
     transform="translate(418.57144,-99.053551)">
    <path
       style="color:#000000;font-style:normal;font-variant:normal;font-weight:normal;font-stretch:normal;font-size:medium;line-height:normal;font-family:sans-serif;font-variant-ligatures:normal;font-variant-position:normal;font-variant-caps:normal;font-variant-numeric:normal;font-variant-alternates:normal;font-feature-settings:normal;text-indent:0;text-align:start;text-decoration:none;text-decoration-line:none;text-decoration-style:solid;text-decoration-color:#000000;letter-spacing:normal;word-spacing:normal;text-transform:none;writing-mode:lr-tb;direction:ltr;text-orientation:mixed;dominant-baseline:auto;baseline-shift:baseline;text-anchor:start;white-space:normal;shape-padding:0;clip-rule:nonzero;display:inline;overflow:visible;visibility:visible;opacity:1;isolation:auto;mix-blend-mode:normal;color-interpolation:sRGB;color-interpolation-filters:linearRGB;solid-color:#000000;solid-opacity:1;vector-effect:none;fill:#336601;fill-opacity:1;fill-rule:nonzero;stroke:none;stroke-width:14.25382423;stroke-linecap:butt;stroke-linejoin:miter;stroke-miterlimit:4;stroke-dasharray:none;stroke-dashoffset:0;stroke-opacity:1;color-rendering:auto;image-rendering:auto;shape-rendering:auto;text-rendering:auto;enable-background:accumulate"
       d="m -239.11343,147.78597 c -28.94811,0 -36.2168,26.30665 -36.2168,26.30665 h -21.71875 c -8.47669,0 -18.8221,6.28981 -22.26367,17.27539 -2.53263,8.08422 -1.31238,20.57515 -1.29688,29.0039 l 0.17969,97.11914 c 0.3477,12.05737 -4.64355,18.83475 -16.41602,19.44532 v 13.38476 c 12.4537,-0.25269 24.64907,-1.8905 31.82032,-25.25391 5.11212,2.04494 21.55608,2.05079 37.73633,2.05079 29.48211,0 66.99219,4.66279 66.99219,-53.24219 0,-16.30348 -3.93878,-25.58722 -10.70703,-32.55469 -11.21774,-11.54793 -27.98218,-14.84078 -32.17188,-16.05664 -7.18415,-2.08487 -25.40981,-5.94321 -38.5664,-6.23828 -23.82546,-0.53434 -24.04102,-8.13589 -24.04102,-14.67188 0,-16.0275 9.61579,-16.56771 14.39453,-16.41601 l 15.91016,0.50586 c 0,0 3.45256,25.65429 33.47851,25.65429 24.94567,0 37.99024,-17.49184 37.99024,-33.6875 0,-21.87174 -16.07873,-32.625 -35.10352,-32.625 z m -2.27344,13.50977 c 10.00143,-0.0576 22.29213,8.18154 22.22461,20.58203 -0.0508,9.31919 -7.47463,18.81445 -20.58203,18.81445 -13.45791,0 -20.858,-10.28138 -20.96094,-20.07617 -0.11477,-10.91949 9.91357,-19.26611 19.31836,-19.32031 z m -64.10742,67.73633 c 4.77989,2.60796 27.52153,2.94584 57.14258,9.10742 38.70443,8.05105 33.00668,32.20421 33.39258,39.10742 0.91283,16.32943 -8.12899,31.3266 -17.32031,33.39258 -25.53982,5.74072 -66.19287,1.62702 -73.39454,-0.89258 z m 40.53711,15.63672 c -20.41854,0 -30.61719,12.99499 -30.61719,29.18554 0,16.19054 13.7334,28.93164 30.11133,28.93164 15.11523,0 30.58399,-11.22587 30.58399,-28.93164 0,-16.19055 -12.69006,-29.18554 -30.07813,-29.18554 z m 0,14.2539 c 8.97425,0 15.31836,6.75623 15.31836,14.93164 0,8.17541 -6.34411,14.93164 -15.31836,14.93164 -8.97426,0 -15.32226,-6.75623 -15.32226,-14.93164 0,-8.17541 6.348,-14.93164 15.32226,-14.93164 z"
       id="path7672"
       inkscape:connector-curvature="0" />
  </g>
</svg>
