<?xml version="1.0" encoding="UTF-8" standalone="no"?>
<!-- Created with Inkscape (http://www.inkscape.org/) -->

<svg
   xmlns:dc="http://purl.org/dc/elements/1.1/"
   xmlns:cc="http://creativecommons.org/ns#"
   xmlns:rdf="http://www.w3.org/1999/02/22-rdf-syntax-ns#"
   xmlns:svg="http://www.w3.org/2000/svg"
   xmlns="http://www.w3.org/2000/svg"
   xmlns:sodipodi="http://sodipodi.sourceforge.net/DTD/sodipodi-0.dtd"
   xmlns:inkscape="http://www.inkscape.org/namespaces/inkscape"
   width="300"
   height="300"
   viewBox="0 0 300 300"
   version="1.1"
   id="svg8"
   inkscape:version="0.92.2 (5c3e80d, 2017-08-06)"
   sodipodi:docname="Leicorn.svg"
   inkscape:export-filename="C:\Users\irock\Desktop\Stuff\Images\Homestuck\ezodiac\05 Olive\Prospit\Leicorn.png"
   inkscape:export-xdpi="320"
   inkscape:export-ydpi="320">
  <title
     id="title5398">Leicorn</title>
  <defs
     id="defs2" />
  <sodipodi:namedview
     id="base"
     pagecolor="#ffffff"
     bordercolor="#666666"
     borderopacity="1.0"
     inkscape:pageopacity="0.0"
     inkscape:pageshadow="2"
     inkscape:zoom="1.979899"
     inkscape:cx="120.77812"
     inkscape:cy="151.65403"
     inkscape:document-units="px"
     inkscape:current-layer="layer1"
     showgrid="false"
     showguides="false"
     units="px"
     inkscape:pagecheckerboard="true"
     inkscape:showpageshadow="false" />
  <metadata
     id="metadata5">
    <rdf:RDF>
      <cc:Work
         rdf:about="">
        <dc:format>image/svg+xml</dc:format>
        <dc:type
           rdf:resource="http://purl.org/dc/dcmitype/StillImage" />
        <dc:title>Leicorn</dc:title>
      </cc:Work>
    </rdf:RDF>
  </metadata>
  <g
     inkscape:label="Layer 1"
     inkscape:groupmode="layer"
     id="layer1"
     transform="translate(204.28572,335.23218)">
    <path
       style="color:#000000;font-style:normal;font-variant:normal;font-weight:normal;font-stretch:normal;font-size:medium;line-height:normal;font-family:sans-serif;font-variant-ligatures:normal;font-variant-position:normal;font-variant-caps:normal;font-variant-numeric:normal;font-variant-alternates:normal;font-feature-settings:normal;text-indent:0;text-align:start;text-decoration:none;text-decoration-line:none;text-decoration-style:solid;text-decoration-color:#000000;letter-spacing:normal;word-spacing:normal;text-transform:none;writing-mode:lr-tb;direction:ltr;text-orientation:mixed;dominant-baseline:auto;baseline-shift:baseline;text-anchor:start;white-space:normal;shape-padding:0;clip-rule:nonzero;display:inline;overflow:visible;visibility:visible;opacity:1;isolation:auto;mix-blend-mode:normal;color-interpolation:sRGB;color-interpolation-filters:linearRGB;solid-color:#000000;solid-opacity:1;vector-effect:none;fill:#336601;fill-opacity:1;fill-rule:nonzero;stroke:none;stroke-width:15.74934292;stroke-linecap:butt;stroke-linejoin:miter;stroke-miterlimit:4;stroke-dasharray:none;stroke-dashoffset:0;stroke-opacity:1;color-rendering:auto;image-rendering:auto;shape-rendering:auto;text-rendering:auto;enable-background:accumulate"
       d="m -96.063041,-292.2536 c -27.797859,0 -65.208979,24.87913 -65.208979,71.61914 0,18.27389 9.49662,39.56109 9.73633,50.43242 0.6747,30.60042 23.59389,42.86857 42.40048,42.86857 23.222859,0 43.163969,-18.79479 43.163969,-42.5627 0,-23.7679 -19.1835,-43.32032 -42.785159,-43.32032 -13.64575,0 -25.80433,6.54458 -33.64258,16.65235 -0.17475,-0.63147 -4.08203,-15.00416 -4.08203,-23.21959 0,-26.21022 18.56579,-57.27846 52.099609,-57.27846 24.06352,0 48.96926,20.83306 49.32813,55.18164 l 0.92383,88.39063 c 0.076,7.27371 0.0246,10.94936 4.65234,17.30078 -28.44166,20.390392 -48.36342,21.891832 -70.365229,22.044922 l -0.002,15.6543 c -0.0568,1.24966 53.619603,-0.64616 81.611323,-28.035162 9.70453,4.74536 22.12823,5.33165 32.16992,5.17773 19.38641,-0.29714 48.76367,-7.1681 48.76367,-34.33007 0,-14.90214 -8.98091,-26.59375 -28.92968,-26.59375 -27.43795,0 -41.66243,30.52044 -51.69727,36.35351 -1.8534,-4.23453 -1.24484,-9.91662 -1.26367,-12.87695 l -0.50586,-79.48047 c -0.200294,-31.49865 -18.450554,-73.97852 -66.367144,-73.97852 z m -12.693359,94.78516 c 14.959479,0 27.035159,12.18731 27.035159,27.57227 0,15.38497 -12.07568,27.57226 -27.035159,27.57226 -14.95948,0 -27.03711,-12.18729 -27.03711,-27.57226 0,-15.38496 12.07763,-27.57227 27.03711,-27.57227 z m 133.347659,49.69141 c 7.75994,0.33592 13.06641,6.62587 13.06641,12.85742 0,12.08221 -16.6682,17.98331 -31.59571,18.42383 -7.04911,0.20802 -14.17031,-0.30941 -20.29492,-1.67774 0.0146,-0.0122 0.0244,-0.0209 0.0391,-0.0332 11.15725,-9.36088 25.22192,-30.15745 38.78516,-29.57031 z"
       id="path5391"
       inkscape:connector-curvature="0"
       sodipodi:nodetypes="sssssscssccccccssscccsssssssssccs" />
  </g>
</svg>
