<?xml version="1.0" encoding="UTF-8" standalone="no"?>
<!-- Created with Inkscape (http://www.inkscape.org/) -->

<svg
   xmlns:dc="http://purl.org/dc/elements/1.1/"
   xmlns:cc="http://creativecommons.org/ns#"
   xmlns:rdf="http://www.w3.org/1999/02/22-rdf-syntax-ns#"
   xmlns:svg="http://www.w3.org/2000/svg"
   xmlns="http://www.w3.org/2000/svg"
   xmlns:sodipodi="http://sodipodi.sourceforge.net/DTD/sodipodi-0.dtd"
   xmlns:inkscape="http://www.inkscape.org/namespaces/inkscape"
   width="300"
   height="300"
   viewBox="0 0 300 300"
   version="1.1"
   id="svg8"
   inkscape:version="0.92.2 (5c3e80d, 2017-08-06)"
   sodipodi:docname="Lelo.svg"
   inkscape:export-filename="C:\Users\irock\Desktop\Stuff\Images\Homestuck\ezodiac\05 Olive\Prospit\Lelo.png"
   inkscape:export-xdpi="320"
   inkscape:export-ydpi="320">
  <title
     id="title830">Lelo</title>
  <defs
     id="defs2" />
  <sodipodi:namedview
     id="base"
     pagecolor="#ffffff"
     bordercolor="#666666"
     borderopacity="1.0"
     inkscape:pageopacity="0.0"
     inkscape:pageshadow="2"
     inkscape:zoom="1.979899"
     inkscape:cx="156.67237"
     inkscape:cy="146.95917"
     inkscape:document-units="px"
     inkscape:current-layer="layer1"
     showgrid="false"
     showguides="false"
     units="px"
     inkscape:pagecheckerboard="true"
     inkscape:showpageshadow="false" />
  <metadata
     id="metadata5">
    <rdf:RDF>
      <cc:Work
         rdf:about="">
        <dc:format>image/svg+xml</dc:format>
        <dc:type
           rdf:resource="http://purl.org/dc/dcmitype/StillImage" />
        <dc:title>Lelo</dc:title>
      </cc:Work>
    </rdf:RDF>
  </metadata>
  <g
     inkscape:label="Layer 1"
     inkscape:groupmode="layer"
     id="layer1"
     transform="translate(-1.4285715,-187.62498)">
    <path
       style="color:#000000;font-style:normal;font-variant:normal;font-weight:normal;font-stretch:normal;font-size:medium;line-height:normal;font-family:sans-serif;font-variant-ligatures:normal;font-variant-position:normal;font-variant-caps:normal;font-variant-numeric:normal;font-variant-alternates:normal;font-feature-settings:normal;text-indent:0;text-align:start;text-decoration:none;text-decoration-line:none;text-decoration-style:solid;text-decoration-color:#000000;letter-spacing:normal;word-spacing:normal;text-transform:none;writing-mode:lr-tb;direction:ltr;text-orientation:mixed;dominant-baseline:auto;baseline-shift:baseline;text-anchor:start;white-space:normal;shape-padding:0;clip-rule:nonzero;display:inline;overflow:visible;visibility:visible;opacity:1;isolation:auto;mix-blend-mode:normal;color-interpolation:sRGB;color-interpolation-filters:linearRGB;solid-color:#000000;solid-opacity:1;vector-effect:none;fill:#336601;fill-opacity:1;fill-rule:nonzero;stroke:none;stroke-width:15.71199989;stroke-linecap:butt;stroke-linejoin:miter;stroke-miterlimit:4;stroke-dasharray:none;stroke-dashoffset:0;stroke-opacity:1;color-rendering:auto;image-rendering:auto;shape-rendering:auto;text-rendering:auto;enable-background:accumulate"
       d="m 143.16197,234.08103 c -43.191428,0 -70.736327,21.74725 -70.736327,51.55468 0,29.72389 33.132617,46.42774 69.822267,46.42774 36.41885,0 51.07227,-18.15783 51.07227,-33.92774 0,-28.72201 -38.79423,-30.53543 -50.32227,-28.39257 v 15.17773 c 12.79558,-1.01968 34.96484,0.0481 34.96484,13.03516 0,11.98932 -18.63384,19.33194 -34.375,19.19727 -21.4373,-0.18343 -55.571866,-8.09947 -56.162107,-30.625 -0.621454,-23.71671 25.395327,-37.94473 57.328127,-36.96485 48.734,1.49547 70.69531,20.9324 70.69531,49.85547 0,28.07018 -20.20983,39.96679 -40.07617,39.96679 -6.82023,0 -32.00983,2.94844 -38.64062,21.55861 -19.26432,3.01859 -34.125,19.79217 -34.125,39.86914 0,22.19465 18.16081,40.35546 40.35546,40.35546 22.19465,0 40.35547,-18.16082 40.35547,-40.35546 0,-18.31862 -12.3776,-33.87804 -29.17773,-38.75781 4.98073,-5.03857 15.48714,-7.58204 22.48242,-7.58204 20.12723,0 53.80859,-11.44104 53.80859,-55.66796 0,-41.12989 -34.03995,-64.72461 -87.26953,-64.72462 z m -0.19922,142.08984 c 13.70325,0 24.64454,10.93932 24.64454,24.64258 0,13.70325 -10.94129,24.64453 -24.64454,24.64453 -13.70326,0 -24.64257,-10.94128 -24.64257,-24.64453 0,-13.70326 10.93931,-24.64258 24.64257,-24.64258 z"
       id="path823"
       inkscape:connector-curvature="0" />
  </g>
</svg>
