<?xml version="1.0" encoding="UTF-8" standalone="no"?>
<!-- Created with Inkscape (http://www.inkscape.org/) -->

<svg
   xmlns:dc="http://purl.org/dc/elements/1.1/"
   xmlns:cc="http://creativecommons.org/ns#"
   xmlns:rdf="http://www.w3.org/1999/02/22-rdf-syntax-ns#"
   xmlns:svg="http://www.w3.org/2000/svg"
   xmlns="http://www.w3.org/2000/svg"
   xmlns:sodipodi="http://sodipodi.sourceforge.net/DTD/sodipodi-0.dtd"
   xmlns:inkscape="http://www.inkscape.org/namespaces/inkscape"
   width="300"
   height="300"
   viewBox="0 0 300 300"
   version="1.1"
   id="svg8"
   inkscape:version="0.92.2 (5c3e80d, 2017-08-06)"
   sodipodi:docname="Lemino.svg"
   inkscape:export-filename="C:\Users\irock\Desktop\Stuff\Images\Homestuck\ezodiac\05 Olive\Prospit\Lemino.png"
   inkscape:export-xdpi="320"
   inkscape:export-ydpi="320">
  <title
     id="title1982">Lemino</title>
  <defs
     id="defs2" />
  <sodipodi:namedview
     id="base"
     pagecolor="#ffffff"
     bordercolor="#666666"
     borderopacity="1.0"
     inkscape:pageopacity="0.0"
     inkscape:pageshadow="2"
     inkscape:zoom="1.979899"
     inkscape:cx="137.61302"
     inkscape:cy="108.56182"
     inkscape:document-units="px"
     inkscape:current-layer="layer1"
     showgrid="false"
     showguides="false"
     units="px"
     inkscape:pagecheckerboard="true"
     inkscape:showpageshadow="false" />
  <metadata
     id="metadata5">
    <rdf:RDF>
      <cc:Work
         rdf:about="">
        <dc:format>image/svg+xml</dc:format>
        <dc:type
           rdf:resource="http://purl.org/dc/dcmitype/StillImage" />
        <dc:title>Lemino</dc:title>
      </cc:Work>
    </rdf:RDF>
  </metadata>
  <g
     inkscape:label="Layer 1"
     inkscape:groupmode="layer"
     id="layer1"
     transform="translate(112.85714,63.803593)">
    <path
       style="color:#000000;font-style:normal;font-variant:normal;font-weight:normal;font-stretch:normal;font-size:medium;line-height:normal;font-family:sans-serif;font-variant-ligatures:normal;font-variant-position:normal;font-variant-caps:normal;font-variant-numeric:normal;font-variant-alternates:normal;font-feature-settings:normal;text-indent:0;text-align:start;text-decoration:none;text-decoration-line:none;text-decoration-style:solid;text-decoration-color:#000000;letter-spacing:normal;word-spacing:normal;text-transform:none;writing-mode:lr-tb;direction:ltr;text-orientation:mixed;dominant-baseline:auto;baseline-shift:baseline;text-anchor:start;white-space:normal;shape-padding:0;clip-rule:nonzero;display:inline;overflow:visible;visibility:visible;opacity:1;isolation:auto;mix-blend-mode:normal;color-interpolation:sRGB;color-interpolation-filters:linearRGB;solid-color:#000000;solid-opacity:1;vector-effect:none;fill:#336601;fill-opacity:1;fill-rule:nonzero;stroke:none;stroke-width:15.01151466;stroke-linecap:butt;stroke-linejoin:miter;stroke-miterlimit:4;stroke-dasharray:none;stroke-dashoffset:0;stroke-opacity:1;color-rendering:auto;image-rendering:auto;shape-rendering:auto;text-rendering:auto;enable-background:accumulate"
       d="m -4.739951,-5.6141395 -13.625002,4.21875 C -20.050232,22.377164 -33.66428,38.674701 -59.320032,48.534301 l 5.021485,14.92969 C -23.357083,51.842281 -7.131831,27.932163 -6.779021,16.770627 l 29.71876,39.505864 c -16.02944,5.29724 -28.22965,19.1492 -31.12696,36.09374 h -35.652342 v 14.783209 h 35.519532 c 2.6967,17.48928 15.29492,31.80535 31.84961,37.02734 -0.21933,0.2821 -14.50097,18.55274 -35.03125,18.55274 -24.46392,0 -48.677736,-28.42383 -48.677736,-28.42383 l -12.320312,9.46484 c 0,0 28.991898,34.23242 60.421878,34.23242 29.30087,0 49.2207,-25.66211 49.2207,-25.66211 0,0 19.91983,25.66211 49.2207,25.66211 31.429981,0 60.421881,-34.23242 60.421881,-34.23242 l -12.32031,-9.46484 c 0,0 -24.21382,28.42383 -48.677741,28.42383 -20.16599,0 -34.23491,-17.54496 -34.93945,-18.43946 16.73649,-5.12457 29.50378,-19.52178 32.2207,-37.14062 H 118.66044 V 92.370231 H 82.935829 c -2.91978,-17.07446 -15.28461,-31.01349 -31.49609,-36.21874 l 29.625,-39.380864 c 0.35281,11.161536 16.57806,35.071654 47.519531,46.693364 l 5.01953,-14.92969 C 107.94805,38.674701 94.335949,22.377164 92.650669,-1.3953895 l -13.625,-4.21875 -41.88281,54.8750005 z m 42.11328,74.5742205 c 17.3368,0 31.2207,13.87102 31.2207,31.167969 0,17.29695 -13.8839,31.16797 -31.2207,31.16797 -17.3368,0 -31.21875,-13.87102 -31.21875,-31.16797 0,-17.296949 13.88195,-31.167969 31.21875,-31.167969 z"
       id="path1962"
       inkscape:connector-curvature="0" />
  </g>
</svg>
