<?xml version="1.0" encoding="UTF-8" standalone="no"?>
<!-- Created with Inkscape (http://www.inkscape.org/) -->

<svg
   xmlns:dc="http://purl.org/dc/elements/1.1/"
   xmlns:cc="http://creativecommons.org/ns#"
   xmlns:rdf="http://www.w3.org/1999/02/22-rdf-syntax-ns#"
   xmlns:svg="http://www.w3.org/2000/svg"
   xmlns="http://www.w3.org/2000/svg"
   xmlns:sodipodi="http://sodipodi.sourceforge.net/DTD/sodipodi-0.dtd"
   xmlns:inkscape="http://www.inkscape.org/namespaces/inkscape"
   width="79.375mm"
   height="79.375mm"
   viewBox="0 0 79.375 79.375"
   version="1.1"
   id="svg8"
   inkscape:version="0.92.2 (5c3e80d, 2017-08-06)"
   sodipodi:docname="Leo.svg"
   inkscape:export-filename="C:\Users\irock\Desktop\Stuff\Images\Homestuck\ezodiac\05 Olive\Derse\Leo.png"
   inkscape:export-xdpi="320"
   inkscape:export-ydpi="320">
  <title
     id="title833">Leo</title>
  <defs
     id="defs2" />
  <sodipodi:namedview
     id="base"
     pagecolor="#ffffff"
     bordercolor="#666666"
     borderopacity="1.0"
     inkscape:pageopacity="0.0"
     inkscape:pageshadow="2"
     inkscape:zoom="1.979899"
     inkscape:cx="70.113736"
     inkscape:cy="150.44076"
     inkscape:document-units="mm"
     inkscape:current-layer="layer1"
     showgrid="false" />
  <metadata
     id="metadata5">
    <rdf:RDF>
      <cc:Work
         rdf:about="">
        <dc:format>image/svg+xml</dc:format>
        <dc:type
           rdf:resource="http://purl.org/dc/dcmitype/StillImage" />
        <dc:title>Leo</dc:title>
      </cc:Work>
    </rdf:RDF>
  </metadata>
  <g
     inkscape:label="Layer 1"
     inkscape:groupmode="layer"
     id="layer1"
     transform="translate(63.122025,-22.967262)">
    <path
       style="color:#000000;font-style:normal;font-variant:normal;font-weight:normal;font-stretch:normal;font-size:medium;line-height:normal;font-family:sans-serif;font-variant-ligatures:normal;font-variant-position:normal;font-variant-caps:normal;font-variant-numeric:normal;font-variant-alternates:normal;font-feature-settings:normal;text-indent:0;text-align:start;text-decoration:none;text-decoration-line:none;text-decoration-style:solid;text-decoration-color:#000000;letter-spacing:normal;word-spacing:normal;text-transform:none;writing-mode:lr-tb;direction:ltr;text-orientation:mixed;dominant-baseline:auto;baseline-shift:baseline;text-anchor:start;white-space:normal;shape-padding:0;clip-rule:nonzero;display:inline;overflow:visible;visibility:visible;opacity:1;isolation:auto;mix-blend-mode:normal;color-interpolation:sRGB;color-interpolation-filters:linearRGB;solid-color:#000000;solid-opacity:1;vector-effect:none;fill:#336601;fill-opacity:1;fill-rule:nonzero;stroke:none;stroke-width:3.32696271;stroke-linecap:butt;stroke-linejoin:miter;stroke-miterlimit:4;stroke-dasharray:none;stroke-dashoffset:0;stroke-opacity:1;color-rendering:auto;image-rendering:auto;shape-rendering:auto;text-rendering:auto;enable-background:accumulate"
       d="m -19.342789,37.013668 c -9.021379,0 -13.965039,6.881127 -13.965039,13.062769 0,5.022926 2.238624,8.084777 2.238624,8.084777 l 0.0067,0.0047 c -0.7792,-0.193445 -1.592704,-0.298175 -2.429824,-0.298175 -5.556481,0 -10.10326,4.525359 -10.10326,10.070187 0,5.544828 4.546779,10.068637 10.10326,10.068637 5.556477,0 10.103776,-4.523809 10.103776,-10.068637 0,-2.405372 -1.188271,-4.84323 -2.513309,-6.654295 -1.000448,-1.367414 -3.864597,-6.572728 -3.864597,-11.173557 0,-4.803474 3.609681,-9.721887 10.189559,-9.721887 7.711559,0 9.48831,4.682709 9.488308,9.187037 0,4.932828 -2.379951,8.986874 -5.479251,15.468306 -3.273343,6.845395 -4.677233,11.155622 -4.677233,14.566035 0,5.920991 3.88357,8.686291 8.552966,8.686291 4.4952864,0 8.4186074,-3.941878 8.4186074,-3.941878 l -2.6055067,-2.873252 c 0,0 -2.8254113,3.207039 -5.7464197,3.207039 -2.57865,0 -4.576982,-2.22539 -4.576982,-4.944401 0,-2.410643 1.306471,-7.374689 4.10931,-13.53044 2.4758732,-5.43764 5.5789885,-11.076202 5.5789885,-16.704408 0,-8.489919 -6.2395815,-12.494843 -12.8286745,-12.494843 z M -33.492311,61.19617 c 3.76578,0 6.775296,3.002262 6.775296,6.741708 0,3.739446 -3.009516,6.742223 -6.775296,6.742223 -3.765784,0 -6.777365,-3.002777 -6.777365,-6.742223 0,-3.739446 3.011581,-6.741708 6.777365,-6.741708 z"
       id="path826"
       inkscape:connector-curvature="0"
       sodipodi:nodetypes="ssccsssssssssssccssssssssss" />
  </g>
</svg>
