<?xml version="1.0" encoding="UTF-8" standalone="no"?>
<!-- Created with Inkscape (http://www.inkscape.org/) -->

<svg
   xmlns:dc="http://purl.org/dc/elements/1.1/"
   xmlns:cc="http://creativecommons.org/ns#"
   xmlns:rdf="http://www.w3.org/1999/02/22-rdf-syntax-ns#"
   xmlns:svg="http://www.w3.org/2000/svg"
   xmlns="http://www.w3.org/2000/svg"
   xmlns:sodipodi="http://sodipodi.sourceforge.net/DTD/sodipodi-0.dtd"
   xmlns:inkscape="http://www.inkscape.org/namespaces/inkscape"
   width="300"
   height="300"
   viewBox="0 0 300 300"
   version="1.1"
   id="svg8"
   inkscape:version="0.92.2 (5c3e80d, 2017-08-06)"
   sodipodi:docname="Lerist.svg"
   inkscape:export-filename="C:\Users\irock\Desktop\Stuff\Images\Homestuck\ezodiac\05 Olive\Prospit\Lerist.png"
   inkscape:export-xdpi="320"
   inkscape:export-ydpi="320">
  <title
     id="title3694">Lerist</title>
  <defs
     id="defs2" />
  <sodipodi:namedview
     id="base"
     pagecolor="#ffffff"
     bordercolor="#666666"
     borderopacity="1.0"
     inkscape:pageopacity="0.0"
     inkscape:pageshadow="2"
     inkscape:zoom="1.979899"
     inkscape:cx="157.06216"
     inkscape:cy="146.67916"
     inkscape:document-units="px"
     inkscape:current-layer="layer1"
     showgrid="false"
     showguides="false"
     units="px"
     inkscape:pagecheckerboard="true"
     inkscape:showpageshadow="false" />
  <metadata
     id="metadata5">
    <rdf:RDF>
      <cc:Work
         rdf:about="">
        <dc:format>image/svg+xml</dc:format>
        <dc:type
           rdf:resource="http://purl.org/dc/dcmitype/StillImage" />
        <dc:title>Lerist</dc:title>
      </cc:Work>
    </rdf:RDF>
  </metadata>
  <g
     inkscape:label="Layer 1"
     inkscape:groupmode="layer"
     id="layer1"
     transform="translate(495.71429,-96.196411)">
    <path
       style="color:#000000;font-style:normal;font-variant:normal;font-weight:normal;font-stretch:normal;font-size:medium;line-height:normal;font-family:sans-serif;font-variant-ligatures:normal;font-variant-position:normal;font-variant-caps:normal;font-variant-numeric:normal;font-variant-alternates:normal;font-feature-settings:normal;text-indent:0;text-align:start;text-decoration:none;text-decoration-line:none;text-decoration-style:solid;text-decoration-color:#000000;letter-spacing:normal;word-spacing:normal;text-transform:none;writing-mode:lr-tb;direction:ltr;text-orientation:mixed;dominant-baseline:auto;baseline-shift:baseline;text-anchor:start;white-space:normal;shape-padding:0;clip-rule:nonzero;display:inline;overflow:visible;visibility:visible;opacity:1;isolation:auto;mix-blend-mode:normal;color-interpolation:sRGB;color-interpolation-filters:linearRGB;solid-color:#000000;solid-opacity:1;vector-effect:none;fill:#336601;fill-opacity:1;fill-rule:nonzero;stroke:none;stroke-width:17.05500031;stroke-linecap:butt;stroke-linejoin:miter;stroke-miterlimit:4;stroke-dasharray:none;stroke-dashoffset:0;stroke-opacity:1;color-rendering:auto;image-rendering:auto;shape-rendering:auto;text-rendering:auto;enable-background:accumulate"
       d="m -402.23187,153.82727 c -30.6338,0 -55.39648,25.67823 -55.39648,56.82422 0,31.146 24.76268,56.82421 55.39648,56.82421 1.13127,0 2.25094,-0.0462 3.36523,-0.11523 -0.52776,2.83443 -2.5371,13.95881 -2.5371,19.62891 0,35.26433 27.71719,51.57617 54.51562,51.57617 35.40712,0 71.80859,-19.15269 71.80859,-55.14844 0,-19.21791 -7.63744,-30.38597 -15.00391,-42.16406 -6.65185,-10.6355 -13.10742,-22.11765 -13.10742,-34.24219 0,-13.88986 13.1004,-28.40234 30.27539,-28.40234 22.80868,0 22.20313,30.84179 22.20313,30.84179 h 16.91211 c 0,-32.48992 -17.47806,-48.5332 -39.30664,-48.5332 -28.45672,0 -47.03907,24.49852 -47.03907,46.13672 0,34.25842 28.1543,51.45085 28.1543,75.40039 0,25.98927 -27.76783,38.10742 -52.89648,38.10742 -29.95957,0 -39.58204,-17.31196 -39.58204,-33.77734 0,-13.88491 7.29362,-23.97268 9.5,-26.71289 16.8031,-9.81196 28.13282,-28.35941 28.13282,-49.41992 0,-31.14599 -24.76072,-56.82422 -55.39453,-56.82422 z m 0,17.05468 c 21.13565,0 38.33984,17.56812 38.33984,39.76954 0,22.20143 -17.20419,39.76953 -38.33984,39.76953 -21.13565,0 -38.3418,-17.5681 -38.3418,-39.76953 0,-22.20142 17.20615,-39.76954 38.3418,-39.76954 z"
       id="path3687"
       inkscape:connector-curvature="0" />
  </g>
</svg>
