<?xml version="1.0" encoding="UTF-8" standalone="no"?>
<!-- Created with Inkscape (http://www.inkscape.org/) -->

<svg
   xmlns:dc="http://purl.org/dc/elements/1.1/"
   xmlns:cc="http://creativecommons.org/ns#"
   xmlns:rdf="http://www.w3.org/1999/02/22-rdf-syntax-ns#"
   xmlns:svg="http://www.w3.org/2000/svg"
   xmlns="http://www.w3.org/2000/svg"
   xmlns:sodipodi="http://sodipodi.sourceforge.net/DTD/sodipodi-0.dtd"
   xmlns:inkscape="http://www.inkscape.org/namespaces/inkscape"
   width="79.375mm"
   height="79.375mm"
   viewBox="0 0 79.375 79.375"
   version="1.1"
   id="svg3718"
   inkscape:version="0.92.2 (5c3e80d, 2017-08-06)"
   sodipodi:docname="Lerius.svg"
   inkscape:export-filename="C:\Users\irock\Desktop\Stuff\Images\Homestuck\ezodiac\05 Olive\Derse\Lerius.png"
   inkscape:export-xdpi="320"
   inkscape:export-ydpi="320">
  <title
     id="title4286">Lerius</title>
  <defs
     id="defs3712" />
  <sodipodi:namedview
     id="base"
     pagecolor="#ffffff"
     bordercolor="#666666"
     borderopacity="1.0"
     inkscape:pageopacity="0.0"
     inkscape:pageshadow="2"
     inkscape:zoom="1.979899"
     inkscape:cx="59.569366"
     inkscape:cy="139.56041"
     inkscape:document-units="mm"
     inkscape:current-layer="layer1"
     showgrid="false" />
  <metadata
     id="metadata3715">
    <rdf:RDF>
      <cc:Work
         rdf:about="">
        <dc:format>image/svg+xml</dc:format>
        <dc:type
           rdf:resource="http://purl.org/dc/dcmitype/StillImage" />
        <dc:title>Lerius</dc:title>
      </cc:Work>
    </rdf:RDF>
  </metadata>
  <g
     inkscape:label="Layer 1"
     inkscape:groupmode="layer"
     id="layer1"
     transform="translate(47.247025,-81.175598)">
    <path
       style="color:#000000;font-style:normal;font-variant:normal;font-weight:normal;font-stretch:normal;font-size:medium;line-height:normal;font-family:sans-serif;font-variant-ligatures:normal;font-variant-position:normal;font-variant-caps:normal;font-variant-numeric:normal;font-variant-alternates:normal;font-feature-settings:normal;text-indent:0;text-align:start;text-decoration:none;text-decoration-line:none;text-decoration-style:solid;text-decoration-color:#000000;letter-spacing:normal;word-spacing:normal;text-transform:none;writing-mode:lr-tb;direction:ltr;text-orientation:mixed;dominant-baseline:auto;baseline-shift:baseline;text-anchor:start;white-space:normal;shape-padding:0;clip-rule:nonzero;display:inline;overflow:visible;visibility:visible;opacity:1;isolation:auto;mix-blend-mode:normal;color-interpolation:sRGB;color-interpolation-filters:linearRGB;solid-color:#000000;solid-opacity:1;vector-effect:none;fill:#336601;fill-opacity:1;fill-rule:nonzero;stroke:none;stroke-width:4.21035957;stroke-linecap:butt;stroke-linejoin:miter;stroke-miterlimit:4;stroke-dasharray:none;stroke-dashoffset:0;stroke-opacity:1;color-rendering:auto;image-rendering:auto;shape-rendering:auto;text-rendering:auto;enable-background:accumulate"
       d="m -14.996279,94.049098 c -5.265317,-0.04037 -10.583334,4.851897 -10.583334,12.331552 0,5.31766 3.590995,11.61172 3.590995,15.96957 0,1.48356 -0.264794,3.63802 -2.929537,3.63802 -3.710959,0 -4.819344,-5.83604 -4.819344,-8.65787 H -33.8003 c 0,6.15157 3.06282,12.72067 8.645984,12.72067 4.664596,0 7.229017,-2.80177 7.229017,-7.41763 0,-6.13997 -3.685564,-12.05318 -3.685564,-16.34733 0,-4.33422 3.036245,-8.268232 6.520016,-8.268232 3.763016,0 5.4808017,4.901652 5.4808017,7.512212 v 19.74556 c -5.2512517,0.96431 -9.2624827,5.58744 -9.2624827,11.10682 0,6.21306 5.08186,11.29491 11.2949166,11.29491 6.2130569,0 11.2949168,-5.08185 11.2949168,-11.29491 0,-5.50657 -3.9930069,-10.1216 -9.2263091,-11.10062 v -19.75176 c 0,-2.61056 1.7177861,-7.512212 5.48080138,-7.512212 3.48377132,0 6.52001592,3.934012 6.52001592,8.268232 0,4.29415 -3.6855638,10.20736 -3.6855638,16.34733 0,4.61586 2.5644236,7.41763 7.2290172,7.41763 5.583166,0 8.645983,-6.5691 8.645983,-12.72067 h -4.062799 c 0,2.82183 -1.108387,8.65787 -4.8193458,8.65787 -2.6647431,0 -2.9295354,-2.15446 -2.9295354,-3.63802 0,-4.35785 3.5909942,-10.65191 3.5909942,-15.96957 0,-7.479655 -5.2929106,-12.331552 -10.58333369,-12.331552 -3.03548251,0 -6.08331841,1.732809 -7.43675481,4.611088 -1.1614414,-2.911962 -4.6053985,-4.58938 -7.4367545,-4.611088 z m 7.4186676,35.249532 c 3.9376085,0 7.08380592,3.1462 7.08380592,7.08381 0,3.93761 -3.14619742,7.0838 -7.08380592,7.0838 -3.9376086,0 -7.0863886,-3.14619 -7.0863886,-7.0838 0,-3.93761 3.14878,-7.08381 7.0863886,-7.08381 z"
       id="path4274"
       inkscape:connector-curvature="0" />
  </g>
</svg>
