<?xml version="1.0" encoding="UTF-8" standalone="no"?>
<!-- Created with Inkscape (http://www.inkscape.org/) -->

<svg
   xmlns:dc="http://purl.org/dc/elements/1.1/"
   xmlns:cc="http://creativecommons.org/ns#"
   xmlns:rdf="http://www.w3.org/1999/02/22-rdf-syntax-ns#"
   xmlns:svg="http://www.w3.org/2000/svg"
   xmlns="http://www.w3.org/2000/svg"
   xmlns:sodipodi="http://sodipodi.sourceforge.net/DTD/sodipodi-0.dtd"
   xmlns:inkscape="http://www.inkscape.org/namespaces/inkscape"
   width="79.375mm"
   height="79.375mm"
   viewBox="0 0 79.375 79.375"
   version="1.1"
   id="svg2563"
   inkscape:version="0.92.2 (5c3e80d, 2017-08-06)"
   sodipodi:docname="Leries.svg"
   inkscape:export-filename="C:\Users\irock\Desktop\Stuff\Images\Homestuck\ezodiac\05 Olive\Derse\Leries.png"
   inkscape:export-xdpi="320"
   inkscape:export-ydpi="320">
  <title
     id="title3128">Leries</title>
  <defs
     id="defs2557" />
  <sodipodi:namedview
     id="base"
     pagecolor="#ffffff"
     bordercolor="#666666"
     borderopacity="1.0"
     inkscape:pageopacity="0.0"
     inkscape:pageshadow="2"
     inkscape:zoom="1.979899"
     inkscape:cx="57.620456"
     inkscape:cy="125.03928"
     inkscape:document-units="mm"
     inkscape:current-layer="layer1"
     showgrid="false" />
  <metadata
     id="metadata2560">
    <rdf:RDF>
      <cc:Work
         rdf:about="">
        <dc:format>image/svg+xml</dc:format>
        <dc:type
           rdf:resource="http://purl.org/dc/dcmitype/StillImage" />
        <dc:title>Leries</dc:title>
      </cc:Work>
    </rdf:RDF>
  </metadata>
  <g
     inkscape:label="Layer 1"
     inkscape:groupmode="layer"
     id="layer1"
     transform="translate(116.03869,-154.50298)">
    <path
       style="color:#000000;font-style:normal;font-variant:normal;font-weight:normal;font-stretch:normal;font-size:medium;line-height:normal;font-family:sans-serif;font-variant-ligatures:normal;font-variant-position:normal;font-variant-caps:normal;font-variant-numeric:normal;font-variant-alternates:normal;font-feature-settings:normal;text-indent:0;text-align:start;text-decoration:none;text-decoration-line:none;text-decoration-style:solid;text-decoration-color:#000000;letter-spacing:normal;word-spacing:normal;text-transform:none;writing-mode:lr-tb;direction:ltr;text-orientation:mixed;dominant-baseline:auto;baseline-shift:baseline;text-anchor:start;white-space:normal;shape-padding:0;clip-rule:nonzero;display:inline;overflow:visible;visibility:visible;opacity:1;isolation:auto;mix-blend-mode:normal;color-interpolation:sRGB;color-interpolation-filters:linearRGB;solid-color:#000000;solid-opacity:1;vector-effect:none;fill:#336601;fill-opacity:1;fill-rule:nonzero;stroke:none;stroke-width:5.03839588;stroke-linecap:butt;stroke-linejoin:miter;stroke-miterlimit:4;stroke-dasharray:none;stroke-dashoffset:0;stroke-opacity:1;color-rendering:auto;image-rendering:auto;shape-rendering:auto;text-rendering:auto;enable-background:accumulate"
       d="m -73.263783,168.84655 c -11.477802,0 -23.15621,8.30694 -23.15621,22.05653 0,12.10878 5.497029,14.61516 5.497029,20.21019 0,2.40419 -1.613242,3.99159 -4.2847,3.99159 -2.933289,0 -5.264816,-3.25424 -6.432166,-5.8769 v 7.75549 c 0,0 3.04372,2.55096 6.743258,2.55096 4.84016,0 8.5602,-2.60359 8.5602,-7.50869 0,-7.99699 -5.347476,-11.71455 -5.347476,-19.96612 0,-11.20537 8.039088,-18.48828 18.509465,-18.48828 9.7053,0 17.387051,8.57908 17.387051,17.29249 0,9.70897 -6.048324,14.83526 -13.040031,14.83526 -1.849433,0 -3.96739,-0.71287 -4.438489,-0.87901 6.912195,-0.3488 12.45712,-6.11067 12.45712,-13.10566 0,-7.21758 -5.90306,-13.12323 -13.120645,-13.12323 -7.186924,0 -13.121163,5.84696 -13.121163,13.03176 0,2.05569 1.231252,6.39747 2.846715,9.19553 2.979293,5.16029 7.451241,9.79453 15.565086,9.79453 9.20914,0 17.576188,-8.41087 17.576188,-18.85492 0,-12.76997 -9.417166,-22.91152 -22.201232,-22.91152 z m -0.665594,14.78359 c 4.494634,0 8.083743,3.58963 8.083746,8.08426 0,4.49464 -3.589112,8.08374 -8.083746,8.08374 -4.494633,0 -8.084261,-3.5891 -8.084261,-8.08374 0,-4.49463 3.589628,-8.08426 8.084261,-8.08426 z"
       id="path3119"
       inkscape:connector-curvature="0"
       sodipodi:nodetypes="ssssccsssssscssssssssssss" />
  </g>
</svg>
