<?xml version="1.0" encoding="UTF-8" standalone="no"?>
<!-- Created with Inkscape (http://www.inkscape.org/) -->

<svg
   xmlns:dc="http://purl.org/dc/elements/1.1/"
   xmlns:cc="http://creativecommons.org/ns#"
   xmlns:rdf="http://www.w3.org/1999/02/22-rdf-syntax-ns#"
   xmlns:svg="http://www.w3.org/2000/svg"
   xmlns="http://www.w3.org/2000/svg"
   xmlns:sodipodi="http://sodipodi.sourceforge.net/DTD/sodipodi-0.dtd"
   xmlns:inkscape="http://www.inkscape.org/namespaces/inkscape"
   width="300"
   height="300"
   viewBox="0 0 300 300"
   version="1.1"
   id="svg8"
   inkscape:version="0.92.2 (5c3e80d, 2017-08-06)"
   sodipodi:docname="Lesci.svg"
   inkscape:export-filename="C:\Users\irock\Desktop\Stuff\Images\Homestuck\ezodiac\05 Olive\Prospit\Lesci.png"
   inkscape:export-xdpi="320"
   inkscape:export-ydpi="320">
  <title
     id="title4262">Lesci</title>
  <defs
     id="defs2" />
  <sodipodi:namedview
     id="base"
     pagecolor="#ffffff"
     bordercolor="#666666"
     borderopacity="1.0"
     inkscape:pageopacity="0.0"
     inkscape:pageshadow="2"
     inkscape:zoom="2.8"
     inkscape:cx="166.40011"
     inkscape:cy="144.13786"
     inkscape:document-units="px"
     inkscape:current-layer="layer1"
     showgrid="false"
     showguides="false"
     units="px"
     inkscape:pagecheckerboard="true"
     inkscape:showpageshadow="false" />
  <metadata
     id="metadata5">
    <rdf:RDF>
      <cc:Work
         rdf:about="">
        <dc:format>image/svg+xml</dc:format>
        <dc:type
           rdf:resource="http://purl.org/dc/dcmitype/StillImage" />
        <dc:title>Lesci</dc:title>
      </cc:Work>
    </rdf:RDF>
  </metadata>
  <g
     inkscape:label="Layer 1"
     inkscape:groupmode="layer"
     id="layer1"
     transform="translate(578.57141,-370.48212)">
    <path
       style="color:#000000;font-style:normal;font-variant:normal;font-weight:normal;font-stretch:normal;font-size:medium;line-height:normal;font-family:sans-serif;font-variant-ligatures:normal;font-variant-position:normal;font-variant-caps:normal;font-variant-numeric:normal;font-variant-alternates:normal;font-feature-settings:normal;text-indent:0;text-align:start;text-decoration:none;text-decoration-line:none;text-decoration-style:solid;text-decoration-color:#000000;letter-spacing:normal;word-spacing:normal;text-transform:none;writing-mode:lr-tb;direction:ltr;text-orientation:mixed;dominant-baseline:auto;baseline-shift:baseline;text-anchor:start;white-space:normal;shape-padding:0;clip-rule:nonzero;display:inline;overflow:visible;visibility:visible;opacity:1;isolation:auto;mix-blend-mode:normal;color-interpolation:sRGB;color-interpolation-filters:linearRGB;solid-color:#000000;solid-opacity:1;vector-effect:none;fill:#336601;fill-opacity:1;fill-rule:nonzero;stroke:none;stroke-width:14.65668869;stroke-linecap:butt;stroke-linejoin:miter;stroke-miterlimit:4;stroke-dasharray:none;stroke-dashoffset:0;stroke-opacity:1;color-rendering:auto;image-rendering:auto;shape-rendering:auto;text-rendering:auto;enable-background:accumulate"
       d="m -397.22083,427.862 c -11.66254,0 -22.14276,8.22194 -26.96289,15.17969 -0.59403,-3.56423 -13.32215,-15.17773 -27.14257,-15.17773 -15.52602,0 -31.7411,12.32972 -31.78516,37.67773 l -0.17968,103.39258 c -0.01,5.61545 -0.2616,25 -8.39258,25 -5.87202,0 -7.67969,-14.30544 -7.67969,-19.82031 v -84.10743 l -14.82031,15.17774 v 64.10742 c 0,29.45253 8.23185,39.64258 22.67773,39.64258 14.9096,0 23.39258,-11.82639 23.39258,-38.39258 V 465.00653 c 0,-8.16583 5.04984,-22.14257 16.78711,-22.14257 10.93677,0 19.64257,12.86446 19.64257,23.75 v 115.71289 h 15.53516 V 465.00653 c 0,-12.49046 9.97917,-21.96484 18.75,-21.96484 9.38289,0 17.67773,8.56949 17.67773,23.21484 v 88.83985 c -12.69637,3.27394 -22.16796,14.86993 -22.16796,28.54101 0,16.18625 13.2786,29.46485 29.46484,29.46485 16.18625,0 29.46484,-13.2786 29.46484,-29.46485 0,-13.58771 -9.35981,-25.12192 -21.93945,-28.47656 v -89.97656 c 0,-22.27136 -14.51794,-37.32227 -32.32227,-37.32227 z m 24.79688,140.9668 c 8.26519,0 14.80859,6.54341 14.80859,14.80859 0,8.26519 -6.5434,14.8086 -14.80859,14.8086 -8.26518,0 -14.80859,-6.54341 -14.80859,-14.8086 0,-8.26518 6.54341,-14.80859 14.80859,-14.80859 z"
       id="path4255"
       inkscape:connector-curvature="0"
       sodipodi:nodetypes="scsssssccssssssccssscssscsssssss" />
  </g>
</svg>
