<?xml version="1.0" encoding="UTF-8" standalone="no"?>
<!-- Created with Inkscape (http://www.inkscape.org/) -->

<svg
   xmlns:dc="http://purl.org/dc/elements/1.1/"
   xmlns:cc="http://creativecommons.org/ns#"
   xmlns:rdf="http://www.w3.org/1999/02/22-rdf-syntax-ns#"
   xmlns:svg="http://www.w3.org/2000/svg"
   xmlns="http://www.w3.org/2000/svg"
   xmlns:sodipodi="http://sodipodi.sourceforge.net/DTD/sodipodi-0.dtd"
   xmlns:inkscape="http://www.inkscape.org/namespaces/inkscape"
   width="300"
   height="300"
   viewBox="0 0 300 300"
   version="1.1"
   id="svg8"
   inkscape:version="0.92.2 (5c3e80d, 2017-08-06)"
   sodipodi:docname="Leus.svg"
   inkscape:export-filename="C:\Users\irock\Desktop\Stuff\Images\Homestuck\ezodiac\05 Olive\Prospit\Leus.png"
   inkscape:export-xdpi="320"
   inkscape:export-ydpi="320">
  <title
     id="title2578">Leus</title>
  <defs
     id="defs2" />
  <sodipodi:namedview
     id="base"
     pagecolor="#ffffff"
     bordercolor="#666666"
     borderopacity="1.0"
     inkscape:pageopacity="0.0"
     inkscape:pageshadow="2"
     inkscape:zoom="1.4"
     inkscape:cx="138.27403"
     inkscape:cy="119.74611"
     inkscape:document-units="px"
     inkscape:current-layer="layer1"
     showgrid="false"
     showguides="false"
     units="px"
     inkscape:pagecheckerboard="true"
     inkscape:showpageshadow="false" />
  <metadata
     id="metadata5">
    <rdf:RDF>
      <cc:Work
         rdf:about="">
        <dc:format>image/svg+xml</dc:format>
        <dc:type
           rdf:resource="http://purl.org/dc/dcmitype/StillImage" />
        <dc:title>Leus</dc:title>
      </cc:Work>
    </rdf:RDF>
  </metadata>
  <g
     inkscape:label="Layer 1"
     inkscape:groupmode="layer"
     id="layer1"
     transform="translate(678.57141,192.37502)">
    <path
       style="color:#000000;font-style:normal;font-variant:normal;font-weight:normal;font-stretch:normal;font-size:medium;line-height:normal;font-family:sans-serif;font-variant-ligatures:normal;font-variant-position:normal;font-variant-caps:normal;font-variant-numeric:normal;font-variant-alternates:normal;font-feature-settings:normal;text-indent:0;text-align:start;text-decoration:none;text-decoration-line:none;text-decoration-style:solid;text-decoration-color:#000000;letter-spacing:normal;word-spacing:normal;text-transform:none;writing-mode:lr-tb;direction:ltr;text-orientation:mixed;dominant-baseline:auto;baseline-shift:baseline;text-anchor:start;white-space:normal;shape-padding:0;clip-rule:nonzero;display:inline;overflow:visible;visibility:visible;opacity:1;isolation:auto;mix-blend-mode:normal;color-interpolation:sRGB;color-interpolation-filters:linearRGB;solid-color:#000000;solid-opacity:1;vector-effect:none;fill:#336601;fill-opacity:1;fill-rule:nonzero;stroke:none;stroke-width:16.14699936;stroke-linecap:butt;stroke-linejoin:miter;stroke-miterlimit:4;stroke-dasharray:none;stroke-dashoffset:0;stroke-opacity:1;color-rendering:auto;image-rendering:auto;shape-rendering:auto;text-rendering:auto;enable-background:accumulate"
       d="m -512.78821,-141.24125 c -2.87467,10.9157 -4.48375,25.48155 0.77149,41.81055 -9.44683,9.596208 -15.29297,22.82817 -15.29297,37.35938 0,19.0961 10.09826,35.9469 25.19336,45.2539 6.73614,7.4306197 9.65039,16.15650974 9.65039,25.5761697 0,23.6227503 -17.85787,31.3046903 -35.59571,31.3046903 -30.53247,0 -50.71289,-15.02214 -50.71289,-34.1074203 0,-15.92092 8.29007,-22.6389497 13.52344,-32.5292997 3.56332,-6.73417 12.72656,-19.83949 12.72656,-36.75586 0,-17.94045 -12.76908,-43.75 -45.17969,-43.75 -22.53472,0 -35.89202,19.154197 -36.42773,44.46289 l 16.42773,0.002 c 0,-10.33744 2.8002,-28.037112 22.14258,-28.037112 15.21137,0 26.96485,13.093422 26.96485,26.072262 0,11.42045 -6.19557,22.04943 -9.50586,28 -8.00944,14.39777 -16.56446,20.78999 -16.56446,41.2851597 0,38.4183703 37.83135,51.7851603 65.89258,51.7851603 41.41773,0 52.5,-29.92291 52.5,-47.1425803 0,-5.69496 -2.162,-15.33023 -2.95507,-18.68946 1.3442,0.10622 2.69961,0.17774 4.07031,0.17774 28.7808,0 52.14844,-23.8577197 52.14844,-52.9081997 0,-14.73604 -6.02118,-28.128788 -15.70313,-37.75586 5.10209,-16.16767 3.5056,-30.58711 0.6543,-41.41407 -4.5407,11.18782 -6.96715,21.17389 -15.78516,30.91797 -6.5107,-2.97917 -13.72007,-4.65429 -21.31445,-4.65429 -7.80789,0 -15.21241,1.7674 -21.86524,4.90625 l 0.14649,-0.10743 c -8.92492,-9.78968 -11.34711,-19.81961 -15.91016,-31.0625 z m 37.62891,42.41016 c 19.90431,0 36.00195,16.28831 36.00195,36.75977 0,20.47146 -16.09764,36.76171 -36.00195,36.76172 -19.90431,0 -36.00391,-16.29026 -36.00391,-36.76172 0,-20.47146 16.0996,-36.75977 36.00391,-36.75977 z"
       id="path2543"
       inkscape:connector-curvature="0" />
  </g>
</svg>
