<?xml version="1.0" encoding="UTF-8" standalone="no"?>
<!-- Created with Inkscape (http://www.inkscape.org/) -->

<svg
   xmlns:dc="http://purl.org/dc/elements/1.1/"
   xmlns:cc="http://creativecommons.org/ns#"
   xmlns:rdf="http://www.w3.org/1999/02/22-rdf-syntax-ns#"
   xmlns:svg="http://www.w3.org/2000/svg"
   xmlns="http://www.w3.org/2000/svg"
   xmlns:sodipodi="http://sodipodi.sourceforge.net/DTD/sodipodi-0.dtd"
   xmlns:inkscape="http://www.inkscape.org/namespaces/inkscape"
   width="79.375mm"
   height="79.375mm"
   viewBox="0 0 79.375 79.375"
   version="1.1"
   id="svg8"
   inkscape:version="0.92.2 (5c3e80d, 2017-08-06)"
   sodipodi:docname="Leza.svg"
   inkscape:export-filename="C:\Users\irock\Desktop\Stuff\Images\Homestuck\ezodiac\05 Olive\Derse\Leza.png"
   inkscape:export-xdpi="320"
   inkscape:export-ydpi="320">
  <title
     id="title836">Leza</title>
  <defs
     id="defs2" />
  <sodipodi:namedview
     id="base"
     pagecolor="#ffffff"
     bordercolor="#666666"
     borderopacity="1.0"
     inkscape:pageopacity="0.0"
     inkscape:pageshadow="2"
     inkscape:zoom="2.8"
     inkscape:cx="114.01291"
     inkscape:cy="141.16532"
     inkscape:document-units="mm"
     inkscape:current-layer="layer1"
     showgrid="false" />
  <metadata
     id="metadata5">
    <rdf:RDF>
      <cc:Work
         rdf:about="">
        <dc:format>image/svg+xml</dc:format>
        <dc:type
           rdf:resource="http://purl.org/dc/dcmitype/StillImage" />
        <dc:title>Leza</dc:title>
      </cc:Work>
    </rdf:RDF>
  </metadata>
  <g
     inkscape:label="Layer 1"
     inkscape:groupmode="layer"
     id="layer1"
     transform="translate(119.0625,-193.05655)">
    <path
       style="color:#000000;font-style:normal;font-variant:normal;font-weight:normal;font-stretch:normal;font-size:medium;line-height:normal;font-family:sans-serif;font-variant-ligatures:normal;font-variant-position:normal;font-variant-caps:normal;font-variant-numeric:normal;font-variant-alternates:normal;font-feature-settings:normal;text-indent:0;text-align:start;text-decoration:none;text-decoration-line:none;text-decoration-style:solid;text-decoration-color:#000000;letter-spacing:normal;word-spacing:normal;text-transform:none;writing-mode:lr-tb;direction:ltr;text-orientation:mixed;dominant-baseline:auto;baseline-shift:baseline;text-anchor:start;white-space:normal;shape-padding:0;clip-rule:nonzero;display:inline;overflow:visible;visibility:visible;opacity:1;isolation:auto;mix-blend-mode:normal;color-interpolation:sRGB;color-interpolation-filters:linearRGB;solid-color:#000000;solid-opacity:1;vector-effect:none;fill:#336601;fill-opacity:1;fill-rule:nonzero;stroke:none;stroke-width:4.24037266;stroke-linecap:butt;stroke-linejoin:miter;stroke-miterlimit:4;stroke-dasharray:none;stroke-dashoffset:0;stroke-opacity:1;color-rendering:auto;image-rendering:auto;shape-rendering:auto;text-rendering:auto;enable-background:accumulate"
       d="m -84.408544,210.11933 c -6.454169,0 -7.842811,5.83012 -7.84293,8.69352 -2.22e-4,5.29356 2.606521,13.04159 2.973977,16.94212 -1.434017,-0.73298 -3.055262,-1.1498 -4.768701,-1.1498 -5.747994,0 -10.476362,4.66096 -10.476362,10.38283 0,5.72187 4.728368,10.38076 10.476362,10.38076 5.747993,0 10.476364,-4.65889 10.476364,-10.38076 0,-2.42405 -1.518502,-9.79177 -2.560865,-14.74742 -0.734348,-3.49128 -1.963406,-8.20342 -1.963406,-10.86084 0,-2.13165 0.5985,-5.15007 3.685561,-5.15007 3.984024,0 5.102532,5.65572 5.102532,10.58178 v 6.14381 h 4.180623 v -6.14381 c 0,-4.92606 1.118507,-10.58178 5.102531,-10.58178 3.087061,0 3.685046,3.01842 3.685046,5.15007 0,2.65742 -1.322256,6.79139 -1.915645,10.19938 -0.911457,5.23475 -2.525426,11.66366 -2.525426,15.73909 0,5.83419 3.386119,9.72085 8.570018,9.72085 4.347149,0 7.981426,-2.98873 7.981426,-7.70185 0,-2.16599 -0.345631,-4.53945 -0.647507,-4.93872 h -4.232299 c 0,0 1.004589,2.93191 1.004589,4.44469 0,2.97531 -2.234113,4.34501 -4.168738,4.24005 -2.282598,-0.12384 -4.263821,-1.61742 -4.263821,-5.47511 0,-3.31001 0.74115,-7.04424 1.284157,-10.54251 0.845696,-5.44828 3.071353,-10.95079 3.071133,-16.25276 -1.19e-4,-2.8634 -1.388764,-8.69352 -7.842933,-8.69352 -5.088366,0 -7.192843,4.67723 -7.192843,4.67723 0,0 -2.104477,-4.67723 -7.192843,-4.67723 z m -9.637654,28.72589 c 3.482239,0 6.236313,2.73879 6.236313,6.14278 0,3.40399 -2.754074,6.14071 -6.236313,6.14071 -3.48224,0 -6.236312,-2.73672 -6.236312,-6.14071 0,-3.40399 2.754072,-6.14278 6.236312,-6.14278 z"
       id="path826"
       inkscape:connector-curvature="0"
       sodipodi:nodetypes="sscssssssssccsssssssccsssssscssssss" />
  </g>
</svg>
