<?xml version="1.0" encoding="UTF-8" standalone="no"?>
<!-- Created with Inkscape (http://www.inkscape.org/) -->

<svg
   xmlns:dc="http://purl.org/dc/elements/1.1/"
   xmlns:cc="http://creativecommons.org/ns#"
   xmlns:rdf="http://www.w3.org/1999/02/22-rdf-syntax-ns#"
   xmlns:svg="http://www.w3.org/2000/svg"
   xmlns="http://www.w3.org/2000/svg"
   xmlns:sodipodi="http://sodipodi.sourceforge.net/DTD/sodipodi-0.dtd"
   xmlns:inkscape="http://www.inkscape.org/namespaces/inkscape"
   width="79.375mm"
   height="79.375mm"
   viewBox="0 0 79.375 79.375"
   version="1.1"
   id="svg19469"
   inkscape:version="0.92.2 (5c3e80d, 2017-08-06)"
   sodipodi:docname="Gemgo.svg"
   inkscape:export-filename="C:\Users\irock\Desktop\Stuff\Images\Homestuck\ezodiac\03 Gold\Prospit\Gemgo.png"
   inkscape:export-xdpi="320"
   inkscape:export-ydpi="320">
  <title
     id="title20039">Gemgo</title>
  <defs
     id="defs19463" />
  <sodipodi:namedview
     id="base"
     pagecolor="#ffffff"
     bordercolor="#666666"
     borderopacity="1.0"
     inkscape:pageopacity="0.0"
     inkscape:pageshadow="2"
     inkscape:zoom="1.979899"
     inkscape:cx="134.08245"
     inkscape:cy="153.87783"
     inkscape:document-units="mm"
     inkscape:current-layer="layer1"
     showgrid="false" />
  <metadata
     id="metadata19466">
    <rdf:RDF>
      <cc:Work
         rdf:about="">
        <dc:format>image/svg+xml</dc:format>
        <dc:type
           rdf:resource="http://purl.org/dc/dcmitype/StillImage" />
        <dc:title>Gemgo</dc:title>
      </cc:Work>
    </rdf:RDF>
  </metadata>
  <g
     inkscape:label="Layer 1"
     inkscape:groupmode="layer"
     id="layer1"
     transform="translate(78.04068,-108.71064)">
    <path
       style="color:#000000;font-style:normal;font-variant:normal;font-weight:normal;font-stretch:normal;font-size:medium;line-height:normal;font-family:sans-serif;font-variant-ligatures:normal;font-variant-position:normal;font-variant-caps:normal;font-variant-numeric:normal;font-variant-alternates:normal;font-feature-settings:normal;text-indent:0;text-align:start;text-decoration:none;text-decoration-line:none;text-decoration-style:solid;text-decoration-color:#000000;letter-spacing:normal;word-spacing:normal;text-transform:none;writing-mode:lr-tb;direction:ltr;text-orientation:mixed;dominant-baseline:auto;baseline-shift:baseline;text-anchor:start;white-space:normal;shape-padding:0;clip-rule:nonzero;display:inline;overflow:visible;visibility:visible;opacity:1;isolation:auto;mix-blend-mode:normal;color-interpolation:sRGB;color-interpolation-filters:linearRGB;solid-color:#000000;solid-opacity:1;vector-effect:none;fill:#a1a101;fill-opacity:1;fill-rule:nonzero;stroke:none;stroke-width:3.86715007;stroke-linecap:butt;stroke-linejoin:miter;stroke-miterlimit:4;stroke-dasharray:none;stroke-dashoffset:0;stroke-opacity:1;color-rendering:auto;image-rendering:auto;shape-rendering:auto;text-rendering:auto;enable-background:accumulate"
       d="m -59.518554,125.28922 c -0.0068,0.25119 -0.01137,0.50315 -0.01137,0.75602 -8.1e-5,9.92864 5.2424,18.61978 12.853478,22.35264 -7.611261,3.73274 -12.853559,12.42431 -12.853478,22.35315 3e-6,0.25287 0.0046,0.50483 0.01137,0.75603 h 2.361096 1.511019 34.586518 2.881479 0.990637 c 0.0068,-0.2512 0.01137,-0.50317 0.01137,-0.75603 7.9e-5,-9.92864 -5.242402,-18.61978 -12.85348,-22.35264 7.611261,-3.73274 12.853559,-12.42431 12.85348,-22.35315 -3e-6,-0.25287 -0.0046,-0.50483 -0.01137,-0.75602 h -2.361096 -1.51102 -34.586518 -2.881478 z m 4.045748,3.78012 h 34.239252 c -1.225841,9.81021 -8.324042,17.16234 -16.714742,17.39274 -0.134609,-0.003 -0.269351,-0.006 -0.404625,-0.006 -0.135622,-10e-6 -0.270705,0.003 -0.405661,0.006 -8.390382,-0.23066 -15.488249,-7.58295 -16.714224,-17.39274 z m 16.714742,21.26485 c 0.13461,0.003 0.269351,0.006 0.404625,0.006 0.135623,0 0.270706,-0.003 0.405662,-0.006 8.390382,0.23066 15.48825,7.58295 16.714223,17.39274 h -34.239252 c 1.225843,-9.81022 8.324043,-17.16234 16.714742,-17.39274 z"
       id="path20025"
       inkscape:connector-curvature="0" />
  </g>
</svg>
