<?xml version="1.0" encoding="UTF-8" standalone="no"?>
<!-- Created with Inkscape (http://www.inkscape.org/) -->

<svg
   xmlns:dc="http://purl.org/dc/elements/1.1/"
   xmlns:cc="http://creativecommons.org/ns#"
   xmlns:rdf="http://www.w3.org/1999/02/22-rdf-syntax-ns#"
   xmlns:svg="http://www.w3.org/2000/svg"
   xmlns="http://www.w3.org/2000/svg"
   xmlns:sodipodi="http://sodipodi.sourceforge.net/DTD/sodipodi-0.dtd"
   xmlns:inkscape="http://www.inkscape.org/namespaces/inkscape"
   width="79.375mm"
   height="79.375mm"
   viewBox="0 0 79.375 79.375"
   version="1.1"
   id="svg14272"
   inkscape:version="0.92.2 (5c3e80d, 2017-08-06)"
   sodipodi:docname="Gemino.svg"
   inkscape:export-filename="C:\Users\irock\Desktop\Stuff\Images\Homestuck\ezodiac\03 Gold\Prospit\Gemino.png"
   inkscape:export-xdpi="320"
   inkscape:export-ydpi="320">
  <title
     id="title14845">Gemino</title>
  <defs
     id="defs14266" />
  <sodipodi:namedview
     id="base"
     pagecolor="#ffffff"
     bordercolor="#666666"
     borderopacity="1.0"
     inkscape:pageopacity="0.0"
     inkscape:pageshadow="2"
     inkscape:zoom="1.979899"
     inkscape:cx="124.00133"
     inkscape:cy="154.51353"
     inkscape:document-units="mm"
     inkscape:current-layer="layer1"
     showgrid="false" />
  <metadata
     id="metadata14269">
    <rdf:RDF>
      <cc:Work
         rdf:about="">
        <dc:format>image/svg+xml</dc:format>
        <dc:type
           rdf:resource="http://purl.org/dc/dcmitype/StillImage" />
        <dc:title>Gemino</dc:title>
      </cc:Work>
    </rdf:RDF>
  </metadata>
  <g
     inkscape:label="Layer 1"
     inkscape:groupmode="layer"
     id="layer1"
     transform="translate(49.514881,-42.622025)">
    <path
       style="color:#000000;font-style:normal;font-variant:normal;font-weight:normal;font-stretch:normal;font-size:medium;line-height:normal;font-family:sans-serif;font-variant-ligatures:normal;font-variant-position:normal;font-variant-caps:normal;font-variant-numeric:normal;font-variant-alternates:normal;font-feature-settings:normal;text-indent:0;text-align:start;text-decoration:none;text-decoration-line:none;text-decoration-style:solid;text-decoration-color:#000000;letter-spacing:normal;word-spacing:normal;text-transform:none;writing-mode:lr-tb;direction:ltr;text-orientation:mixed;dominant-baseline:auto;baseline-shift:baseline;text-anchor:start;white-space:normal;shape-padding:0;clip-rule:nonzero;display:inline;overflow:visible;visibility:visible;opacity:1;isolation:auto;mix-blend-mode:normal;color-interpolation:sRGB;color-interpolation-filters:linearRGB;solid-color:#000000;solid-opacity:1;vector-effect:none;fill:#a1a101;fill-opacity:1;fill-rule:nonzero;stroke:none;stroke-width:3.8539207;stroke-linecap:butt;stroke-linejoin:miter;stroke-miterlimit:4;stroke-dasharray:none;stroke-dashoffset:0;stroke-opacity:1;color-rendering:auto;image-rendering:auto;shape-rendering:auto;text-rendering:auto;enable-background:accumulate"
       d="m -30.574177,56.18399 c -2.596749,2.427697 -7.172913,6.321188 -8.886796,13.831197 l 8.502324,7.23315 c -0.228721,1.641017 -0.350366,3.357658 -0.350366,5.128368 0,1.727518 0.114858,3.404093 0.332796,5.008997 l -8.484754,7.218164 c 1.713883,7.510004 6.290047,11.403494 8.886796,13.831194 l 1.670699,-1.87069 c -2.654708,-1.93937 -4.97014,-5.27438 -6.347932,-10.356987 l 5.217769,-4.296375 c 0.48123,1.670706 1.089263,3.214788 1.810742,4.594555 1.957582,3.743687 4.92848,6.515357 8.626863,6.515357 3.698383,0 6.67135,-2.77167 8.628931,-6.515357 0.425955,-0.81461 0.810101,-1.689131 1.1544508,-2.61018 0.3443446,0.921017 0.728509,1.7956 1.1544512,2.61018 1.9575832,3.743687 4.9300314,6.515357 8.62841425,6.515357 3.69838545,0 6.66979915,-2.77167 8.62737975,-6.515357 0.7186851,-1.37442 1.324192,-2.912191 1.804543,-4.575436 l 5.194514,4.277256 C 14.218857,101.28999 11.903941,104.625 9.2492333,106.56437 l 1.6701827,1.87069 c 2.596747,-2.4277 7.172912,-6.32119 8.886795,-13.831194 l -8.458917,-7.19646 c 0.21988,-1.61153 0.335897,-3.295338 0.335897,-5.030701 0,-1.77856 -0.122759,-3.502464 -0.353465,-5.150072 l 8.476485,-7.211446 C 18.092328,62.50518 13.516163,58.61169 10.919416,56.18399 l -1.6701827,1.871203 c 2.6547077,1.93937 4.9696237,5.273862 6.3474147,10.356474 l -5.227071,4.304646 C 9.8943192,71.095185 9.3005678,69.593783 8.597591,68.249403 6.6400104,64.505705 3.6685967,61.734038 -0.02978875,61.734038 c -3.69838285,0 -6.67083105,2.771667 -8.62841425,6.515365 -0.4259422,0.814577 -0.8101066,1.689302 -1.1544512,2.610175 -0.3443498,-0.920903 -0.7284958,-1.795574 -1.1544508,-2.610175 -1.957581,-3.743698 -4.930548,-6.515365 -8.628931,-6.515365 -3.698383,0 -6.669281,2.771667 -8.626863,6.515365 -0.70577,1.349722 -1.302004,2.857487 -1.778186,4.486031 l -5.250325,-4.323767 c 1.377792,-5.082615 3.693224,-8.417616 6.347932,-10.356991 z m 10.978141,9.40356 c 1.706788,0 3.821264,1.323671 5.21312,4.447274 1.877177,4.212752 2.638597,8.412724 2.638597,12.341881 0,3.929158 -0.908304,8.981403 -2.638597,12.341884 -1.565444,3.040324 -3.506332,4.448824 -5.21312,4.448824 -1.706787,0 -3.628011,-1.41844 -5.212601,-4.448824 -1.584589,-3.030384 -2.646867,-7.445708 -2.646867,-12.341884 0,-4.896172 1.062278,-9.311497 2.646867,-12.341881 1.58459,-3.030385 3.505814,-4.447274 5.212601,-4.447274 z m 19.56624725,0 c 1.70678735,0 3.62853015,1.416889 5.21311975,4.447274 1.5845896,3.030384 2.6463492,7.445709 2.6463492,12.341881 0,4.896176 -1.0617596,9.3115 -2.6463492,12.341884 -1.5845896,3.030384 -3.5063324,4.448824 -5.21311975,4.448824 -1.70678735,0 -3.81981335,-1.32564 -5.21260115,-4.448824 -1.8845874,-4.225994 -2.6385996,-8.430178 -2.6385996,-12.341884 0,-3.911705 0.9108017,-8.986607 2.6385996,-12.341881 1.5655766,-3.040251 3.5058138,-4.447274 5.21260115,-4.447274 z"
       id="path14828"
       inkscape:connector-curvature="0"
       sodipodi:nodetypes="cccsccccccsssccscccccccsccccccssccsssccccsszsssssssssssszss" />
  </g>
</svg>
