<?xml version="1.0" encoding="UTF-8" standalone="no"?>
<!-- Created with Inkscape (http://www.inkscape.org/) -->

<svg
   xmlns:dc="http://purl.org/dc/elements/1.1/"
   xmlns:cc="http://creativecommons.org/ns#"
   xmlns:rdf="http://www.w3.org/1999/02/22-rdf-syntax-ns#"
   xmlns:svg="http://www.w3.org/2000/svg"
   xmlns="http://www.w3.org/2000/svg"
   xmlns:sodipodi="http://sodipodi.sourceforge.net/DTD/sodipodi-0.dtd"
   xmlns:inkscape="http://www.inkscape.org/namespaces/inkscape"
   width="79.375mm"
   height="79.375mm"
   viewBox="0 0 79.375 79.375"
   version="1.1"
   id="svg17726"
   inkscape:version="0.92.2 (5c3e80d, 2017-08-06)"
   sodipodi:docname="Gemittanius.svg"
   inkscape:export-filename="C:\Users\irock\Desktop\Stuff\Images\Homestuck\ezodiac\03 Gold\Prospit\Gemittanius.png"
   inkscape:export-xdpi="320"
   inkscape:export-ydpi="320">
  <title
     id="title18305">Gemittanius</title>
  <defs
     id="defs17720" />
  <sodipodi:namedview
     id="base"
     pagecolor="#ffffff"
     bordercolor="#666666"
     borderopacity="1.0"
     inkscape:pageopacity="0.0"
     inkscape:pageshadow="2"
     inkscape:zoom="1.979899"
     inkscape:cx="70.909646"
     inkscape:cy="161.28383"
     inkscape:document-units="mm"
     inkscape:current-layer="layer1"
     showgrid="false" />
  <metadata
     id="metadata17723">
    <rdf:RDF>
      <cc:Work
         rdf:about="">
        <dc:format>image/svg+xml</dc:format>
        <dc:type
           rdf:resource="http://purl.org/dc/dcmitype/StillImage" />
        <dc:title>Gemittanius</dc:title>
      </cc:Work>
    </rdf:RDF>
  </metadata>
  <g
     inkscape:label="Layer 1"
     inkscape:groupmode="layer"
     id="layer1"
     transform="translate(79.777931,-101.89527)">
    <path
       style="fill:#a1a101;fill-opacity:1;stroke:none;stroke-width:3.74511504;stroke-linecap:butt;stroke-miterlimit:4;stroke-dasharray:none;stroke-opacity:0.72361809"
       d="m -71.208427,121.02485 c 1.889226,2.67662 6.870382,10.13645 6.870382,20.55792 0,10.42147 -4.981156,17.88129 -6.870382,20.55791 h 4.775419 c 1.693019,-2.72241 5.623681,-9.53695 6.126241,-18.63452 h 40.43319 c 0.50256,9.09757 4.433221,15.91211 6.126242,18.63452 h 4.7749002 c -1.8892252,-2.67662 -6.8703792,-10.13644 -6.8703792,-20.55791 0,-10.42147 4.981154,-17.88129 6.8703792,-20.5579 h -4.7749002 c -1.690082,2.71769 -5.609587,9.51362 -6.123141,18.58747 h -11.079943 c 0.567621,-9.38906 5.042556,-16.08277 6.810436,-18.58747 h -4.774901 c -1.690082,2.71769 -5.60959,9.51362 -6.123141,18.58747 H -45.14232 c -0.51355,-9.07385 -4.433059,-15.86978 -6.123138,-18.58747 h -4.77542 c 1.76788,2.5047 6.242815,9.19841 6.810436,18.58747 h -11.079426 c -0.513552,-9.07385 -4.433059,-15.86978 -6.12314,-18.58747 z"
       id="rect18282"
       inkscape:connector-curvature="0"
       inkscape:export-xdpi="320"
       inkscape:export-ydpi="320" />
  </g>
</svg>
