<?xml version="1.0" encoding="UTF-8" standalone="no"?>
<!-- Created with Inkscape (http://www.inkscape.org/) -->

<svg
   xmlns:dc="http://purl.org/dc/elements/1.1/"
   xmlns:cc="http://creativecommons.org/ns#"
   xmlns:rdf="http://www.w3.org/1999/02/22-rdf-syntax-ns#"
   xmlns:svg="http://www.w3.org/2000/svg"
   xmlns="http://www.w3.org/2000/svg"
   xmlns:sodipodi="http://sodipodi.sourceforge.net/DTD/sodipodi-0.dtd"
   xmlns:inkscape="http://www.inkscape.org/namespaces/inkscape"
   width="79.375mm"
   height="79.375mm"
   viewBox="0 0 79.375 79.375"
   version="1.1"
   id="svg9632"
   inkscape:version="0.92.2 (5c3e80d, 2017-08-06)"
   sodipodi:docname="Gemrius.svg"
   inkscape:export-filename="C:\Users\irock\Desktop\Stuff\Images\Homestuck\ezodiac\03 Gold\Derse\Gemrius.png"
   inkscape:export-xdpi="320"
   inkscape:export-ydpi="320">
  <title
     id="title10202">Gemrius</title>
  <defs
     id="defs9626" />
  <sodipodi:namedview
     id="base"
     pagecolor="#ffffff"
     bordercolor="#666666"
     borderopacity="1.0"
     inkscape:pageopacity="0.0"
     inkscape:pageshadow="2"
     inkscape:zoom="1.979899"
     inkscape:cx="141.64328"
     inkscape:cy="155.64191"
     inkscape:document-units="mm"
     inkscape:current-layer="layer1"
     showgrid="false" />
  <metadata
     id="metadata9629">
    <rdf:RDF>
      <cc:Work
         rdf:about="">
        <dc:format>image/svg+xml</dc:format>
        <dc:type
           rdf:resource="http://purl.org/dc/dcmitype/StillImage" />
        <dc:title>Gemrius</dc:title>
      </cc:Work>
    </rdf:RDF>
  </metadata>
  <g
     inkscape:label="Layer 1"
     inkscape:groupmode="layer"
     id="layer1"
     transform="translate(125.86607,-108.38988)">
    <path
       style="fill:#a1a101;fill-opacity:1;stroke:none;stroke-width:0.26458332px;stroke-linecap:butt;stroke-linejoin:miter;stroke-opacity:1"
       d="m -98.817072,124.29226 v 5.94692 c 1.75921,1.75922 4.002083,4.3883 5.588805,8.04189 -5.118748,-1.50005 -8.615943,-4.41104 -10.788483,-6.58358 h -5.94693 c 1.93279,3.34768 7.57733,9.4354 18.172018,11.08563 0.343104,1.61837 0.544153,3.37933 0.544153,5.29425 0,1.9962 -0.216234,3.82717 -0.586528,5.50147 -10.567373,1.65985 -16.199433,7.7357 -18.129643,11.07891 h 5.94693 c 2.15834,-2.15833 5.624552,-5.0451 10.688748,-6.5536 -1.579949,3.53476 -3.766786,6.08912 -5.48907,7.81141 v 5.94692 c 2.958375,-1.70802 8.0571,-6.31485 10.34252,-14.67404 0.740223,-0.0642 1.5043,-0.10025 2.295983,-0.10025 0.767355,0 1.508263,0.0347 2.227255,0.0951 2.28473,8.36247 7.385084,12.97084 10.34407,14.67921 v -5.94692 c -1.726025,-1.72603 -3.918672,-4.28795 -5.499404,-7.83467 5.10649,1.50199 8.596908,4.40751 10.766269,6.57686 h 5.946923 c -1.934385,-3.35045 -7.587189,-9.44554 -18.198891,-11.08976 -0.36884,-1.67138 -0.584459,-3.49871 -0.584459,-5.49062 0,-1.91067 0.200377,-3.66798 0.542086,-5.2834 10.639084,-1.63451 16.304302,-7.74156 18.241264,-11.09648 h -5.946923 c -2.183511,2.1835 -5.704433,5.11359 -10.865488,6.60683 1.587286,-3.66564 3.835702,-6.30221 5.598623,-8.06514 v -5.94692 c -2.982912,1.72219 -8.141401,6.39244 -10.398331,14.88385 -0.702162,0.0575 -1.424847,0.091 -2.172994,0.091 -0.772475,0 -1.518253,-0.0349 -2.241722,-0.0961 -2.257655,-8.4881 -7.414479,-13.15685 -10.396781,-14.87868 z m 11.192598,18.88825 c 0.474355,0.0176 0.955074,0.0289 1.445905,0.0289 0.467199,0 0.925947,-0.009 1.378212,-0.0253 -0.204729,1.53083 -0.318844,3.15932 -0.318844,4.89324 0,1.80994 0.123613,3.50647 0.345715,5.0953 -0.461052,-0.0166 -0.928494,-0.0269 -1.405083,-0.0269 -0.500208,0 -0.989679,0.0117 -1.472776,0.03 0.222379,-1.58974 0.346231,-3.28726 0.346231,-5.0984 0,-1.73528 -0.114327,-3.36498 -0.31936,-4.89686 z"
       id="path10190"
       inkscape:connector-curvature="0" />
  </g>
</svg>
