<?xml version="1.0" encoding="UTF-8" standalone="no"?>
<!-- Created with Inkscape (http://www.inkscape.org/) -->

<svg
   xmlns:dc="http://purl.org/dc/elements/1.1/"
   xmlns:cc="http://creativecommons.org/ns#"
   xmlns:rdf="http://www.w3.org/1999/02/22-rdf-syntax-ns#"
   xmlns:svg="http://www.w3.org/2000/svg"
   xmlns="http://www.w3.org/2000/svg"
   xmlns:sodipodi="http://sodipodi.sourceforge.net/DTD/sodipodi-0.dtd"
   xmlns:inkscape="http://www.inkscape.org/namespaces/inkscape"
   width="79.375mm"
   height="79.375mm"
   viewBox="0 0 79.375 79.375"
   version="1.1"
   id="svg15426"
   inkscape:version="0.92.2 (5c3e80d, 2017-08-06)"
   sodipodi:docname="Gemrist.svg"
   inkscape:export-filename="C:\Users\irock\Desktop\Stuff\Images\Homestuck\ezodiac\03 Gold\Prospit\Gemrist.png"
   inkscape:export-xdpi="320"
   inkscape:export-ydpi="320">
  <title
     id="title15987">Gemrist</title>
  <defs
     id="defs15420" />
  <sodipodi:namedview
     id="base"
     pagecolor="#ffffff"
     bordercolor="#666666"
     borderopacity="1.0"
     inkscape:pageopacity="0.0"
     inkscape:pageshadow="2"
     inkscape:zoom="2.8"
     inkscape:cx="155.526"
     inkscape:cy="138.27377"
     inkscape:document-units="mm"
     inkscape:current-layer="layer1"
     showgrid="false" />
  <metadata
     id="metadata15423">
    <rdf:RDF>
      <cc:Work
         rdf:about="">
        <dc:format>image/svg+xml</dc:format>
        <dc:type
           rdf:resource="http://purl.org/dc/dcmitype/StillImage" />
        <dc:title>Gemrist</dc:title>
      </cc:Work>
    </rdf:RDF>
  </metadata>
  <g
     inkscape:label="Layer 1"
     inkscape:groupmode="layer"
     id="layer1"
     transform="translate(58.019344,-103.66518)">
    <path
       style="fill:#a1a101;fill-opacity:1;stroke:none;stroke-width:0.26458332px;stroke-linecap:butt;stroke-linejoin:miter;stroke-opacity:1"
       d="m -35.718896,122.94204 c -5.251068,0 -11.212137,4.35315 -12.643155,5.95312 v 6.42545 c 2.036479,-1.83955 5.457469,-8.03207 12.832291,-8.03207 8.488005,0 9.968899,11.09488 9.968899,15.02492 0,2.60296 -0.160369,4.5932 -0.484206,6.21151 -1.953519,-0.84469 -4.221712,-1.43971 -6.744292,-1.43971 -5.019898,0 -12.378572,3.1278 -12.378572,10.25261 0,3.70474 4.04032,6.42545 7.276041,6.42545 4.071061,0 9.330324,-2.77155 12.236462,-6.32675 0.748638,-0.91584 1.369332,-1.8286 1.886191,-2.77606 3.434498,2.77157 5.437394,6.17379 5.437394,6.17379 0,0 2.002895,-3.40222 5.437393,-6.17379 0.516859,0.94746 1.137553,1.86022 1.886191,2.77606 2.9061379,3.5552 8.165401,6.32675 12.23646,6.32675 3.2357218,0 7.2760416,-2.72071 7.2760416,-6.42545 0,-7.12481 -7.3586736,-10.25261 -12.3785708,-10.25261 -2.5225798,0 -4.7907733,0.59502 -6.7442918,1.43971 -0.323837,-1.61831 -0.484206,-3.60855 -0.484206,-6.21151 0,-3.93004 1.4808932,-15.02492 9.9688985,-15.02492 7.3748211,0 10.7958121,6.19252 12.8322915,8.03207 v -6.42545 c -1.431017,-1.59997 -7.3920879,-5.95312 -12.6431568,-5.95312 -10.5288652,0 -14.1743262,10.56516 -14.1743262,20.03288 0,3.08778 0.198488,5.5544 0.710549,7.69617 -2.504728,1.77731 -3.923273,3.54862 -3.923273,3.54862 0,0 -1.418546,-1.77131 -3.923274,-3.54862 0.512061,-2.14177 0.710549,-4.60839 0.710549,-7.69617 0,-9.46772 -3.645461,-20.03288 -14.174328,-20.03288 z m 3.024105,28.20654 c 1.910367,0 3.676019,0.47175 5.26893,1.20613 -0.791051,1.39414 -1.835219,2.5705 -3.141411,3.98322 -1.808799,1.95631 -6.333297,3.26853 -7.294645,3.26853 -1.298501,0 -3.376538,-1.18022 -3.376538,-2.63756 0,-2.12549 3.453953,-5.82032 8.543664,-5.82032 z m 28.7258954,0 c 5.0897101,0 8.543663,3.69483 8.543663,5.82032 0,1.45734 -2.0780375,2.63756 -3.3765384,2.63756 -0.96134767,0 -5.4858443,-1.31222 -7.2946444,-3.26853 -1.3061924,-1.41272 -2.3503599,-2.58908 -3.1414112,-3.98322 1.5929108,-0.73438 3.3585626,-1.20613 5.268931,-1.20613 z"
       id="path15982"
       inkscape:connector-curvature="0" />
  </g>
</svg>
