<?xml version="1.0" encoding="UTF-8" standalone="no"?>
<!-- Created with Inkscape (http://www.inkscape.org/) -->

<svg
   xmlns:dc="http://purl.org/dc/elements/1.1/"
   xmlns:cc="http://creativecommons.org/ns#"
   xmlns:rdf="http://www.w3.org/1999/02/22-rdf-syntax-ns#"
   xmlns:svg="http://www.w3.org/2000/svg"
   xmlns="http://www.w3.org/2000/svg"
   xmlns:sodipodi="http://sodipodi.sourceforge.net/DTD/sodipodi-0.dtd"
   xmlns:inkscape="http://www.inkscape.org/namespaces/inkscape"
   width="79.375mm"
   height="79.375mm"
   viewBox="0 0 79.375 79.375"
   version="1.1"
   id="svg15995"
   inkscape:version="0.92.2 (5c3e80d, 2017-08-06)"
   sodipodi:docname="Gemsci.svg"
   inkscape:export-filename="C:\Users\irock\Desktop\Stuff\Images\Homestuck\ezodiac\03 Gold\Prospit\Gemsci.png"
   inkscape:export-xdpi="320"
   inkscape:export-ydpi="320">
  <title
     id="title16563">Gemsci</title>
  <defs
     id="defs15989" />
  <sodipodi:namedview
     id="base"
     pagecolor="#ffffff"
     bordercolor="#666666"
     borderopacity="1.0"
     inkscape:pageopacity="0.0"
     inkscape:pageshadow="2"
     inkscape:zoom="1.979899"
     inkscape:cx="81.792266"
     inkscape:cy="121.79043"
     inkscape:document-units="mm"
     inkscape:current-layer="layer1"
     showgrid="false" />
  <metadata
     id="metadata15992">
    <rdf:RDF>
      <cc:Work
         rdf:about="">
        <dc:format>image/svg+xml</dc:format>
        <dc:type
           rdf:resource="http://purl.org/dc/dcmitype/StillImage" />
        <dc:title>Gemsci</dc:title>
      </cc:Work>
    </rdf:RDF>
  </metadata>
  <g
     inkscape:label="Layer 1"
     inkscape:groupmode="layer"
     id="layer1"
     transform="translate(64.810837,-99.088936)">
    <path
       style="fill:#a1a101;fill-opacity:1;stroke:none;stroke-width:0.26458332px;stroke-linecap:butt;stroke-linejoin:miter;stroke-opacity:1"
       d="m -27.09066,112.39407 v 16.80673 c -8.719545,-0.29976 -15.534551,-2.56259 -19.913512,-5.17643 v 4.44107 c 4.566461,2.52777 9.859745,4.47834 19.913512,4.70204 v 11.66802 c -10.053767,0.2237 -15.347051,2.17479 -19.913512,4.70256 v 4.44107 c 4.378959,-2.61384 11.193975,-4.87667 19.913512,-5.17643 v 16.35611 h 3.969784 v -16.35508 c 8.702638,0.30465 15.5053246,2.56509 19.8783737,5.1754 v -4.44107 c -4.5612922,-2.52491 -9.8467547,-4.47469 -19.8783737,-4.70204 v -11.66906 c 10.031616,-0.22735 15.3170815,-2.17662 19.8783737,-4.70152 v -4.44107 c -4.3730491,2.61031 -11.1757377,4.87024 -19.8783737,5.17488 v -16.80518 z"
       id="path16553"
       inkscape:connector-curvature="0" />
  </g>
</svg>
