<?xml version="1.0" encoding="UTF-8" standalone="no"?>
<!-- Created with Inkscape (http://www.inkscape.org/) -->

<svg
   xmlns:dc="http://purl.org/dc/elements/1.1/"
   xmlns:cc="http://creativecommons.org/ns#"
   xmlns:rdf="http://www.w3.org/1999/02/22-rdf-syntax-ns#"
   xmlns:svg="http://www.w3.org/2000/svg"
   xmlns="http://www.w3.org/2000/svg"
   xmlns:sodipodi="http://sodipodi.sourceforge.net/DTD/sodipodi-0.dtd"
   xmlns:inkscape="http://www.inkscape.org/namespaces/inkscape"
   width="79.375mm"
   height="79.375mm"
   viewBox="0 0 79.375 79.375"
   version="1.1"
   id="svg9041"
   inkscape:version="0.92.2 (5c3e80d, 2017-08-06)"
   sodipodi:docname="Gemsces.svg"
   inkscape:export-filename="C:\Users\irock\Desktop\Stuff\Images\Homestuck\ezodiac\03 Gold\Derse\Gemsces.png"
   inkscape:export-xdpi="320"
   inkscape:export-ydpi="320">
  <title
     id="title9624">Gemsces</title>
  <defs
     id="defs9035" />
  <sodipodi:namedview
     id="base"
     pagecolor="#ffffff"
     bordercolor="#666666"
     borderopacity="1.0"
     inkscape:pageopacity="0.0"
     inkscape:pageshadow="2"
     inkscape:zoom="1.4"
     inkscape:cx="43.185911"
     inkscape:cy="152.79196"
     inkscape:document-units="mm"
     inkscape:current-layer="layer1"
     showgrid="false" />
  <metadata
     id="metadata9038">
    <rdf:RDF>
      <cc:Work
         rdf:about="">
        <dc:format>image/svg+xml</dc:format>
        <dc:type
           rdf:resource="http://purl.org/dc/dcmitype/StillImage" />
        <dc:title>Gemsces</dc:title>
      </cc:Work>
    </rdf:RDF>
  </metadata>
  <g
     inkscape:label="Layer 1"
     inkscape:groupmode="layer"
     id="layer1"
     transform="translate(-43.467262,-16.919643)">
    <path
       style="fill:#a1a101;fill-opacity:1;stroke:none;stroke-width:0.26458332px;stroke-linecap:butt;stroke-linejoin:miter;stroke-opacity:1"
       d="m 69.598486,37.888906 c -1.734174,0 -2.775071,0.851947 -3.79615,1.813327 -1.273095,1.19866 -2.541964,3.666006 -2.541964,4.588867 -0.751062,-3.936188 -1.305416,-4.36278 -1.813326,-5.293217 h -4.009057 c 3.107795,3.649008 2.425175,12.450738 2.425175,14.718482 v 21.58266 h 3.386874 v -23.11125 c 0,-2.58344 0.722215,-4.834451 1.912028,-6.905522 0.777108,-1.352688 2.419587,-3.351216 3.267501,-3.351216 0.694049,0 1.011824,1.511346 1.011824,2.272213 v 31.095775 h 3.54552 v -22.87819 c 0,-1.605748 0.641195,-4.82502 1.75687,-6.931268 0.714531,-1.348936 1.511504,-3.424688 3.040253,-3.424688 0.953976,0 1.283109,0.84405 1.302763,5.389039 l 0.120407,27.845107 h 3.386357 v -23.11125 c 0,-2.58344 0.722215,-4.834451 1.912027,-6.905522 0.777108,-1.352688 2.419588,-3.351216 3.2675,-3.351216 0.694051,0 1.011826,1.511346 1.011826,2.272213 v 31.095775 h 3.545519 V 52.607904 c 0,-2.270559 0.624047,-4.797301 1.68982,-6.901386 0.717187,-1.4159 1.578554,-3.608049 3.107303,-3.608049 0.670491,0 1.200839,1.199793 1.21181,1.970939 l 0.367423,25.821164 c 0.02267,1.594122 1.366601,5.434808 4.376481,5.434808 h 4.23643 l 1.55184,-3.069063 h -4.44882 c -1.12781,0 -2.43758,-1.49202 -2.43758,-2.269628 V 44.2911 c 0,-5.292482 -2.404297,-6.368604 -3.554823,-6.368604 -2.617417,0 -5.032148,2.723123 -6.443533,6.387207 -0.433836,-3.84377 -1.337958,-6.420797 -3.044258,-6.420797 -1.734174,0 -2.775588,0.851947 -3.796667,1.813327 -1.273096,1.19866 -2.541448,3.666006 -2.541448,4.588867 0,-5.292482 -2.400681,-6.368604 -3.551204,-6.368604 -2.602081,0 -5.002903,2.692075 -6.417696,6.323646 -0.43671,-3.807545 -1.340424,-6.357236 -3.037025,-6.357236 z"
       id="path9607"
       inkscape:connector-curvature="0"
       sodipodi:nodetypes="sscccsccssssccsassccssssccssssssccsssscsscscs" />
  </g>
</svg>
