<?xml version="1.0" encoding="UTF-8" standalone="no"?>
<!-- Created with Inkscape (http://www.inkscape.org/) -->

<svg
   xmlns:dc="http://purl.org/dc/elements/1.1/"
   xmlns:cc="http://creativecommons.org/ns#"
   xmlns:rdf="http://www.w3.org/1999/02/22-rdf-syntax-ns#"
   xmlns:svg="http://www.w3.org/2000/svg"
   xmlns="http://www.w3.org/2000/svg"
   xmlns:sodipodi="http://sodipodi.sourceforge.net/DTD/sodipodi-0.dtd"
   xmlns:inkscape="http://www.inkscape.org/namespaces/inkscape"
   width="300"
   height="300"
   viewBox="0 0 300 300"
   version="1.1"
   id="svg8"
   inkscape:version="0.92.2 (5c3e80d, 2017-08-06)"
   sodipodi:docname="Aquaga.svg"
   inkscape:export-filename="C:\Users\irock\Desktop\Stuff\Images\Homestuck\ezodiac\11 Violet\Derse\Aquaga.png"
   inkscape:export-xdpi="320"
   inkscape:export-ydpi="320">
  <title
     id="title3724">Aquaga</title>
  <defs
     id="defs2" />
  <sodipodi:namedview
     id="base"
     pagecolor="#ffffff"
     bordercolor="#666666"
     borderopacity="1.0"
     inkscape:pageopacity="0.0"
     inkscape:pageshadow="2"
     inkscape:zoom="1.979899"
     inkscape:cx="110.09432"
     inkscape:cy="205.59114"
     inkscape:document-units="px"
     inkscape:current-layer="layer1"
     showgrid="false"
     showguides="false"
     units="px"
     inkscape:pagecheckerboard="true"
     inkscape:showpageshadow="false" />
  <metadata
     id="metadata5">
    <rdf:RDF>
      <cc:Work
         rdf:about="">
        <dc:format>image/svg+xml</dc:format>
        <dc:type
           rdf:resource="http://purl.org/dc/dcmitype/StillImage" />
        <dc:title>Aquaga</dc:title>
      </cc:Work>
    </rdf:RDF>
  </metadata>
  <g
     inkscape:label="Layer 1"
     inkscape:groupmode="layer"
     id="layer1"
     transform="translate(515.71429,586.66071)">
    <path
       style="fill:#6a016a;fill-opacity:1;stroke:none;stroke-width:1px;stroke-linecap:butt;stroke-linejoin:miter;stroke-opacity:1"
       d="m -462.4721,-532.35993 v 17.76367 c 40.87254,17.42779 51.50586,54.72333 51.50586,77.93555 0,23.21222 -10.63332,60.50776 -51.50586,77.93555 v 17.76367 c 21.92737,-7.31129 38.4778,-20.72621 49.6875,-37.21484 l 31.86328,-27.84961 v 41.69726 l 48.75,-41.07226 v 40.89257 l 63.21484,-53.66015 v -19.64258 l -47.94726,40.98242 v -41.69726 l -49.01758,41.78711 v -41.33985 l -32.40234,27.33594 c 2.1054,-8.47881 3.16211,-17.20474 3.16211,-25.91797 0,-9.01254 -1.13612,-18.03893 -3.38868,-26.79101 l 17.62891,-15.69922 v 41.69726 l 48.75,-41.07226 v 40.89257 l 63.21484,-53.66015 v -19.64258 l -47.94726,40.98242 v -41.69726 l -49.01758,41.78711 v -41.33985 l -38.0293,32.08399 c -10.34802,-23.67848 -29.83911,-43.67662 -58.52148,-53.24024 z"
       id="path3709"
       inkscape:connector-curvature="0" />
  </g>
</svg>
