<?xml version="1.0" encoding="UTF-8" standalone="no"?>
<!-- Created with Inkscape (http://www.inkscape.org/) -->

<svg
   xmlns:dc="http://purl.org/dc/elements/1.1/"
   xmlns:cc="http://creativecommons.org/ns#"
   xmlns:rdf="http://www.w3.org/1999/02/22-rdf-syntax-ns#"
   xmlns:svg="http://www.w3.org/2000/svg"
   xmlns="http://www.w3.org/2000/svg"
   xmlns:sodipodi="http://sodipodi.sourceforge.net/DTD/sodipodi-0.dtd"
   xmlns:inkscape="http://www.inkscape.org/namespaces/inkscape"
   width="300"
   height="300"
   viewBox="0 0 300 300"
   version="1.1"
   id="svg8"
   inkscape:version="0.92.2 (5c3e80d, 2017-08-06)"
   sodipodi:docname="Aquaza.svg"
   inkscape:export-filename="C:\Users\irock\Desktop\Stuff\Images\Homestuck\ezodiac\11 Violet\Derse\Aquaza.png"
   inkscape:export-xdpi="320"
   inkscape:export-ydpi="320">
  <title
     id="title3148">Aquaza</title>
  <defs
     id="defs2" />
  <sodipodi:namedview
     id="base"
     pagecolor="#ffffff"
     bordercolor="#666666"
     borderopacity="1.0"
     inkscape:pageopacity="0.0"
     inkscape:pageshadow="2"
     inkscape:zoom="1.979899"
     inkscape:cx="140.77497"
     inkscape:cy="133.67656"
     inkscape:document-units="px"
     inkscape:current-layer="layer1"
     showgrid="false"
     showguides="false"
     units="px"
     inkscape:pagecheckerboard="true"
     inkscape:showpageshadow="false" />
  <metadata
     id="metadata5">
    <rdf:RDF>
      <cc:Work
         rdf:about="">
        <dc:format>image/svg+xml</dc:format>
        <dc:type
           rdf:resource="http://purl.org/dc/dcmitype/StillImage" />
        <dc:title>Aquaza</dc:title>
      </cc:Work>
    </rdf:RDF>
  </metadata>
  <g
     inkscape:label="Layer 1"
     inkscape:groupmode="layer"
     id="layer1"
     transform="translate(404.28571,26.660734)">
    <path
       style="fill:#6a016a;fill-opacity:1;stroke:none;stroke-width:24.66753006;stroke-linecap:butt;stroke-miterlimit:4;stroke-dasharray:none;stroke-opacity:0.57788942"
       d="m -357.96637,60.354889 c 0,23.00043 1.64948,38.474004 8.78125,49.789061 5.94628,9.43419 20.55563,14.85938 31.84375,14.85938 12.83488,0 24.7924,-5.25252 31.7793,-16.06836 6.63753,11.54395 19.0906,16.06836 32.02148,16.06836 12.94256,0 24.99995,-5.33312 31.96094,-16.33399 6.96099,11.00087 19.01838,16.33399 31.96094,16.33399 11.28812,0 24.64747,-5.60292 30.59375,-15.03711 7.13177,-11.315057 8.96093,-26.610901 8.96093,-49.611331 h -17.29687 c 0,17.56426 1.18785,48.865231 -21.04883,48.865231 -22.23668,0 -25.2168,-21.068831 -25.2168,-48.865231 h -17.6914 c 0,27.7964 -1.19496,48.865231 -23.43164,48.865231 -22.23668,0 -22.65625,-31.300971 -22.65625,-48.865231 h -17.71289 c 0,27.7964 -1.19301,48.865231 -23.42969,48.865231 -22.23668,0 -22.65821,-31.300971 -22.65821,-48.865231 z m -0.54102,76.650391 v 16.2832 h 207.19336 v -16.2832 z m 0,32.67969 v 16.63867 h 207.19336 v -16.63867 z"
       id="rect3134"
       inkscape:connector-curvature="0" />
  </g>
</svg>
