<?xml version="1.0" encoding="UTF-8" standalone="no"?>
<!-- Created with Inkscape (http://www.inkscape.org/) -->

<svg
   xmlns:dc="http://purl.org/dc/elements/1.1/"
   xmlns:cc="http://creativecommons.org/ns#"
   xmlns:rdf="http://www.w3.org/1999/02/22-rdf-syntax-ns#"
   xmlns:svg="http://www.w3.org/2000/svg"
   xmlns="http://www.w3.org/2000/svg"
   xmlns:sodipodi="http://sodipodi.sourceforge.net/DTD/sodipodi-0.dtd"
   xmlns:inkscape="http://www.inkscape.org/namespaces/inkscape"
   width="300"
   height="300"
   viewBox="0 0 300 300"
   version="1.1"
   id="svg8"
   inkscape:version="0.92.2 (5c3e80d, 2017-08-06)"
   sodipodi:docname="Aquamino.svg"
   inkscape:export-filename="C:\Users\irock\Desktop\Stuff\Images\Homestuck\ezodiac\11 Violet\Prospit\Aquamino.png"
   inkscape:export-xdpi="320"
   inkscape:export-ydpi="320">
  <title
     id="title5491">Aquamino</title>
  <defs
     id="defs2" />
  <sodipodi:namedview
     id="base"
     pagecolor="#ffffff"
     bordercolor="#666666"
     borderopacity="1.0"
     inkscape:pageopacity="0.0"
     inkscape:pageshadow="2"
     inkscape:zoom="1.979899"
     inkscape:cx="142.00886"
     inkscape:cy="193.65493"
     inkscape:document-units="px"
     inkscape:current-layer="layer1"
     showgrid="false"
     showguides="false"
     units="px"
     inkscape:pagecheckerboard="true"
     inkscape:showpageshadow="false" />
  <metadata
     id="metadata5">
    <rdf:RDF>
      <cc:Work
         rdf:about="">
        <dc:format>image/svg+xml</dc:format>
        <dc:type
           rdf:resource="http://purl.org/dc/dcmitype/StillImage" />
        <dc:title>Aquamino</dc:title>
      </cc:Work>
    </rdf:RDF>
  </metadata>
  <g
     inkscape:label="Layer 1"
     inkscape:groupmode="layer"
     id="layer1"
     transform="translate(44.285713,398.08929)">
    <path
       style="fill:#6a016a;fill-opacity:1;stroke:none;stroke-width:14.83300018;stroke-linecap:butt;stroke-miterlimit:4;stroke-dasharray:none;stroke-opacity:0.57788942"
       d="m 75.986747,-345.83539 45.392583,38.34375 -52.693363,44.50977 23.9082,20.19727 c -19.52461,5.73159 -33.85742,23.89139 -33.85742,45.2754 0,25.94853 21.09681,47.16601 46.976563,47.16601 25.87976,0 46.97852,-21.21748 46.97852,-47.16601 0,-23.6919 -17.59049,-43.43162 -40.34766,-46.6875 l -22.240233,-18.78711 52.693353,-44.50977 -45.392573,-38.3418 z m 29.726563,115.18165 c 18.26546,0 32.95508,14.73864 32.95508,33.14453 0,18.40589 -14.68962,33.14257 -32.95508,33.14257 -18.265453,0 -32.953123,-14.73668 -32.953123,-33.14257 0,-18.40589 14.68767,-33.14453 32.953123,-33.14453 z"
       id="rect5476"
       inkscape:connector-curvature="0" />
  </g>
</svg>
