<?xml version="1.0" encoding="UTF-8" standalone="no"?>
<!-- Created with Inkscape (http://www.inkscape.org/) -->

<svg
   xmlns:dc="http://purl.org/dc/elements/1.1/"
   xmlns:cc="http://creativecommons.org/ns#"
   xmlns:rdf="http://www.w3.org/1999/02/22-rdf-syntax-ns#"
   xmlns:svg="http://www.w3.org/2000/svg"
   xmlns="http://www.w3.org/2000/svg"
   xmlns:sodipodi="http://sodipodi.sourceforge.net/DTD/sodipodi-0.dtd"
   xmlns:inkscape="http://www.inkscape.org/namespaces/inkscape"
   width="300"
   height="300"
   viewBox="0 0 300 300"
   version="1.1"
   id="svg8"
   inkscape:version="0.92.2 (5c3e80d, 2017-08-06)"
   sodipodi:docname="Aquasces.svg"
   inkscape:export-filename="C:\Users\irock\Desktop\Stuff\Images\Homestuck\ezodiac\11 Violet\Derse\Aquasces.png"
   inkscape:export-xdpi="320"
   inkscape:export-ydpi="320">
  <title
     id="title7258">Aquasces</title>
  <defs
     id="defs2" />
  <sodipodi:namedview
     id="base"
     pagecolor="#ffffff"
     bordercolor="#666666"
     borderopacity="1.0"
     inkscape:pageopacity="0.0"
     inkscape:pageshadow="2"
     inkscape:zoom="1.979899"
     inkscape:cx="105.42156"
     inkscape:cy="183.16506"
     inkscape:document-units="px"
     inkscape:current-layer="layer1"
     showgrid="false"
     showguides="false"
     units="px"
     inkscape:pagecheckerboard="true"
     inkscape:showpageshadow="false" />
  <metadata
     id="metadata5">
    <rdf:RDF>
      <cc:Work
         rdf:about="">
        <dc:format>image/svg+xml</dc:format>
        <dc:type
           rdf:resource="http://purl.org/dc/dcmitype/StillImage" />
        <dc:title>Aquasces</dc:title>
      </cc:Work>
    </rdf:RDF>
  </metadata>
  <g
     inkscape:label="Layer 1"
     inkscape:groupmode="layer"
     id="layer1"
     transform="translate(1258.5714,-790.48212)">
    <path
       style="fill:#6a016a;fill-opacity:1;stroke:none;stroke-width:13.97709084;stroke-linecap:butt;stroke-miterlimit:4;stroke-dasharray:none;stroke-opacity:0.57788942"
       d="m -1148.1652,855.1872 c -20.6905,0 -33.1425,14.02628 -38.1347,29.79883 h 15.1523 c 2.7582,-6.65305 9.8071,-14.37891 23.8809,-14.37891 28.8668,0 31.3726,26.89329 31.541,41.04297 v 47.80664 h 14.0371 v -47.72461 c 0.1602,-14.12864 2.6213,-41.125 31.541,-41.125 14.0738,0 21.1227,7.72586 23.8809,14.37891 h 15.1523 c -4.9922,-15.77255 -17.4422,-29.79883 -38.1328,-29.79883 -18.3363,0 -30.6519,7.90096 -39.459,22.60156 -8.8071,-14.7006 -21.1226,-22.60156 -39.459,-22.60156 z m -36.3652,121.59765 -44.3613,48.99215 h 19.4785 l 30.2441,-33.40034 30.2461,33.40034 h 10.2227 l 30.1289,-33.27339 30.1309,33.27339 h 10.2226 l 30.2422,-33.39839 30.2441,33.39839 h 19.48051 l -44.36331,-48.99214 h -10.7226 l -29.9942,33.12304 -29.9922,-33.12304 h -10.4941 l -29.9941,33.12494 -29.9961,-33.12494 z"
       id="rect7220"
       inkscape:connector-curvature="0" />
  </g>
</svg>
