<?xml version="1.0" encoding="UTF-8" standalone="no"?>
<!-- Created with Inkscape (http://www.inkscape.org/) -->

<svg
   xmlns:dc="http://purl.org/dc/elements/1.1/"
   xmlns:cc="http://creativecommons.org/ns#"
   xmlns:rdf="http://www.w3.org/1999/02/22-rdf-syntax-ns#"
   xmlns:svg="http://www.w3.org/2000/svg"
   xmlns="http://www.w3.org/2000/svg"
   xmlns:sodipodi="http://sodipodi.sourceforge.net/DTD/sodipodi-0.dtd"
   xmlns:inkscape="http://www.inkscape.org/namespaces/inkscape"
   width="300"
   height="300"
   viewBox="0 0 300 300"
   version="1.1"
   id="svg8"
   inkscape:version="0.92.2 (5c3e80d, 2017-08-06)"
   sodipodi:docname="Aqualo.svg"
   inkscape:export-filename="C:\Users\irock\Desktop\Stuff\Images\Homestuck\ezodiac\11 Violet\Prospit\Aqualo.png"
   inkscape:export-xdpi="320"
   inkscape:export-ydpi="320">
  <title
     id="title4332">Aqualo</title>
  <defs
     id="defs2" />
  <sodipodi:namedview
     id="base"
     pagecolor="#ffffff"
     bordercolor="#666666"
     borderopacity="1.0"
     inkscape:pageopacity="0.0"
     inkscape:pageshadow="2"
     inkscape:zoom="2.5966667"
     inkscape:cx="181.99337"
     inkscape:cy="191.49353"
     inkscape:document-units="px"
     inkscape:current-layer="layer1"
     showgrid="false"
     showguides="false"
     units="px"
     inkscape:pagecheckerboard="true"
     inkscape:showpageshadow="false" />
  <metadata
     id="metadata5">
    <rdf:RDF>
      <cc:Work
         rdf:about="">
        <dc:format>image/svg+xml</dc:format>
        <dc:type
           rdf:resource="http://purl.org/dc/dcmitype/StillImage" />
        <dc:title>Aqualo</dc:title>
      </cc:Work>
    </rdf:RDF>
  </metadata>
  <g
     inkscape:label="Layer 1"
     inkscape:groupmode="layer"
     id="layer1"
     transform="translate(-201.42857,-336.19641)">
    <path
       style="fill:#6a016a;fill-opacity:1;stroke:none;stroke-width:1px;stroke-linecap:butt;stroke-linejoin:miter;stroke-opacity:1"
       d="m 280.744,406.9884 c -8.13162,18.32896 -27.59598,51.38571 -44.22656,54.96484 v 15.41993 c 19.06319,-1.86304 35.55248,-23.65446 46.35547,-42.53711 3.39321,20.19995 11.67279,42.67968 30.75,42.67968 20.62424,0 38.47189,-23.98355 49.73242,-44.00976 3.25074,20.5293 11.47201,44.00976 30.96875,44.00976 19.20696,0 36.00484,-20.80348 47.31836,-39.83789 h -17.64258 c -8.68462,12.73413 -19.28811,24.54883 -28.80664,24.54883 -18.90303,0 -19.977,-49.67113 -18.92578,-55.23828 h -15.40039 c -2.34351,4.73559 -26.69056,55.23828 -46.37305,55.23828 -15.53135,0 -19.30429,-34.13988 -18.92578,-55.23828 z m 171.33399,30.68945 c -3.82788,12.57639 -33.95588,113.05078 -65.05469,113.05078 -19.17535,0 -21.74653,-50.76097 -20.69531,-56.32812 h -15.4004 c -2.3435,4.73559 -27.19135,55.23828 -46.37304,55.23828 -16.22628,0 -20.40324,-39.13915 -18.92578,-55.23828 h -14.42383 c -5.87103,11.83726 -20.12625,39.28109 -34.6875,50.41016 v 17.21093 c 14.82583,-6.77898 27.54034,-24.25955 36.41601,-39.77343 3.39322,20.19995 11.67282,42.67968 30.75,42.67968 20.62425,0 38.4719,-23.98355 49.73243,-44.00976 3.25074,20.5293 12.08507,44.48633 33.89648,44.48633 44.46597,0 75.33484,-113.60911 79.02734,-127.72657 z"
       id="path4311"
       inkscape:connector-curvature="0" />
  </g>
</svg>
