<?xml version="1.0" encoding="UTF-8" standalone="no"?>
<!-- Created with Inkscape (http://www.inkscape.org/) -->

<svg
   xmlns:dc="http://purl.org/dc/elements/1.1/"
   xmlns:cc="http://creativecommons.org/ns#"
   xmlns:rdf="http://www.w3.org/1999/02/22-rdf-syntax-ns#"
   xmlns:svg="http://www.w3.org/2000/svg"
   xmlns="http://www.w3.org/2000/svg"
   xmlns:sodipodi="http://sodipodi.sourceforge.net/DTD/sodipodi-0.dtd"
   xmlns:inkscape="http://www.inkscape.org/namespaces/inkscape"
   width="300"
   height="300"
   viewBox="0 0 300 300"
   version="1.1"
   id="svg8"
   inkscape:version="0.92.2 (5c3e80d, 2017-08-06)"
   sodipodi:docname="Aquasci.svg"
   inkscape:export-filename="C:\Users\irock\Desktop\Stuff\Images\Homestuck\ezodiac\11 Violet\Prospit\Aquasci.png"
   inkscape:export-xdpi="320"
   inkscape:export-ydpi="320">
  <title
     id="title7242">Aquasci</title>
  <defs
     id="defs2" />
  <sodipodi:namedview
     id="base"
     pagecolor="#ffffff"
     bordercolor="#666666"
     borderopacity="1.0"
     inkscape:pageopacity="0.0"
     inkscape:pageshadow="2"
     inkscape:zoom="1.979899"
     inkscape:cx="177.57004"
     inkscape:cy="140.86229"
     inkscape:document-units="px"
     inkscape:current-layer="layer1"
     showgrid="false"
     showguides="false"
     units="px"
     inkscape:pagecheckerboard="true"
     inkscape:showpageshadow="false" />
  <metadata
     id="metadata5">
    <rdf:RDF>
      <cc:Work
         rdf:about="">
        <dc:format>image/svg+xml</dc:format>
        <dc:type
           rdf:resource="http://purl.org/dc/dcmitype/StillImage" />
        <dc:title>Aquasci</dc:title>
      </cc:Work>
    </rdf:RDF>
  </metadata>
  <g
     inkscape:label="Layer 1"
     inkscape:groupmode="layer"
     id="layer1"
     transform="translate(678.57141,192.37502)">
    <path
       style="fill:#6a016a;fill-opacity:1;stroke:none;stroke-width:14.54029179;stroke-linecap:butt;stroke-miterlimit:4;stroke-dasharray:none;stroke-opacity:0.54773865"
       d="m -605.94446,-129.13966 v 107.738275 l -37.98633,65.79101 h 92.54298 l -39.4668,-68.36133 v -89.246085 c 40.33636,9.6509 47.29102,102.542955 47.29102,157.607415 h 15.33007 c 0,-94.92962 -16.7389,-128.32815 -24.64843,-143.51367 -14.03269,-26.941385 -35.73978,-30.015615 -37.97266,-30.015615 z m 77.03516,0 c 0,94.929615 16.74086,128.328145 24.65039,143.513665 14.03269,26.94137 35.73782,30.01562 37.97071,30.01562 h 15.08984 v -107.73828 l 37.98633,-65.791005 H -505.755 l 39.4668,68.361315 v 89.2461 c -40.33636,-9.6509 -47.29102,-102.54296 -47.29102,-157.607415 z m 49.28907,15.08983 h 40.27148 l -20.13672,34.875005 z m -118.03712,108.474615 20.13477,34.875 h -40.27149 z"
       id="rect7219"
       inkscape:connector-curvature="0" />
  </g>
</svg>
