<?xml version="1.0" encoding="UTF-8" standalone="no"?>
<!-- Created with Inkscape (http://www.inkscape.org/) -->

<svg
   xmlns:dc="http://purl.org/dc/elements/1.1/"
   xmlns:cc="http://creativecommons.org/ns#"
   xmlns:rdf="http://www.w3.org/1999/02/22-rdf-syntax-ns#"
   xmlns:svg="http://www.w3.org/2000/svg"
   xmlns="http://www.w3.org/2000/svg"
   xmlns:sodipodi="http://sodipodi.sourceforge.net/DTD/sodipodi-0.dtd"
   xmlns:inkscape="http://www.inkscape.org/namespaces/inkscape"
   width="300"
   height="300"
   viewBox="0 0 300 300"
   version="1.1"
   id="svg8"
   inkscape:version="0.92.2 (5c3e80d, 2017-08-06)"
   sodipodi:docname="Aquicorn.svg"
   inkscape:export-filename="C:\Users\irock\Desktop\Stuff\Images\Homestuck\ezodiac\11 Violet\Prospit\Aquicorn.png"
   inkscape:export-xdpi="320"
   inkscape:export-ydpi="320">
  <title
     id="title1419">Aquicorn</title>
  <defs
     id="defs2" />
  <sodipodi:namedview
     id="base"
     pagecolor="#ffffff"
     bordercolor="#666666"
     borderopacity="1.0"
     inkscape:pageopacity="0.0"
     inkscape:pageshadow="2"
     inkscape:zoom="1.979899"
     inkscape:cx="142.13923"
     inkscape:cy="183.26325"
     inkscape:document-units="px"
     inkscape:current-layer="layer1"
     showgrid="false"
     showguides="false"
     units="px"
     inkscape:pagecheckerboard="true"
     inkscape:showpageshadow="false" />
  <metadata
     id="metadata5">
    <rdf:RDF>
      <cc:Work
         rdf:about="">
        <dc:format>image/svg+xml</dc:format>
        <dc:type
           rdf:resource="http://purl.org/dc/dcmitype/StillImage" />
        <dc:title>Aquicorn</dc:title>
      </cc:Work>
    </rdf:RDF>
  </metadata>
  <g
     inkscape:label="Layer 1"
     inkscape:groupmode="layer"
     id="layer1"
     transform="translate(678.57141,192.37502)">
    <path
       style="fill:#6a016a;fill-opacity:1;stroke:none;stroke-width:1px;stroke-linecap:butt;stroke-linejoin:miter;stroke-opacity:1"
       d="m -582.39367,-132.65823 -54.61133,91.167975 h 19.38281 l 40.84765,-67.933595 c 3.54701,25.773835 13.80381,67.672295 37.13868,101.755855 -20.36449,24.1791 -46.86852,38.4668 -78.9336,38.4668 v 17.10938 c 40.09659,0 69.13856,-17.31801 89.99805,-41.23828 20.85953,23.92057 49.90113,41.23828 89.99805,41.23828 v -17.10938 c -32.06414,0 -58.56739,-14.28703 -78.93164,-38.46484 23.33529,-34.08373 33.58968,-75.98376 37.13672,-101.757815 l 40.84765,67.933595 h 19.38281 l -54.61132,-91.167975 h -18.81446 c -4.60794,43.067285 -16.49345,81.314185 -35.00781,109.966805 -18.51415,-28.65255 -30.3999,-66.89981 -35.00781,-109.966805 z"
       id="path1414"
       inkscape:connector-curvature="0" />
  </g>
</svg>
